<?xml version="1.0" encoding="utf-8"?>
<!-- Generator: Adobe Illustrator 27.5.0, SVG Export Plug-In . SVG Version: 6.00 Build 0)  -->
<svg version="1.1" id="Layer_1" xmlns="http://www.w3.org/2000/svg" xmlns:xlink="http://www.w3.org/1999/xlink" x="0px" y="0px"
	 viewBox="0 0 1364 960" style="enable-background:new 0 0 1364 960;" xml:space="preserve">
<g>
	<g>
		<g>
			<g>
				<g>
					<g>
						<path style="fill:#EDEDED;" d="M405.284,178.983h265.084c0,0-24.072-10.275-48.144-8.22c0,0-1.174-20.402-19.228-29.796
							c-18.054-9.394-33.025,4.844-33.025,4.844s-13.21-25.246-39.484-17.76c-26.274,7.486-28.182,25.686-28.182,25.686
							s-14.531-8.66-27.448-2.055c-12.917,6.605-17.76,19.962-17.76,19.962S422.604,172.525,405.284,178.983z"/>
					</g>
				</g>
			</g>
		</g>
		<g>
			<g>
				<g>
					<path style="fill:#EDEDED;" d="M868.735,184.839h259.539c0,0-23.568-10.06-47.137-8.048c0,0-1.15-19.976-18.826-29.173
						c-17.676-9.197-32.335,4.742-32.335,4.742s-12.934-24.718-38.658-17.389c-25.724,7.329-27.592,25.149-27.592,25.149
						s-14.227-8.479-26.874-2.012c-12.646,6.467-17.389,19.544-17.389,19.544S885.693,178.516,868.735,184.839z"/>
				</g>
			</g>
		</g>
		<g>
			<g>
				<g>
					<g>
						<path style="fill:#EDEDED;" d="M713.593,149.776h154.411c0,0-14.022-5.985-28.044-4.788c0,0-0.684-11.884-11.2-17.356
							c-10.516-5.472-19.237,2.821-19.237,2.821s-7.695-14.706-22.999-10.345c-15.304,4.36-16.416,14.962-16.416,14.962
							s-8.464-5.044-15.988-1.197c-7.524,3.848-10.345,11.628-10.345,11.628S723.682,146.014,713.593,149.776z"/>
					</g>
				</g>
			</g>
		</g>
		<g>
			<g>
				<g>
					<g>
						
							<ellipse transform="matrix(0.3827 -0.9239 0.9239 0.3827 242.2726 626.7069)" style="fill:#FFDD48;" cx="590.103" cy="132.06" rx="32.66" ry="32.66"/>
					</g>
				</g>
			</g>
			<g>
				<g>
					<g>
						<g>
							<path style="fill:#000003;" d="M518.495,160.757c-0.408,0-0.792-0.252-0.939-0.658c-0.189-0.519,0.079-1.093,0.598-1.281
								l28.423-10.346c0.517-0.188,1.092,0.078,1.281,0.598c0.189,0.519-0.079,1.093-0.598,1.281l-28.423,10.346
								C518.724,160.737,518.608,160.757,518.495,160.757z"/>
						</g>
					</g>
				</g>
				<g>
					<g>
						<g>
							<path style="fill:#000003;" d="M588.424,91.134c-0.552,0-1-0.447-1-1V59.887c0-0.553,0.448-1,1-1s1,0.447,1,1v30.247
								C589.424,90.687,588.976,91.134,588.424,91.134z"/>
						</g>
					</g>
				</g>
				<g>
					<g>
						<g>
							<path style="fill:#000003;" d="M622.261,106.912c-0.285,0-0.569-0.121-0.767-0.357c-0.355-0.423-0.3-1.054,0.124-1.408
								l23.171-19.442c0.422-0.354,1.054-0.301,1.409,0.123c0.355,0.423,0.3,1.054-0.123,1.408l-23.171,19.442
								C622.716,106.835,622.488,106.912,622.261,106.912z"/>
						</g>
					</g>
				</g>
				<g>
					<g>
						<g>
							<path style="fill:#000003;" d="M661.712,148.227c-0.058,0-0.116-0.005-0.175-0.016l-29.788-5.252
								c-0.544-0.096-0.907-0.614-0.811-1.158c0.096-0.544,0.611-0.906,1.159-0.811l29.788,5.252
								c0.544,0.096,0.907,0.614,0.811,1.158C662.61,147.886,662.188,148.227,661.712,148.227z"/>
						</g>
					</g>
				</g>
				<g>
					<g>
						<g>
							<path style="fill:#000003;" d="M625.634,199.752c-0.346,0-0.682-0.179-0.867-0.5l-15.124-26.195
								c-0.276-0.479-0.112-1.09,0.366-1.366c0.479-0.277,1.089-0.112,1.366,0.366l15.123,26.195
								c0.276,0.479,0.112,1.09-0.366,1.366C625.975,199.709,625.803,199.752,625.634,199.752z"/>
						</g>
					</g>
				</g>
				<g>
					<g>
						<g>
							<path style="fill:#000003;" d="M562.972,205.233c-0.114,0-0.229-0.02-0.342-0.061c-0.519-0.188-0.787-0.763-0.598-1.281
								l10.345-28.423c0.188-0.52,0.764-0.786,1.281-0.598c0.519,0.189,0.787,0.763,0.598,1.281l-10.345,28.423
								C563.764,204.981,563.38,205.233,562.972,205.233z"/>
						</g>
					</g>
				</g>
				<g>
					<g>
						<g>
							<path style="fill:#000003;" d="M550.171,113.219c-0.169,0-0.341-0.043-0.499-0.134l-26.195-15.123
								c-0.479-0.276-0.642-0.888-0.366-1.366c0.276-0.478,0.886-0.644,1.366-0.366l26.195,15.123
								c0.479,0.276,0.642,0.888,0.366,1.366C550.852,113.039,550.516,113.219,550.171,113.219z"/>
						</g>
					</g>
				</g>
			</g>
		</g>
	</g>
	<g>
		<g>
			<g>
				<g>
					<g>
						<g>
							<polygon style="fill:#F9F9F9;" points="974.081,362.438 974.081,796.928 1193.781,796.928 1193.781,362.438 
								1111.571,362.438 1111.571,393.788 1056.281,393.788 1056.281,362.438 1043.651,362.438 1043.651,343.958 986.711,343.958 
								986.711,362.438 							"/>
						</g>
					</g>
				</g>
			</g>
			<g>
				<g>
					<g>
						<g>
							<path style="fill:#DBDBDB;" d="M1098.492,454.298h22.698c1.603,0,2.903-1.3,2.903-2.903v-22.659
								c0-1.603-1.3-2.903-2.903-2.903h-22.698c-1.603,0-2.903,1.299-2.903,2.903v22.659
								C1095.589,452.998,1096.889,454.298,1098.492,454.298z"/>
						</g>
					</g>
				</g>
			</g>
			<g>
				<g>
					<g>
						<g>
							<path style="fill:#DBDBDB;" d="M1046.667,454.298h22.698c1.603,0,2.903-1.3,2.903-2.903v-22.659
								c0-1.603-1.3-2.903-2.903-2.903h-22.698c-1.603,0-2.903,1.299-2.903,2.903v22.659
								C1043.765,452.998,1045.064,454.298,1046.667,454.298z"/>
						</g>
					</g>
				</g>
			</g>
			<g>
				<g>
					<g>
						<g>
							<path style="fill:#DBDBDB;" d="M994.843,454.298h22.698c1.603,0,2.903-1.3,2.903-2.903v-22.659
								c0-1.603-1.3-2.903-2.903-2.903h-22.698c-1.603,0-2.903,1.3-2.903,2.903v22.659
								C991.94,452.998,993.24,454.298,994.843,454.298z"/>
						</g>
					</g>
				</g>
			</g>
			<g>
				<g>
					<g>
						<g>
							<path style="fill:#DBDBDB;" d="M1150.316,506.698h22.698c1.603,0,2.903-1.3,2.903-2.903v-22.659
								c0-1.603-1.3-2.903-2.903-2.903h-22.698c-1.603,0-2.903,1.3-2.903,2.903v22.659
								C1147.413,505.398,1148.713,506.698,1150.316,506.698z"/>
						</g>
					</g>
				</g>
			</g>
			<g>
				<g>
					<g>
						<g>
							<path style="fill:#DBDBDB;" d="M1098.492,506.698h22.698c1.603,0,2.903-1.3,2.903-2.903v-22.659
								c0-1.603-1.3-2.903-2.903-2.903h-22.698c-1.603,0-2.903,1.3-2.903,2.903v22.659
								C1095.589,505.398,1096.889,506.698,1098.492,506.698z"/>
						</g>
					</g>
				</g>
			</g>
			<g>
				<g>
					<g>
						<g>
							<path style="fill:#DBDBDB;" d="M1046.667,506.698h22.698c1.603,0,2.903-1.3,2.903-2.903v-22.659
								c0-1.603-1.3-2.903-2.903-2.903h-22.698c-1.603,0-2.903,1.3-2.903,2.903v22.659
								C1043.765,505.398,1045.064,506.698,1046.667,506.698z"/>
						</g>
					</g>
				</g>
			</g>
			<g>
				<g>
					<g>
						<g>
							<path style="fill:#DBDBDB;" d="M1150.316,559.098h22.698c1.603,0,2.903-1.3,2.903-2.903v-22.659
								c0-1.603-1.3-2.903-2.903-2.903h-22.698c-1.603,0-2.903,1.3-2.903,2.903v22.659
								C1147.413,557.799,1148.713,559.098,1150.316,559.098z"/>
						</g>
					</g>
				</g>
			</g>
			<g>
				<g>
					<g>
						<g>
							<path style="fill:#DBDBDB;" d="M1098.492,559.098h22.698c1.603,0,2.903-1.3,2.903-2.903v-22.659
								c0-1.603-1.3-2.903-2.903-2.903h-22.698c-1.603,0-2.903,1.3-2.903,2.903v22.659
								C1095.589,557.799,1096.889,559.098,1098.492,559.098z"/>
						</g>
					</g>
				</g>
			</g>
			<g>
				<g>
					<g>
						<g>
							<path style="fill:#DBDBDB;" d="M1046.667,559.098h22.698c1.603,0,2.903-1.3,2.903-2.903v-22.659
								c0-1.603-1.3-2.903-2.903-2.903h-22.698c-1.603,0-2.903,1.3-2.903,2.903v22.659
								C1043.765,557.799,1045.064,559.098,1046.667,559.098z"/>
						</g>
					</g>
				</g>
			</g>
			<g>
				<g>
					<g>
						<g>
							<path style="fill:#DBDBDB;" d="M994.843,559.098h22.698c1.603,0,2.903-1.3,2.903-2.903v-22.659
								c0-1.603-1.3-2.903-2.903-2.903h-22.698c-1.603,0-2.903,1.3-2.903,2.903v22.659
								C991.94,557.799,993.24,559.098,994.843,559.098z"/>
						</g>
					</g>
				</g>
			</g>
			<g>
				<g>
					<g>
						<g>
							<path style="fill:#DBDBDB;" d="M1150.316,611.499h22.698c1.603,0,2.903-1.3,2.903-2.903v-22.659
								c0-1.603-1.3-2.903-2.903-2.903h-22.698c-1.603,0-2.903,1.3-2.903,2.903v22.659
								C1147.413,610.199,1148.713,611.499,1150.316,611.499z"/>
						</g>
					</g>
				</g>
			</g>
			<g>
				<g>
					<g>
						<g>
							<path style="fill:#DBDBDB;" d="M1098.492,611.499h22.698c1.603,0,2.903-1.3,2.903-2.903v-22.659
								c0-1.603-1.3-2.903-2.903-2.903h-22.698c-1.603,0-2.903,1.3-2.903,2.903v22.659
								C1095.589,610.199,1096.889,611.499,1098.492,611.499z"/>
						</g>
					</g>
				</g>
			</g>
			<g>
				<g>
					<g>
						<g>
							<path style="fill:#DBDBDB;" d="M1046.667,611.499h22.698c1.603,0,2.903-1.3,2.903-2.903v-22.659
								c0-1.603-1.3-2.903-2.903-2.903h-22.698c-1.603,0-2.903,1.3-2.903,2.903v22.659
								C1043.765,610.199,1045.064,611.499,1046.667,611.499z"/>
						</g>
					</g>
				</g>
			</g>
			<g>
				<g>
					<g>
						<g>
							<path style="fill:#DBDBDB;" d="M994.843,611.499h22.698c1.603,0,2.903-1.3,2.903-2.903v-22.659
								c0-1.603-1.3-2.903-2.903-2.903h-22.698c-1.603,0-2.903,1.3-2.903,2.903v22.659
								C991.94,610.199,993.24,611.499,994.843,611.499z"/>
						</g>
					</g>
				</g>
			</g>
			<g>
				<g>
					<g>
						<g>
							<path style="fill:#DBDBDB;" d="M1150.316,663.899h22.698c1.603,0,2.903-1.299,2.903-2.903v-22.659
								c0-1.603-1.3-2.903-2.903-2.903h-22.698c-1.603,0-2.903,1.3-2.903,2.903v22.659
								C1147.413,662.599,1148.713,663.899,1150.316,663.899z"/>
						</g>
					</g>
				</g>
			</g>
			<g>
				<g>
					<g>
						<g>
							<path style="fill:#DBDBDB;" d="M1098.492,663.899h22.698c1.603,0,2.903-1.299,2.903-2.903v-22.659
								c0-1.603-1.3-2.903-2.903-2.903h-22.698c-1.603,0-2.903,1.3-2.903,2.903v22.659
								C1095.589,662.599,1096.889,663.899,1098.492,663.899z"/>
						</g>
					</g>
				</g>
			</g>
			<g>
				<g>
					<g>
						<g>
							<path style="fill:#DBDBDB;" d="M1046.667,663.899h22.698c1.603,0,2.903-1.3,2.903-2.903v-22.659
								c0-1.603-1.3-2.903-2.903-2.903h-22.698c-1.603,0-2.903,1.3-2.903,2.903v22.659
								C1043.765,662.599,1045.064,663.899,1046.667,663.899z"/>
						</g>
					</g>
				</g>
			</g>
		</g>
		<g>
			<g>
				<g>
					<g>
						<g>
							<polygon style="fill:#F9F9F9;" points="563.449,501.237 563.449,537.83 593.107,537.83 593.107,390.87 672.504,390.87 
								672.504,796.924 611.358,796.924 593.107,796.924 563.449,796.924 515.54,796.924 515.54,537.83 515.54,501.237 							"/>
						</g>
					</g>
				</g>
			</g>
			<g>
				<g>
					<g>
						<g>
							
								<rect x="610.093" y="411.419" transform="matrix(-1 -1.224647e-16 1.224647e-16 -1 1265.5327 830.4819)" style="fill:#DBDBDB;" width="45.347" height="7.644"/>
						</g>
					</g>
				</g>
			</g>
			<g>
				<g>
					<g>
						<g>
							
								<rect x="610.093" y="440.441" transform="matrix(-1 -1.224647e-16 1.224647e-16 -1 1265.5327 888.526)" style="fill:#DBDBDB;" width="45.347" height="7.644"/>
						</g>
					</g>
				</g>
			</g>
			<g>
				<g>
					<g>
						<g>
							
								<rect x="610.093" y="469.464" transform="matrix(-1 -1.224647e-16 1.224647e-16 -1 1265.5327 946.5717)" style="fill:#DBDBDB;" width="45.347" height="7.644"/>
						</g>
					</g>
				</g>
			</g>
			<g>
				<g>
					<g>
						<g>
							
								<rect x="610.093" y="498.486" transform="matrix(-1 -1.224647e-16 1.224647e-16 -1 1265.5327 1004.6159)" style="fill:#DBDBDB;" width="45.347" height="7.644"/>
						</g>
					</g>
				</g>
			</g>
			<g>
				<g>
					<g>
						<g>
							
								<rect x="610.093" y="527.508" transform="matrix(-1 -1.224647e-16 1.224647e-16 -1 1265.5327 1062.6606)" style="fill:#DBDBDB;" width="45.347" height="7.644"/>
						</g>
					</g>
				</g>
			</g>
			<g>
				<g>
					<g>
						<g>
							
								<rect x="610.093" y="556.531" transform="matrix(-1 -1.224647e-16 1.224647e-16 -1 1265.5327 1120.7056)" style="fill:#DBDBDB;" width="45.347" height="7.643"/>
						</g>
					</g>
				</g>
			</g>
			<g>
				<g>
					<g>
						<g>
							
								<rect x="610.093" y="585.553" transform="matrix(-1 -1.224647e-16 1.224647e-16 -1 1265.5327 1178.7502)" style="fill:#DBDBDB;" width="45.347" height="7.644"/>
						</g>
					</g>
				</g>
			</g>
			<g>
				<g>
					<g>
						<g>
							
								<rect x="610.093" y="614.576" transform="matrix(-1 -1.224647e-16 1.224647e-16 -1 1265.5327 1236.795)" style="fill:#DBDBDB;" width="45.347" height="7.644"/>
						</g>
					</g>
				</g>
			</g>
			<g>
				<g>
					<g>
						<g>
							
								<rect x="610.093" y="643.598" transform="matrix(-1 -1.224647e-16 1.224647e-16 -1 1265.5327 1294.8397)" style="fill:#DBDBDB;" width="45.347" height="7.644"/>
						</g>
					</g>
				</g>
			</g>
		</g>
		<g>
			<g>
				<g>
					<g>
						<g>
							<polygon style="fill:#EDEDED;" points="744.505,382.284 744.505,332.163 818.595,351.149 818.595,382.284 828.699,382.284 
								828.699,382.663 838.582,382.663 856.453,332.463 921.092,332.463 938.963,382.663 952.65,382.663 952.65,690.66 
								952.65,724.13 952.65,796.924 828.699,796.924 770.438,796.924 734.402,796.924 734.402,382.284 							"/>
						</g>
					</g>
				</g>
			</g>
			<g>
				<g>
					<g>
						<g>
							
								<rect x="870.516" y="431.863" transform="matrix(-1 -1.224647e-16 1.224647e-16 -1 1797.3918 875.3711)" style="fill:#DBDBDB;" width="56.359" height="11.644"/>
						</g>
					</g>
				</g>
			</g>
			<g>
				<g>
					<g>
						<g>
							
								<rect x="848.547" y="431.863" transform="matrix(-1 -1.224647e-16 1.224647e-16 -1 1709.0216 875.3711)" style="fill:#DBDBDB;" width="11.928" height="11.644"/>
						</g>
					</g>
				</g>
			</g>
			<g>
				<g>
					<g>
						<g>
							
								<rect x="848.547" y="451.271" transform="matrix(-1 -1.224647e-16 1.224647e-16 -1 1709.0216 914.1861)" style="fill:#DBDBDB;" width="11.928" height="11.644"/>
						</g>
					</g>
				</g>
			</g>
			<g>
				<g>
					<g>
						<g>
							
								<rect x="870.516" y="451.271" transform="matrix(-1 -1.224647e-16 1.224647e-16 -1 1797.3918 914.1861)" style="fill:#DBDBDB;" width="56.359" height="11.644"/>
						</g>
					</g>
				</g>
			</g>
			<g>
				<g>
					<g>
						<g>
							
								<rect x="870.516" y="492.026" transform="matrix(-1 -1.224647e-16 1.224647e-16 -1 1797.3918 995.6973)" style="fill:#DBDBDB;" width="56.359" height="11.644"/>
						</g>
					</g>
				</g>
			</g>
			<g>
				<g>
					<g>
						<g>
							
								<rect x="848.547" y="492.026" transform="matrix(-1 -1.224647e-16 1.224647e-16 -1 1709.0216 995.6973)" style="fill:#DBDBDB;" width="11.928" height="11.644"/>
						</g>
					</g>
				</g>
			</g>
			<g>
				<g>
					<g>
						<g>
							
								<rect x="848.547" y="511.434" transform="matrix(-1 -1.224647e-16 1.224647e-16 -1 1709.0216 1034.5129)" style="fill:#DBDBDB;" width="11.928" height="11.644"/>
						</g>
					</g>
				</g>
			</g>
			<g>
				<g>
					<g>
						<g>
							
								<rect x="870.516" y="511.434" transform="matrix(-1 -1.224647e-16 1.224647e-16 -1 1797.3918 1034.5129)" style="fill:#DBDBDB;" width="56.359" height="11.644"/>
						</g>
					</g>
				</g>
			</g>
			<g>
				<g>
					<g>
						<g>
							
								<rect x="870.516" y="552.19" transform="matrix(-1 -1.224647e-16 1.224647e-16 -1 1797.3918 1116.024)" style="fill:#DBDBDB;" width="56.359" height="11.644"/>
						</g>
					</g>
				</g>
			</g>
			<g>
				<g>
					<g>
						<g>
							
								<rect x="848.547" y="552.19" transform="matrix(-1 -1.224647e-16 1.224647e-16 -1 1709.0216 1116.024)" style="fill:#DBDBDB;" width="11.928" height="11.644"/>
						</g>
					</g>
				</g>
			</g>
			<g>
				<g>
					<g>
						<g>
							
								<rect x="848.547" y="571.597" transform="matrix(-1 -1.224647e-16 1.224647e-16 -1 1709.0216 1154.8391)" style="fill:#DBDBDB;" width="11.928" height="11.644"/>
						</g>
					</g>
				</g>
			</g>
			<g>
				<g>
					<g>
						<g>
							
								<rect x="870.516" y="571.597" transform="matrix(-1 -1.224647e-16 1.224647e-16 -1 1797.3918 1154.8391)" style="fill:#DBDBDB;" width="56.359" height="11.644"/>
						</g>
					</g>
				</g>
			</g>
		</g>
		<g>
			<g>
				<g>
					<g>
						<g>
							<polygon style="fill:#EDEDED;" points="474.266,589.609 474.266,796.928 275.786,796.928 275.786,796.849 140.406,796.849 
								140.406,324.768 214.736,324.768 214.736,445.148 246.106,445.148 246.106,421.118 270.166,421.118 270.166,445.148 
								289.066,445.148 289.066,626.189 327.306,626.189 327.306,537.208 							"/>
						</g>
					</g>
				</g>
			</g>
			<g>
				<g>
					<g>
						<g>
							<rect x="162.931" y="349.151" style="fill:#DBDBDB;" width="31.095" height="17.251"/>
						</g>
					</g>
				</g>
			</g>
			<g>
				<g>
					<g>
						<g>
							<rect x="162.931" y="389.259" style="fill:#DBDBDB;" width="31.095" height="17.251"/>
						</g>
					</g>
				</g>
			</g>
			<g>
				<g>
					<g>
						<g>
							<rect x="162.931" y="429.368" style="fill:#DBDBDB;" width="31.095" height="17.251"/>
						</g>
					</g>
				</g>
			</g>
		</g>
	</g>
	<g>
		<g>
			<g>
				<rect x="230.927" y="301.839" style="fill:#DBDBDB;" width="28.6" height="495.089"/>
			</g>
		</g>
		<g>
			<g>
				<polygon style="fill:#EDEDED;" points="223.367,120.139 223.367,335.359 230.927,336.379 259.526,340.259 370.096,355.229 
					370.537,346.189 379.977,152.229 				"/>
			</g>
		</g>
		<g>
			<g>
				<polygon style="fill:#DBDBDB;" points="194.656,131.709 194.656,331.609 223.336,335.339 223.336,120.119 208.966,125.939 				
					"/>
			</g>
		</g>
		<g>
			<g>
				<polygon style="fill:#C1C1C1;" points="194.661,131.712 194.661,331.604 208.972,323.403 208.972,125.942 				"/>
			</g>
		</g>
		<g>
			<g>
				<g>
					<path style="fill:#DBDBDB;" d="M303.374,179.338c0,16.686,13.688,28.508,29.129,28.508c5.939,0,11.822-0.963,16.799-3.338
						c7.919-3.733,13.631-10.86,14.027-23.021c0.453-13.235-8.202-22.059-19.571-25.623c0,0,0,0-0.056,0
						c-3.507-1.074-7.24-1.696-11.03-1.752C317.232,153.772,303.374,163.161,303.374,179.338z"/>
				</g>
			</g>
			<g>
				<g>
					<path style="fill:#FFFFFF;" d="M318.876,180.975c2.205,25.292,27.49,24.74,30.427,23.534
						c7.919-3.733,13.631-10.86,14.027-23.021c0.453-13.235-8.202-22.059-19.571-25.623c0,0,0,0-0.056,0
						C340.232,154.639,316.84,157.612,318.876,180.975z"/>
				</g>
			</g>
		</g>
		<g>
			<g>
				<g>
					<path style="fill:#DBDBDB;" d="M233.37,166.335c0,16.686,13.688,28.508,29.129,28.508c5.939,0,11.822-0.963,16.799-3.338
						c7.919-3.733,13.631-10.859,14.027-23.021c0.453-13.235-8.202-22.059-19.571-25.623c0,0,0,0-0.056,0
						c-3.507-1.074-7.24-1.696-11.03-1.752C247.228,140.769,233.37,150.158,233.37,166.335z"/>
				</g>
			</g>
			<g>
				<g>
					<path style="fill:#FFFFFF;" d="M248.872,167.971c2.205,25.292,27.49,24.74,30.427,23.534
						c7.919-3.733,13.631-10.859,14.027-23.021c0.453-13.235-8.202-22.059-19.571-25.623c0,0,0,0-0.056,0
						C270.228,141.636,246.835,144.609,248.872,167.971z"/>
				</g>
			</g>
		</g>
		<g>
			<g>
				<g>
					<path style="fill:#DBDBDB;" d="M303.01,238.577c0,16.686,13.688,28.508,29.13,28.508c5.939,0,11.822-0.962,16.799-3.338
						c7.919-3.733,13.632-10.86,14.027-23.021c0.453-13.235-8.202-22.059-19.571-25.623c0,0,0,0-0.056,0
						c-3.507-1.074-7.24-1.696-11.03-1.752C316.868,213.01,303.01,222.399,303.01,238.577z"/>
				</g>
			</g>
			<g>
				<g>
					<path style="fill:#FFFFFF;" d="M318.512,240.212c2.205,25.292,27.49,24.74,30.427,23.534
						c7.919-3.733,13.632-10.86,14.027-23.021c0.453-13.235-8.202-22.059-19.571-25.623c0,0,0,0-0.056,0
						C339.867,213.877,316.475,216.85,318.512,240.212z"/>
				</g>
			</g>
		</g>
		<g>
			<g>
				<g>
					<path style="fill:#DBDBDB;" d="M233.187,226.455c0,16.686,13.688,28.508,29.13,28.508c5.939,0,11.822-0.962,16.799-3.338
						c7.918-3.733,13.631-10.86,14.027-23.021c0.453-13.235-8.202-22.059-19.571-25.623c0,0,0,0-0.056,0
						c-3.507-1.074-7.24-1.696-11.03-1.752C247.045,200.889,233.187,210.278,233.187,226.455z"/>
				</g>
			</g>
			<g>
				<g>
					<path style="fill:#FFFFFF;" d="M248.689,228.091c2.205,25.292,27.49,24.74,30.427,23.534
						c7.918-3.733,13.631-10.86,14.027-23.021c0.453-13.235-8.202-22.059-19.571-25.623c0,0,0,0-0.056,0
						C270.045,201.756,246.653,204.729,248.689,228.091z"/>
				</g>
			</g>
		</g>
		<g>
			<g>
				<g>
					<path style="fill:#DBDBDB;" d="M302.216,298.205c0,16.686,13.688,28.508,29.13,28.508c5.939,0,11.822-0.962,16.799-3.338
						c7.919-3.733,13.631-10.86,14.027-23.021c0.453-13.235-8.202-22.059-19.571-25.623c0,0,0,0-0.056,0
						c-3.507-1.074-7.24-1.696-11.03-1.752C316.074,272.638,302.216,282.027,302.216,298.205z"/>
				</g>
			</g>
			<g>
				<g>
					<path style="fill:#FFFFFF;" d="M317.718,299.841c2.205,25.292,27.49,24.74,30.427,23.534
						c7.919-3.733,13.631-10.86,14.027-23.021c0.453-13.235-8.202-22.059-19.571-25.623c0,0,0,0-0.056,0
						C339.073,273.505,315.681,276.478,317.718,299.841z"/>
				</g>
			</g>
		</g>
		<g>
			<g>
				<g>
					<path style="fill:#DBDBDB;" d="M232.238,286.773c0,16.686,13.688,28.508,29.13,28.508c5.939,0,11.822-0.962,16.799-3.338
						c7.919-3.733,13.632-10.859,14.027-23.021c0.453-13.235-8.202-22.059-19.571-25.623c0,0,0,0-0.056,0
						c-3.507-1.074-7.24-1.696-11.03-1.752C246.096,261.206,232.238,270.595,232.238,286.773z"/>
				</g>
			</g>
			<g>
				<g>
					<path style="fill:#FFFFFF;" d="M247.74,288.409c2.205,25.292,27.49,24.74,30.427,23.534
						c7.919-3.733,13.632-10.859,14.027-23.021c0.453-13.235-8.202-22.059-19.571-25.623c0,0,0,0-0.056,0
						C269.096,262.073,245.704,265.046,247.74,288.409z"/>
				</g>
			</g>
		</g>
		<g>
			<g>
				<polygon style="fill:#DBDBDB;" points="194.656,331.609 208.966,323.399 259.526,330.529 370.537,346.189 370.096,355.229 
					259.526,340.259 				"/>
			</g>
		</g>
	</g>
	<g>
		<g>
			<path style="fill:#000003;" d="M1255.814,797.929H78.373c-0.552,0-1-0.447-1-1c0-0.553,0.448-1,1-1h1177.441c0.552,0,1,0.447,1,1
				C1256.814,797.481,1256.366,797.929,1255.814,797.929z"/>
		</g>
	</g>
	<g>
		<g>
			<g>
				<path style="fill:#000003;" d="M917.266,559.852c0,0,12.312,13.507-26.045,54.696c-44.669,47.966-76.982,56.913-83.196,47.928
					c-1.404-2.03-5.167-42.047,26.489-72.667C850.433,574.413,889.917,541.672,917.266,559.852z"/>
			</g>
		</g>
		<g>
			<g>
				<path style="fill:#F57AF7;" d="M989.273,710.388c-16.103,6.467-37.063-5.113-43.468-23.234
					c-3.46-9.79-2.213-18.566-2.213-18.566l36.36-158.363c6.035-21.566,12.964-36.797,32.292-45.86
					c30.296-14.205,66.371-1.161,80.576,29.135c8.791,18.749,4.4,44.26-5.311,60.882l-1.188,2.381l-78.438,136.214
					C1007.846,693.039,998.4,706.723,989.273,710.388z"/>
			</g>
		</g>
		<g>
			<g>
				<path style="fill:#5AB1F2;" d="M999.169,412.858c0,0-7.374,41.427-37.32,176.218c0,0,55.742,4.776,85.476,35.409
					c0,0,53.245-85.82,97.205-184.418C1144.53,440.065,1077.05,389.541,999.169,412.858z"/>
			</g>
		</g>
		<g>
			<g>
				<path style="fill:#F57AF7;" d="M816.319,618.372l34.594-53.031l140.305,78.864c0,0,29.916,21.619,10.755,50.509
					c-9.471,14.28-28.214,18.732-42.9,10.341l-0.025,0.043L816.319,618.372z"/>
			</g>
		</g>
		<g>
			<g>
				<g>
					<path style="fill:#000003;" d="M1286.493,336.685c-3.062,28.536-66.962,50.254-86.172,60.695
						c-19.213,10.577-46.462,53.004-62.61,73.464c-16.147,20.467-38.191-11.238-30.103-35.051c0,0-31.226-17.523-66.13-10.292
						c-26.948,5.583-49.131,21.954-49.131,21.954s-23.677-21.397-30.359-48.125c-3.48-13.785-2.366-28.542,8.772-41.628
						c32.852-38.419,81.298-19.767,107.332-22.969c26.031-3.066,48.306-36.475,107.332-44.551
						c53.18-7.239,95.221,13.228,100.511,38.283C1286.632,331.254,1286.771,333.898,1286.493,336.685z"/>
				</g>
			</g>
			<g>
				<g>
					<path style="fill:#E64844;" d="M1285.935,328.467c-49.066-16.622-91.601-12.528-117.634-3.895
						c-26.034,8.633-73.504,43.157-133.366,43.993c-59.86,0.972-72.808,30.901-72.808,30.901s0,0-0.139-0.136
						c-3.48-13.785-2.366-28.542,8.772-41.628c32.852-38.419,81.298-19.767,107.332-22.969
						c26.031-3.066,48.306-36.475,107.332-44.551C1238.604,282.944,1280.645,303.411,1285.935,328.467z"/>
				</g>
			</g>
		</g>
		<g>
			<g>
				<path style="fill:#000003;" d="M604.552,479.147c0,0-10.738,5.17,8.248,41.679c24.063,46.271,56.388,77.183,66.178,70.592
					c15.347-10.333-19.647-71.544-28.802-85.918C641.021,491.126,622.541,475.682,604.552,479.147z"/>
			</g>
		</g>
		<g>
			<g>
				<path style="fill:#F57AF7;" d="M589.563,518.439c17.205-2.26,34.627,14.17,36.324,33.314
					c0.917,10.343-2.474,18.533-2.474,18.533l-36.79,74.898c-11.209,19.387-56.335,102.254-80.493,105.837
					c-33.098,4.909-64.574-15.381-70.799-48.257c-3.852-20.346,6.745-43.964,20.284-57.648l1.743-2.011l109.848-112.428
					C567.258,530.625,579.811,519.719,589.563,518.439z"/>
			</g>
		</g>
		<g>
			<g>
				<path style="fill:#F57AF7;" d="M738.142,462.065l20.181,60.014l-148.845,61.239c0,0-35.507,10.081-46.306-22.861
					c-5.338-16.283,2.784-33.751,18.471-40.077l-0.018-0.047L738.142,462.065z"/>
			</g>
		</g>
		<g>
			<g>
				<path style="fill:#5AB1F2;" d="M474.276,838.245c0,0,22.32-33.158,112.347-193.062c0,0-18.258-49.572-78.764-53.766
					c0,0-101.925,96.906-154.278,177.461C353.58,768.879,403.451,809.49,474.276,838.245z"/>
			</g>
		</g>
		<g>
			<g>
				<g>
					<g>
						<path style="fill:#F57AF7;" d="M718.409,199.82c5.018,17.29,23.139,27.26,40.429,22.242
							c10.322-2.995,18.021-10.626,21.462-19.978c2.362-6.321,2.776-13.436,0.743-20.441c-5.018-17.29-23.092-27.234-40.382-22.216
							c-12.977,3.766-21.821,14.886-23.324,27.473c0.011,0.037,0.011,0.037,0.011,0.037
							C716.844,191.122,717.158,195.507,718.409,199.82z"/>
					</g>
				</g>
				<g>
					<g>
						<g>
							<path style="fill:#000003;" d="M748.349,216.18c0,0-2.81-4.681-5.192-5.027c-2.382-0.346-7.91,1.386-6.159,2.721
								c0,0,1.383,0.621,2.375,2.3c1.769,2.991,3.125,3.128,3.125,3.128S750.322,218.924,748.349,216.18z"/>
						</g>
					</g>
					<g>
						<g>
							<path style="fill:#000003;" d="M733.902,208.461c-0.343,0-0.65-0.046-0.885-0.162c-0.232-0.114-0.383-0.288-0.449-0.517
								l-1.634-5.632l0.24-0.07l1.634,5.632c0.046,0.161,0.151,0.279,0.32,0.363c1.077,0.532,4.095-0.629,4.125-0.641
								c0.064-0.024,0.137,0.006,0.162,0.071c0.025,0.063-0.007,0.137-0.071,0.161C737.241,207.707,735.283,208.461,733.902,208.461
								z"/>
						</g>
					</g>
					<g>
						<g>
							<path style="fill:#000003;" d="M735.976,189.554c-0.033,0-0.065-0.013-0.089-0.038c-0.048-0.049-0.047-0.128,0.002-0.177
								c0.044-0.044,4.556-4.327,12.171-1.959c0.066,0.021,0.102,0.09,0.082,0.156c-0.021,0.066-0.092,0.104-0.156,0.082
								c-7.466-2.321-11.878,1.858-11.922,1.9C736.039,189.542,736.007,189.554,735.976,189.554z"/>
						</g>
					</g>
					<g>
						<g>
							<path style="fill:#FFFFFF;" d="M746.953,189.979c0,0,0.661,3.686-2.669,6.412c-0.284,0.256-0.609,0.494-0.975,0.714
								c-5.046,3.158-9.251-0.718-9.251-0.718s1.441-4.425,5.06-5.994c0.599-0.26,1.203-0.445,1.813-0.557
								C744.236,189.035,746.953,189.979,746.953,189.979z"/>
						</g>
					</g>
					<g>
						<g>
							<path style="fill:#000003;" d="M744.284,196.391c-0.284,0.256-0.609,0.494-0.975,0.714c-5.046,3.158-9.251-0.718-9.251-0.718
								s1.263-4.307,5.06-5.994c0.596-0.265,1.203-0.445,1.813-0.557C742.155,191.599,743.978,194.44,744.284,196.391z"/>
						</g>
					</g>
					<g>
						<g>
							<path style="fill:#000003;" d="M717.461,195.578c-0.031,0-0.063-0.012-0.087-0.035c-0.05-0.048-0.051-0.127-0.003-0.177
								c0.035-0.036,3.59-3.589,11.207-1.223c0.066,0.02,0.103,0.09,0.082,0.156c-0.02,0.066-0.09,0.104-0.156,0.082
								c-7.46-2.317-10.919,1.122-10.953,1.158C717.527,195.565,717.494,195.578,717.461,195.578z"/>
						</g>
					</g>
					<g>
						<g>
							<path style="fill:#FFFFFF;" d="M727.472,196.743c0,0,0.661,3.686-2.669,6.412c-0.284,0.256-0.609,0.494-0.975,0.714
								c-5.046,3.158-9.251-0.718-9.251-0.718s1.441-4.425,5.06-5.994c0.599-0.26,1.203-0.445,1.813-0.557
								C724.755,195.798,727.472,196.743,727.472,196.743z"/>
						</g>
					</g>
					<g>
						<g>
							<path style="fill:#000003;" d="M724.803,203.155c-0.284,0.256-0.609,0.494-0.975,0.714c-5.046,3.158-9.251-0.718-9.251-0.718
								s1.263-4.307,5.06-5.994c0.596-0.265,1.203-0.445,1.813-0.557C722.674,198.362,724.498,201.203,724.803,203.155z"/>
						</g>
					</g>
					<g>
						<g>
							<path style="fill:#000003;" d="M739.24,198.461c-3.067,0-5.236-1.953-5.266-1.981c-0.036-0.033-0.049-0.084-0.034-0.131
								c0.014-0.044,1.499-4.497,5.129-6.07c0.605-0.262,1.224-0.452,1.84-0.565c3.292-0.8,6.057,0.139,6.085,0.148
								c0.042,0.015,0.074,0.052,0.082,0.096c0.007,0.038,0.635,3.791-2.713,6.531c-0.281,0.254-0.616,0.498-0.989,0.725
								C741.902,198.133,740.495,198.461,739.24,198.461z M734.205,196.349c0.534,0.449,4.46,3.518,9.038,0.65
								c0.362-0.218,0.683-0.453,0.957-0.7c2.984-2.443,2.708-5.697,2.64-6.225c-0.449-0.137-2.944-0.825-5.88-0.117
								c-0.604,0.112-1.205,0.297-1.792,0.551C735.905,191.922,734.418,195.754,734.205,196.349z"/>
						</g>
					</g>
					<g>
						<g>
							<path style="fill:#000003;" d="M719.759,205.224c-3.067,0-5.236-1.953-5.267-1.981c-0.036-0.033-0.049-0.084-0.034-0.131
								c0.014-0.044,1.5-4.496,5.129-6.069c0.604-0.263,1.223-0.453,1.84-0.565c3.294-0.799,6.057,0.138,6.085,0.147
								c0.042,0.015,0.074,0.052,0.082,0.096c0.007,0.038,0.635,3.791-2.713,6.531c-0.286,0.258-0.621,0.503-0.989,0.725
								C722.421,204.896,721.015,205.224,719.759,205.224z M714.724,203.111c0.533,0.45,4.458,3.52,9.039,0.651
								c0.357-0.215,0.679-0.451,0.958-0.701c2.984-2.443,2.708-5.697,2.64-6.224c-0.449-0.139-2.946-0.829-5.88-0.117
								c-0.604,0.111-1.205,0.296-1.792,0.55C716.424,198.686,714.937,202.518,714.724,203.111z"/>
						</g>
					</g>
				</g>
			</g>
			<g>
				<g>
					<g>
						<path style="fill:#000003;" d="M712.999,170.954c7.235-12.868,6.773-3.509,12.522-7.087
							c5.748-3.577,21.054-22.858,24.851-17.223c5.462,8.106,29.095-7.435,24.471,5.676c-4.63,13.131,10.498,0.66,9.629,10.292
							c-0.632,7.002-1.565,14.669-2.333,20.548c0.013,0.055,0.034,0.106,0.047,0.161c1.647,6.955,0.314,14.264-2.513,20.382
							c0,0-8.214,1.692-12.129-6.947c-2.071-4.568,5.887-2.697,5.282-9.506c-0.552-6.22-8.662-8.973-12.609-6.236
							c-3.939,2.775-6.903-5.115-8.25-7.438c-1.724-2.973-7.61,3.845-14.289,8.818c-11.177,8.321-21.187,3.572-21.187,3.572
							S705.755,183.839,712.999,170.954z"/>
					</g>
				</g>
			</g>
		</g>
		<g>
			<g>
				<path style="fill:#EABD00;" d="M754.015,443.081c0,0,102.093,71.351,163.251,116.771c0,0-32.07,3.397-72.974,51.643
					c-31.277,36.891-36.267,50.981-36.267,50.981s-100.193-81.65-125.199-106.853L754.015,443.081z"/>
			</g>
		</g>
		<g>
			<g>
				<g>
					<g>
						<g>
							<path style="fill:#E54AED;" d="M440.24,385.474c0,0-41.781,49.285-49.048,68.274c-6.384,16.68,6.884,21.65,12.685,16.002
								c4.827-4.699,19.199-24.275,19.199-24.275s1.605,19.334,7.533,25.217s11.433,0.363,14.753-5.667
								c0,0,12.366,9.582,16.647-2.391s-3.79-22.502-3.79-22.502s22.855-31.368,39.675-47.646
								C497.895,392.486,478.538,385.527,440.24,385.474z"/>
						</g>
					</g>
				</g>
				<g>
					<g>
						<g>
							<path style="fill:#000003;" d="M423.075,446.475c-0.181,0-0.363-0.049-0.528-0.151c-0.469-0.292-0.612-0.909-0.32-1.378
								c0.159-0.255,16.25-25.914,43.264-55.015c0.377-0.404,1.009-0.429,1.413-0.052c0.405,0.375,0.428,1.008,0.053,1.413
								c-26.876,28.95-42.874,54.457-43.032,54.712C423.735,446.308,423.409,446.475,423.075,446.475z"/>
						</g>
					</g>
				</g>
				<g>
					<g>
						<g>
							<path style="fill:#000003;" d="M445.363,466.024c-0.005,0-0.01,0-0.015,0c-0.552-0.008-0.994-0.462-0.986-1.015
								c0.003-0.19,0.276-19.208,0.455-27.49c0.006-0.279,0.128-0.542,0.337-0.728c1.375-1.216,33.762-29.857,42.91-35.383
								c0.473-0.287,1.087-0.134,1.373,0.34c0.286,0.473,0.134,1.087-0.339,1.373c-8.512,5.141-38.793,31.791-42.29,34.878
								c-0.179,8.489-0.443,26.851-0.445,27.039C446.355,465.586,445.909,466.024,445.363,466.024z"/>
						</g>
					</g>
				</g>
			</g>
			<g>
				<g>
					<path style="fill:#F57AF7;" d="M523.974,360.616c0,0,4.925,41.608,4.511,54.323c0,0-11.405,15.8-32.391,16.753
						c-15.376,0.699-32.028,1.718-38.122,12.577s-15.093,23.007-22.543,21.216c-7.45-1.79-7.038-12.848,4.403-28.818
						c6.941-9.689,29.892-30.821,29.892-30.821s-7.897-8.685-19.407-8.55c-11.51,0.135-81.053,19.249-86.509,8.534
						c-7.894-15.502,28.797-21.352,52.238-26.358c23.441-5.006,65.276-20.252,84.569-21.485
						C500.615,357.989,516.878,359.617,523.974,360.616z"/>
				</g>
			</g>
		</g>
		<g>
			<g>
				<g>
					<path style="fill:#F57AF7;" d="M618.161,397.583l0.012,0.017l95.481-70.325l-0.005-0.007
						c5.832-4.264,9.244-11.473,8.289-19.151c-1.403-11.273-11.679-19.274-22.952-17.871c-3.237,0.403-6.19,1.556-8.743,3.236
						l-0.024-0.036l-0.571,0.419c-0.073,0.052-0.144,0.106-0.216,0.159l-96.04,70.435l0.006,0.008
						c-5.845,4.292-9.264,11.529-8.305,19.237c1.411,11.338,11.746,19.386,23.084,17.975
						C611.95,401.21,615.344,399.736,618.161,397.583z"/>
				</g>
			</g>
		</g>
		<g>
			<g>
				<g>
					<path style="fill:#F57AF7;" d="M506.772,418.653c0,0,104.021-11.264,110.783-21.19c10.461-9.675,6.936-28.008-6.205-33.247
						c0,0-99.771-5.291-99.771-5.291C508.488,386.005,508.145,394.814,506.772,418.653z"/>
				</g>
			</g>
		</g>
		<g>
			<g>
				<path style="fill:#374AAA;" d="M700.173,362.875c-2.034,1.305-4.084,2.623-6.162,3.937c-2.977,1.882-5.986,3.789-9.039,5.704
					c0,0-36.696-44.979-47.19-67.398c0,0,2.868-3.136,7.71-7.884c1.548-1.51,3.301-3.18,5.226-4.969
					c22.975-21.349,70.839-58.985,95.83-28.774C780.901,304.977,747.29,332.593,700.173,362.875z"/>
			</g>
		</g>
		<g>
			<g>
				<path style="fill:#FFFFFF;" d="M700.173,362.875c-2.034,1.305-4.084,2.623-6.162,3.937
					c-8.298-11.908-34.092-48.946-48.519-69.578c1.548-1.51,3.301-3.18,5.226-4.969C660.738,306.403,684.764,340.35,700.173,362.875
					z"/>
			</g>
		</g>
		<g>
			<g>
				<g>
					<path style="fill:#F57AF7;" d="M976.629,310.444l-0.004,0.02l-116.444-23.438l0.002-0.009
						c-7.099-1.404-13.248-6.504-15.63-13.879c-3.497-10.828,2.446-22.44,13.274-25.937c3.109-1.004,6.278-1.207,9.307-0.762
						l0.007-0.043l0.695,0.139c0.088,0.016,0.175,0.035,0.264,0.053l116.998,23.302l-0.002,0.01
						c7.123,1.423,13.289,6.546,15.68,13.95c3.517,10.89-2.46,22.57-13.351,26.087C983.802,311.108,980.098,311.207,976.629,310.444
						z"/>
				</g>
			</g>
		</g>
		<g>
			<g>
				<g>
					<path style="fill:#F57AF7;" d="M1088.538,291.853c0,0-101.808,24.867-111.562,17.825c-13.152-5.544-16.084-24.012-5.495-33.428
						c0,0,92.309-37.943,92.309-37.943C1075.938,262.757,1079.115,269.869,1088.538,291.853z"/>
				</g>
			</g>
		</g>
		<g>
			<g>
				<path style="fill:#F57AF7;" d="M738.924,241.946c0,0,19.556-8.451,53.371-18.582c0,0,32.412-0.63,43.032,16.845
					c10.62,17.475-11.489,138.593-11.489,138.593s-54.602,4.966-94.39,9.979c0,0-4.804-75.459-5.975-105.305
					C722.3,253.63,733.032,244.527,738.924,241.946z"/>
			</g>
		</g>
		<g>
			<g>
				<path style="fill:#374AAA;" d="M876.497,219.619c0,0-6.695,16.516-15.488,56.53c-8.661,39.4-11.21,51.583-14.672,79.98
					c-4.465,36.555-6.932,49.572-6.932,49.572c-19.786,11.415-26.29,14.469-62.531,19.286c-28.01,3.719-51.545-12.253-51.545-12.253
					c-0.651-5.565-0.963-12.343,0.001-36.726c1.175-30.034-7.855-29.292-18.053-61.305c-8.46-26.562-10.594-55.6-10.594-55.6
					c12.921-5.916,28.999-12.595,36.68-15.387c3.418-1.242,5.56-1.772,5.56-1.772c9.531,9.714,29.13,27.994,29.13,27.994
					l24.249-46.573c0,0,2.285-0.565,6.212-1.59c6.795-1.784,19.534-2.477,32.185-3.723
					C855.102,215.65,876.497,219.619,876.497,219.619z"/>
			</g>
		</g>
		<g>
			<g>
				<path style="fill:#374AAA;" d="M919.818,328.483c-4.893-0.393-9.604-0.795-14.125-1.22c-4.339-0.39-8.493-0.79-12.491-1.209
					c-102.233-10.582-98.224-27.934-87.801-81.225c7.615-39.011,70.219-27.61,106.808-17.373c4.29,1.199,8.223,2.391,11.656,3.465
					c9.019,2.855,14.695,5.015,14.695,5.015C934.213,258.157,919.818,328.483,919.818,328.483z"/>
			</g>
		</g>
		<g>
			<g>
				<path style="fill:#FFDD48;" d="M604.559,479.146c0,0,55.083,18.482,74.42,112.272c0,0,29.781-20.996,107.696-43.527
					c59.474-17.198,60.302-83.371,54.625-112.273c0,0-64.221-17.483-91.69-20.223c0,0-31.859,21.424-66.4,33.568
					C647.894,461.378,623.062,468.428,604.559,479.146z"/>
			</g>
		</g>
		<g>
			<g>
				<path style="fill:#000003;" d="M839.148,404.273c0,0-57.622-17.912-114.865-1.377c0,0-1.955,9.424-2.186,28.69
					c0,0,62.134-16.096,119.597,6.16C841.694,437.746,841.913,423.429,839.148,404.273z"/>
			</g>
		</g>
		<g>
			<g>
				<path style="fill:#FFFFFF;" d="M905.229,327.221c-4.339-0.39-3.285-0.267-7.283-0.686c0,0,14.135-73.844,18.671-97.815
					c4.29,1.199,3.373,0.989,6.806,2.064C923.424,230.783,912.117,293.24,905.229,327.221z"/>
			</g>
		</g>
		<g>
			<g>
				<path style="fill:#FFFFFF;" d="M807.927,220.191c0,0-33.891,66.565-37.216,73.596c0,0-42.243-44.342-45.029-47.124
					c2.522-1.118,4.699-1.873,4.699-1.873c9.531,9.714,39.511,39.533,39.511,39.533l31.909-63.255
					C801.801,221.068,804.89,220.331,807.927,220.191z"/>
			</g>
		</g>
		<g>
			<g>
				<g>
					<g>
						<g>
							<path style="fill:#FFDD48;" d="M777.189,340.681c-0.165-1.632-0.509-3.044-1.03-4.237c-1.502-3.303-3.907-5.231-7.217-5.781
								c1.729-0.777,3.065-1.968,4.009-3.572c0.944-1.601,1.294-3.597,1.052-5.983c-0.366-3.621-1.554-6.224-3.563-7.809
								c-2.009-1.585-4.964-2.18-8.862-1.786l-20.29,2.053l0.845,8.354l17.307-1.751c2.387-0.241,3.701,0.832,3.942,3.218
								l0.121,1.194c0.241,2.387-0.831,3.702-3.219,3.943l-11.338,1.148l0.844,8.354l12.532-1.268
								c2.387-0.241,3.703,0.832,3.944,3.22l0.242,2.387c0.092,0.916-0.102,1.668-0.586,2.26c-0.483,0.592-1.182,0.933-2.096,1.025
								c-4.338,0.439-10.933,0.805-19.785,1.098l0.815,8.057c8.156-0.022,15.557-0.369,22.201-1.041
								c3.899-0.395,6.67-1.598,8.317-3.615c1.644-2.015,2.269-4.972,1.875-8.872L777.189,340.681z"/>
						</g>
					</g>
				</g>
				<g>
					<g>
						<g>
							<path style="fill:#FFDD48;" d="M812.459,337.715l-0.06-0.596c-0.166-1.632-0.51-3.044-1.031-4.238
								c-1.5-3.304-3.907-5.231-7.217-5.781c1.729-0.777,3.065-1.968,4.009-3.572c0.943-1.601,1.294-3.597,1.053-5.983
								c-0.367-3.62-1.555-6.223-3.564-7.809c-2.009-1.585-4.964-2.18-8.862-1.786l-20.29,2.053l0.845,8.354l17.307-1.751
								c2.387-0.241,3.701,0.832,3.943,3.219l0.121,1.194c0.241,2.388-0.832,3.702-3.218,3.943l-11.34,1.147l0.846,8.354
								l12.532-1.268c2.388-0.241,3.702,0.832,3.943,3.219l0.242,2.386c0.093,0.916-0.103,1.669-0.585,2.261
								c-0.483,0.592-1.182,0.933-2.096,1.025c-4.338,0.439-10.933,0.805-19.785,1.098l0.815,8.057
								c8.156-0.022,15.557-0.369,22.201-1.042c3.899-0.394,6.67-1.597,8.317-3.615
								C812.229,344.572,812.854,341.615,812.459,337.715z"/>
						</g>
					</g>
				</g>
			</g>
		</g>
		<g>
			<g>
				<g>
					<path style="fill:#000003;" d="M487.348,817.242c0,0-9.27,31.622-31.808,58.946c-13.299,16.123-31.567,20.154-42.942,21.731
						c-18.099,2.528-39.117-4.826-54.721-26.745c-25.403-35.703-21.522-55.432-67.362-96.292
						c-45.841-40.873-86.329-96.946-61.724-121.963c1.744-1.773,3.685-3.221,5.822-4.371c28.01-15.298,87.24,18.949,110.651,29.061
						c25.203,10.886,36.761-9.208,50.311-4.539c14.224,4.901,13.695,25.374,6.794,43.706
						C399.108,725.435,396.272,788.912,487.348,817.242z"/>
				</g>
			</g>
			<g>
				<g>
					<path style="fill:#E64844;" d="M436.891,890.795c-21.07,13.954-51.809,15.777-79.015-19.621
						c-26.702-34.742-21.522-55.432-67.362-96.292c-45.841-40.873-86.329-96.946-61.724-121.963c0,0-0.211,1.388-0.009,4.106
						c0.714,9.595,6.574,35.761,45.028,75.907c46.077,48.103,61.871,58.697,86.347,109.419
						C381.255,886.074,432.698,890.049,436.891,890.795z"/>
				</g>
			</g>
		</g>
		<g>
			<g>
				<g>
					<g>
						<path style="fill:#F57AF7;" d="M1076.177,294.754c0,0,55.216-6.226,78.66-64.196c0,0-35.859-41.773-51.668-53.18
							c0,0-41.102-2.602-63.262,83.447C1039.907,260.824,1060.689,278.871,1076.177,294.754z"/>
					</g>
				</g>
			</g>
			<g>
				<g>
					<g>
						<path style="fill:#F57AF7;" d="M1043.625,247.81c0,0,0.501-17.555,3.223-27.237s13.372-13.802,13.372-13.802
							s32.083-9.445,39.432-4.288c7.348,5.157,7.042,14.969,2.795,17.002c-4.247,2.033-27.603,7.185-27.603,7.185
							s18.564,25.365,7.802,46.952C1082.645,273.622,1051.313,250.857,1043.625,247.81z"/>
					</g>
				</g>
			</g>
			<g>
				<g>
					<g>
						<path style="fill:#F57AF7;" d="M1103.169,177.377c0,0,40.663,31.357,51.668,53.18c0,0-22.855,30.335-31.993,10.762
							c0,0-11.698-4.763-12.129-13.525c0,0-11.785-2.63-12.149-14.166c0,0-15.56,0.517-13.759-12.319
							C1085.82,194.096,1103.169,177.377,1103.169,177.377z"/>
					</g>
				</g>
			</g>
			<g>
				<g>
					<g>
						<path style="fill:#000003;" d="M1060.252,207.791c-0.432,0-0.831-0.282-0.959-0.718c-0.156-0.53,0.148-1.086,0.678-1.241
							c0.132-0.039,13.38-3.909,24.727-5.35c0.553-0.064,1.048,0.319,1.118,0.866c0.069,0.548-0.318,1.049-0.866,1.118
							c-11.186,1.42-24.285,5.245-24.416,5.284C1060.441,207.778,1060.346,207.791,1060.252,207.791z"/>
					</g>
				</g>
			</g>
			<g>
				<g>
					<g>
						<path style="fill:#000003;" d="M1074.875,227.686c-0.459,0-0.873-0.318-0.976-0.785c-0.119-0.539,0.222-1.072,0.761-1.191
							c0.184-0.04,18.446-4.074,25.433-6.365c0.525-0.175,1.09,0.114,1.262,0.639c0.172,0.524-0.114,1.09-0.639,1.262
							c-7.081,2.322-24.871,6.252-25.625,6.418C1075.019,227.678,1074.947,227.686,1074.875,227.686z"/>
					</g>
				</g>
			</g>
			<g>
				<g>
					<g>
						<path style="fill:#000003;" d="M1084.847,202.323c-0.046,0-0.093-0.003-0.141-0.01c-0.547-0.077-0.928-0.582-0.851-1.129
							c1.048-7.469,17.939-23.82,18.658-24.513c0.397-0.383,1.031-0.37,1.414,0.025c0.383,0.398,0.372,1.031-0.026,1.414
							c-4.756,4.585-17.274,17.716-18.065,23.351C1085.765,201.962,1085.337,202.323,1084.847,202.323z"/>
					</g>
				</g>
			</g>
			<g>
				<g>
					<g>
						<path style="fill:#000003;" d="M1131.474,248.913c-0.338,0-0.674-0.018-1.007-0.053c-3.513-0.368-6.313-2.641-8.326-6.756
							c-2.015-0.895-11.407-5.476-12.328-13.523c-2.592-0.808-11.311-4.233-12.152-13.948c-2.307-0.084-8.11-0.679-11.484-4.432
							c-2.059-2.29-2.84-5.324-2.322-9.018c0.077-0.547,0.58-0.929,1.129-0.852c0.547,0.077,0.928,0.582,0.851,1.129
							c-0.432,3.079,0.182,5.568,1.824,7.398c3.561,3.967,10.836,3.789,10.912,3.783c0.011-0.001,0.021-0.001,0.032-0.001
							c0.538,0,0.983,0.427,1,0.969c0.335,10.604,10.918,13.12,11.369,13.222c0.438,0.099,0.757,0.479,0.78,0.927
							c0.394,8.016,11.396,12.603,11.508,12.648c0.233,0.095,0.422,0.274,0.528,0.503c1.73,3.706,3.983,5.655,6.887,5.96
							c9.749,1.032,23.266-16.722,23.401-16.9c0.333-0.442,0.958-0.529,1.401-0.197c0.441,0.333,0.529,0.96,0.197,1.4
							C1155.111,231.92,1142.181,248.913,1131.474,248.913z"/>
					</g>
				</g>
			</g>
			<g>
				<g>
					<g>
						<path style="fill:#000003;" d="M1098.603,214.643c-0.216,0-0.433-0.069-0.616-0.213c-0.435-0.34-0.512-0.969-0.171-1.403
							c7.504-9.59,18.635-24.4,18.747-24.549c0.332-0.442,0.958-0.529,1.4-0.199c0.441,0.332,0.531,0.959,0.199,1.4
							c-0.111,0.148-11.254,14.975-18.77,24.58C1099.194,214.511,1098.9,214.643,1098.603,214.643z"/>
					</g>
				</g>
			</g>
			<g>
				<g>
					<g>
						<path style="fill:#000003;" d="M1110.752,228.809c-0.229,0-0.458-0.078-0.647-0.237c-0.421-0.358-0.472-0.989-0.115-1.41
							c7.226-8.509,21.443-25.131,21.443-25.131l1.52,1.301c0,0-14.214,16.618-21.438,25.125
							C1111.317,228.689,1111.035,228.809,1110.752,228.809z"/>
					</g>
				</g>
			</g>
			<g>
				<g>
					<g>
						<path style="fill:#000003;" d="M1122.882,242.334c-0.295,0-0.588-0.131-0.786-0.381c-0.342-0.434-0.268-1.063,0.166-1.404
							c0.135-0.106,13.649-10.801,24.004-22.422c0.367-0.412,0.999-0.448,1.412-0.082c0.413,0.368,0.449,1,0.082,1.412
							c-10.475,11.756-24.123,22.555-24.259,22.662C1123.317,242.264,1123.099,242.334,1122.882,242.334z"/>
					</g>
				</g>
			</g>
		</g>
	</g>
	<g>
		<g>
			<g>
				
					<ellipse transform="matrix(0.7071 -0.7071 0.7071 0.7071 -364.1987 736.0118)" style="fill:#FFDD48;" cx="706.346" cy="807.633" rx="92.479" ry="92.479"/>
			</g>
		</g>
		<g>
			<g>
				<g>
					<path style="fill:#E64844;" d="M696.752,730.226l4.539,37.338l0.149,1.151l-0.002,0.131l0.032,0.033l1.028,0.424l34.348,14.019
						l1.078,0.441l0.277,0.119l0.016,0.017l0.913-0.726l29.517-23.553l-0.015-0.082l-0.148-1.184l-2.587-21.291
						c-14.802-12.542-32.647-19.692-50.926-21.397l-17.272,13.802L696.752,730.226z"/>
				</g>
			</g>
			<g>
				<g>
					<path style="fill:#E64844;" d="M614.885,793.406c-2.799,17.756-0.371,36.221,7.268,52.886l22.12,9.045l1.061,0.424l0.081,0.05
						l29.384-23.456l0.929-0.742l0.1-0.097l-0.117-1.052l-4.423-36.187l-0.148-1.217l-0.031-0.164l-0.016-0.017l-1.077-0.441
						l-35.67-14.578l-0.083,0.081l-0.946,0.759L614.885,793.406z"/>
				</g>
			</g>
			<g>
				<g>
					<path style="fill:#E64844;" d="M712.427,846.583l-0.033,0.033l0.132,1.167l4.57,37.469l0.033,0l1.028,0.424l20.863,8.52
						c11.515-4.343,22.341-11.092,31.721-20.224c4.391-4.275,8.277-8.901,11.642-13.763l-2.678-21.851l-0.118-0.986l-0.163-0.068
						l-35.458-14.493l-1.094-0.458l-0.049-0.017l-0.033,0.032l-0.929,0.743l-28.505,22.729L712.427,846.583z"/>
				</g>
			</g>
			<g>
				<g>
					<path style="fill:#000003;" d="M671.141,794.06c-0.128,0-0.257-0.024-0.379-0.075l-36.877-15.119
						c-0.332-0.136-0.566-0.44-0.612-0.798l-3.113-24.231c-0.07-0.547,0.316-1.049,0.864-1.119c0.552-0.061,1.049,0.317,1.119,0.864
						l3.039,23.654l35.795,14.675l29.437-23.469l-4.354-37.579l-22.208-9.004c-0.512-0.207-0.759-0.791-0.551-1.303
						c0.208-0.512,0.791-0.758,1.302-0.551l22.758,9.227c0.339,0.138,0.576,0.448,0.618,0.812l4.485,38.719
						c0.04,0.343-0.1,0.682-0.37,0.897l-30.33,24.182C671.584,793.986,671.364,794.06,671.141,794.06z"/>
				</g>
			</g>
			<g>
				<g>
					<path style="fill:#000003;" d="M712.152,847.949c-0.131,0-0.263-0.025-0.388-0.078l-36.423-15.336
						c-0.321-0.136-0.549-0.429-0.601-0.773l-5.697-37.83c-0.053-0.354,0.087-0.71,0.368-0.933l31.439-24.905
						c0.283-0.224,0.664-0.278,0.999-0.142l36.454,14.884c0.333,0.136,0.568,0.441,0.614,0.799l4.948,38.591
						c0.045,0.346-0.095,0.689-0.367,0.907l-30.721,24.596C712.596,847.874,712.375,847.949,712.152,847.949z M676.634,830.909
						l35.357,14.888l29.818-23.873l-4.803-37.456l-35.372-14.442l-30.527,24.183L676.634,830.909z"/>
				</g>
			</g>
			<g>
				<g>
					<path style="fill:#000003;" d="M779.424,838.305c-0.128,0-0.256-0.024-0.378-0.074l-36.551-14.951
						c-0.333-0.137-0.568-0.441-0.613-0.799l-4.948-38.591c-0.045-0.349,0.097-0.694,0.373-0.912l30.707-24.225
						c0.284-0.224,0.668-0.276,1.002-0.139l21.335,8.838c0.51,0.211,0.752,0.796,0.541,1.307c-0.211,0.509-0.794,0.752-1.307,0.541
						l-20.794-8.613l-29.803,23.512l4.802,37.451l35.47,14.509l17.62-13.969c0.432-0.345,1.062-0.271,1.405,0.162
						c0.343,0.433,0.271,1.062-0.163,1.404l-18.078,14.333C779.865,838.231,779.645,838.305,779.424,838.305z"/>
				</g>
			</g>
			<g>
				<g>
					<path style="fill:#000003;" d="M698.693,900.89c-0.294,0-0.586-0.129-0.783-0.378c-0.344-0.432-0.272-1.061,0.16-1.404
						l17.966-14.29l-4.564-37.5l-35.896-14.787l-29.181,23.659l2.915,23.517c0.068,0.548-0.321,1.048-0.869,1.115
						c-0.552,0.081-1.047-0.321-1.115-0.869l-2.983-24.067c-0.042-0.343,0.094-0.683,0.362-0.899l30.073-24.382
						c0.285-0.232,0.672-0.288,1.011-0.148l36.987,15.235c0.335,0.138,0.568,0.445,0.612,0.804l4.702,38.637
						c0.042,0.346-0.098,0.688-0.37,0.903l-18.404,14.638C699.131,900.818,698.911,900.89,698.693,900.89z"/>
				</g>
			</g>
		</g>
	</g>
	<g>
		<g>
			<g>
				<g>
					<path style="fill:#000003;" d="M845.475,901.113H246.37c-0.552,0-1-0.447-1-1c0-0.553,0.448-1,1-1h599.104c0.552,0,1,0.447,1,1
						C846.475,900.666,846.027,901.113,845.475,901.113z"/>
				</g>
			</g>
		</g>
		<g>
			<g>
				<g>
					<path style="fill:#000003;" d="M1122.287,901.113H936.056c-0.552,0-1-0.447-1-1c0-0.553,0.448-1,1-1h186.231
						c0.552,0,1,0.447,1,1C1123.287,900.666,1122.839,901.113,1122.287,901.113z"/>
				</g>
			</g>
		</g>
	</g>
</g>
</svg>
