<?xml version="1.0" encoding="UTF-8" standalone="no"?>
<!-- Generator: Adobe Illustrator 27.5.0, SVG Export Plug-In . SVG Version: 6.00 Build 0)  -->

<svg
   version="1.1"
   id="Layer_1"
   x="0px"
   y="0px"
   viewBox="0 0 754.99997 755.271"
   xml:space="preserve"
   sodipodi:docname="assistance-2.svg"
   inkscape:version="1.2.2 (b0a84865, 2022-12-01)"
   width="755"
   height="755.271"
   xmlns:inkscape="http://www.inkscape.org/namespaces/inkscape"
   xmlns:sodipodi="http://sodipodi.sourceforge.net/DTD/sodipodi-0.dtd"
   xmlns="http://www.w3.org/2000/svg"
   xmlns:svg="http://www.w3.org/2000/svg"><defs
   id="defs3461">
	
	
	
	
	
	
	
</defs><sodipodi:namedview
   id="namedview3459"
   pagecolor="#ffffff"
   bordercolor="#000000"
   borderopacity="0.25"
   inkscape:showpageshadow="2"
   inkscape:pageopacity="0.0"
   inkscape:pagecheckerboard="0"
   inkscape:deskcolor="#d1d1d1"
   showgrid="false"
   inkscape:zoom="0.4948754"
   inkscape:cx="784.03574"
   inkscape:cy="298.05482"
   inkscape:window-width="1920"
   inkscape:window-height="1027"
   inkscape:window-x="1728"
   inkscape:window-y="62"
   inkscape:window-maximized="1"
   inkscape:current-layer="Layer_1" />
<g
   id="g3384"
   transform="translate(-45.545426,-145.61941)">
		<g
   id="g3004">
			<g
   id="g3002">
				<path
   style="fill:#000003"
   d="m 917.266,559.852 c 0,0 12.312,13.507 -26.045,54.696 -44.669,47.966 -76.982,56.913 -83.196,47.928 -1.404,-2.03 -5.167,-42.047 26.489,-72.667 15.919,-15.396 55.403,-48.137 82.752,-29.957 z"
   id="path3000" />
			</g>
		</g>
		<g
   id="g3010">
			<g
   id="g3008">
				<path
   style="fill:#f57af7"
   d="m 989.273,710.388 c -16.103,6.467 -37.063,-5.113 -43.468,-23.234 -3.46,-9.79 -2.213,-18.566 -2.213,-18.566 l 36.36,-158.363 c 6.035,-21.566 12.964,-36.797 32.292,-45.86 30.296,-14.205 66.371,-1.161 80.576,29.135 8.791,18.749 4.4,44.26 -5.311,60.882 l -1.188,2.381 -78.438,136.214 c -0.037,0.062 -9.483,13.746 -18.61,17.411 z"
   id="path3006" />
			</g>
		</g>
		<g
   id="g3016">
			<g
   id="g3014">
				<path
   style="fill:#5ab1f2"
   d="m 999.169,412.858 c 0,0 -7.374,41.427 -37.32,176.218 0,0 55.742,4.776 85.476,35.409 0,0 53.245,-85.82 97.205,-184.418 0,-0.002 -67.48,-50.526 -145.361,-27.209 z"
   id="path3012" />
			</g>
		</g>
		<g
   id="g3022">
			<g
   id="g3020">
				<path
   style="fill:#f57af7"
   d="m 816.319,618.372 34.594,-53.031 140.305,78.864 c 0,0 29.916,21.619 10.755,50.509 -9.471,14.28 -28.214,18.732 -42.9,10.341 l -0.025,0.043 z"
   id="path3018" />
			</g>
		</g>
		<g
   id="g3036">
			<g
   id="g3028">
				<g
   id="g3026">
					<path
   style="fill:#000003"
   d="m 1286.493,336.685 c -3.062,28.536 -66.962,50.254 -86.172,60.695 -19.213,10.577 -46.462,53.004 -62.61,73.464 -16.147,20.467 -38.191,-11.238 -30.103,-35.051 0,0 -31.226,-17.523 -66.13,-10.292 -26.948,5.583 -49.131,21.954 -49.131,21.954 0,0 -23.677,-21.397 -30.359,-48.125 -3.48,-13.785 -2.366,-28.542 8.772,-41.628 32.852,-38.419 81.298,-19.767 107.332,-22.969 26.031,-3.066 48.306,-36.475 107.332,-44.551 53.18,-7.239 95.221,13.228 100.511,38.283 0.697,2.789 0.836,5.433 0.558,8.22 z"
   id="path3024" />
				</g>
			</g>
			<g
   id="g3034">
				<g
   id="g3032">
					<path
   style="fill:#e64844"
   d="m 1285.935,328.467 c -49.066,-16.622 -91.601,-12.528 -117.634,-3.895 -26.034,8.633 -73.504,43.157 -133.366,43.993 -59.86,0.972 -72.808,30.901 -72.808,30.901 0,0 0,0 -0.139,-0.136 -3.48,-13.785 -2.366,-28.542 8.772,-41.628 32.852,-38.419 81.298,-19.767 107.332,-22.969 26.031,-3.066 48.306,-36.475 107.332,-44.551 53.18,-7.238 95.221,13.229 100.511,38.285 z"
   id="path3030" />
				</g>
			</g>
		</g>
		<g
   id="g3042">
			<g
   id="g3040">
				<path
   style="fill:#000003"
   d="m 604.552,479.147 c 0,0 -10.738,5.17 8.248,41.679 24.063,46.271 56.388,77.183 66.178,70.592 15.347,-10.333 -19.647,-71.544 -28.802,-85.918 -9.155,-14.374 -27.635,-29.818 -45.624,-26.353 z"
   id="path3038" />
			</g>
		</g>
		<g
   id="g3048">
			<g
   id="g3046">
				<path
   style="fill:#f57af7"
   d="m 589.563,518.439 c 17.205,-2.26 34.627,14.17 36.324,33.314 0.917,10.343 -2.474,18.533 -2.474,18.533 l -36.79,74.898 c -11.209,19.387 -56.335,102.254 -80.493,105.837 -33.098,4.909 -64.574,-15.381 -70.799,-48.257 -3.852,-20.346 6.745,-43.964 20.284,-57.648 l 1.743,-2.011 109.848,-112.428 c 0.052,-0.052 12.605,-10.958 22.357,-12.238 z"
   id="path3044" />
			</g>
		</g>
		<g
   id="g3054">
			<g
   id="g3052">
				<path
   style="fill:#f57af7"
   d="m 738.142,462.065 20.181,60.014 -148.845,61.239 c 0,0 -35.507,10.081 -46.306,-22.861 -5.338,-16.283 2.784,-33.751 18.471,-40.077 l -0.018,-0.047 z"
   id="path3050" />
			</g>
		</g>
		<g
   id="g3060">
			<g
   id="g3058">
				<path
   style="fill:#5ab1f2"
   d="m 474.276,838.245 c 0,0 22.32,-33.158 112.347,-193.062 0,0 -18.258,-49.572 -78.764,-53.766 0,0 -101.925,96.906 -154.278,177.461 -0.001,10e-4 49.87,40.612 120.695,69.367 z"
   id="path3056" />
			</g>
		</g>
		<g
   id="g3140">
			<g
   id="g3130">
				<g
   id="g3066">
					<g
   id="g3064">
						<path
   style="fill:#f57af7"
   d="m 718.409,199.82 c 5.018,17.29 23.139,27.26 40.429,22.242 10.322,-2.995 18.021,-10.626 21.462,-19.978 2.362,-6.321 2.776,-13.436 0.743,-20.441 -5.018,-17.29 -23.092,-27.234 -40.382,-22.216 -12.977,3.766 -21.821,14.886 -23.324,27.473 0.011,0.037 0.011,0.037 0.011,0.037 -0.504,4.185 -0.19,8.57 1.061,12.883 z"
   id="path3062" />
					</g>
				</g>
				<g
   id="g3128">
					<g
   id="g3072">
						<g
   id="g3070">
							<path
   style="fill:#000003"
   d="m 748.349,216.18 c 0,0 -2.81,-4.681 -5.192,-5.027 -2.382,-0.346 -7.91,1.386 -6.159,2.721 0,0 1.383,0.621 2.375,2.3 1.769,2.991 3.125,3.128 3.125,3.128 0,0 7.824,-0.378 5.851,-3.122 z"
   id="path3068" />
						</g>
					</g>
					<g
   id="g3078">
						<g
   id="g3076">
							<path
   style="fill:#000003"
   d="m 733.902,208.461 c -0.343,0 -0.65,-0.046 -0.885,-0.162 -0.232,-0.114 -0.383,-0.288 -0.449,-0.517 l -1.634,-5.632 0.24,-0.07 1.634,5.632 c 0.046,0.161 0.151,0.279 0.32,0.363 1.077,0.532 4.095,-0.629 4.125,-0.641 0.064,-0.024 0.137,0.006 0.162,0.071 0.025,0.063 -0.007,0.137 -0.071,0.161 -0.103,0.041 -2.061,0.795 -3.442,0.795 z"
   id="path3074" />
						</g>
					</g>
					<g
   id="g3084">
						<g
   id="g3082">
							<path
   style="fill:#000003"
   d="m 735.976,189.554 c -0.033,0 -0.065,-0.013 -0.089,-0.038 -0.048,-0.049 -0.047,-0.128 0.002,-0.177 0.044,-0.044 4.556,-4.327 12.171,-1.959 0.066,0.021 0.102,0.09 0.082,0.156 -0.021,0.066 -0.092,0.104 -0.156,0.082 -7.466,-2.321 -11.878,1.858 -11.922,1.9 -0.025,0.024 -0.057,0.036 -0.088,0.036 z"
   id="path3080" />
						</g>
					</g>
					<g
   id="g3090">
						<g
   id="g3088">
							<path
   style="fill:#ffffff"
   d="m 746.953,189.979 c 0,0 0.661,3.686 -2.669,6.412 -0.284,0.256 -0.609,0.494 -0.975,0.714 -5.046,3.158 -9.251,-0.718 -9.251,-0.718 0,0 1.441,-4.425 5.06,-5.994 0.599,-0.26 1.203,-0.445 1.813,-0.557 3.305,-0.801 6.022,0.143 6.022,0.143 z"
   id="path3086" />
						</g>
					</g>
					<g
   id="g3096">
						<g
   id="g3094">
							<path
   style="fill:#000003"
   d="m 744.284,196.391 c -0.284,0.256 -0.609,0.494 -0.975,0.714 -5.046,3.158 -9.251,-0.718 -9.251,-0.718 0,0 1.263,-4.307 5.06,-5.994 0.596,-0.265 1.203,-0.445 1.813,-0.557 1.224,1.763 3.047,4.604 3.353,6.555 z"
   id="path3092" />
						</g>
					</g>
					<g
   id="g3102">
						<g
   id="g3100">
							<path
   style="fill:#000003"
   d="m 717.461,195.578 c -0.031,0 -0.063,-0.012 -0.087,-0.035 -0.05,-0.048 -0.051,-0.127 -0.003,-0.177 0.035,-0.036 3.59,-3.589 11.207,-1.223 0.066,0.02 0.103,0.09 0.082,0.156 -0.02,0.066 -0.09,0.104 -0.156,0.082 -7.46,-2.317 -10.919,1.122 -10.953,1.158 -0.024,0.026 -0.057,0.039 -0.09,0.039 z"
   id="path3098" />
						</g>
					</g>
					<g
   id="g3108">
						<g
   id="g3106">
							<path
   style="fill:#ffffff"
   d="m 727.472,196.743 c 0,0 0.661,3.686 -2.669,6.412 -0.284,0.256 -0.609,0.494 -0.975,0.714 -5.046,3.158 -9.251,-0.718 -9.251,-0.718 0,0 1.441,-4.425 5.06,-5.994 0.599,-0.26 1.203,-0.445 1.813,-0.557 3.305,-0.802 6.022,0.143 6.022,0.143 z"
   id="path3104" />
						</g>
					</g>
					<g
   id="g3114">
						<g
   id="g3112">
							<path
   style="fill:#000003"
   d="m 724.803,203.155 c -0.284,0.256 -0.609,0.494 -0.975,0.714 -5.046,3.158 -9.251,-0.718 -9.251,-0.718 0,0 1.263,-4.307 5.06,-5.994 0.596,-0.265 1.203,-0.445 1.813,-0.557 1.224,1.762 3.048,4.603 3.353,6.555 z"
   id="path3110" />
						</g>
					</g>
					<g
   id="g3120">
						<g
   id="g3118">
							<path
   style="fill:#000003"
   d="m 739.24,198.461 c -3.067,0 -5.236,-1.953 -5.266,-1.981 -0.036,-0.033 -0.049,-0.084 -0.034,-0.131 0.014,-0.044 1.499,-4.497 5.129,-6.07 0.605,-0.262 1.224,-0.452 1.84,-0.565 3.292,-0.8 6.057,0.139 6.085,0.148 0.042,0.015 0.074,0.052 0.082,0.096 0.007,0.038 0.635,3.791 -2.713,6.531 -0.281,0.254 -0.616,0.498 -0.989,0.725 -1.472,0.919 -2.879,1.247 -4.134,1.247 z m -5.035,-2.112 c 0.534,0.449 4.46,3.518 9.038,0.65 0.362,-0.218 0.683,-0.453 0.957,-0.7 2.984,-2.443 2.708,-5.697 2.64,-6.225 -0.449,-0.137 -2.944,-0.825 -5.88,-0.117 -0.604,0.112 -1.205,0.297 -1.792,0.551 -3.263,1.414 -4.75,5.246 -4.963,5.841 z"
   id="path3116" />
						</g>
					</g>
					<g
   id="g3126">
						<g
   id="g3124">
							<path
   style="fill:#000003"
   d="m 719.759,205.224 c -3.067,0 -5.236,-1.953 -5.267,-1.981 -0.036,-0.033 -0.049,-0.084 -0.034,-0.131 0.014,-0.044 1.5,-4.496 5.129,-6.069 0.604,-0.263 1.223,-0.453 1.84,-0.565 3.294,-0.799 6.057,0.138 6.085,0.147 0.042,0.015 0.074,0.052 0.082,0.096 0.007,0.038 0.635,3.791 -2.713,6.531 -0.286,0.258 -0.621,0.503 -0.989,0.725 -1.471,0.919 -2.877,1.247 -4.133,1.247 z m -5.035,-2.113 c 0.533,0.45 4.458,3.52 9.039,0.651 0.357,-0.215 0.679,-0.451 0.958,-0.701 2.984,-2.443 2.708,-5.697 2.64,-6.224 -0.449,-0.139 -2.946,-0.829 -5.88,-0.117 -0.604,0.111 -1.205,0.296 -1.792,0.55 -3.265,1.416 -4.752,5.248 -4.965,5.841 z"
   id="path3122" />
						</g>
					</g>
				</g>
			</g>
			<g
   id="g3138">
				<g
   id="g3136">
					<g
   id="g3134">
						<path
   style="fill:#000003"
   d="m 712.999,170.954 c 7.235,-12.868 6.773,-3.509 12.522,-7.087 5.748,-3.577 21.054,-22.858 24.851,-17.223 5.462,8.106 29.095,-7.435 24.471,5.676 -4.63,13.131 10.498,0.66 9.629,10.292 -0.632,7.002 -1.565,14.669 -2.333,20.548 0.013,0.055 0.034,0.106 0.047,0.161 1.647,6.955 0.314,14.264 -2.513,20.382 0,0 -8.214,1.692 -12.129,-6.947 -2.071,-4.568 5.887,-2.697 5.282,-9.506 -0.552,-6.22 -8.662,-8.973 -12.609,-6.236 -3.939,2.775 -6.903,-5.115 -8.25,-7.438 -1.724,-2.973 -7.61,3.845 -14.289,8.818 -11.177,8.321 -21.187,3.572 -21.187,3.572 0,0 -10.736,-2.127 -3.492,-15.012 z"
   id="path3132" />
					</g>
				</g>
			</g>
		</g>
		<g
   id="g3146">
			<g
   id="g3144">
				<path
   style="fill:#eabd00"
   d="m 754.015,443.081 c 0,0 102.093,71.351 163.251,116.771 0,0 -32.07,3.397 -72.974,51.643 -31.277,36.891 -36.267,50.981 -36.267,50.981 0,0 -100.193,-81.65 -125.199,-106.853 z"
   id="path3142" />
			</g>
		</g>
		<g
   id="g3180">
			<g
   id="g3172">
				<g
   id="g3154">
					<g
   id="g3152">
						<g
   id="g3150">
							<path
   style="fill:#e54aed"
   d="m 440.24,385.474 c 0,0 -41.781,49.285 -49.048,68.274 -6.384,16.68 6.884,21.65 12.685,16.002 4.827,-4.699 19.199,-24.275 19.199,-24.275 0,0 1.605,19.334 7.533,25.217 5.928,5.883 11.433,0.363 14.753,-5.667 0,0 12.366,9.582 16.647,-2.391 4.281,-11.973 -3.79,-22.502 -3.79,-22.502 0,0 22.855,-31.368 39.675,-47.646 10e-4,0 -19.356,-6.959 -57.654,-7.012 z"
   id="path3148" />
						</g>
					</g>
				</g>
				<g
   id="g3162">
					<g
   id="g3160">
						<g
   id="g3158">
							<path
   style="fill:#000003"
   d="m 423.075,446.475 c -0.181,0 -0.363,-0.049 -0.528,-0.151 -0.469,-0.292 -0.612,-0.909 -0.32,-1.378 0.159,-0.255 16.25,-25.914 43.264,-55.015 0.377,-0.404 1.009,-0.429 1.413,-0.052 0.405,0.375 0.428,1.008 0.053,1.413 -26.876,28.95 -42.874,54.457 -43.032,54.712 -0.19,0.304 -0.516,0.471 -0.85,0.471 z"
   id="path3156" />
						</g>
					</g>
				</g>
				<g
   id="g3170">
					<g
   id="g3168">
						<g
   id="g3166">
							<path
   style="fill:#000003"
   d="m 445.363,466.024 c -0.005,0 -0.01,0 -0.015,0 -0.552,-0.008 -0.994,-0.462 -0.986,-1.015 0.003,-0.19 0.276,-19.208 0.455,-27.49 0.006,-0.279 0.128,-0.542 0.337,-0.728 1.375,-1.216 33.762,-29.857 42.91,-35.383 0.473,-0.287 1.087,-0.134 1.373,0.34 0.286,0.473 0.134,1.087 -0.339,1.373 -8.512,5.141 -38.793,31.791 -42.29,34.878 -0.179,8.489 -0.443,26.851 -0.445,27.039 -0.008,0.548 -0.454,0.986 -1,0.986 z"
   id="path3164" />
						</g>
					</g>
				</g>
			</g>
			<g
   id="g3178">
				<g
   id="g3176">
					<path
   style="fill:#f57af7"
   d="m 523.974,360.616 c 0,0 4.925,41.608 4.511,54.323 0,0 -11.405,15.8 -32.391,16.753 -15.376,0.699 -32.028,1.718 -38.122,12.577 -6.094,10.859 -15.093,23.007 -22.543,21.216 -7.45,-1.79 -7.038,-12.848 4.403,-28.818 6.941,-9.689 29.892,-30.821 29.892,-30.821 0,0 -7.897,-8.685 -19.407,-8.55 -11.51,0.135 -81.053,19.249 -86.509,8.534 -7.894,-15.502 28.797,-21.352 52.238,-26.358 23.441,-5.006 65.276,-20.252 84.569,-21.485 0,0.002 16.263,1.63 23.359,2.629 z"
   id="path3174" />
				</g>
			</g>
		</g>
		<g
   id="g3188">
			<g
   id="g3186">
				<g
   id="g3184">
					<path
   style="fill:#f57af7"
   d="m 618.161,397.583 0.012,0.017 95.481,-70.325 -0.005,-0.007 c 5.832,-4.264 9.244,-11.473 8.289,-19.151 -1.403,-11.273 -11.679,-19.274 -22.952,-17.871 -3.237,0.403 -6.19,1.556 -8.743,3.236 l -0.024,-0.036 -0.571,0.419 c -0.073,0.052 -0.144,0.106 -0.216,0.159 l -96.04,70.435 0.006,0.008 c -5.845,4.292 -9.264,11.529 -8.305,19.237 1.411,11.338 11.746,19.386 23.084,17.975 3.773,-0.469 7.167,-1.943 9.984,-4.096 z"
   id="path3182" />
				</g>
			</g>
		</g>
		<g
   id="g3196">
			<g
   id="g3194">
				<g
   id="g3192">
					<path
   style="fill:#f57af7"
   d="m 506.772,418.653 c 0,0 104.021,-11.264 110.783,-21.19 10.461,-9.675 6.936,-28.008 -6.205,-33.247 0,0 -99.771,-5.291 -99.771,-5.291 -3.091,27.08 -3.434,35.889 -4.807,59.728 z"
   id="path3190" />
				</g>
			</g>
		</g>
		<g
   id="g3202">
			<g
   id="g3200">
				<path
   style="fill:#374aaa"
   d="m 700.173,362.875 c -2.034,1.305 -4.084,2.623 -6.162,3.937 -2.977,1.882 -5.986,3.789 -9.039,5.704 0,0 -36.696,-44.979 -47.19,-67.398 0,0 2.868,-3.136 7.71,-7.884 1.548,-1.51 3.301,-3.18 5.226,-4.969 22.975,-21.349 70.839,-58.985 95.83,-28.774 34.353,41.486 0.742,69.102 -46.375,99.384 z"
   id="path3198" />
			</g>
		</g>
		<g
   id="g3208">
			<g
   id="g3206">
				<path
   style="fill:#ffffff"
   d="m 700.173,362.875 c -2.034,1.305 -4.084,2.623 -6.162,3.937 -8.298,-11.908 -34.092,-48.946 -48.519,-69.578 1.548,-1.51 3.301,-3.18 5.226,-4.969 10.02,14.138 34.046,48.085 49.455,70.61 z"
   id="path3204" />
			</g>
		</g>
		<g
   id="g3216">
			<g
   id="g3214">
				<g
   id="g3212">
					<path
   style="fill:#f57af7"
   d="m 976.629,310.444 -0.004,0.02 -116.444,-23.438 0.002,-0.009 c -7.099,-1.404 -13.248,-6.504 -15.63,-13.879 -3.497,-10.828 2.446,-22.44 13.274,-25.937 3.109,-1.004 6.278,-1.207 9.307,-0.762 l 0.007,-0.043 0.695,0.139 c 0.088,0.016 0.175,0.035 0.264,0.053 l 116.998,23.302 -0.002,0.01 c 7.123,1.423 13.289,6.546 15.68,13.95 3.517,10.89 -2.46,22.57 -13.351,26.087 -3.623,1.171 -7.327,1.27 -10.796,0.507 z"
   id="path3210" />
				</g>
			</g>
		</g>
		<g
   id="g3224">
			<g
   id="g3222">
				<g
   id="g3220">
					<path
   style="fill:#f57af7"
   d="m 1088.538,291.853 c 0,0 -101.808,24.867 -111.562,17.825 -13.152,-5.544 -16.084,-24.012 -5.495,-33.428 0,0 92.309,-37.943 92.309,-37.943 12.148,24.45 15.325,31.562 24.748,53.546 z"
   id="path3218" />
				</g>
			</g>
		</g>
		<g
   id="g3230">
			<g
   id="g3228">
				<path
   style="fill:#f57af7"
   d="m 738.924,241.946 c 0,0 19.556,-8.451 53.371,-18.582 0,0 32.412,-0.63 43.032,16.845 10.62,17.475 -11.489,138.593 -11.489,138.593 0,0 -54.602,4.966 -94.39,9.979 0,0 -4.804,-75.459 -5.975,-105.305 -1.173,-29.846 9.559,-38.949 15.451,-41.53 z"
   id="path3226" />
			</g>
		</g>
		<g
   id="g3236">
			<g
   id="g3234">
				<path
   style="fill:#374aaa"
   d="m 876.497,219.619 c 0,0 -6.695,16.516 -15.488,56.53 -8.661,39.4 -11.21,51.583 -14.672,79.98 -4.465,36.555 -6.932,49.572 -6.932,49.572 -19.786,11.415 -26.29,14.469 -62.531,19.286 -28.01,3.719 -51.545,-12.253 -51.545,-12.253 -0.651,-5.565 -0.963,-12.343 0.001,-36.726 1.175,-30.034 -7.855,-29.292 -18.053,-61.305 -8.46,-26.562 -10.594,-55.6 -10.594,-55.6 12.921,-5.916 28.999,-12.595 36.68,-15.387 3.418,-1.242 5.56,-1.772 5.56,-1.772 9.531,9.714 29.13,27.994 29.13,27.994 l 24.249,-46.573 c 0,0 2.285,-0.565 6.212,-1.59 6.795,-1.784 19.534,-2.477 32.185,-3.723 24.403,-2.402 45.798,1.567 45.798,1.567 z"
   id="path3232" />
			</g>
		</g>
		<g
   id="g3242">
			<g
   id="g3240">
				<path
   style="fill:#374aaa"
   d="m 919.818,328.483 c -4.893,-0.393 -9.604,-0.795 -14.125,-1.22 -4.339,-0.39 -8.493,-0.79 -12.491,-1.209 -102.233,-10.582 -98.224,-27.934 -87.801,-81.225 7.615,-39.011 70.219,-27.61 106.808,-17.373 4.29,1.199 8.223,2.391 11.656,3.465 9.019,2.855 14.695,5.015 14.695,5.015 -4.347,22.221 -18.742,92.547 -18.742,92.547 z"
   id="path3238" />
			</g>
		</g>
		<g
   id="g3248">
			<g
   id="g3246">
				<path
   style="fill:#ffdd48"
   d="m 604.559,479.146 c 0,0 55.083,18.482 74.42,112.272 0,0 29.781,-20.996 107.696,-43.527 59.474,-17.198 60.302,-83.371 54.625,-112.273 0,0 -64.221,-17.483 -91.69,-20.223 0,0 -31.859,21.424 -66.4,33.568 -35.316,12.415 -60.148,19.465 -78.651,30.183 z"
   id="path3244" />
			</g>
		</g>
		<g
   id="g3254">
			<g
   id="g3252">
				<path
   style="fill:#000003"
   d="m 839.148,404.273 c 0,0 -57.622,-17.912 -114.865,-1.377 0,0 -1.955,9.424 -2.186,28.69 0,0 62.134,-16.096 119.597,6.16 0,0 0.219,-14.317 -2.546,-33.473 z"
   id="path3250" />
			</g>
		</g>
		<g
   id="g3260">
			<g
   id="g3258">
				<path
   style="fill:#ffffff"
   d="m 905.229,327.221 c -4.339,-0.39 -3.285,-0.267 -7.283,-0.686 0,0 14.135,-73.844 18.671,-97.815 4.29,1.199 3.373,0.989 6.806,2.064 10e-4,-0.001 -11.306,62.456 -18.194,96.437 z"
   id="path3256" />
			</g>
		</g>
		<g
   id="g3266">
			<g
   id="g3264">
				<path
   style="fill:#ffffff"
   d="m 807.927,220.191 c 0,0 -33.891,66.565 -37.216,73.596 0,0 -42.243,-44.342 -45.029,-47.124 2.522,-1.118 4.699,-1.873 4.699,-1.873 9.531,9.714 39.511,39.533 39.511,39.533 l 31.909,-63.255 c 0,0 3.089,-0.737 6.126,-0.877 z"
   id="path3262" />
			</g>
		</g>
		<g
   id="g3286">
			<g
   id="g3284">
				<g
   id="g3274">
					<g
   id="g3272">
						<g
   id="g3270">
							<path
   style="fill:#ffdd48"
   d="m 777.189,340.681 c -0.165,-1.632 -0.509,-3.044 -1.03,-4.237 -1.502,-3.303 -3.907,-5.231 -7.217,-5.781 1.729,-0.777 3.065,-1.968 4.009,-3.572 0.944,-1.601 1.294,-3.597 1.052,-5.983 -0.366,-3.621 -1.554,-6.224 -3.563,-7.809 -2.009,-1.585 -4.964,-2.18 -8.862,-1.786 l -20.29,2.053 0.845,8.354 17.307,-1.751 c 2.387,-0.241 3.701,0.832 3.942,3.218 l 0.121,1.194 c 0.241,2.387 -0.831,3.702 -3.219,3.943 l -11.338,1.148 0.844,8.354 12.532,-1.268 c 2.387,-0.241 3.703,0.832 3.944,3.22 l 0.242,2.387 c 0.092,0.916 -0.102,1.668 -0.586,2.26 -0.483,0.592 -1.182,0.933 -2.096,1.025 -4.338,0.439 -10.933,0.805 -19.785,1.098 l 0.815,8.057 c 8.156,-0.022 15.557,-0.369 22.201,-1.041 3.899,-0.395 6.67,-1.598 8.317,-3.615 1.644,-2.015 2.269,-4.972 1.875,-8.872 z"
   id="path3268" />
						</g>
					</g>
				</g>
				<g
   id="g3282">
					<g
   id="g3280">
						<g
   id="g3278">
							<path
   style="fill:#ffdd48"
   d="m 812.459,337.715 -0.06,-0.596 c -0.166,-1.632 -0.51,-3.044 -1.031,-4.238 -1.5,-3.304 -3.907,-5.231 -7.217,-5.781 1.729,-0.777 3.065,-1.968 4.009,-3.572 0.943,-1.601 1.294,-3.597 1.053,-5.983 -0.367,-3.62 -1.555,-6.223 -3.564,-7.809 -2.009,-1.585 -4.964,-2.18 -8.862,-1.786 l -20.29,2.053 0.845,8.354 17.307,-1.751 c 2.387,-0.241 3.701,0.832 3.943,3.219 l 0.121,1.194 c 0.241,2.388 -0.832,3.702 -3.218,3.943 l -11.34,1.147 0.846,8.354 12.532,-1.268 c 2.388,-0.241 3.702,0.832 3.943,3.219 l 0.242,2.386 c 0.093,0.916 -0.103,1.669 -0.585,2.261 -0.483,0.592 -1.182,0.933 -2.096,1.025 -4.338,0.439 -10.933,0.805 -19.785,1.098 l 0.815,8.057 c 8.156,-0.022 15.557,-0.369 22.201,-1.042 3.899,-0.394 6.67,-1.597 8.317,-3.615 1.644,-2.012 2.269,-4.969 1.874,-8.869 z"
   id="path3276" />
						</g>
					</g>
				</g>
			</g>
		</g>
		<g
   id="g3300">
			<g
   id="g3292">
				<g
   id="g3290">
					<path
   style="fill:#000003"
   d="m 487.348,817.242 c 0,0 -9.27,31.622 -31.808,58.946 -13.299,16.123 -31.567,20.154 -42.942,21.731 -18.099,2.528 -39.117,-4.826 -54.721,-26.745 -25.403,-35.703 -21.522,-55.432 -67.362,-96.292 -45.841,-40.873 -86.329,-96.946 -61.724,-121.963 1.744,-1.773 3.685,-3.221 5.822,-4.371 28.01,-15.298 87.24,18.949 110.651,29.061 25.203,10.886 36.761,-9.208 50.311,-4.539 14.224,4.901 13.695,25.374 6.794,43.706 -3.261,8.659 -6.097,72.136 84.979,100.466 z"
   id="path3288" />
				</g>
			</g>
			<g
   id="g3298">
				<g
   id="g3296">
					<path
   style="fill:#e64844"
   d="m 436.891,890.795 c -21.07,13.954 -51.809,15.777 -79.015,-19.621 -26.702,-34.742 -21.522,-55.432 -67.362,-96.292 -45.841,-40.873 -86.329,-96.946 -61.724,-121.963 0,0 -0.211,1.388 -0.009,4.106 0.714,9.595 6.574,35.761 45.028,75.907 46.077,48.103 61.871,58.697 86.347,109.419 21.099,43.723 72.542,47.698 76.735,48.444 z"
   id="path3294" />
				</g>
			</g>
		</g>
		<g
   id="g3382">
			<g
   id="g3308">
				<g
   id="g3306">
					<g
   id="g3304">
						<path
   style="fill:#f57af7"
   d="m 1076.177,294.754 c 0,0 55.216,-6.226 78.66,-64.196 0,0 -35.859,-41.773 -51.668,-53.18 0,0 -41.102,-2.602 -63.262,83.447 0,-10e-4 20.782,18.046 36.27,33.929 z"
   id="path3302" />
					</g>
				</g>
			</g>
			<g
   id="g3316">
				<g
   id="g3314">
					<g
   id="g3312">
						<path
   style="fill:#f57af7"
   d="m 1043.625,247.81 c 0,0 0.501,-17.555 3.223,-27.237 2.722,-9.682 13.372,-13.802 13.372,-13.802 0,0 32.083,-9.445 39.432,-4.288 7.348,5.157 7.042,14.969 2.795,17.002 -4.247,2.033 -27.603,7.185 -27.603,7.185 0,0 18.564,25.365 7.802,46.952 -10e-4,0 -31.333,-22.765 -39.021,-25.812 z"
   id="path3310" />
					</g>
				</g>
			</g>
			<g
   id="g3324">
				<g
   id="g3322">
					<g
   id="g3320">
						<path
   style="fill:#f57af7"
   d="m 1103.169,177.377 c 0,0 40.663,31.357 51.668,53.18 0,0 -22.855,30.335 -31.993,10.762 0,0 -11.698,-4.763 -12.129,-13.525 0,0 -11.785,-2.63 -12.149,-14.166 0,0 -15.56,0.517 -13.759,-12.319 1.013,-7.213 18.362,-23.932 18.362,-23.932 z"
   id="path3318" />
					</g>
				</g>
			</g>
			<g
   id="g3332">
				<g
   id="g3330">
					<g
   id="g3328">
						<path
   style="fill:#000003"
   d="m 1060.252,207.791 c -0.432,0 -0.831,-0.282 -0.959,-0.718 -0.156,-0.53 0.148,-1.086 0.678,-1.241 0.132,-0.039 13.38,-3.909 24.727,-5.35 0.553,-0.064 1.048,0.319 1.118,0.866 0.069,0.548 -0.318,1.049 -0.866,1.118 -11.186,1.42 -24.285,5.245 -24.416,5.284 -0.093,0.028 -0.188,0.041 -0.282,0.041 z"
   id="path3326" />
					</g>
				</g>
			</g>
			<g
   id="g3340">
				<g
   id="g3338">
					<g
   id="g3336">
						<path
   style="fill:#000003"
   d="m 1074.875,227.686 c -0.459,0 -0.873,-0.318 -0.976,-0.785 -0.119,-0.539 0.222,-1.072 0.761,-1.191 0.184,-0.04 18.446,-4.074 25.433,-6.365 0.525,-0.175 1.09,0.114 1.262,0.639 0.172,0.524 -0.114,1.09 -0.639,1.262 -7.081,2.322 -24.871,6.252 -25.625,6.418 -0.072,0.014 -0.144,0.022 -0.216,0.022 z"
   id="path3334" />
					</g>
				</g>
			</g>
			<g
   id="g3348">
				<g
   id="g3346">
					<g
   id="g3344">
						<path
   style="fill:#000003"
   d="m 1084.847,202.323 c -0.046,0 -0.093,-0.003 -0.141,-0.01 -0.547,-0.077 -0.928,-0.582 -0.851,-1.129 1.048,-7.469 17.939,-23.82 18.658,-24.513 0.397,-0.383 1.031,-0.37 1.414,0.025 0.383,0.398 0.372,1.031 -0.026,1.414 -4.756,4.585 -17.274,17.716 -18.065,23.351 -0.071,0.501 -0.499,0.862 -0.989,0.862 z"
   id="path3342" />
					</g>
				</g>
			</g>
			<g
   id="g3356">
				<g
   id="g3354">
					<g
   id="g3352">
						<path
   style="fill:#000003"
   d="m 1131.474,248.913 c -0.338,0 -0.674,-0.018 -1.007,-0.053 -3.513,-0.368 -6.313,-2.641 -8.326,-6.756 -2.015,-0.895 -11.407,-5.476 -12.328,-13.523 -2.592,-0.808 -11.311,-4.233 -12.152,-13.948 -2.307,-0.084 -8.11,-0.679 -11.484,-4.432 -2.059,-2.29 -2.84,-5.324 -2.322,-9.018 0.077,-0.547 0.58,-0.929 1.129,-0.852 0.547,0.077 0.928,0.582 0.851,1.129 -0.432,3.079 0.182,5.568 1.824,7.398 3.561,3.967 10.836,3.789 10.912,3.783 0.011,-0.001 0.021,-0.001 0.032,-0.001 0.538,0 0.983,0.427 1,0.969 0.335,10.604 10.918,13.12 11.369,13.222 0.438,0.099 0.757,0.479 0.78,0.927 0.394,8.016 11.396,12.603 11.508,12.648 0.233,0.095 0.422,0.274 0.528,0.503 1.73,3.706 3.983,5.655 6.887,5.96 9.749,1.032 23.266,-16.722 23.401,-16.9 0.333,-0.442 0.958,-0.529 1.401,-0.197 0.441,0.333 0.529,0.96 0.197,1.4 -0.563,0.748 -13.493,17.741 -24.2,17.741 z"
   id="path3350" />
					</g>
				</g>
			</g>
			<g
   id="g3364">
				<g
   id="g3362">
					<g
   id="g3360">
						<path
   style="fill:#000003"
   d="m 1098.603,214.643 c -0.216,0 -0.433,-0.069 -0.616,-0.213 -0.435,-0.34 -0.512,-0.969 -0.171,-1.403 7.504,-9.59 18.635,-24.4 18.747,-24.549 0.332,-0.442 0.958,-0.529 1.4,-0.199 0.441,0.332 0.531,0.959 0.199,1.4 -0.111,0.148 -11.254,14.975 -18.77,24.58 -0.198,0.252 -0.492,0.384 -0.789,0.384 z"
   id="path3358" />
					</g>
				</g>
			</g>
			<g
   id="g3372">
				<g
   id="g3370">
					<g
   id="g3368">
						<path
   style="fill:#000003"
   d="m 1110.752,228.809 c -0.229,0 -0.458,-0.078 -0.647,-0.237 -0.421,-0.358 -0.472,-0.989 -0.115,-1.41 7.226,-8.509 21.443,-25.131 21.443,-25.131 l 1.52,1.301 c 0,0 -14.214,16.618 -21.438,25.125 -0.198,0.232 -0.48,0.352 -0.763,0.352 z"
   id="path3366" />
					</g>
				</g>
			</g>
			<g
   id="g3380">
				<g
   id="g3378">
					<g
   id="g3376">
						<path
   style="fill:#000003"
   d="m 1122.882,242.334 c -0.295,0 -0.588,-0.131 -0.786,-0.381 -0.342,-0.434 -0.268,-1.063 0.166,-1.404 0.135,-0.106 13.649,-10.801 24.004,-22.422 0.367,-0.412 0.999,-0.448 1.412,-0.082 0.413,0.368 0.449,1 0.082,1.412 -10.475,11.756 -24.123,22.555 -24.259,22.662 -0.184,0.145 -0.402,0.215 -0.619,0.215 z"
   id="path3374" />
					</g>
				</g>
			</g>
		</g>
	</g><g
   id="g3436"
   transform="translate(-522.43315,-460.85027)">
		<g
   id="g3390">
			<g
   id="g3388">
				
					<circle
   transform="matrix(0.7071,-0.7071,0.7071,0.7071,-364.1987,736.0118)"
   style="fill:#ffdd48"
   cx="706.34601"
   cy="807.633"
   id="ellipse3386"
   r="92.478996" />
			</g>
		</g>
		<g
   id="g3434">
			<g
   id="g3396">
				<g
   id="g3394">
					<path
   style="fill:#e64844"
   d="m 696.752,730.226 4.539,37.338 0.149,1.151 -0.002,0.131 0.032,0.033 1.028,0.424 34.348,14.019 1.078,0.441 0.277,0.119 0.016,0.017 0.913,-0.726 29.517,-23.553 -0.015,-0.082 -0.148,-1.184 -2.587,-21.291 C 751.095,724.521 733.25,717.371 714.971,715.666 l -17.272,13.802 z"
   id="path3392" />
				</g>
			</g>
			<g
   id="g3402">
				<g
   id="g3400">
					<path
   style="fill:#e64844"
   d="m 614.885,793.406 c -2.799,17.756 -0.371,36.221 7.268,52.886 l 22.12,9.045 1.061,0.424 0.081,0.05 29.384,-23.456 0.929,-0.742 0.1,-0.097 -0.117,-1.052 -4.423,-36.187 -0.148,-1.217 -0.031,-0.164 -0.016,-0.017 -1.077,-0.441 -35.67,-14.578 -0.083,0.081 -0.946,0.759 z"
   id="path3398" />
				</g>
			</g>
			<g
   id="g3408">
				<g
   id="g3406">
					<path
   style="fill:#e64844"
   d="m 712.427,846.583 -0.033,0.033 0.132,1.167 4.57,37.469 h 0.033 l 1.028,0.424 20.863,8.52 c 11.515,-4.343 22.341,-11.092 31.721,-20.224 4.391,-4.275 8.277,-8.901 11.642,-13.763 l -2.678,-21.851 -0.118,-0.986 -0.163,-0.068 -35.458,-14.493 -1.094,-0.458 -0.049,-0.017 -0.033,0.032 -0.929,0.743 -28.505,22.729 z"
   id="path3404" />
				</g>
			</g>
			<g
   id="g3414">
				<g
   id="g3412">
					<path
   style="fill:#000003"
   d="m 671.141,794.06 c -0.128,0 -0.257,-0.024 -0.379,-0.075 l -36.877,-15.119 c -0.332,-0.136 -0.566,-0.44 -0.612,-0.798 l -3.113,-24.231 c -0.07,-0.547 0.316,-1.049 0.864,-1.119 0.552,-0.061 1.049,0.317 1.119,0.864 l 3.039,23.654 35.795,14.675 29.437,-23.469 -4.354,-37.579 -22.208,-9.004 c -0.512,-0.207 -0.759,-0.791 -0.551,-1.303 0.208,-0.512 0.791,-0.758 1.302,-0.551 l 22.758,9.227 c 0.339,0.138 0.576,0.448 0.618,0.812 l 4.485,38.719 c 0.04,0.343 -0.1,0.682 -0.37,0.897 l -30.33,24.182 c -0.18,0.144 -0.4,0.218 -0.623,0.218 z"
   id="path3410" />
				</g>
			</g>
			<g
   id="g3420">
				<g
   id="g3418">
					<path
   style="fill:#000003"
   d="m 712.152,847.949 c -0.131,0 -0.263,-0.025 -0.388,-0.078 l -36.423,-15.336 c -0.321,-0.136 -0.549,-0.429 -0.601,-0.773 l -5.697,-37.83 c -0.053,-0.354 0.087,-0.71 0.368,-0.933 l 31.439,-24.905 c 0.283,-0.224 0.664,-0.278 0.999,-0.142 l 36.454,14.884 c 0.333,0.136 0.568,0.441 0.614,0.799 l 4.948,38.591 c 0.045,0.346 -0.095,0.689 -0.367,0.907 l -30.721,24.596 c -0.181,0.145 -0.402,0.22 -0.625,0.22 z m -35.518,-17.04 35.357,14.888 29.818,-23.873 -4.803,-37.456 -35.372,-14.442 -30.527,24.183 z"
   id="path3416" />
				</g>
			</g>
			<g
   id="g3426">
				<g
   id="g3424">
					<path
   style="fill:#000003"
   d="m 779.424,838.305 c -0.128,0 -0.256,-0.024 -0.378,-0.074 L 742.495,823.28 c -0.333,-0.137 -0.568,-0.441 -0.613,-0.799 l -4.948,-38.591 c -0.045,-0.349 0.097,-0.694 0.373,-0.912 l 30.707,-24.225 c 0.284,-0.224 0.668,-0.276 1.002,-0.139 l 21.335,8.838 c 0.51,0.211 0.752,0.796 0.541,1.307 -0.211,0.509 -0.794,0.752 -1.307,0.541 l -20.794,-8.613 -29.803,23.512 4.802,37.451 35.47,14.509 17.62,-13.969 c 0.432,-0.345 1.062,-0.271 1.405,0.162 0.343,0.433 0.271,1.062 -0.163,1.404 l -18.078,14.333 c -0.179,0.142 -0.399,0.216 -0.62,0.216 z"
   id="path3422" />
				</g>
			</g>
			<g
   id="g3432">
				<g
   id="g3430">
					<path
   style="fill:#000003"
   d="m 698.693,900.89 c -0.294,0 -0.586,-0.129 -0.783,-0.378 -0.344,-0.432 -0.272,-1.061 0.16,-1.404 l 17.966,-14.29 -4.564,-37.5 -35.896,-14.787 -29.181,23.659 2.915,23.517 c 0.068,0.548 -0.321,1.048 -0.869,1.115 -0.552,0.081 -1.047,-0.321 -1.115,-0.869 l -2.983,-24.067 c -0.042,-0.343 0.094,-0.683 0.362,-0.899 l 30.073,-24.382 c 0.285,-0.232 0.672,-0.288 1.011,-0.148 l 36.987,15.235 c 0.335,0.138 0.568,0.445 0.612,0.804 l 4.702,38.637 c 0.042,0.346 -0.098,0.688 -0.37,0.903 l -18.404,14.638 c -0.185,0.144 -0.405,0.216 -0.623,0.216 z"
   id="path3428" />
				</g>
			</g>
		</g>
	</g>
</svg>
