<?xml version="1.0" encoding="UTF-8" standalone="no"?>
<!-- Generator: Adobe Illustrator 27.5.0, SVG Export Plug-In . SVG Version: 6.00 Build 0)  -->

<svg
   version="1.1"
   id="Layer_1"
   x="0px"
   y="0px"
   viewBox="0 0 394.259 361.04575"
   xml:space="preserve"
   sodipodi:docname="furiaazul.svg"
   width="394.259"
   height="361.04575"
   inkscape:version="1.2.2 (b0a84865, 2022-12-01)"
   xmlns:inkscape="http://www.inkscape.org/namespaces/inkscape"
   xmlns:sodipodi="http://sodipodi.sourceforge.net/DTD/sodipodi-0.dtd"
   xmlns="http://www.w3.org/2000/svg"
   xmlns:svg="http://www.w3.org/2000/svg"><defs
   id="defs12515" /><sodipodi:namedview
   id="namedview12513"
   pagecolor="#ffffff"
   bordercolor="#000000"
   borderopacity="0.25"
   inkscape:showpageshadow="2"
   inkscape:pageopacity="0.0"
   inkscape:pagecheckerboard="0"
   inkscape:deskcolor="#d1d1d1"
   showgrid="false"
   inkscape:zoom="0.807"
   inkscape:cx="-19.826518"
   inkscape:cy="294.29988"
   inkscape:window-width="1920"
   inkscape:window-height="1027"
   inkscape:window-x="1728"
   inkscape:window-y="62"
   inkscape:window-maximized="1"
   inkscape:current-layer="Layer_1" />
<g
   id="g12158"
   transform="translate(-519.32,-117.29575)">
	<polygon
   style="fill:#dc4744"
   points="551.625,220.28 647.443,287.461 615.138,405.379 519.32,338.198 "
   id="polygon12042" />
	<polygon
   style="fill:#dc4744"
   points="881.275,220.28 785.456,287.461 817.761,405.379 913.579,338.198 "
   id="polygon12044" />
	<g
   id="g12054">
		<path
   style="fill:#1e2f47"
   d="M 730.664,473.786 876.542,369.587 c 8.112,-5.794 11.895,-15.932 9.562,-25.623 L 847.602,184.031 c -1.775,-7.374 -6.871,-13.506 -13.795,-16.602 L 726.43,119.425 c -6.351,-2.839 -13.611,-2.839 -19.962,0 l -107.377,48.004 c -6.924,3.095 -12.02,9.228 -13.795,16.602 l -38.502,159.933 c -2.333,9.692 1.45,19.829 9.562,25.623 l 145.878,104.199 c 8.504,6.074 19.927,6.074 28.43,0 z"
   id="path12046" />
		<path
   style="fill:#ffffff"
   d="m 664.498,154.62 -59.284,26.504 c -2.658,1.188 -4.652,3.588 -5.333,6.418 L 561.38,347.475 c -0.907,3.767 0.544,7.656 3.697,9.907 l 80.591,57.565 z"
   id="path12048" />
		<path
   style="fill:#dc4744"
   d="m 720.308,133.119 c -1.222,-0.546 -2.52,-0.823 -3.858,-0.823 -1.339,0 -2.637,0.277 -3.859,0.823 l -37.732,16.868 -19.659,271.769 55.754,39.824 c 1.613,1.152 3.513,1.761 5.496,1.761 1.982,0 3.882,-0.609 5.495,-1.761 L 777.699,421.756 758.04,149.988 Z"
   id="path12050" />
		<path
   style="fill:#ffffff"
   d="M 871.52,347.475 833.019,187.541 c -0.681,-2.83 -2.675,-5.229 -5.333,-6.418 l -59.284,-26.504 18.831,260.327 80.592,-57.565 c 3.151,-2.251 4.602,-6.14 3.695,-9.906 z"
   id="path12052" />
	</g>
	<g
   id="g12086">
		
			<circle
   transform="matrix(0.9973,-0.0732,0.0732,0.9973,-14.098,52.9525)"
   style="fill:#ffffff"
   cx="714.92102"
   cy="218.692"
   id="ellipse12056"
   r="68.054001" />
		<path
   style="fill:#80848a"
   d="m 759.892,167.6 c 0.338,0.885 0.666,1.777 0.974,2.682 13.109,38.627 -7.577,80.568 -46.204,93.677 -17.691,6.004 -36.076,4.915 -52.069,-1.736 17.495,21.022 46.754,30.228 74.2,20.913 35.591,-12.079 54.652,-50.723 42.573,-86.315 -3.972,-11.7 -10.814,-21.613 -19.474,-29.221 z"
   id="path12058" />
		
			<circle
   transform="matrix(0.9973,-0.0732,0.0732,0.9973,-14.098,52.9525)"
   style="fill:none;stroke:#1e2f47;stroke-width:6.6786;stroke-linecap:round;stroke-linejoin:round;stroke-miterlimit:10"
   cx="714.92102"
   cy="218.692"
   id="ellipse12060"
   r="68.054001" />
		
			<polygon
   style="fill:#1e2f47;stroke:#1e2f47;stroke-width:4.5584;stroke-linecap:round;stroke-linejoin:round;stroke-miterlimit:10"
   points="708.446,199.613 733.453,207.38 733.794,233.563 708.998,241.979 693.332,220.997 "
   id="polygon12062" />
		
			<path
   style="fill:#1e2f47;stroke:#1e2f47;stroke-width:4.5584;stroke-linecap:round;stroke-linejoin:round;stroke-miterlimit:10"
   d="m 693.05,154.249 c -6.801,2.308 -12.992,5.592 -18.483,9.633 l 24.316,7.552 14.696,-20.792 c -6.817,0.136 -13.728,1.299 -20.529,3.607 z"
   id="path12064" />
		
			<path
   style="fill:#1e2f47;stroke:#1e2f47;stroke-width:4.5584;stroke-linecap:round;stroke-linejoin:round;stroke-miterlimit:10"
   d="m 649.804,198.964 c -3.95,12.999 -4.064,27.293 0.534,41.15 l 14.682,-20.771 z"
   id="path12066" />
		
			<path
   style="fill:#1e2f47;stroke:#1e2f47;stroke-width:4.5584;stroke-linecap:round;stroke-linejoin:round;stroke-miterlimit:10"
   d="m 700.119,266.353 -24.094,8.177 c 11.408,7.933 25.135,12.303 39.319,12.214 z"
   id="path12068" />
		
			<path
   style="fill:#1e2f47;stroke:#1e2f47;stroke-width:4.5584;stroke-linecap:round;stroke-linejoin:round;stroke-miterlimit:10"
   d="m 756.006,272.943 c 11.308,-8.562 19.539,-20.384 23.762,-33.622 l -24.094,8.177 z"
   id="path12070" />
		
			<path
   style="fill:#1e2f47;stroke:#1e2f47;stroke-width:4.5584;stroke-linecap:round;stroke-linejoin:round;stroke-miterlimit:10"
   d="m 754.579,163.405 0.331,25.43 24.292,7.545 c -4.786,-13.794 -13.576,-25.065 -24.623,-32.975 z"
   id="path12072" />
		
			<line
   style="fill:none;stroke:#1e2f47;stroke-width:4.5584;stroke-linecap:round;stroke-linejoin:round;stroke-miterlimit:10"
   x1="755.67499"
   y1="247.498"
   x2="733.79401"
   y2="233.563"
   id="line12074" />
		
			<line
   style="fill:none;stroke:#1e2f47;stroke-width:4.5584;stroke-linecap:round;stroke-linejoin:round;stroke-miterlimit:10"
   x1="700.11902"
   y1="266.353"
   x2="708.99799"
   y2="241.979"
   id="line12076" />
		
			<line
   style="fill:none;stroke:#1e2f47;stroke-width:4.5584;stroke-linecap:round;stroke-linejoin:round;stroke-miterlimit:10"
   x1="665.01898"
   y1="219.342"
   x2="693.33197"
   y2="220.99699"
   id="line12078" />
		
			<line
   style="fill:none;stroke:#1e2f47;stroke-width:4.5584;stroke-linecap:round;stroke-linejoin:round;stroke-miterlimit:10"
   x1="698.88202"
   y1="171.43401"
   x2="708.44598"
   y2="199.61301"
   id="line12080" />
		
			<line
   style="fill:none;stroke:#1e2f47;stroke-width:4.5584;stroke-linecap:round;stroke-linejoin:round;stroke-miterlimit:10"
   x1="733.453"
   y1="207.38"
   x2="754.91101"
   y2="188.83501"
   id="line12082" />
		<polygon
   style="fill:#ffffff"
   points="693.332,220.997 709.323,202.196 733.453,207.38 708.446,199.613 "
   id="polygon12084" />
	</g>
	<g
   id="g12090">
		<path
   style="fill:#1e2f47"
   d="m 820.406,375.509 c -69.208,0.003 -138.417,0.003 -207.625,0 2.016,-14.141 4.031,-28.281 6.047,-42.422 65.177,0 130.353,0 195.53,0 2.017,14.141 4.033,28.281 6.048,42.422 z"
   id="path12088" />
	</g>
	<g
   id="g12118">
		<g
   id="g12116">
			<path
   style="fill:#ffffff"
   d="m 640.343,345.616 c -0.107,0.948 -0.161,1.421 -0.268,2.369 -1.531,0.075 -2.298,0.113 -3.83,0.188 0.102,-0.857 0.153,-1.286 0.254,-2.143 0.25,-2.106 -0.416,-3.046 -1.861,-3.046 -1.445,0 -2.341,0.94 -2.558,2.669 -0.721,5.745 -1.081,8.618 -1.801,14.362 -0.217,1.729 0.466,2.669 1.954,2.669 1.488,0 2.4,-0.94 2.65,-3.045 0.139,-1.173 0.209,-1.759 0.348,-2.932 1.534,0.075 2.301,0.113 3.836,0.188 -0.143,1.263 -0.214,1.895 -0.357,3.158 -0.451,3.985 -3.053,6.316 -7.042,6.316 -3.95,0 -5.945,-2.331 -5.422,-6.316 0.758,-5.774 1.137,-8.662 1.896,-14.437 0.523,-3.986 3.04,-6.317 6.835,-6.317 3.833,0 5.817,2.332 5.366,6.317 z"
   id="path12092" />
			<path
   style="fill:#ffffff"
   d="m 650.384,365.994 c 0.437,-4.586 0.655,-6.88 1.091,-11.467 -1.9,0 -2.85,0 -4.749,0 -0.469,4.587 -0.703,6.88 -1.172,11.467 -1.625,0 -2.438,0 -4.063,0 1.137,-10.526 1.706,-15.789 2.844,-26.318 1.563,0 2.344,0 3.908,0 -0.454,4.437 -0.68,6.655 -1.133,11.092 1.889,0 2.833,0 4.723,0 0.422,-4.437 0.633,-6.655 1.056,-11.092 1.563,0 2.344,0 3.908,0 -0.94,10.529 -1.41,15.792 -2.35,26.318 -1.626,0 -2.438,0 -4.063,0 z"
   id="path12094" />
			<path
   style="fill:#ffffff"
   d="m 667.673,365.994 c -0.185,-2.391 -0.276,-3.586 -0.455,-5.977 -1.778,0 -2.667,0 -4.445,0 -0.536,2.391 -0.805,3.587 -1.347,5.978 -1.625,0 -2.438,0 -4.063,0 2.751,-10.526 4.09,-15.79 6.7,-26.318 1.991,0 2.986,0 4.977,0 1.038,10.529 1.594,15.792 2.773,26.318 -1.656,-10e-4 -2.484,-10e-4 -4.14,-10e-4 z m -4.09,-9.587 c 1.345,0 2.018,0 3.364,0 -0.33,-4.436 -0.49,-6.655 -0.798,-11.092 -0.045,0 -0.067,0 -0.112,0 -0.971,4.438 -1.461,6.656 -2.454,11.092 z"
   id="path12096" />
			<path
   style="fill:#ffffff"
   d="m 687.875,365.993 c 0.299,-7.308 0.448,-10.962 0.746,-18.272 -0.03,0 -0.045,0 -0.075,0 -1.551,5.805 -2.34,8.708 -3.948,14.512 -0.961,0 -1.441,0 -2.401,0 -1.055,-5.805 -1.569,-8.707 -2.568,-14.512 -0.03,0 -0.045,0 -0.075,0 -0.397,7.309 -0.595,10.963 -0.993,18.272 -1.533,0 -2.299,0 -3.833,0 0.631,-10.526 0.945,-15.789 1.576,-26.318 2.049,0 3.075,0 5.124,0 0.928,5.656 1.406,8.483 2.387,14.137 0.03,0 0.045,0 0.075,0 1.503,-5.655 2.242,-8.482 3.694,-14.138 2.109,0 3.163,0 5.272,0 -0.369,10.529 -0.552,15.792 -0.92,26.318 -1.623,0.002 -2.436,0.002 -4.061,10e-4 z"
   id="path12098" />
			<path
   style="fill:#ffffff"
   d="m 702.705,339.676 c 4.203,0 6.464,2.332 6.42,6.655 -0.009,0.842 -0.013,1.263 -0.022,2.105 -0.045,4.324 -2.407,6.655 -6.708,6.655 -0.709,0 -1.064,0 -1.773,0 -0.099,4.361 -0.149,6.542 -0.248,10.902 -1.625,0 -2.438,0 -4.063,0 0.302,-10.526 0.451,-15.789 0.753,-26.318 2.257,10e-4 3.385,10e-4 5.641,10e-4 z m -2,11.731 c 0.646,0 0.968,0 1.613,0 1.914,0 2.793,-1.015 2.829,-3.233 0.01,-0.632 0.015,-0.948 0.026,-1.579 0.036,-2.219 -0.8,-3.234 -2.691,-3.234 -0.638,0 -0.957,0 -1.594,0 -0.073,3.218 -0.109,4.828 -0.183,8.046 z"
   id="path12100" />
			<path
   style="fill:#ffffff"
   d="m 711.914,365.994 c 0.063,-10.526 0.094,-15.789 0.158,-26.318 1.563,0 2.345,0 3.908,0 -0.002,10.529 -10e-4,15.792 -0.003,26.318 -1.626,0 -2.438,0 -4.063,0 z"
   id="path12102" />
			<path
   style="fill:#ffffff"
   d="m 732.54,345.955 c 0.135,5.505 0.203,8.257 0.339,13.76 0.102,4.135 -2.329,6.654 -6.394,6.654 -4.065,0 -6.572,-2.519 -6.595,-6.654 -0.031,-5.504 -0.047,-8.256 -0.077,-13.761 -0.023,-4.136 2.358,-6.656 6.263,-6.656 3.906,10e-4 6.362,2.521 6.464,6.657 z m -8.782,0.037 c 0.063,5.475 0.095,8.212 0.158,13.686 0.023,1.955 0.912,3.007 2.514,3.007 1.602,0 2.46,-1.053 2.423,-3.007 -0.103,-5.474 -0.154,-8.211 -0.257,-13.686 -0.037,-1.955 -0.908,-3.008 -2.465,-3.008 -1.555,0 -2.396,1.053 -2.373,3.008 z"
   id="path12104" />
			<path
   style="fill:#ffffff"
   d="m 746.222,365.993 c -2.436,-6.977 -3.628,-10.466 -5.956,-17.444 -0.03,0 -0.045,0 -0.075,0 0.25,6.978 0.376,10.467 0.626,17.445 -1.533,0 -2.3,0 -3.833,0 -0.32,-10.526 -0.479,-15.789 -0.799,-26.318 1.74,0 2.61,0 4.351,0 2.075,6.272 3.134,9.408 5.296,15.679 0.03,0 0.045,0 0.076,0 -0.276,-6.271 -0.414,-9.407 -0.689,-15.679 1.475,0 2.212,0 3.687,0 0.521,10.529 0.782,15.792 1.303,26.318 -1.595,-0.001 -2.393,-0.001 -3.987,-0.001 z"
   id="path12106" />
			<path
   style="fill:#ffffff"
   d="m 763.985,345.316 c 0.022,0.301 0.032,0.451 0.054,0.752 -1.508,0.15 -2.262,0.226 -3.772,0.376 -0.022,-0.331 -0.033,-0.497 -0.055,-0.827 -0.119,-1.805 -0.841,-2.632 -2.212,-2.632 -1.148,0 -1.925,0.639 -1.835,2.143 0.013,0.226 0.02,0.338 0.034,0.564 0.088,1.467 0.914,2.669 3.638,5.038 3.734,3.249 5.112,5.414 5.331,8.459 0.037,0.511 0.055,0.767 0.092,1.278 0.279,3.872 -2.068,5.902 -5.788,5.902 -3.758,0 -6.405,-2.143 -6.613,-6.015 -0.037,-0.692 -0.056,-1.038 -0.093,-1.729 1.539,-0.15 2.308,-0.225 3.845,-0.376 0.043,0.722 0.064,1.083 0.107,1.805 0.105,1.767 0.996,2.632 2.445,2.632 1.221,0 2.17,-0.639 2.046,-2.519 -0.022,-0.331 -0.033,-0.496 -0.055,-0.827 -0.109,-1.654 -0.97,-2.856 -3.698,-5.226 -3.739,-3.249 -5.039,-5.414 -5.194,-8.272 -0.014,-0.256 -0.021,-0.384 -0.035,-0.639 -0.209,-3.873 1.892,-5.904 5.503,-5.904 3.613,0 5.977,2.144 6.255,6.017 z"
   id="path12108" />
			<path
   style="fill:#ffffff"
   d="m 777.159,365.994 c -0.406,-4.586 -0.609,-6.88 -1.016,-11.467 -1.9,0 -2.849,0 -4.749,0 0.374,4.587 0.561,6.88 0.936,11.467 -1.625,0 -2.438,0 -4.063,0 -0.797,-10.526 -1.195,-15.79 -1.992,-26.318 1.563,0 2.345,0 3.908,0 0.362,4.437 0.543,6.655 0.905,11.092 1.889,0 2.833,0 4.723,0 -0.393,-4.437 -0.59,-6.655 -0.983,-11.092 1.563,0 2.344,0 3.908,0 0.995,10.529 1.492,15.792 2.486,26.318 -1.626,0 -2.438,0 -4.063,0 z"
   id="path12110" />
			<path
   style="fill:#ffffff"
   d="m 785.594,365.994 c -1.061,-10.526 -1.591,-15.79 -2.653,-26.319 1.563,0 2.344,0 3.908,0 1.124,10.529 1.685,15.792 2.808,26.318 -1.626,0.001 -2.438,0.001 -4.063,0.001 z"
   id="path12112" />
			<path
   style="fill:#ffffff"
   d="m 796.693,339.675 c 4.203,0 6.795,2.331 7.363,6.655 0.111,0.842 0.166,1.263 0.277,2.106 0.568,4.324 -1.465,6.655 -5.766,6.655 -0.709,0 -1.064,0 -1.773,0 0.518,4.361 0.777,6.542 1.296,10.903 -1.625,0 -2.438,0 -4.063,0 -1.19,-10.526 -1.784,-15.789 -2.975,-26.318 2.257,-10e-4 3.385,-10e-4 5.641,-10e-4 z m -0.337,11.731 c 0.646,0 0.968,0 1.614,0 1.913,0 2.649,-1.015 2.371,-3.233 -0.079,-0.632 -0.119,-0.948 -0.198,-1.579 -0.278,-2.218 -1.258,-3.234 -3.149,-3.233 -0.638,0 -0.957,0 -1.594,0 0.382,3.218 0.573,4.827 0.956,8.045 z"
   id="path12114" />
		</g>
	</g>
	<g
   id="g12122">
		<path
   style="fill:#1e2f47"
   d="m 913.579,338.198 c -131.124,-21.837 -263.135,-21.838 -394.259,0 L 551.625,220.28 c 114.059,18.889 215.589,18.895 329.65,0 z"
   id="path12120" />
	</g>
	<path
   style="fill:#ffffff"
   d="m 619.07,256.268 c -0.134,0.853 -0.201,1.28 -0.336,2.134 -4.925,0.152 -7.39,0.227 -12.324,0.383 0.166,-0.979 0.249,-1.469 0.415,-2.448 0.906,-5.342 -0.79,-7.99 -5.122,-8.441 -3.63,-0.378 -6.562,1.322 -7.406,5.992 -0.127,0.701 -0.19,1.051 -0.316,1.751 -0.822,4.553 0.865,8.617 7.971,15.801 9.735,9.842 12.906,15.529 11.555,24.153 -0.227,1.448 -0.34,2.172 -0.567,3.62 -1.902,11.604 -13.417,17.717 -23.674,19.587 -10.389,1.895 -20.797,-4.415 -17.522,-16.243 0.429,-2.263 0.644,-3.395 1.073,-5.658 5.202,-0.916 7.802,-1.352 12.998,-2.185 -0.408,2.251 -0.612,3.377 -1.021,5.628 -0.999,5.51 1.319,7.863 6.175,7.316 4.089,-0.461 7.736,-2.701 8.679,-8.263 0.166,-0.979 0.249,-1.468 0.415,-2.447 0.829,-4.895 -1.155,-8.332 -8.342,-15.214 -7.156,-6.854 -12.573,-16.339 -10.377,-26.606 0.158,-0.835 0.237,-1.252 0.395,-2.086 1.58,-11.001 11.012,-17.977 21.809,-16.333 9.584,1.458 17.553,9.179 15.522,19.559 z"
   id="path12124" />
	<path
   style="fill:#ffffff"
   d="m 665.067,260.111 c -1.078,11.481 -2.155,22.961 -3.233,34.442 -1.238,11.888 -13.736,17.247 -23.89,18.404 -10.016,1.142 -22.059,-3.99 -19.482,-16.219 1.933,-12.783 3.866,-25.566 5.8,-38.349 1.459,-11.368 11.912,-17.457 22.57,-16.482 9.533,0.87 19.441,7.32 18.235,18.204 z m -28.188,-0.983 c -1.659,12.233 -3.318,24.466 -4.978,36.698 -0.711,5.243 1.857,7.831 7.252,7.459 5.395,-0.372 8.66,-3.254 9.233,-8.285 1.336,-11.741 2.671,-23.481 4.007,-35.221 0.573,-5.032 -1.829,-7.887 -6.772,-8.202 -4.944,-0.316 -8.031,2.308 -8.742,7.551 z"
   id="path12126" />
	<path
   style="fill:#ffffff"
   d="m 712.924,260.077 c -0.015,2.251 -0.023,3.377 -0.038,5.628 -4.93,0.172 -7.397,0.252 -12.335,0.402 0.062,-2.046 0.093,-3.07 0.154,-5.116 0.152,-5.026 -2.261,-7.298 -6.864,-7.392 -4.603,-0.093 -7.21,2.108 -7.448,6.292 -0.659,11.581 -1.317,23.163 -1.976,34.744 -0.238,4.184 2.337,6.372 7.361,6.262 5.024,-0.11 7.798,-2.387 7.949,-7.413 0.084,-2.801 0.127,-4.201 0.211,-7.001 5.117,0.145 7.679,0.223 12.805,0.394 -0.02,3.001 -0.03,4.502 -0.051,7.504 -0.052,11.303 -12.736,15.045 -21.694,15.375 -8.8,0.324 -21.329,-3.257 -20.082,-14.67 0.941,-11.857 1.883,-23.713 2.824,-35.57 0.652,-10.503 10.785,-15.264 20.139,-14.771 11.775,0.62 19.109,5.863 19.045,15.332 z"
   id="path12128" />
	<path
   style="fill:#ffffff"
   d="m 759.398,259.508 c 0.187,2.335 0.28,3.503 0.466,5.838 -4.908,0.267 -7.366,0.393 -12.285,0.631 -0.121,-2.075 -0.181,-3.113 -0.302,-5.188 -0.297,-5.098 -2.907,-7.3 -7.51,-7.203 -4.603,0.096 -7.012,2.371 -6.881,6.502 0.361,11.434 0.721,22.869 1.082,34.303 0.13,4.131 2.907,6.41 7.93,6.524 5.023,0.113 7.595,-2.074 7.298,-7.172 -0.166,-2.84 -0.248,-4.26 -0.414,-7.101 5.131,0.25 7.698,0.383 12.835,0.667 0.248,3.113 0.373,4.67 0.621,7.784 1.235,11.5 -11.532,14.982 -20.336,14.662 -8.946,-0.325 -21.408,-4.148 -21.438,-15.374 -0.083,-11.435 -0.167,-22.869 -0.25,-34.304 -0.069,-9.469 7.143,-14.719 18.805,-15.333 9.38,-0.494 19.698,4.182 20.379,14.764 z"
   id="path12130" />
	<path
   style="fill:#ffffff"
   d="m 779.736,253.005 c 0.872,7.663 1.308,11.496 2.18,19.159 7.567,-0.056 11.348,-0.088 18.903,-0.16 0.556,3.987 0.834,5.98 1.391,9.967 -7.679,-0.146 -11.522,-0.211 -19.214,-0.324 0.916,8.05 1.375,12.076 2.291,20.127 9.855,0.585 14.779,0.93 24.614,1.725 0.586,4.04 0.879,6.06 1.465,10.101 -12.914,-1.395 -25.859,-2.506 -38.822,-3.33 -2.061,-21.958 -4.123,-43.916 -6.183,-65.873 11.546,-0.818 23.025,-1.795 34.543,-2.943 0.586,4.04 0.879,6.06 1.465,10.1 -9.046,0.668 -13.572,0.958 -22.633,1.451 z"
   id="path12132" />
	<path
   style="fill:#ffffff"
   d="m 833.56,283.796 c -2.423,-0.073 -3.635,-0.108 -6.059,-0.177 1.81,10.859 3.62,21.719 5.43,32.578 -5.502,-0.732 -8.255,-1.076 -13.766,-1.721 -3.774,-24.6 -7.549,-49.2 -11.323,-73.8 7.077,-0.823 10.612,-1.274 17.672,-2.257 12.311,-1.718 22.893,5.696 24.327,18.452 0.458,2.434 0.687,3.651 1.145,6.085 1.694,9.007 -0.263,15.372 -5.688,18.522 6.505,13.151 12.958,26.325 19.359,39.527 -5.789,-0.985 -8.686,-1.454 -14.487,-2.342 -5.501,-11.639 -11.041,-23.26 -16.61,-34.867 z m -7.857,-10.962 c 2.093,-0.018 3.14,-0.027 5.232,-0.046 6.203,-0.056 8.435,-3.212 7.212,-10.047 -0.299,-1.668 -0.448,-2.502 -0.747,-4.171 -1.223,-6.835 -4.477,-9.672 -10.463,-9.1 -2.019,0.193 -3.029,0.287 -5.049,0.471 1.526,9.157 2.289,13.736 3.815,22.893 z"
   id="path12134" />
	<g
   id="g12144">
		<g
   id="g12142">
			<path
   style="fill:#ffffff"
   d="m 716.292,391.547 c 2.576,5.385 3.895,8.077 6.594,13.462 5.908,0.863 8.872,1.295 14.825,2.159 -4.128,4.191 -6.231,6.287 -10.515,10.479 1.139,5.918 1.722,8.878 2.914,14.796 -5.592,-2.794 -8.356,-4.191 -13.819,-6.985 -5.463,2.794 -8.227,4.191 -13.818,6.985 1.191,-5.918 1.774,-8.878 2.914,-14.796 -4.284,-4.192 -6.387,-6.287 -10.515,-10.479 5.952,-0.863 8.917,-1.295 14.826,-2.159 2.699,-5.385 4.018,-8.077 6.594,-13.462 z"
   id="path12136" />
			<path
   style="fill:#ffffff"
   d="m 680.244,386.126 c 1.636,4.001 2.472,6.002 4.176,10.003 4.279,0.642 6.425,0.962 10.728,1.604 -3.248,3.114 -4.893,4.672 -8.226,7.786 0.525,4.398 0.794,6.597 1.347,10.995 -3.899,-2.076 -5.831,-3.115 -9.66,-5.191 -4.098,2.076 -6.165,3.115 -10.333,5.191 1.124,-4.398 1.679,-6.597 2.774,-10.995 -2.929,-3.114 -4.373,-4.672 -7.216,-7.786 4.387,-0.642 6.574,-0.962 10.937,-1.604 2.224,-4.001 3.318,-6.001 5.473,-10.003 z"
   id="path12138" />
			<path
   style="fill:#ffffff"
   d="m 752.338,386.126 c 2.155,4.001 3.25,6.002 5.473,10.003 4.362,0.642 6.55,0.963 10.936,1.604 -2.844,3.114 -4.287,4.672 -7.216,7.786 1.095,4.398 1.65,6.597 2.774,10.995 -4.169,-2.076 -6.236,-3.115 -10.333,-5.191 -3.829,2.076 -5.761,3.115 -9.66,5.191 0.554,-4.398 0.823,-6.597 1.348,-10.995 -3.333,-3.114 -4.978,-4.672 -8.225,-7.786 4.303,-0.642 6.449,-0.963 10.728,-1.604 1.704,-4.001 2.539,-6.001 4.175,-10.003 z"
   id="path12140" />
		</g>
	</g>
	<path
   style="fill:#adb0b4"
   d="m 594.544,265.745 c -3.996,-0.869 -7.812,-1.78 -11.44,-2.731 1.201,7.672 6.422,13.846 10,17.273 6.884,6.593 9.977,10.817 8.93,16.993 l -0.415,2.447 c -0.974,5.747 -4.676,9.268 -10.427,9.917 -0.528,0.06 -1.041,0.09 -1.523,0.09 -2.454,0 -4.33,-0.758 -5.578,-2.253 -1.431,-1.713 -1.856,-4.236 -1.265,-7.498 l 0.516,-2.846 c -3.156,0.513 -5.447,0.901 -8.818,1.491 l -0.831,4.382 -0.022,0.08 c -1.031,3.721 -0.573,7.006 1.323,9.497 2.165,2.846 6.136,4.544 10.621,4.544 10e-4,0 10e-4,0 0.002,0 1.092,0 2.198,-0.101 3.289,-0.3 9.527,-1.737 20.325,-7.362 22.057,-17.93 l 0.567,-3.619 c 1.188,-7.577 -1.28,-12.609 -11.001,-22.437 -2.618,-2.648 -4.583,-4.961 -5.985,-7.1 z"
   id="path12146" />
	<path
   style="fill:#adb0b4"
   d="m 842.675,280.69 1.618,-0.939 c 4.675,-2.715 6.266,-8.241 4.728,-16.423 l -0.02,-0.108 c -2.746,0.71 -5.598,1.397 -8.552,2.061 0.121,2.813 -0.471,4.983 -1.796,6.581 -1.607,1.938 -4.125,2.895 -7.698,2.927 l -6.941,0.061 -1.021,-6.125 c -2.805,0.484 -5.676,0.95 -8.608,1.396 l 6.528,42.549 c 3.671,0.433 6.136,0.738 9.603,1.192 l -5.385,-32.31 9.707,0.282 0.527,1.098 c 5.747,11.978 11.039,23.085 16.161,33.917 3.799,0.584 6.347,0.989 9.639,1.539 -5.824,-11.989 -11.756,-24.09 -17.658,-36.021 z"
   id="path12148" />
	<path
   style="fill:#adb0b4"
   d="m 785.167,303.77 -1.678,-0.1 -2.738,-24.057 2.274,0.033 c 6.873,0.102 10.674,0.164 16.88,0.28 l -0.824,-5.906 c -6.434,0.061 -10.191,0.092 -17.15,0.143 l -1.798,0.013 v -0.002 c -2.93,0.259 -5.898,0.499 -8.901,0.722 l 3.143,33.485 c 11.522,0.755 23.154,1.747 34.642,2.954 l -0.866,-5.974 c -8.834,-0.706 -13.654,-1.038 -22.984,-1.591 z"
   id="path12150" />
	<path
   style="fill:#adb0b4"
   d="m 759.763,289.21 c -3.326,-0.182 -5.627,-0.302 -8.855,-0.462 l 0.284,4.878 c 0.171,2.945 -0.506,5.249 -2.014,6.846 -1.531,1.624 -3.858,2.447 -6.916,2.447 l -0.41,-0.005 c -6.116,-0.138 -9.719,-3.222 -9.884,-8.46 l -0.559,-17.722 c -3.003,0.057 -6.027,0.098 -9.071,0.121 l 0.128,17.523 c 0.032,12.317 17.517,13.309 19.51,13.381 0.339,0.012 0.684,0.018 1.034,0.018 5.053,0 11.667,-1.351 15.075,-5.145 1.775,-1.976 2.483,-4.371 2.161,-7.378 z"
   id="path12152" />
	<path
   style="fill:#adb0b4"
   d="m 701.726,293.544 c -0.125,4.171 -1.946,9.179 -9.905,9.353 l -0.401,0.004 c -3.156,0 -5.551,-0.841 -7.119,-2.5 -1.387,-1.468 -2.02,-3.446 -1.882,-5.879 l 1.044,-18.349 c -3.03,-0.131 -6.032,-0.279 -9.005,-0.444 l -1.554,19.574 c -0.324,2.966 0.384,5.374 2.166,7.361 3.38,3.77 9.881,5.112 14.838,5.112 0.344,0 0.683,-0.006 1.016,-0.018 2.018,-0.074 19.711,-1.081 19.768,-13.39 l 0.038,-5.556 c -3.286,-0.108 -5.583,-0.178 -8.853,-0.272 z"
   id="path12154" />
	<path
   style="fill:#adb0b4"
   d="m 652.769,274.176 -2.395,21.051 c -0.678,5.951 -4.717,9.615 -11.082,10.054 -0.388,0.027 -0.762,0.04 -1.124,0.04 -2.919,0 -5.141,-0.85 -6.605,-2.527 -1.507,-1.726 -2.06,-4.16 -1.643,-7.236 l 3.18,-23.443 c -2.957,-0.362 -5.866,-0.741 -8.719,-1.139 l -3.941,26.061 -0.021,0.113 c -0.743,3.526 -0.149,6.51 1.764,8.869 2.549,3.142 7.532,5.094 13.004,5.094 0.85,0 1.701,-0.048 2.53,-0.142 9.522,-1.086 21.031,-6.09 22.126,-16.604 l 1.827,-19.468 c -3.003,-0.225 -5.971,-0.465 -8.901,-0.723 z"
   id="path12156" />
</g>



</svg>
