<?xml version="1.0" encoding="UTF-8" standalone="no"?>
<!-- Generator: Adobe Illustrator 15.1.0, SVG Export Plug-In . SVG Version: 6.00 Build 0)  -->

<svg
   version="1.1"
   id="Layer_1"
   x="0px"
   y="0px"
   width="490.58801"
   height="609.81232"
   viewBox="0 0 490.58801 609.81232"
   enable-background="new 0 0 1080 648"
   xml:space="preserve"
   sodipodi:docname="jersey-1.svg"
   inkscape:version="1.2.2 (b0a84865, 2022-12-01)"
   xmlns:inkscape="http://www.inkscape.org/namespaces/inkscape"
   xmlns:sodipodi="http://sodipodi.sourceforge.net/DTD/sodipodi-0.dtd"
   xmlns="http://www.w3.org/2000/svg"
   xmlns:svg="http://www.w3.org/2000/svg"><defs
   id="defs29874" /><sodipodi:namedview
   id="namedview29872"
   pagecolor="#ffffff"
   bordercolor="#000000"
   borderopacity="0.25"
   inkscape:showpageshadow="2"
   inkscape:pageopacity="0.0"
   inkscape:pagecheckerboard="0"
   inkscape:deskcolor="#d1d1d1"
   showgrid="false"
   showguides="false"
   inkscape:zoom="1.5913104"
   inkscape:cx="152.70434"
   inkscape:cy="416.32355"
   inkscape:window-width="1920"
   inkscape:window-height="1027"
   inkscape:window-x="1728"
   inkscape:window-y="62"
   inkscape:window-maximized="1"
   inkscape:current-layer="Layer_1" />
<path
   id="la_x7C_Body"
   fill="#c81217"
   d="m 102.464,209.3483 0.324,1.836 c 6.804,35.208 4.212,117.18 2.376,177.012 -0.324,10.368 -0.648,20.089 -0.864,28.62 -1.404,52.813 -11.447,145.908 -15.12,177.444 18.576,9.288 79.92,15.228 156.276,15.228 76.355,0 137.7,-5.938 156.276,-15.228 -0.108,-1.188 -13.5,-115.128 -15.12,-177.444 -0.217,-8.424 -0.54,-17.819 -0.864,-27.972 v -0.648 c -1.836,-59.832 -4.428,-141.695 2.376,-176.903 l 0.324,-1.836 0.646,1.729 c 9.072,22.572 16.74,38.664 17.064,39.42 0.646,-0.107 63.288,-9.937 84.023,-40.284 v 0 C 475.278,176.8433 454,125.9743 444.172,99.082296 c -8.532,-23.436 -17.278,-37.151 -29.268,-45.792 -10.584,-7.668 -25.597,-14.256 -53.244,-25.271 -23.004,-9.181 -34.021,-14.364 -36.828,-15.769 l -0.216,-0.107 -14.688,-11.1240004 c -0.432,0.107 -30.239,11.1240004 -64.584,11.1240004 -33.588,0 -62.854,-10.4770004 -64.476,-11.1240004 h -0.108 v 0 L 166.18,12.143296 c -0.216,0.107 -10.906,5.508 -37.15,15.983 -27.756,11.017 -42.77,17.712 -53.244,25.272 -11.988,8.64 -20.736,22.355 -29.268,45.792 C 36.69,126.1903 15.414,176.9503 0.51,210.4303 c 20.844,30.348 83.484,40.176 84.024,40.284 0.324,-0.648 8.1,-16.85 17.063,-39.42 z"
   sodipodi:nodetypes="cccccsccccccccssccccccsccccccccccc"
   style="fill:#b3b3b3" />
<path
   id="la_x7C_Accent_Two"
   fill="#041e42"
   d="m 81.296,64.844296 c -71.392,-54.769333 -35.696,-27.384667 0,0 z m 320.112,172.909004 -0.433,-0.107 c 3.455,7.992 5.615,12.204 5.615,12.204 0,0 62.426,-9.072 83.16,-39.744 -1.512,-3.563 -2.808,-6.156 -4.428,-9.937 -21.49,28.62 -83.914,37.584 -83.914,37.584 z M 5.588,200.0603 c -1.62,3.78 -2.808,6.479 -4.428,9.937 20.736,30.672 83.16,39.743 83.16,39.743 0,0 2.052,-4.212 5.616,-12.203 l -0.434,0.107 c -0.106,0.109 -62.53,-8.855 -83.914,-37.584 z"
   sodipodi:nodetypes="cccccccccccccc" />
<path
   id="la_x7C_Accent_One"
   fill="#ffffff"
   d="m 486.512,202.9763 c -21.384,29.483 -84.022,38.34 -84.022,38.34 -0.54,-1.188 -1.08,-2.376 -1.62,-3.672 0,0 63.072,-7.884 84.348,-37.584 z M 4.4,202.8693 c 21.276,29.483 83.917,38.341 83.917,38.341 0.54,-1.188 1.078,-2.377 1.619,-3.673 0,0 -63.071,-7.885 -84.349,-37.584 z"
   sodipodi:nodetypes="cccccccccc" />
<path
   id="la_x7C_Neck"
   fill="#041e42"
   d="M 166.724,12.032296 180.548,1.5562956 c 1.512,6.696 3.78,12.6360004 6.48,17.9280004 0,0.216 0.106,0.324 0.216,0.432 14.472,27.217 42.876,35.101 58.212,35.101 15.336,0 43.74,-7.884 58.212,-35.101 0.108,-0.107 0.216,-0.216 0.216,-0.432 2.7,-5.184 4.969,-11.1240004 6.48,-17.9280004 l 13.823,10.4760004 c -4.104,20.628 -17.173,36.072 -38.663,46.116 -17.28,7.992 -34.776,9.828 -40.068,9.828 -5.292,0 -22.788,-1.729 -40.068,-9.828 -21.6,-10.044 -34.56,-25.488 -38.664,-46.116 z m 78.624,14.256 c 0.434,0 38.341,0.648 57.564,-7.235 2.7,-5.292 4.86,-11.1240004 6.264,-17.4960004 -5.292,1.836 -32.616,10.9080004 -63.828,10.9080004 -31.212,0 -58.536,-8.9650004 -63.827,-10.9080004 1.403,6.372 3.563,12.2040004 6.265,17.4960004 19.222,7.883 57.238,7.235 57.562,7.235 z"
   sodipodi:nodetypes="ccccscccccsccsccsccs" />

<g
   id="g29869"
   transform="translate(-25.792,-17.309704)">
	<path
   fill="#d0d2d3"
   d="m 214.44,37.874 c 19.654,7.452 56.376,6.912 56.698,6.912 0,0 0.758,0 2.16,0 8.102,0 37.692,-0.433 54.648,-6.912 -5.616,10.26 -13.717,18.468 -24.301,24.3 -15.769,8.856 -30.779,9.072 -32.509,9.072 -1.62,0 -16.739,-0.216 -32.508,-9.072 -10.472,-5.94 -18.572,-14.04 -24.188,-24.3 z"
   id="path29662" />
	<g
   id="Beast_Up_Logo">
		<g
   id="g29666">
			<rect
   id="White"
   x="349.25781"
   y="552.46008"
   fill="#ffffff"
   width="0"
   height="0" />
			
		</g>
	</g>
	
	<g
   id="g29783">
		<g
   id="g29741">
			<g
   id="g29721">
				<g
   id="g29711">
					<path
   fill="#363636"
   d="M 33.216,213.59 C 33,213.267 32.784,213.05 32.568,212.727 l 0.648,-0.433 c 0.216,0.324 0.432,0.54 0.648,0.864 z"
   id="path29709" />
				</g>
				<g
   id="g29715">
					<path
   fill="#363636"
   d="m 114.648,251.282 c -0.648,-0.108 -1.404,-0.216 -2.16,-0.433 l 0.106,-0.757 c 0.756,0.108 1.514,0.324 2.16,0.434 z m -4.32,-0.756 c -0.648,-0.108 -1.404,-0.324 -2.16,-0.434 l 0.216,-0.756 c 0.756,0.108 1.404,0.324 2.16,0.433 z m -4.212,-0.971 c -0.648,-0.107 -1.404,-0.323 -2.16,-0.433 l 0.216,-0.756 c 0.756,0.216 1.404,0.324 2.16,0.432 z m -4.32,-0.973 c -0.646,-0.216 -1.404,-0.324 -2.16,-0.54 l 0.216,-0.756 c 0.758,0.216 1.404,0.324 2.16,0.54 z m -4.212,-0.972 c -0.648,-0.217 -1.404,-0.324 -2.052,-0.54 l 0.216,-0.756 c 0.756,0.216 1.404,0.323 2.052,0.539 z m -4.212,-1.08 c -0.648,-0.216 -1.404,-0.433 -2.052,-0.54 l 0.216,-0.756 c 0.756,0.216 1.404,0.432 2.052,0.54 z m -4.104,-1.188 c -0.646,-0.216 -1.402,-0.432 -2.052,-0.646 l 0.216,-0.756 c 0.648,0.216 1.404,0.432 2.054,0.646 z m -4.212,-1.296 C 84.41,243.83 83.654,243.614 83.004,243.4 l 0.216,-0.757 c 0.648,0.217 1.404,0.433 2.052,0.647 z m -4.104,-1.403 c -0.648,-0.217 -1.404,-0.433 -2.052,-0.756 l 0.216,-0.757 c 0.646,0.217 1.403,0.433 2.052,0.757 z m -4.104,-1.405 c -0.648,-0.217 -1.404,-0.54 -2.052,-0.756 l 0.324,-0.757 c 0.648,0.217 1.404,0.54 2.052,0.757 z m -4.104,-1.511 c -0.648,-0.217 -1.296,-0.539 -2.052,-0.756 l 0.324,-0.757 c 0.648,0.324 1.296,0.54 2.052,0.757 z m -3.996,-1.621 c -0.648,-0.324 -1.296,-0.54 -2.052,-0.864 l 0.324,-0.756 c 0.648,0.323 1.296,0.54 1.944,0.863 z m -3.996,-1.835 c -0.648,-0.324 -1.296,-0.648 -1.944,-0.864 l 0.324,-0.756 c 0.648,0.323 1.296,0.646 1.944,0.863 z m -3.996,-1.836 c -0.648,-0.323 -1.296,-0.647 -1.944,-0.973 l 0.324,-0.756 c 0.648,0.324 1.296,0.647 1.944,0.972 z m -3.78,-1.945 c -0.648,-0.324 -1.296,-0.648 -1.944,-1.08 l 0.432,-0.756 c 0.648,0.323 1.296,0.647 1.836,1.08 z m -3.888,-2.16 c -0.648,-0.324 -1.296,-0.756 -1.836,-1.08 l 0.432,-0.646 c 0.648,0.432 1.188,0.756 1.836,1.079 z m -3.672,-2.267 c -0.648,-0.433 -1.188,-0.756 -1.836,-1.188 l 0.432,-0.646 c 0.54,0.432 1.188,0.756 1.836,1.188 z m -3.564,-2.485 c -0.54,-0.432 -1.188,-0.864 -1.728,-1.296 l 0.54,-0.648 c 0.54,0.434 1.188,0.864 1.728,1.297 z m -3.456,-2.7 c -0.54,-0.432 -1.08,-0.972 -1.62,-1.403 l 0.54,-0.647 c 0.54,0.432 1.08,0.972 1.62,1.403 z m -3.24,-2.808 c -0.54,-0.54 -1.08,-0.973 -1.512,-1.513 l 0.54,-0.54 c 0.54,0.54 0.972,0.973 1.512,1.513 z m -3.132,-3.132 c -0.54,-0.539 -0.972,-1.079 -1.404,-1.619 l 0.648,-0.54 c 0.432,0.54 0.972,1.08 1.404,1.62 z"
   id="path29713" />
				</g>
				<g
   id="g29719">
					<path
   fill="#363636"
   d="m 117.78,251.822 c 0,0 -0.324,-0.108 -1.08,-0.216 l 0.106,-0.757 c 0.648,0.107 1.08,0.217 1.08,0.217 z"
   id="path29717" />
				</g>
			</g>
			<g
   id="g29725">
				<path
   fill="#363636"
   d="m 274.38,38.09 v -0.864 c 0.648,0 1.404,0 2.16,0 v 0.864 c -0.756,0 -1.512,0 -2.16,0 z m -6.48,0 c -0.648,0 -1.404,0 -2.16,0 v -0.864 c 0.756,0 1.512,0 2.16,0 z m 2.161,0 v -0.864 c 0.756,0 1.079,0 1.079,0 0,0 0.434,0 1.08,0 v 0.864 c -0.646,0 -1.08,0 -1.08,0 0,0 -0.324,0 -1.079,0 z m 8.639,0 v -0.864 c 0.646,0 1.403,0 2.16,0 v 0.864 c -0.756,0 -1.404,0 -2.16,0 z m -15.12,0 c -0.648,0 -1.404,0 -2.16,0 v -0.864 c 0.756,0 1.512,0 2.16,0 z m 19.44,-0.108 v -0.864 c 0.648,0 1.404,0 2.16,-0.108 v 0.756 c -0.648,0.216 -1.404,0.216 -2.16,0.216 z m -23.76,0 c -0.646,0 -1.402,0 -2.16,-0.108 v -0.756 c 0.758,0 1.514,0 2.16,0.107 z m 28.08,-0.108 v -0.756 c 0.756,0 1.404,-0.108 2.16,-0.108 v 0.756 c -0.648,0 -1.404,0 -2.16,0.108 z m -32.401,0 c -0.757,0 -1.403,-0.108 -2.159,-0.108 V 37.01 c 0.756,0 1.403,0.108 2.159,0.108 z m 36.829,-0.324 v -0.756 c 0.758,0 1.404,-0.108 2.16,-0.108 v 0.757 c -0.756,0.107 -1.512,0.107 -2.16,0.107 z m -41.148,0 c -0.756,0 -1.404,-0.107 -2.16,-0.107 v -0.757 c 0.756,0 1.404,0.108 2.16,0.108 z m 45.468,-0.216 -0.107,-0.756 c 0.757,0 1.403,-0.108 2.159,-0.216 l 0.108,0.756 c -0.756,0.108 -1.512,0.108 -2.16,0.216 z m -49.788,0 c -0.756,0 -1.403,-0.108 -2.16,-0.216 l 0.108,-0.756 c 0.756,0.107 1.404,0.107 2.16,0.216 z m 54,-0.324 -0.106,-0.756 c 0.756,-0.107 1.402,-0.107 2.158,-0.216 l 0.108,0.756 c -0.647,0 -1.404,0.108 -2.16,0.216 z m -58.32,0 c -0.758,-0.107 -1.404,-0.107 -2.16,-0.216 l 0.106,-0.756 c 0.756,0.108 1.404,0.108 2.16,0.216 z m 62.64,-0.432 -0.108,-0.756 c 0.756,-0.108 1.404,-0.108 2.16,-0.217 l 0.108,0.757 c -0.648,0 -1.404,0.108 -2.16,0.216 z m -66.96,0 c -0.756,-0.108 -1.404,-0.108 -2.16,-0.216 l 0.108,-0.757 c 0.756,0.108 1.402,0.217 2.158,0.217 z m 71.279,-0.54 -0.107,-0.756 c 0.756,-0.108 1.404,-0.216 2.16,-0.324 l 0.106,0.756 c -0.646,0.108 -1.402,0.216 -2.159,0.324 z m -75.599,0 c -0.756,-0.108 -1.404,-0.216 -2.16,-0.324 l 0.108,-0.756 c 0.756,0.108 1.404,0.216 2.16,0.324 z m 79.92,-0.648 -0.106,-0.756 c 0.756,-0.107 1.402,-0.216 2.159,-0.324 l 0.107,0.757 c -0.756,0.107 -1.404,0.215 -2.16,0.323 z m -84.24,0 c -0.756,-0.107 -1.402,-0.216 -2.158,-0.323 l 0.106,-0.757 c 0.756,0.108 1.404,0.217 2.16,0.324 z m 88.56,-0.648 -0.108,-0.756 c 0.757,-0.108 1.404,-0.217 2.16,-0.433 l 0.216,0.756 c -0.864,0.109 -1.619,0.217 -2.268,0.433 z m -92.772,-0.108 c -0.756,-0.107 -1.402,-0.324 -2.158,-0.432 l 0.216,-0.756 c 0.646,0.107 1.402,0.323 2.16,0.432 z m 96.984,-0.863 -0.216,-0.757 c 0.756,-0.107 1.404,-0.323 2.052,-0.54 l 0.216,0.756 c -0.648,0.216 -1.296,0.432 -2.052,0.541 z m -101.304,0 c -0.756,-0.108 -1.404,-0.324 -2.16,-0.541 l 0.216,-0.756 c 0.648,0.217 1.404,0.324 2.052,0.54 z m 105.516,-0.973 -0.216,-0.756 c 0.647,-0.216 1.404,-0.432 2.052,-0.648 l 0.216,0.757 c -0.648,0.215 -1.404,0.431 -2.052,0.647 z m -109.728,0 c -0.758,-0.216 -1.404,-0.432 -2.054,-0.647 l 0.218,-0.757 c 0.646,0.217 1.402,0.433 2.052,0.648 z m 113.831,-1.296 -0.217,-0.756 c 0.648,-0.216 1.404,-0.54 2.054,-0.756 l 0.322,0.756 c -0.754,0.216 -1.402,0.54 -2.159,0.756 z m -117.935,0 c -0.646,-0.216 -1.296,-0.432 -1.943,-0.756 l 0.323,-0.756 c 0.648,0.216 1.296,0.54 1.944,0.756 z"
   id="path29723" />
			</g>
			<g
   id="g29729">
				<path
   fill="#363636"
   d="m 424.607,251.822 -0.107,-0.756 h 0.324 l 0.106,0.756 z m 2.377,-0.431 -0.108,-0.757 c 0.648,-0.106 1.296,-0.216 2.16,-0.432 l 0.108,0.756 c -0.756,0.216 -1.512,0.324 -2.16,0.433 z m 4.32,-0.757 -0.106,-0.756 c 0.646,-0.106 1.402,-0.323 2.158,-0.432 l 0.218,0.756 c -0.866,0.109 -1.622,0.324 -2.27,0.432 z m 4.212,-0.863 -0.216,-0.757 c 0.648,-0.107 1.404,-0.323 2.16,-0.433 l 0.216,0.756 c -0.756,0.109 -1.405,0.325 -2.16,0.434 z m 4.213,-0.973 -0.217,-0.756 c 0.648,-0.107 1.404,-0.323 2.053,-0.54 l 0.217,0.756 c -0.65,0.217 -1.298,0.432 -2.053,0.54 z m 4.21,-0.972 -0.217,-0.756 c 0.648,-0.217 1.404,-0.324 2.054,-0.54 l 0.216,0.756 c -0.648,0.109 -1.296,0.324 -2.053,0.54 z m 4.213,-1.187 -0.217,-0.757 c 0.647,-0.216 1.403,-0.323 2.053,-0.54 l 0.216,0.757 c -0.648,0.215 -1.296,0.431 -2.052,0.54 z m 4.212,-1.08 -0.216,-0.756 c 0.646,-0.217 1.402,-0.433 2.052,-0.647 l 0.216,0.756 c -0.648,0.214 -1.404,0.43 -2.052,0.647 z m 4.104,-1.296 -0.216,-0.757 c 0.648,-0.216 1.404,-0.432 2.052,-0.646 l 0.216,0.756 c -0.648,0.214 -1.296,0.43 -2.052,0.647 z m 4.212,-1.297 -0.216,-0.756 c 0.648,-0.216 1.404,-0.432 2.052,-0.646 l 0.217,0.756 c -0.756,0.214 -1.405,0.43 -2.053,0.646 z m 3.996,-1.403 -0.324,-0.756 c 0.648,-0.217 1.404,-0.54 2.054,-0.757 l 0.323,0.757 c -0.649,0.214 -1.297,0.431 -2.053,0.756 z m 4.104,-1.513 -0.324,-0.756 c 0.647,-0.216 1.296,-0.54 2.052,-0.756 l 0.324,0.756 c -0.648,0.216 -1.404,0.433 -2.052,0.756 z m 3.996,-1.619 -0.324,-0.757 c 0.646,-0.323 1.296,-0.54 1.944,-0.863 l 0.322,0.757 c -0.538,0.323 -1.294,0.538 -1.942,0.863 z m 3.995,-1.729 -0.323,-0.756 c 0.646,-0.324 1.296,-0.54 1.943,-0.864 l 0.323,0.756 c -0.646,0.324 -1.294,0.54 -1.943,0.864 z m 3.997,-1.836 -0.322,-0.756 c 0.646,-0.324 1.296,-0.648 1.942,-0.973 l 0.324,0.757 c -0.648,0.325 -1.296,0.648 -1.944,0.972 z m 3.78,-1.944 -0.324,-0.756 c 0.648,-0.324 1.296,-0.646 1.837,-0.972 l 0.433,0.756 c -0.65,0.324 -1.298,0.649 -1.946,0.972 z m 3.888,-2.052 -0.432,-0.647 c 0.648,-0.323 1.188,-0.757 1.836,-1.08 l 0.434,0.647 c -0.65,0.324 -1.297,0.648 -1.838,1.08 z m 3.671,-2.266 -0.433,-0.648 c 0.648,-0.432 1.188,-0.756 1.836,-1.188 l 0.434,0.647 c -0.648,0.323 -1.188,0.755 -1.837,1.189 z m 3.565,-2.486 -0.432,-0.647 c 0.54,-0.433 1.188,-0.863 1.728,-1.297 l 0.434,0.648 c -0.542,0.54 -1.082,0.866 -1.73,1.296 z m 3.564,-2.592 -0.54,-0.648 c 0.54,-0.432 1.08,-0.863 1.62,-1.403 l 0.539,0.647 c -0.539,0.54 -1.079,0.972 -1.619,1.404 z m 3.241,-2.807 -0.541,-0.647 c 0.541,-0.433 1.08,-0.973 1.514,-1.513 l 0.54,0.54 c -0.434,0.647 -0.974,1.187 -1.513,1.62 z m 3.13,-3.025 -0.539,-0.54 c 0.539,-0.54 0.972,-1.08 1.402,-1.62 l 0.648,0.54 c -0.538,0.54 -0.97,1.08 -1.511,1.62 z m 2.809,-3.24 -0.648,-0.54 c 0.434,-0.54 0.864,-1.08 1.297,-1.729 l 0.647,0.433 c -0.324,0.649 -0.756,1.189 -1.296,1.836 z"
   id="path29727" />
			</g>
			<g
   id="g29733">
				<path
   fill="#363636"
   d="m 271.14,607.574 h -2.159 v -0.864 h 2.159 z m 2.16,0 v -0.864 h 2.16 v 0.864 z m -6.48,0 h -2.16 v -0.864 h 2.16 z m 10.8,0 v -0.864 h 2.16 v 0.864 z m -15.12,0 h -2.16 v -0.864 h 2.16 z m 19.439,0 v -0.864 h 2.159 v 0.864 z m -23.759,0 h -2.16 v -0.864 h 2.16 z m 28.08,0 v -0.864 h 2.16 v 0.864 z m -32.4,-0.108 h -2.16 v -0.862 h 2.16 z m 36.72,0 v -0.862 h 2.16 v 0.862 z m -41.04,0 h -2.16 v -0.862 h 2.16 z m 45.36,0 v -0.862 h 2.16 v 0.862 z m -49.68,-0.108 h -2.159 v -0.864 h 2.159 z m 54,0 v -0.864 h 2.16 v 0.864 z M 240.9,607.25 h -2.16 v -0.863 h 2.16 z m 62.64,0 v -0.863 l 2.16,-0.107 v 0.863 z m -66.96,-0.107 -2.16,-0.107 v -0.864 l 2.16,0.108 z m 71.28,0 v -0.863 l 2.159,-0.108 v 0.864 z m -75.6,-0.109 -2.16,-0.108 v -0.862 l 2.16,0.106 z m 79.92,0 v -0.864 l 2.16,-0.107 v 0.863 z m -84.24,-0.108 -2.16,-0.106 v -0.864 l 2.16,0.107 z m 88.56,-0.108 v -0.864 l 2.16,-0.107 v 0.863 z m -92.88,-0.108 -2.16,-0.106 v -0.864 l 2.16,0.107 z m 97.2,0 v -0.863 l 2.16,-0.107 v 0.864 z m -101.52,-0.106 -2.16,-0.108 v -0.864 l 2.16,0.108 z m 105.84,-0.11 v -0.864 l 2.16,-0.106 v 0.863 z m -110.16,-0.107 -2.16,-0.107 v -0.864 l 2.16,0.108 z m 114.48,-0.109 v -0.864 l 2.16,-0.107 v 0.863 z m -118.8,-0.108 -2.16,-0.107 v -0.756 l 2.16,0.107 z m 123.12,-0.107 V 605.2 l 2.159,-0.108 v 0.757 z m -127.44,-0.109 -2.16,-0.107 v -0.757 l 2.16,0.108 z m 131.76,-0.107 v -0.757 l 2.16,-0.106 v 0.756 z m -136.08,-0.109 -2.158,-0.108 v -0.756 l 2.158,0.108 z m 140.4,-0.108 v -0.756 l 2.16,-0.107 v 0.757 z m -144.72,-0.109 -2.16,-0.107 v -0.756 l 2.16,0.107 z m 149.04,-0.214 v -0.757 l 2.16,-0.106 0.106,0.756 z m -153.36,-0.109 -2.16,-0.108 0.108,-0.756 2.16,0.108 z m 157.681,-0.108 -0.107,-0.756 2.16,-0.107 0.106,0.757 z m -162.001,-0.216 -2.158,-0.107 0.106,-0.756 2.16,0.107 z m 166.32,-0.107 -0.108,-0.756 2.16,-0.217 0.108,0.756 z m -170.64,-0.217 -2.16,-0.216 0.107,-0.756 2.159,0.216 z m 174.852,-0.108 -0.106,-0.757 2.159,-0.216 0.107,0.756 z m -179.172,-0.215 -2.16,-0.216 0.108,-0.757 2.16,0.217 z m 183.492,-0.216 -0.108,-0.757 2.16,-0.216 0.108,0.756 z m -187.812,-0.109 -2.158,-0.217 0.106,-0.756 2.16,0.217 z m 192.132,-0.214 -0.108,-0.757 2.16,-0.217 0.106,0.757 z m -196.452,-0.217 -2.16,-0.217 0.108,-0.756 2.158,0.216 z m 200.772,-0.217 -0.106,-0.756 2.158,-0.216 0.108,0.756 z m -204.984,-0.216 -2.16,-0.216 0.106,-0.756 2.16,0.216 z m 209.304,-0.216 -0.108,-0.756 2.16,-0.217 0.108,0.757 z m -213.624,-0.324 -2.16,-0.216 0.108,-0.756 2.159,0.216 z m 217.944,-0.216 -0.108,-0.756 c 0.756,-0.108 1.404,-0.217 2.16,-0.217 l 0.107,0.757 c -0.755,0.108 -1.511,0.108 -2.159,0.216 z m -222.264,-0.216 c -0.756,-0.108 -1.402,-0.217 -2.16,-0.324 l 0.108,-0.756 c 0.756,0.107 1.404,0.216 2.16,0.323 z m 226.476,-0.324 -0.108,-0.756 c 0.756,-0.108 1.404,-0.217 2.16,-0.324 l 0.108,0.756 c -0.648,0.216 -1.404,0.216 -2.16,0.324 z m -230.796,-0.216 c -0.758,-0.108 -1.404,-0.217 -2.16,-0.324 l 0.106,-0.756 c 0.758,0.107 1.404,0.216 2.16,0.323 z m 235.116,-0.324 -0.106,-0.756 2.16,-0.324 0.106,0.756 z m -239.328,-0.324 c -0.758,-0.106 -1.404,-0.216 -2.16,-0.323 l 0.106,-0.757 2.16,0.324 z m 243.648,-0.323 -0.108,-0.757 c 0.758,-0.106 1.404,-0.216 2.16,-0.323 l 0.108,0.756 c -0.756,0.107 -1.512,0.215 -2.16,0.324 z M 146.076,600.23 c -0.756,-0.108 -1.404,-0.217 -2.16,-0.324 l 0.108,-0.756 c 0.646,0.106 1.402,0.216 2.158,0.323 z m 252.18,-0.324 -0.107,-0.756 c 0.757,-0.108 1.403,-0.217 2.159,-0.324 l 0.108,0.756 c -0.648,0.108 -1.404,0.216 -2.16,0.324 z m -256.5,-0.431 c -0.756,-0.107 -1.404,-0.217 -2.16,-0.433 l 0.108,-0.756 c 0.646,0.107 1.404,0.216 2.16,0.432 z m 260.82,-0.325 -0.108,-0.756 c 0.756,-0.108 1.404,-0.217 2.16,-0.434 l 0.108,0.756 c -0.756,0.219 -1.404,0.326 -2.16,0.434 z m -265.032,-0.432 c -0.756,-0.106 -1.404,-0.323 -2.16,-0.432 l 0.216,-0.756 c 0.648,0.106 1.404,0.323 2.16,0.432 z m 269.244,-0.432 -0.216,-0.756 c 0.756,-0.108 1.402,-0.324 2.16,-0.433 l 0.216,0.756 c -0.756,0.217 -1.404,0.326 -2.16,0.433 z m -273.456,-0.432 c -0.756,-0.107 -1.404,-0.323 -2.16,-0.433 l 0.216,-0.756 c 0.648,0.216 1.404,0.324 2.054,0.433 z M 411,597.422 l -0.216,-0.756 c 0.756,-0.216 1.403,-0.324 2.052,-0.54 l 0.216,0.756 c -0.54,0.108 -1.296,0.324 -2.052,0.54 z m -281.88,-0.54 c -0.756,-0.216 -1.404,-0.323 -2.052,-0.54 l 0.216,-0.756 c 0.646,0.217 1.403,0.324 2.052,0.54 z m 286.092,-0.54 -0.216,-0.756 c 0.756,-0.216 1.404,-0.432 2.052,-0.54 l 0.216,0.757 c -0.648,0.107 -1.296,0.323 -2.052,0.539 z m -290.304,-0.648 c -0.756,-0.217 -1.404,-0.433 -2.053,-0.648 l 0.217,-0.756 c 0.646,0.216 1.296,0.433 2.052,0.647 z m 294.516,-0.648 -0.216,-0.756 c 0.756,-0.216 1.404,-0.432 2.052,-0.756 l 0.324,0.756 c -0.756,0.324 -1.512,0.54 -2.16,0.756 z m -298.62,-0.756 c -0.756,-0.216 -1.402,-0.54 -2.052,-0.756 l 0.324,-0.756 c 0.646,0.216 1.296,0.54 1.942,0.756 z m 302.724,-0.756 -0.324,-0.756 c 0.647,-0.324 1.296,-0.54 1.944,-0.864 l 0.322,0.756 c -0.646,0.324 -1.294,0.54 -1.942,0.864 z"
   id="path29731" />
			</g>
			<g
   id="g29739">
				<g
   id="g29737">
					<path
   fill="#363636"
   d="m 272.22,87.771 v -0.864 c 0.648,0 1.296,-0.108 2.16,-0.108 l 0.108,0.756 c -0.864,0.216 -1.62,0.216 -2.268,0.216 z m -2.159,0 c -0.647,0 -1.403,-0.108 -2.159,-0.108 l 0.106,-0.756 c 0.756,0.107 1.512,0.107 2.16,0.107 z m 6.587,-0.217 -0.108,-0.756 c 0.647,-0.108 1.404,-0.108 2.16,-0.216 l 0.106,0.756 c -0.754,0 -1.51,0.108 -2.158,0.216 z M 265.74,87.446 c -0.648,-0.108 -1.404,-0.108 -2.16,-0.216 l 0.107,-0.757 c 0.757,0.108 1.513,0.217 2.159,0.217 z m 15.12,-0.432 -0.108,-0.756 c 0.648,-0.107 1.404,-0.216 2.16,-0.324 l 0.107,0.757 c -0.647,0.107 -1.403,0.215 -2.159,0.323 z m -19.44,0 c -0.648,-0.107 -1.404,-0.216 -2.16,-0.323 l 0.108,-0.757 c 0.756,0.108 1.403,0.217 2.16,0.324 z m 23.76,-0.756 -0.106,-0.756 c 0.646,-0.108 1.403,-0.216 2.159,-0.432 l 0.107,0.756 c -0.756,0.216 -1.404,0.324 -2.16,0.432 z m -28.08,0 c -0.646,-0.107 -1.402,-0.216 -2.158,-0.432 l 0.106,-0.756 c 0.756,0.107 1.404,0.323 2.16,0.432 z m 32.293,-0.863 -0.217,-0.757 c 0.648,-0.107 1.404,-0.323 2.053,-0.432 l 0.217,0.756 c -0.65,0.108 -1.298,0.324 -2.053,0.433 z m -36.505,0 c -0.646,-0.108 -1.402,-0.324 -2.159,-0.433 l 0.217,-0.756 c 0.756,0.216 1.402,0.324 2.052,0.432 z m 40.824,-0.973 -0.216,-0.756 c 0.648,-0.216 1.404,-0.324 2.052,-0.54 l 0.216,0.756 c -0.756,0.216 -1.404,0.324 -2.052,0.54 z m -45.036,0 c -0.646,-0.216 -1.402,-0.324 -2.052,-0.54 l 0.216,-0.756 c 0.648,0.216 1.404,0.432 2.053,0.54 z m 49.14,-1.188 -0.218,-0.756 c 0.648,-0.217 1.404,-0.433 2.054,-0.648 l 0.216,0.756 c -0.648,0.216 -1.296,0.432 -2.052,0.648 z m -53.352,0 c -0.646,-0.217 -1.403,-0.433 -2.052,-0.648 l 0.216,-0.756 c 0.648,0.216 1.404,0.432 2.052,0.648 z m 57.564,-1.296 -0.216,-0.756 c 0.646,-0.216 1.402,-0.432 2.052,-0.756 l 0.323,0.756 c -0.863,0.324 -1.511,0.54 -2.159,0.756 z m -61.668,0 c -0.648,-0.216 -1.404,-0.432 -2.054,-0.756 l 0.324,-0.756 c 0.648,0.216 1.404,0.433 2.052,0.756 z M 306.023,80.426 305.7,79.67 c 0.646,-0.216 1.296,-0.54 2.052,-0.756 l 0.324,0.756 c -0.648,0.216 -1.404,0.54 -2.053,0.756 z m -69.767,0 c -0.646,-0.216 -1.296,-0.54 -2.052,-0.756 l 0.324,-0.756 c 0.646,0.324 1.296,0.54 2.052,0.756 z m 73.764,-1.62 -0.322,-0.756 c 0.646,-0.324 1.296,-0.54 1.942,-0.864 l 0.324,0.757 c -0.54,0.323 -1.188,0.539 -1.944,0.863 z m -77.76,0 c -0.646,-0.323 -1.296,-0.54 -1.942,-0.863 l 0.322,-0.757 c 0.648,0.324 1.296,0.648 1.944,0.864 z m 81.756,-1.836 -0.322,-0.756 c 0.646,-0.324 1.296,-0.647 1.942,-0.972 l 0.324,0.756 c -0.647,0.324 -1.296,0.648 -1.944,0.972 z m -85.644,0 c -0.648,-0.323 -1.296,-0.647 -1.944,-0.972 l 0.324,-0.756 c 0.648,0.324 1.296,0.647 1.944,0.972 z m 89.532,-1.944 -0.434,-0.757 c 0.648,-0.323 1.297,-0.647 1.836,-1.079 l 0.434,0.647 c -0.648,0.434 -1.296,0.865 -1.836,1.189 z m -93.42,0 c -0.648,-0.324 -1.297,-0.757 -1.836,-1.08 l 0.432,-0.648 c 0.646,0.324 1.188,0.756 1.836,1.08 z m 97.092,-2.16 -0.432,-0.648 c 0.646,-0.432 1.188,-0.756 1.836,-1.188 l 0.432,0.647 c -0.54,0.325 -1.188,0.757 -1.836,1.189 z M 220.704,72.758 c -0.648,-0.432 -1.188,-0.756 -1.836,-1.188 l 0.432,-0.648 c 0.648,0.432 1.188,0.756 1.836,1.188 z m 104.544,-2.376 -0.432,-0.647 c 0.539,-0.433 1.188,-0.864 1.728,-1.297 l 0.433,0.648 c -0.541,0.54 -1.189,0.972 -1.729,1.296 z m -108.108,0 c -0.646,-0.432 -1.188,-0.864 -1.728,-1.296 l 0.432,-0.648 c 0.54,0.433 1.188,0.864 1.729,1.297 z m 111.564,-2.484 -0.54,-0.648 c 0.54,-0.432 1.08,-0.864 1.62,-1.404 l 0.54,0.648 c -0.431,0.432 -1.08,0.864 -1.62,1.404 z M 213.576,67.79 c -0.54,-0.432 -1.08,-0.864 -1.729,-1.404 l 0.54,-0.647 c 0.54,0.432 1.08,0.863 1.62,1.403 z m 118.476,-2.7 -0.54,-0.647 c 0.54,-0.433 1.08,-0.973 1.62,-1.404 l 0.54,0.54 c -0.54,0.539 -1.08,0.971 -1.62,1.511 z m -121.716,0 c -0.54,-0.432 -1.08,-0.972 -1.62,-1.512 l 0.54,-0.54 c 0.54,0.54 1.08,0.972 1.62,1.404 z m 124.848,-3.024 -0.539,-0.54 c 0.539,-0.54 0.973,-0.973 1.513,-1.513 l 0.54,0.54 c -0.434,0.541 -0.974,0.973 -1.514,1.513 z m -128.088,0 c -0.54,-0.54 -0.972,-1.08 -1.512,-1.62 l 0.54,-0.54 c 0.54,0.54 0.972,1.08 1.512,1.512 z m 131.112,-3.132 -0.647,-0.54 c 0.433,-0.54 0.973,-1.079 1.403,-1.619 l 0.648,0.54 c -0.54,0.539 -0.972,1.08 -1.404,1.619 z M 204.18,58.826 c -0.432,-0.54 -0.972,-1.08 -1.402,-1.62 l 0.646,-0.54 c 0.434,0.54 0.864,1.08 1.404,1.62 z m 136.728,-3.24 -0.648,-0.54 c 0.434,-0.54 0.864,-1.188 1.296,-1.728 l 0.648,0.432 c -0.433,0.648 -0.864,1.188 -1.296,1.836 z M 201.48,55.479 c -0.434,-0.539 -0.864,-1.188 -1.298,-1.729 l 0.648,-0.432 c 0.432,0.54 0.864,1.188 1.296,1.728 z m 141.913,-3.458 -0.647,-0.432 c 0.432,-0.647 0.756,-1.188 1.188,-1.836 l 0.647,0.432 c -0.433,0.541 -0.757,1.189 -1.188,1.836 z M 198.888,51.914 c -0.432,-0.648 -0.756,-1.188 -1.188,-1.836 l 0.646,-0.432 c 0.324,0.647 0.756,1.188 1.188,1.836 z m 146.772,-3.672 -0.756,-0.433 c 0.324,-0.647 0.646,-1.296 0.972,-1.943 l 0.756,0.324 c -0.324,0.864 -0.648,1.404 -0.972,2.052 z m -148.931,0 c -0.323,-0.648 -0.647,-1.296 -0.973,-1.944 l 0.756,-0.324 c 0.324,0.648 0.648,1.296 0.974,1.944 z m 150.875,-3.888 -0.756,-0.323 c 0.324,-0.648 0.648,-1.296 0.864,-1.944 l 0.756,0.324 c -0.216,0.647 -0.54,1.295 -0.864,1.943 z m -152.928,0 c -0.324,-0.647 -0.646,-1.296 -0.863,-1.943 l 0.757,-0.324 c 0.322,0.648 0.54,1.296 0.862,1.944 z m 154.656,-3.996 -0.756,-0.324 c 0.216,-0.648 0.54,-1.296 0.756,-2.052 l 0.756,0.216 c -0.216,0.865 -0.432,1.512 -0.756,2.16 z m -156.276,0 c -0.216,-0.648 -0.54,-1.404 -0.756,-2.053 l 0.756,-0.216 c 0.218,0.648 0.434,1.296 0.757,2.052 z m 157.68,-4.104 -0.756,-0.216 c 0.216,-0.648 0.432,-1.404 0.646,-2.052 l 0.756,0.216 c -0.214,0.756 -0.43,1.403 -0.646,2.052 z m -159.192,0 c -0.216,-0.648 -0.432,-1.404 -0.647,-2.052 l 0.757,-0.216 c 0.216,0.647 0.432,1.403 0.646,2.052 z m 160.38,-4.104 -0.756,-0.217 c 0.216,-0.647 0.324,-1.403 0.432,-2.052 l 0.756,0.108 c -0.108,0.649 -0.324,1.406 -0.432,2.161 z m -161.46,-0.108 c -0.216,-0.648 -0.324,-1.404 -0.432,-2.052 l 0.756,-0.108 c 0.108,0.648 0.324,1.404 0.432,2.052 z"
   id="path29735" />
				</g>
			</g>
		</g>
		<g
   id="g29745">
			<path
   fill="#363636"
   d="m 128.148,227.198 v 0 c -0.324,0 -0.54,-0.216 -0.54,-0.54 0,-0.973 0.54,-102.384 -26.568,-156.061 -0.108,-0.216 0,-0.54 0.216,-0.756 0.216,-0.107 0.54,0 0.756,0.216 27.217,53.893 26.676,155.521 26.676,156.492 0,0.433 -0.216,0.649 -0.54,0.649 z"
   id="path29743" />
		</g>
		<g
   id="g29749">
			<path
   fill="#363636"
   d="m 116.16,255.494 c -0.648,-0.107 -64.152,-9.612 -85.212,-38.88 l 0.648,-0.433 c 20.952,29.053 84.132,38.557 84.67,38.557 z"
   id="path29747" />
		</g>
		<g
   id="g29753">
			<path
   fill="#363636"
   d="m 271.14,627.122 c -68.04,0 -136.08,-5.076 -156.49,-15.336 -0.218,-0.107 -0.324,-0.324 -0.324,-0.54 3.778,-31.428 13.716,-124.523 15.12,-177.336 0.216,-8.532 0.54,-18.252 0.862,-28.62 1.837,-59.939 4.43,-141.696 -2.376,-176.796 -9.18,23.112 -17.063,39.204 -17.063,39.42 -0.108,0.216 -0.324,0.324 -0.54,0.324 -0.648,-0.108 -63.504,-10.044 -84.456,-40.5 -0.108,-0.108 -0.108,-0.324 0,-0.54 14.904,-33.48 36.18,-84.24 45.9,-111.24 8.532,-23.544 17.388,-37.368 29.376,-46.116 10.584,-7.668 25.702,-14.256 53.352,-25.38 26.353,-10.476 36.937,-15.876 37.044,-15.876 l 14.688,-11.124 c 0.106,-0.108 0.322,-0.108 0.54,-0.108 0.322,0.108 29.916,11.125 64.366,11.125 34.452,0 64.044,-11.017 64.368,-11.125 0.216,-0.107 0.324,0 0.54,0.108 l 14.688,11.124 c 0,0 10.584,5.292 36.936,15.876 27.756,11.124 42.77,17.712 53.354,25.38 12.096,8.748 20.844,22.464 29.375,46.116 9.828,27 30.996,77.76 45.899,111.24 0.108,0.216 0.108,0.323 0,0.54 -20.952,30.456 -83.808,40.392 -84.456,40.5 -0.216,0 -0.432,-0.108 -0.54,-0.324 -0.106,-0.216 -7.884,-16.308 -17.063,-39.42 -6.806,35.1 -4.212,116.855 -2.376,176.796 0.322,10.368 0.646,20.088 0.863,28.62 1.619,62.64 15.013,176.256 15.119,177.336 0,0.216 -0.106,0.433 -0.322,0.54 -20.304,10.26 -88.344,15.336 -156.384,15.336 z M 115.512,611.03 c 41.688,20.088 269.784,20.088 311.364,0 -0.864,-7.345 -13.5,-116.101 -15.12,-177.12 -0.216,-8.532 -0.54,-18.252 -0.864,-28.62 -1.942,-61.021 -4.536,-144.611 2.7,-178.848 0,-0.217 0.216,-0.434 0.434,-0.434 0.216,0 0.432,0.108 0.539,0.324 8.748,22.032 16.309,38.124 17.604,40.716 5.4,-0.863 63.18,-11.124 83.16,-39.743 -14.904,-33.479 -36.072,-84.132 -45.9,-111.023 C 460.899,92.954 452.257,79.345 440.377,70.706 429.9,63.146 414.889,56.558 387.241,45.542 360.781,34.958 350.197,29.666 350.089,29.558 l -14.58,-11.016 c -3.132,1.08 -31.644,11.124 -64.476,11.124 -32.832,0 -61.346,-9.936 -64.478,-11.124 l -14.472,11.016 c -0.216,0.108 -10.8,5.4 -37.26,15.984 -27.648,11.016 -42.66,17.604 -53.137,25.164 -11.881,8.532 -20.521,22.248 -29.053,45.576 -9.72,26.892 -30.996,77.436 -45.9,111.023 19.98,28.729 77.76,38.88 83.162,39.743 1.188,-2.592 8.854,-18.684 17.604,-40.716 0.108,-0.216 0.324,-0.324 0.54,-0.324 0.216,0 0.432,0.217 0.432,0.434 7.236,34.235 4.646,117.827 2.7,178.848 -0.324,10.368 -0.646,19.979 -0.864,28.62 -1.078,52.704 -11.015,145.368 -14.795,177.12 z"
   id="path29751" />
		</g>
		<g
   id="g29757">
			<path
   fill="#363636"
   d="m 414.24,227.198 c -0.324,0 -0.54,-0.216 -0.54,-0.54 0,-0.973 -0.54,-102.601 26.676,-156.492 0.108,-0.216 0.433,-0.324 0.756,-0.216 0.216,0.107 0.324,0.432 0.216,0.756 -27.106,53.676 -26.566,154.979 -26.566,156.061 -0.002,0.215 -0.326,0.431 -0.542,0.431 z"
   id="path29755" />
		</g>
		<g
   id="g29761">
			<path
   fill="#363636"
   d="m 271.14,72.326 c -18.468,0 -55.836,-11.34 -65.124,-54.216 -0.106,-0.324 0.108,-0.54 0.434,-0.648 0.326,-0.108 0.54,0.108 0.646,0.432 4.32,20.089 14.904,34.992 31.536,44.28 15.769,8.856 30.78,9.072 32.508,9.072 1.62,0 16.74,-0.216 32.509,-9.072 16.633,-9.288 27.217,-24.191 31.535,-44.28 0.108,-0.323 0.324,-0.432 0.648,-0.432 0.324,0.108 0.432,0.324 0.432,0.648 -9.18,42.876 -46.548,54.216 -65.124,54.216 z"
   id="path29759" />
		</g>
		<g
   id="g29765">
			<path
   fill="#363636"
   d="m 271.14,86.366 c -5.398,0 -23.11,-1.729 -40.5,-9.937 -21.6,-10.044 -35.208,-26.352 -39.312,-47.195 -0.108,-0.324 0.106,-0.54 0.432,-0.648 0.325,-0.107 0.54,0.108 0.648,0.432 4.104,20.736 17.063,36.396 38.664,46.44 17.279,7.992 34.774,9.828 40.066,9.828 5.292,0 22.788,-1.729 40.068,-9.828 21.6,-10.044 34.668,-25.704 38.664,-46.44 0.107,-0.323 0.324,-0.432 0.646,-0.432 0.324,0.108 0.434,0.324 0.434,0.648 -4.104,20.844 -17.712,37.151 -39.313,47.195 -17.385,8.101 -35.097,9.937 -40.497,9.937 z"
   id="path29763" />
		</g>
		<g
   id="g29769">
			<path
   fill="#363636"
   d="m 273.3,44.678 c -1.296,0 -2.052,0 -2.16,0 -0.322,0 -38.771,0.648 -58.104,-7.452 -0.324,-0.107 -0.433,-0.432 -0.324,-0.756 0.108,-0.323 0.433,-0.432 0.756,-0.323 19.116,7.884 57.35,7.344 57.672,7.344 0.434,0 38.664,0.647 57.673,-7.344 0.323,-0.108 0.539,0 0.757,0.323 0.106,0.324 0,0.54 -0.324,0.756 -16.634,7.02 -47.63,7.452 -55.946,7.452 z"
   id="path29767" />
		</g>
		<g
   id="g29773">
			<path
   fill="#363636"
   d="m 426.12,255.604 c -0.216,0 -0.54,-0.217 -0.54,-0.434 0,-0.323 0.107,-0.54 0.432,-0.646 0.648,-0.108 63.722,-9.612 84.672,-38.558 0.218,-0.216 0.54,-0.323 0.758,-0.106 0.216,0.216 0.322,0.54 0.106,0.756 -21.168,29.374 -84.672,38.878 -85.428,38.988 0.109,0 0,0 0,0 z"
   id="path29771" />
		</g>
		<g
   id="g29777">
			<path
   fill="#363636"
   d="m 271.14,600.122 c -66.742,0 -133.38,-4.968 -153.468,-14.903 -0.216,-0.107 -0.324,-0.433 -0.216,-0.757 0.108,-0.216 0.432,-0.323 0.756,-0.216 40.068,19.872 266.004,19.872 306.072,0 0.216,-0.107 0.54,0 0.756,0.216 0.108,0.217 0,0.54 -0.216,0.757 -20.196,9.935 -86.94,14.903 -153.684,14.903 z"
   id="path29775" />
		</g>
		<g
   id="g29781">
			<path
   fill="#363636"
   d="m 271.14,604.442 c -66.96,0 -133.812,-4.969 -154.008,-14.796 -0.216,-0.108 -0.324,-0.434 -0.216,-0.757 0.108,-0.217 0.432,-0.323 0.756,-0.217 40.176,19.656 266.868,19.656 307.044,0 0.216,-0.106 0.54,0 0.756,0.217 0.108,0.217 0,0.54 -0.216,0.757 -20.195,9.829 -87.156,14.796 -154.116,14.796 z"
   id="path29779" />
		</g>
	</g>
	<g
   id="g29867">
		<g
   id="g29789">
			<g
   id="g29787">
				
			</g>
		</g>
		<g
   id="g29795">
			<g
   id="g29793">
				
			</g>
		</g>
		<g
   id="g29799">
			
		</g>
		<g
   id="g29803">
			
		</g>
		<g
   id="g29809">
			<g
   id="g29807">
				
			</g>
		</g>
		<g
   id="g29813">
			
		</g>
		<g
   id="g29865">
			<g
   id="g29839">
				<g
   id="g29833">
					<g
   id="g29819">
						<g
   id="g29817">
							
						</g>
					</g>
					<g
   id="g29825">
						<g
   id="g29823">
							
						</g>
					</g>
					<g
   id="g29831">
						<g
   id="g29829">
							
						</g>
					</g>
				</g>
				<g
   id="g29837">
					
				</g>
			</g>
			<g
   id="g29863">
				<g
   id="g29861">
					<g
   id="g29859">
						<g
   id="g29845">
							<g
   id="g29843">
								
							</g>
						</g>
						<g
   id="g29851">
							<g
   id="g29849">
								
							</g>
						</g>
						<g
   id="g29857">
							<g
   id="g29855">
								
							</g>
						</g>
					</g>
				</g>
			</g>
		</g>
	</g>
</g>
</svg>
