<?xml version="1.0" encoding="UTF-8" standalone="no"?>
<!-- Generator: Adobe Illustrator 27.5.0, SVG Export Plug-In . SVG Version: 6.00 Build 0)  -->

<svg
   version="1.1"
   id="Layer_1"
   x="0px"
   y="0px"
   viewBox="0 0 716.05798 961.43103"
   xml:space="preserve"
   sodipodi:docname="leonesnorte.svg"
   width="716.05798"
   height="961.43103"
   inkscape:version="1.2.2 (b0a84865, 2022-12-01)"
   xmlns:inkscape="http://www.inkscape.org/namespaces/inkscape"
   xmlns:sodipodi="http://sodipodi.sourceforge.net/DTD/sodipodi-0.dtd"
   xmlns:xlink="http://www.w3.org/1999/xlink"
   xmlns="http://www.w3.org/2000/svg"
   xmlns:svg="http://www.w3.org/2000/svg"><defs
   id="defs10084">
	
	
	
	
	
	
	
	
	
	
	
	
	
	
	
	
	
	
	
	
	
	
	
	
		
	
		
	
	
	
	
	
	
	
	
	
	
	
	
	
	
	
	
	
	
	
	
	
	
	
	
	
	
	
	
	
	
	
	
	
	
	
	
	
	
	
	
	
		
	
	
	
	
	
	
	
	
	
	
	
	
	
	
	
	
	
	
	
	
	
	
	
	
	
	
	
	
	
	
	
	
	
	
	
	
	
	
	
	
	
	
	
	
	
	
	
	
	
	
	
	
	
	
	
	
	
		
	
		
	
	
	
	
	
	
	
	
	
	
	
	
	
	
	
	
	
	
	
	
	
	
	
	
	
	
	
	
	
	
		
	
		
	
	
		
</defs><sodipodi:namedview
   id="namedview10082"
   pagecolor="#ffffff"
   bordercolor="#000000"
   borderopacity="0.25"
   inkscape:showpageshadow="2"
   inkscape:pageopacity="0.0"
   inkscape:pagecheckerboard="0"
   inkscape:deskcolor="#d1d1d1"
   showgrid="false"
   inkscape:zoom="0.22078135"
   inkscape:cx="-430.28996"
   inkscape:cy="-192.49814"
   inkscape:window-width="1920"
   inkscape:window-height="1027"
   inkscape:window-x="1728"
   inkscape:window-y="62"
   inkscape:window-maximized="1"
   inkscape:current-layer="Layer_1" />
<path
   style="clip-rule:evenodd;fill-rule:evenodd"
   d="M 358.029,194.936 C 119.068,208.166 0,256.123 0,256.123 35.542,507.525 70.283,849.806 358.029,961.431 645.775,849.805 680.516,507.525 716.058,256.123 c -10e-4,0 -119.068,-47.958 -358.029,-61.187 z"
   id="path9845" /><path
   style="clip-rule:evenodd;fill:#ffffff;fill-rule:evenodd"
   d="m 685.782,274.616 c -0.299,-0.095 -0.597,-0.189 -0.895,-0.283 -21.294,-6.73 -43.076,-12.351 -64.841,-17.319 C 534.647,237.52 445.398,227.29 358.03,222.393 c -87.368,4.897 -176.617,15.126 -262.016,34.621 -21.766,4.968 -43.547,10.589 -64.842,17.319 -0.298,0.094 -0.596,0.189 -0.895,0.283 C 64.153,517.78 102.896,825.538 358.03,931.883 613.162,825.538 651.906,517.78 685.782,274.616 Z"
   id="path9847" /><g
   id="g9873"
   transform="translate(-1111.158,-566.188)">
		<defs
   id="defs9850">
			<path
   id="SVGID_00000126311454459424224840000003423966678118950045_"
   d="m 1469.187,1477.97 c 236.013,-103.792 275.677,-396.088 307.279,-624.079 -16.316,-4.751 -32.813,-8.893 -49.376,-12.674 -84.437,-19.275 -171.501,-29.245 -257.904,-34.128 -86.402,4.883 -173.467,14.853 -257.904,34.128 -16.562,3.781 -33.06,7.923 -49.375,12.674 31.603,227.992 71.266,520.287 307.28,624.079 z" />
		</defs>
		<clipPath
   id="SVGID_00000155844383888382341320000017778515964171159963_">
			<use
   xlink:href="#SVGID_00000126311454459424224840000003423966678118950045_"
   style="overflow:visible"
   id="use9852" />
		</clipPath>
		
			<polygon
   style="clip-rule:evenodd;fill-rule:evenodd"
   points="1151.665,772.593 1222.225,772.593 1222.225,1529.472 1151.665,1529.472 "
   clip-path="url(#SVGID_00000155844383888382341320000017778515964171159963_)"
   id="polygon9855" />
		
			<polygon
   style="clip-rule:evenodd;fill:#808080;fill-rule:evenodd"
   points="1222.225,772.593 1292.786,772.593 1292.786,1529.472 1222.225,1529.472 "
   clip-path="url(#SVGID_00000155844383888382341320000017778515964171159963_)"
   id="polygon9857" />
		
			<polygon
   style="clip-rule:evenodd;fill-rule:evenodd"
   points="1292.786,772.593 1363.346,772.593 1363.346,1529.472 1292.786,1529.472 "
   clip-path="url(#SVGID_00000155844383888382341320000017778515964171159963_)"
   id="polygon9859" />
		
			<polygon
   style="clip-rule:evenodd;fill:#808080;fill-rule:evenodd"
   points="1363.346,772.593 1433.907,772.593 1433.907,1529.472 1363.346,1529.472 "
   clip-path="url(#SVGID_00000155844383888382341320000017778515964171159963_)"
   id="polygon9861" />
		
			<polygon
   style="clip-rule:evenodd;fill-rule:evenodd"
   points="1433.907,772.593 1504.467,772.593 1504.467,1529.472 1433.907,1529.472 "
   clip-path="url(#SVGID_00000155844383888382341320000017778515964171159963_)"
   id="polygon9863" />
		
			<polygon
   style="clip-rule:evenodd;fill:#808080;fill-rule:evenodd"
   points="1504.467,772.593 1575.027,772.593 1575.027,1529.472 1504.467,1529.472 "
   clip-path="url(#SVGID_00000155844383888382341320000017778515964171159963_)"
   id="polygon9865" />
		
			<polygon
   style="clip-rule:evenodd;fill-rule:evenodd"
   points="1575.027,772.593 1645.588,772.593 1645.588,1529.472 1575.027,1529.472 "
   clip-path="url(#SVGID_00000155844383888382341320000017778515964171159963_)"
   id="polygon9867" />
		
			<polygon
   style="clip-rule:evenodd;fill:#808080;fill-rule:evenodd"
   points="1645.588,772.593 1716.148,772.593 1716.148,1529.472 1645.588,1529.472 "
   clip-path="url(#SVGID_00000155844383888382341320000017778515964171159963_)"
   id="polygon9869" />
		
			<polygon
   style="clip-rule:evenodd;fill-rule:evenodd"
   points="1716.148,772.593 1786.709,772.593 1786.709,1529.472 1716.148,1529.472 "
   clip-path="url(#SVGID_00000155844383888382341320000017778515964171159963_)"
   id="polygon9871" />
	</g><path
   style="fill:none;stroke:#000000;stroke-width:10.3359;stroke-linecap:round;stroke-linejoin:round;stroke-miterlimit:22.9256"
   d="m 229.007,703.323 c -3.508,0.507 -7.016,1.034 -10.524,1.589 0,-2.308 0,-4.622 0,-6.935 0,-2.026 -0.122,-3.258 -0.338,-3.732 -0.214,-0.464 -0.739,-0.638 -1.477,-0.528 -0.862,0.129 -1.418,0.517 -1.631,1.157 -0.217,0.649 -0.338,1.983 -0.338,4.014 0,3.103 0,6.2 0,9.297 0,3.097 0,6.195 0,9.291 0,1.951 0.121,3.195 0.338,3.759 0.212,0.55 0.739,0.749 1.539,0.613 0.799,-0.136 1.292,-0.512 1.539,-1.151 0.245,-0.634 0.369,-2.047 0.369,-4.243 0,-1.674 0,-3.353 0,-5.027 3.508,-0.576 7.016,-1.119 10.524,-1.642 0,0.517 0,1.034 0,1.546 0,4.104 -0.31,7.068 -0.893,8.87 -0.586,1.817 -1.911,3.531 -3.908,5.144 -2.034,1.643 -4.524,2.727 -7.477,3.252 -3.077,0.546 -5.631,0.499 -7.631,-0.229 -1.999,-0.727 -3.326,-2.02 -3.97,-3.865 -0.648,-1.859 -0.953,-4.766 -0.953,-8.726 0,-1.967 0,-3.934 0,-5.901 0,-1.968 0,-3.929 0,-5.902 0,-2.916 0.078,-5.114 0.277,-6.599 0.2,-1.495 0.8,-2.99 1.785,-4.494 0.984,-1.503 2.367,-2.781 4.123,-3.833 1.751,-1.049 3.785,-1.745 6.062,-2.074 3.077,-0.444 5.637,-0.236 7.662,0.671 2.006,0.899 3.338,2.191 3.969,3.865 0.63,1.668 0.954,4.35 0.954,8.049 -0.001,1.258 -0.001,2.511 -0.001,3.764 z m 27.878,-20.428 c 0,6.487 0,12.98 0,19.468 0,6.483 0,12.976 0,19.463 -3.508,0.405 -7.016,0.853 -10.523,1.311 0,-2.74 0,-5.48 0,-8.22 0,-2.735 0,-5.48 0,-8.22 -1.047,0.128 -2.062,0.251 -3.077,0.373 0,2.746 0,5.491 0,8.236 0,2.745 0,5.491 0,8.236 -3.508,0.496 -7.015,1.008 -10.523,1.519 0,-6.578 0,-13.172 0,-19.75 0,-6.584 0,-13.173 0,-19.762 3.508,-0.421 7.015,-0.842 10.523,-1.253 0,2.341 0,4.686 0,7.026 0,2.335 0,4.675 0,7.015 1.016,-0.117 2.031,-0.234 3.077,-0.357 0,-2.335 0,-4.665 0,-7 0,-2.335 0,-4.675 0,-7.01 3.507,-0.377 7.015,-0.739 10.523,-1.075 z m 22.37,-1.86 c 0.985,6.344 2.001,12.693 2.985,19.031 0.984,6.338 2.031,12.671 3.046,18.999 -3.6,0.282 -7.169,0.591 -10.739,0.912 -0.215,-2.287 -0.4,-4.579 -0.585,-6.877 -1.261,0.112 -2.523,0.224 -3.785,0.347 -0.216,2.34 -0.4,4.669 -0.585,7.005 -3.631,0.368 -7.262,0.741 -10.862,1.157 0.862,-6.579 1.785,-13.162 2.647,-19.724 0.861,-6.551 1.785,-13.108 2.677,-19.65 5.047,-0.427 10.124,-0.827 15.201,-1.2 z m -5.569,25.257 c -0.246,-2.17 -0.523,-4.595 -0.769,-7.282 -0.246,-2.692 -0.554,-5.646 -0.831,-8.86 -0.523,3.753 -0.954,7.011 -1.261,9.75 -0.307,2.74 -0.585,4.979 -0.708,6.706 1.168,-0.111 2.369,-0.212 3.569,-0.314 z m 45.787,-27.277 c 0,6.343 0,12.692 0,19.036 0,6.344 0,12.693 0,19.037 -3.077,0.133 -6.124,0.261 -9.17,0.394 -0.031,-4.291 -0.031,-8.582 -0.031,-12.874 0,-4.297 0,-8.588 0,-12.879 -0.616,4.318 -1.262,8.641 -1.846,12.964 -0.585,4.328 -1.231,8.652 -1.815,12.98 -2.154,0.118 -4.308,0.235 -6.431,0.352 -0.646,-4.163 -1.292,-8.333 -1.939,-12.501 -0.645,-4.163 -1.292,-8.343 -1.939,-12.511 -0.031,4.211 -0.031,8.423 -0.031,12.634 0,4.206 0,8.423 0,12.629 -3.077,0.203 -6.123,0.411 -9.17,0.645 0,-6.397 0,-12.805 0,-19.201 0,-6.397 0,-12.799 0,-19.202 4.524,-0.277 9.047,-0.522 13.57,-0.757 0.369,2.297 0.795,5.001 1.261,8.087 0.487,3.215 0.985,6.424 1.477,9.633 0.4,-2.99 0.801,-5.986 1.2,-8.977 0.4,-2.991 0.8,-5.981 1.2,-8.972 4.556,-0.198 9.11,-0.358 13.664,-0.517 z m 4.246,-0.112 c 3.508,-0.101 7.047,-0.181 10.585,-0.245 2.862,-0.052 5.079,0.111 6.616,0.522 1.509,0.404 2.672,1.012 3.446,1.791 0.794,0.799 1.323,1.746 1.6,2.879 0.276,1.128 0.4,2.884 0.4,5.262 0,1.103 0,2.201 0,3.305 0,2.415 -0.278,4.179 -0.801,5.294 -0.523,1.113 -1.508,1.981 -2.923,2.591 -1.416,0.61 -3.293,0.93 -5.569,0.975 -0.954,0.019 -1.908,0.038 -2.831,0.059 0,2.559 0,5.113 0,7.666 0,2.554 0,5.107 0,7.661 -3.507,0.074 -7.015,0.17 -10.523,0.288 0,-6.339 0,-12.682 0,-19.021 0,-6.34 0,-12.689 0,-19.027 z m 10.524,6.242 c 0,3.225 0,6.45 0,9.676 0.308,0.011 0.555,0.015 0.77,0.011 0.954,-0.017 1.631,-0.256 2,-0.709 0.369,-0.453 0.554,-1.381 0.554,-2.788 0,-1.04 0,-2.085 0,-3.129 0,-1.301 -0.216,-2.143 -0.646,-2.527 -0.43,-0.384 -1.324,-0.56 -2.678,-0.534 z m 25.663,-6.696 c 0,6.323 0,12.651 0,18.973 0,6.317 0,12.645 0,18.967 -3.508,0.01 -7.016,0.022 -10.524,0.038 0,-6.323 0,-12.655 0,-18.978 0,-6.322 0,-12.65 0,-18.978 3.508,-0.016 7.016,-0.027 10.524,-0.022 z m 28.155,22.624 c 0,3.823 -0.093,6.514 -0.277,8.098 -0.184,1.588 -0.79,3.026 -1.785,4.313 -1.005,1.298 -2.372,2.264 -4.092,2.932 -1.695,0.659 -3.693,0.962 -5.97,0.927 -2.154,-0.034 -4.094,-0.379 -5.816,-1.066 -1.725,-0.688 -3.106,-1.697 -4.154,-3.028 -1.045,-1.328 -1.678,-2.781 -1.877,-4.339 -0.201,-1.57 -0.308,-4.302 -0.308,-8.205 0,-2.164 0,-4.328 0,-6.493 0,-3.817 0.108,-6.507 0.308,-8.092 0.2,-1.586 0.77,-3.034 1.785,-4.339 1.015,-1.306 2.373,-2.301 4.092,-2.991 1.695,-0.68 3.693,-1.024 5.969,-0.997 2.154,0.026 4.094,0.403 5.816,1.098 1.724,0.696 3.109,1.721 4.154,3.065 1.047,1.347 1.677,2.818 1.877,4.387 0.2,1.57 0.277,4.312 0.277,8.22 10e-4,2.176 10e-4,4.346 10e-4,6.51 z M 377.537,688.37 c 0,-1.76 -0.105,-2.89 -0.308,-3.391 -0.197,-0.486 -0.616,-0.741 -1.23,-0.747 -0.554,-0.01 -0.963,0.18 -1.262,0.581 -0.285,0.383 -0.4,1.568 -0.4,3.519 0,2.953 0,5.912 0,8.86 0,2.948 0,5.906 0,8.86 0,2.196 0.094,3.561 0.277,4.073 0.186,0.522 0.616,0.781 1.292,0.789 0.708,0.01 1.155,-0.277 1.354,-0.863 0.201,-0.592 0.277,-2.005 0.277,-4.238 0,-2.905 0,-5.811 0,-8.722 0,-2.905 0,-5.81 0,-8.721 z m 37.941,-8.598 c 0,6.37 0,12.746 0,19.116 0,6.365 0,12.74 0,19.111 -3.077,-0.165 -6.154,-0.336 -9.2,-0.501 -0.923,-2.926 -1.879,-5.859 -2.77,-8.779 -0.893,-2.927 -1.816,-5.853 -2.708,-8.78 0,2.889 0,5.779 0,8.668 0,2.884 0,5.774 0,8.657 -2.924,-0.122 -5.847,-0.235 -8.77,-0.33 0,-6.333 0,-12.682 0,-19.015 0,-6.339 0,-12.682 0,-19.026 2.923,0.085 5.846,0.176 8.77,0.277 0.953,2.895 1.97,5.795 2.923,8.684 0.954,2.894 1.969,5.795 2.954,8.695 0,-2.858 0,-5.72 0,-8.583 0,-2.857 0,-5.725 0,-8.588 2.924,0.132 5.847,0.26 8.801,0.394 z m 26.463,13.358 c -3.261,-0.256 -6.523,-0.512 -9.785,-0.741 0,-0.944 0,-1.893 0,-2.842 0,-1.328 -0.123,-2.191 -0.369,-2.569 -0.246,-0.378 -0.646,-0.58 -1.231,-0.619 -0.615,-0.041 -1.095,0.174 -1.415,0.64 -0.326,0.472 -0.493,1.189 -0.493,2.186 0,1.28 0.194,2.245 0.554,2.927 0.347,0.656 1.351,1.519 2.954,2.548 4.674,3.001 7.61,5.41 8.832,7.218 1.209,1.79 1.815,4.585 1.815,8.364 0,2.745 -0.336,4.746 -1.016,5.997 -0.673,1.238 -1.972,2.204 -3.908,2.916 -1.91,0.701 -4.154,0.959 -6.739,0.757 -2.8,-0.219 -5.196,-0.92 -7.17,-2.058 -1.995,-1.149 -3.293,-2.5 -3.908,-4.105 -0.615,-1.604 -0.923,-3.833 -0.923,-6.696 0,-0.837 0,-1.673 0,-2.51 3.231,0.197 6.493,0.399 9.755,0.634 0,1.556 0,3.113 0,4.67 0,1.439 0.142,2.379 0.4,2.809 0.264,0.439 0.769,0.668 1.477,0.72 0.676,0.049 1.197,-0.167 1.538,-0.666 0.336,-0.492 0.524,-1.253 0.524,-2.276 0,-2.26 -0.339,-3.769 -0.985,-4.51 -0.645,-0.741 -2.3,-2.037 -4.892,-3.849 -2.608,-1.823 -4.346,-3.106 -5.201,-3.902 -0.838,-0.781 -1.539,-1.861 -2.092,-3.199 -0.554,-1.338 -0.831,-3.023 -0.831,-5.054 0,-2.927 0.388,-5.056 1.17,-6.365 0.787,-1.319 2.063,-2.293 3.846,-2.969 1.755,-0.666 3.877,-0.919 6.369,-0.762 2.738,0.173 5.045,0.748 6.954,1.722 1.937,0.988 3.198,2.139 3.816,3.47 0.612,1.318 0.953,3.518 0.953,6.584 10e-4,0.513 10e-4,1.024 10e-4,1.53 z m 28.309,-9.094 c 0,6.53 0,13.06 0,19.591 0,6.524 0,13.06 0,19.585 -3.508,-0.464 -7.015,-0.917 -10.523,-1.322 0,-2.724 0,-5.448 0,-8.167 0,-2.724 0,-5.448 0,-8.172 -1.046,-0.117 -2.061,-0.229 -3.077,-0.336 0,2.719 0,5.443 0,8.156 0,2.719 0,5.438 0,8.156 -3.508,-0.399 -7.015,-0.751 -10.524,-1.114 0,-6.445 0,-12.89 0,-19.335 0,-6.439 0,-12.89 0,-19.335 3.508,0.298 7.015,0.592 10.524,0.922 0,2.319 0,4.638 0,6.951 0,2.319 0,4.632 0,6.951 1.016,0.101 2.031,0.208 3.077,0.314 0,-2.319 0,-4.638 0,-6.957 0,-2.319 0,-4.643 0,-6.968 3.508,0.339 7.016,0.702 10.523,1.08 z m 14.77,1.749 c 0,6.594 0,13.194 0,19.783 0,6.589 0,13.183 0,19.772 -3.508,-0.539 -7.015,-1.05 -10.523,-1.562 0,-6.541 0,-13.093 0,-19.633 0,-6.541 0,-13.093 0,-19.639 3.508,0.421 7.015,0.836 10.523,1.279 z m 4.216,0.554 c 3.508,0.458 7.047,0.974 10.585,1.487 2.862,0.414 5.047,0.981 6.585,1.674 1.538,0.693 2.709,1.519 3.477,2.49 0.77,0.975 1.293,2.084 1.569,3.332 0.278,1.252 0.431,3.14 0.431,5.672 0,1.172 0,2.345 0,3.513 0,2.575 -0.291,4.402 -0.831,5.491 -0.536,1.081 -1.505,1.835 -2.892,2.207 -1.443,0.386 -3.292,0.35 -5.6,-0.053 -0.953,-0.167 -1.877,-0.315 -2.801,-0.464 0,2.693 0,5.379 0,8.071 0,2.687 0,5.373 0,8.06 -3.508,-0.619 -7.016,-1.237 -10.523,-1.802 0,-6.611 0,-13.231 0,-19.836 0,-6.611 0,-13.232 0,-19.842 z m 10.523,8.305 c 0,3.396 0,6.792 0,10.187 0.308,0.064 0.554,0.11 0.769,0.144 0.954,0.152 1.633,0.027 2,-0.379 0.371,-0.409 0.554,-1.354 0.554,-2.841 0,-1.099 0,-2.202 0,-3.306 0,-1.37 -0.212,-2.301 -0.647,-2.787 -0.425,-0.477 -1.321,-0.815 -2.676,-1.018 z"
   id="path9875" /><path
   style="fill:#ffffff"
   d="m 229.007,703.323 c -3.508,0.507 -7.016,1.034 -10.524,1.589 0,-2.308 0,-4.622 0,-6.935 0,-2.026 -0.122,-3.258 -0.338,-3.732 -0.214,-0.464 -0.739,-0.638 -1.477,-0.528 -0.862,0.129 -1.418,0.517 -1.631,1.157 -0.217,0.649 -0.338,1.983 -0.338,4.014 0,3.103 0,6.2 0,9.297 0,3.097 0,6.195 0,9.291 0,1.951 0.121,3.195 0.338,3.759 0.212,0.55 0.739,0.749 1.539,0.613 0.799,-0.136 1.292,-0.512 1.539,-1.151 0.245,-0.634 0.369,-2.047 0.369,-4.243 0,-1.674 0,-3.353 0,-5.027 3.508,-0.576 7.016,-1.119 10.524,-1.642 0,0.517 0,1.034 0,1.546 0,4.104 -0.31,7.068 -0.893,8.87 -0.586,1.817 -1.911,3.531 -3.908,5.144 -2.034,1.643 -4.524,2.727 -7.477,3.252 -3.077,0.546 -5.631,0.499 -7.631,-0.229 -1.999,-0.727 -3.326,-2.02 -3.97,-3.865 -0.648,-1.859 -0.953,-4.766 -0.953,-8.726 0,-1.967 0,-3.934 0,-5.901 0,-1.968 0,-3.929 0,-5.902 0,-2.916 0.078,-5.114 0.277,-6.599 0.2,-1.495 0.8,-2.99 1.785,-4.494 0.984,-1.503 2.367,-2.781 4.123,-3.833 1.751,-1.049 3.785,-1.745 6.062,-2.074 3.077,-0.444 5.637,-0.236 7.662,0.671 2.006,0.899 3.338,2.191 3.969,3.865 0.63,1.668 0.954,4.35 0.954,8.049 -0.001,1.258 -0.001,2.511 -0.001,3.764 z"
   id="path9877" /><path
   style="fill:#ffffff"
   d="m 256.885,682.895 c 0,6.487 0,12.98 0,19.468 0,6.483 0,12.976 0,19.463 -3.508,0.405 -7.016,0.853 -10.523,1.311 0,-2.74 0,-5.48 0,-8.22 0,-2.735 0,-5.48 0,-8.22 -1.047,0.128 -2.062,0.251 -3.077,0.373 0,2.746 0,5.491 0,8.236 0,2.745 0,5.491 0,8.236 -3.508,0.496 -7.015,1.008 -10.523,1.519 0,-6.578 0,-13.172 0,-19.75 0,-6.584 0,-13.173 0,-19.762 3.508,-0.421 7.015,-0.842 10.523,-1.253 0,2.341 0,4.686 0,7.026 0,2.335 0,4.675 0,7.015 1.016,-0.117 2.031,-0.234 3.077,-0.357 0,-2.335 0,-4.665 0,-7 0,-2.335 0,-4.675 0,-7.01 3.507,-0.377 7.015,-0.739 10.523,-1.075 z"
   id="path9879" /><path
   style="fill:#ffffff"
   d="m 279.255,681.035 c 0.985,6.344 2.001,12.693 2.985,19.031 0.984,6.338 2.031,12.671 3.046,18.999 -3.6,0.282 -7.169,0.591 -10.739,0.912 -0.215,-2.287 -0.4,-4.579 -0.585,-6.877 -1.261,0.112 -2.523,0.224 -3.785,0.347 -0.216,2.34 -0.4,4.669 -0.585,7.005 -3.631,0.368 -7.262,0.741 -10.862,1.157 0.862,-6.579 1.785,-13.162 2.647,-19.724 0.861,-6.551 1.785,-13.108 2.677,-19.65 5.047,-0.427 10.124,-0.827 15.201,-1.2 z m -5.569,25.257 c -0.246,-2.17 -0.523,-4.595 -0.769,-7.282 -0.246,-2.692 -0.554,-5.646 -0.831,-8.86 -0.523,3.753 -0.954,7.011 -1.261,9.75 -0.307,2.74 -0.585,4.979 -0.708,6.706 1.168,-0.111 2.369,-0.212 3.569,-0.314 z"
   id="path9881" /><path
   style="fill:#ffffff"
   d="m 319.473,679.015 c 0,6.343 0,12.692 0,19.036 0,6.344 0,12.693 0,19.037 -3.077,0.133 -6.124,0.261 -9.17,0.394 -0.031,-4.291 -0.031,-8.582 -0.031,-12.874 0,-4.297 0,-8.588 0,-12.879 -0.616,4.318 -1.262,8.641 -1.846,12.964 -0.585,4.328 -1.231,8.652 -1.815,12.98 -2.154,0.118 -4.308,0.235 -6.431,0.352 -0.646,-4.163 -1.292,-8.333 -1.939,-12.501 -0.645,-4.163 -1.292,-8.343 -1.939,-12.511 -0.031,4.211 -0.031,8.423 -0.031,12.634 0,4.206 0,8.423 0,12.629 -3.077,0.203 -6.123,0.411 -9.17,0.645 0,-6.397 0,-12.805 0,-19.201 0,-6.397 0,-12.799 0,-19.202 4.524,-0.277 9.047,-0.522 13.57,-0.757 0.369,2.297 0.795,5.001 1.261,8.087 0.487,3.215 0.985,6.424 1.477,9.633 0.4,-2.99 0.801,-5.986 1.2,-8.977 0.4,-2.991 0.8,-5.981 1.2,-8.972 4.556,-0.198 9.11,-0.358 13.664,-0.517 z"
   id="path9883" /><path
   style="fill:#ffffff"
   d="m 323.719,678.903 c 3.508,-0.101 7.047,-0.181 10.585,-0.245 2.862,-0.052 5.079,0.111 6.616,0.522 1.509,0.404 2.672,1.012 3.446,1.791 0.794,0.799 1.323,1.746 1.6,2.879 0.276,1.128 0.4,2.884 0.4,5.262 0,1.103 0,2.201 0,3.305 0,2.415 -0.278,4.179 -0.801,5.294 -0.523,1.113 -1.508,1.981 -2.923,2.591 -1.416,0.61 -3.293,0.93 -5.569,0.975 -0.954,0.019 -1.908,0.038 -2.831,0.059 0,2.559 0,5.113 0,7.666 0,2.554 0,5.107 0,7.661 -3.507,0.074 -7.015,0.17 -10.523,0.288 0,-6.339 0,-12.682 0,-19.021 0,-6.34 0,-12.689 0,-19.027 z m 10.524,6.242 c 0,3.225 0,6.45 0,9.676 0.308,0.011 0.555,0.015 0.77,0.011 0.954,-0.017 1.631,-0.256 2,-0.709 0.369,-0.453 0.554,-1.381 0.554,-2.788 0,-1.04 0,-2.085 0,-3.129 0,-1.301 -0.216,-2.143 -0.646,-2.527 -0.43,-0.384 -1.324,-0.56 -2.678,-0.534 z"
   id="path9885" /><path
   style="fill:#ffffff"
   d="m 359.906,678.449 c 0,6.323 0,12.651 0,18.973 0,6.317 0,12.645 0,18.967 -3.508,0.01 -7.016,0.022 -10.524,0.038 0,-6.323 0,-12.655 0,-18.978 0,-6.322 0,-12.65 0,-18.978 3.508,-0.016 7.016,-0.027 10.524,-0.022 z"
   id="path9887" /><path
   style="fill:#ffffff"
   d="m 388.061,701.073 c 0,3.823 -0.093,6.514 -0.277,8.098 -0.184,1.588 -0.79,3.026 -1.785,4.313 -1.005,1.298 -2.372,2.264 -4.092,2.932 -1.695,0.659 -3.693,0.962 -5.97,0.927 -2.154,-0.034 -4.094,-0.379 -5.816,-1.066 -1.725,-0.688 -3.106,-1.697 -4.154,-3.028 -1.045,-1.328 -1.678,-2.781 -1.877,-4.339 -0.201,-1.57 -0.308,-4.302 -0.308,-8.205 0,-2.164 0,-4.328 0,-6.493 0,-3.817 0.108,-6.507 0.308,-8.092 0.2,-1.586 0.77,-3.034 1.785,-4.339 1.015,-1.306 2.373,-2.301 4.092,-2.991 1.695,-0.68 3.693,-1.024 5.969,-0.997 2.154,0.026 4.094,0.403 5.816,1.098 1.724,0.696 3.109,1.721 4.154,3.065 1.047,1.347 1.677,2.818 1.877,4.387 0.2,1.57 0.277,4.312 0.277,8.22 10e-4,2.176 10e-4,4.346 10e-4,6.51 z M 377.537,688.37 c 0,-1.76 -0.105,-2.89 -0.308,-3.391 -0.197,-0.486 -0.616,-0.741 -1.23,-0.747 -0.554,-0.01 -0.963,0.18 -1.262,0.581 -0.285,0.383 -0.4,1.568 -0.4,3.519 0,2.953 0,5.912 0,8.86 0,2.948 0,5.906 0,8.86 0,2.196 0.094,3.561 0.277,4.073 0.186,0.522 0.616,0.781 1.292,0.789 0.708,0.01 1.155,-0.277 1.354,-0.863 0.201,-0.592 0.277,-2.005 0.277,-4.238 0,-2.905 0,-5.811 0,-8.722 0,-2.905 0,-5.81 0,-8.721 z"
   id="path9889" /><path
   style="fill:#ffffff"
   d="m 415.478,679.772 c 0,6.37 0,12.746 0,19.116 0,6.365 0,12.74 0,19.111 -3.077,-0.165 -6.154,-0.336 -9.2,-0.501 -0.923,-2.926 -1.879,-5.859 -2.77,-8.779 -0.893,-2.927 -1.816,-5.853 -2.708,-8.78 0,2.889 0,5.779 0,8.668 0,2.884 0,5.774 0,8.657 -2.924,-0.122 -5.847,-0.235 -8.77,-0.33 0,-6.333 0,-12.682 0,-19.015 0,-6.339 0,-12.682 0,-19.026 2.923,0.085 5.846,0.176 8.77,0.277 0.953,2.895 1.97,5.795 2.923,8.684 0.954,2.894 1.969,5.795 2.954,8.695 0,-2.858 0,-5.72 0,-8.583 0,-2.857 0,-5.725 0,-8.588 2.924,0.132 5.847,0.26 8.801,0.394 z"
   id="path9891" /><path
   style="fill:#ffffff"
   d="m 441.941,693.13 c -3.261,-0.256 -6.523,-0.512 -9.785,-0.741 0,-0.944 0,-1.893 0,-2.842 0,-1.328 -0.123,-2.191 -0.369,-2.569 -0.246,-0.378 -0.646,-0.58 -1.231,-0.619 -0.615,-0.041 -1.095,0.174 -1.415,0.64 -0.326,0.472 -0.493,1.189 -0.493,2.186 0,1.28 0.194,2.245 0.554,2.927 0.347,0.656 1.351,1.519 2.954,2.548 4.674,3.001 7.61,5.41 8.832,7.218 1.209,1.79 1.815,4.585 1.815,8.364 0,2.745 -0.336,4.746 -1.016,5.997 -0.673,1.238 -1.972,2.204 -3.908,2.916 -1.91,0.701 -4.154,0.959 -6.739,0.757 -2.8,-0.219 -5.196,-0.92 -7.17,-2.058 -1.995,-1.149 -3.293,-2.5 -3.908,-4.105 -0.615,-1.604 -0.923,-3.833 -0.923,-6.696 0,-0.837 0,-1.673 0,-2.51 3.231,0.197 6.493,0.399 9.755,0.634 0,1.556 0,3.113 0,4.67 0,1.439 0.142,2.379 0.4,2.809 0.264,0.439 0.769,0.668 1.477,0.72 0.676,0.049 1.197,-0.167 1.538,-0.666 0.336,-0.492 0.524,-1.253 0.524,-2.276 0,-2.26 -0.339,-3.769 -0.985,-4.51 -0.645,-0.741 -2.3,-2.037 -4.892,-3.849 -2.608,-1.823 -4.346,-3.106 -5.201,-3.902 -0.838,-0.781 -1.539,-1.861 -2.092,-3.199 -0.554,-1.338 -0.831,-3.023 -0.831,-5.054 0,-2.927 0.388,-5.056 1.17,-6.365 0.787,-1.319 2.063,-2.293 3.846,-2.969 1.755,-0.666 3.877,-0.919 6.369,-0.762 2.738,0.173 5.045,0.748 6.954,1.722 1.937,0.988 3.198,2.139 3.816,3.47 0.612,1.318 0.953,3.518 0.953,6.584 10e-4,0.513 10e-4,1.024 10e-4,1.53 z"
   id="path9893" /><path
   style="fill:#ffffff"
   d="m 470.25,684.036 c 0,6.53 0,13.06 0,19.591 0,6.524 0,13.06 0,19.585 -3.508,-0.464 -7.015,-0.917 -10.523,-1.322 0,-2.724 0,-5.448 0,-8.167 0,-2.724 0,-5.448 0,-8.172 -1.046,-0.117 -2.061,-0.229 -3.077,-0.336 0,2.719 0,5.443 0,8.156 0,2.719 0,5.438 0,8.156 -3.508,-0.399 -7.015,-0.751 -10.524,-1.114 0,-6.445 0,-12.89 0,-19.335 0,-6.439 0,-12.89 0,-19.335 3.508,0.298 7.015,0.592 10.524,0.922 0,2.319 0,4.638 0,6.951 0,2.319 0,4.632 0,6.951 1.016,0.101 2.031,0.208 3.077,0.314 0,-2.319 0,-4.638 0,-6.957 0,-2.319 0,-4.643 0,-6.968 3.508,0.339 7.016,0.702 10.523,1.08 z"
   id="path9895" /><path
   style="fill:#ffffff"
   d="m 485.02,685.785 c 0,6.594 0,13.194 0,19.783 0,6.589 0,13.183 0,19.772 -3.508,-0.539 -7.015,-1.05 -10.523,-1.562 0,-6.541 0,-13.093 0,-19.633 0,-6.541 0,-13.093 0,-19.639 3.508,0.421 7.015,0.836 10.523,1.279 z"
   id="path9897" /><path
   style="fill:#ffffff"
   d="m 489.236,686.339 c 3.508,0.458 7.047,0.974 10.585,1.487 2.862,0.414 5.047,0.981 6.585,1.674 1.538,0.693 2.709,1.519 3.477,2.49 0.77,0.975 1.293,2.084 1.569,3.332 0.278,1.252 0.431,3.14 0.431,5.672 0,1.172 0,2.345 0,3.513 0,2.575 -0.291,4.402 -0.831,5.491 -0.536,1.081 -1.505,1.835 -2.892,2.207 -1.443,0.386 -3.292,0.35 -5.6,-0.053 -0.953,-0.167 -1.877,-0.315 -2.801,-0.464 0,2.693 0,5.379 0,8.071 0,2.687 0,5.373 0,8.06 -3.508,-0.619 -7.016,-1.237 -10.523,-1.802 0,-6.611 0,-13.231 0,-19.836 0,-6.611 0,-13.232 0,-19.842 z m 10.523,8.305 c 0,3.396 0,6.792 0,10.187 0.308,0.064 0.554,0.11 0.769,0.144 0.954,0.152 1.633,0.027 2,-0.379 0.371,-0.409 0.554,-1.354 0.554,-2.841 0,-1.099 0,-2.202 0,-3.306 0,-1.37 -0.212,-2.301 -0.647,-2.787 -0.425,-0.477 -1.321,-0.815 -2.676,-1.018 z"
   id="path9899" /><polygon
   style="clip-rule:evenodd;fill:#ffffff;fill-rule:evenodd"
   points="1493.488,1388.265 1468.471,1371.314 1443.453,1388.265 1453.079,1360.929 1427.989,1344.07 1458.959,1344.125 1468.471,1316.756 1477.982,1344.125 1508.952,1344.07 1483.862,1360.929 "
   id="polygon9901"
   transform="translate(-1111.158,-566.188)" /><polygon
   style="clip-rule:evenodd;fill:#ffffff;fill-rule:evenodd"
   points="1552.89,1402.045 1534.792,1389.783 1516.694,1402.045 1523.658,1382.271 1505.507,1370.075 1527.911,1370.115 1534.792,1350.315 1541.672,1370.115 1564.076,1370.075 1545.926,1382.271 "
   id="polygon9903"
   transform="translate(-1111.158,-566.188)" /><polygon
   style="clip-rule:evenodd;fill:#ffffff;fill-rule:evenodd"
   points="1420.248,1402.045 1402.15,1389.783 1384.052,1402.045 1391.016,1382.271 1372.865,1370.075 1395.269,1370.115 1402.15,1350.315 1409.03,1370.115 1431.434,1370.075 1413.284,1382.271 "
   id="polygon9905"
   transform="translate(-1111.158,-566.188)" /><path
   style="clip-rule:evenodd;fill:#ffffff;fill-rule:evenodd"
   d="m 358.031,0 c 111.767,0 202.368,90.504 202.368,202.143 0,111.639 -90.604,202.142 -202.37,202.142 C 246.263,404.284 155.658,313.784 155.658,202.143 155.659,90.502 246.263,0.002 358.031,0 Z"
   id="path9907" /><path
   style="clip-rule:evenodd;fill-rule:evenodd"
   d="m 358.031,15.705 c 103.084,0 186.645,83.472 186.645,186.438 C 544.677,305.108 461.112,388.579 358.03,388.579 254.948,388.578 171.382,305.109 171.382,202.143 171.383,99.177 254.947,15.708 358.031,15.705 Z"
   id="path9909" /><path
   style="clip-rule:evenodd;fill-rule:evenodd"
   d="m 318.743,266.402 h 78.574 c 3.755,0 4.301,0.977 5.402,2.987 l 0.01,-0.004 0.101,0.178 0.182,0.21 26.082,34.879 1.611,2.154 -1.319,2.355 -28.006,49.892 -0.081,0.114 c -2.644,4.362 -6.014,4.886 -11.709,5.762 v -0.012 l -2.551,0.406 -0.24,0.033 -28.382,2.819 -0.323,0.018 c -2.157,0.049 -3.215,-0.168 -4.343,-0.404 l -0.014,-0.003 c -0.655,-0.135 -1.365,-0.285 -2.572,-0.317 -3.219,-0.093 -12.24,-0.454 -19.219,-1.448 -4.844,-0.692 -9.053,-1.828 -10.871,-3.658 l -0.549,-0.685 -33.715,-52.309 -1.464,-2.275 1.512,-2.263 c 1.478,-2.205 3.102,-4.297 4.74,-6.412 l 0.017,-0.017 c 0.796,-1.021 1.598,-2.053 2.33,-3.033 l -0.01,-0.008 19.115,-25.589 0.165,-0.194 0.114,-0.194 c 1.096,-1.993 1.638,-2.979 5.411,-2.982 z m 77.597,8.304 h -76.619 l -0.023,0.027 v 0.004 l -19.115,25.587 h -0.017 c -0.818,1.088 -1.626,2.133 -2.424,3.154 v 10e-4 c -0.984,1.269 -1.963,2.533 -2.865,3.759 l 31.844,49.402 c 0.716,0.337 3.062,0.761 5.984,1.176 6.683,0.951 15.229,1.295 18.279,1.383 2.029,0.054 3.087,0.277 4.06,0.484 v 0.002 c 0.623,0.13 1.221,0.253 2.28,0.243 l 28.153,-2.801 2.438,-0.389 0.033,-0.016 c 3.168,-0.488 5.092,-0.787 5.789,-1.718 v -0.005 l 26.686,-47.538 -24.473,-32.724 v -0.004 l -0.022,-0.027 z m 35.582,26.029 c -0.309,-1.158 -5.854,-8.128 -9.091,-12.192 -0.904,-1.139 -1.618,-2.033 -2.207,-2.818 l -0.01,0.004 -12.23,-16.218 0.01,-0.005 c -0.418,-0.508 -1.388,-1.69 -2.045,-2.53 -0.633,-0.816 -1.187,-1.579 -1.406,-2.082 l -0.015,-0.034 c -1.277,-2.979 5.599,-29.04 8.211,-38.949 v -0.002 l 0.883,-3.366 -0.01,-0.002 2.006,-7.996 c 1.368,-5.434 2.693,-10.683 3.681,-14.732 0.236,-0.975 0.428,-1.939 0.578,-2.717 l 0.001,-0.019 c 1.128,-5.763 1.13,-5.78 8.538,-8.125 l 53.895,-17.844 2.679,-0.892 1.814,2.205 26.026,31.548 0.065,0.06 c 1.966,2.498 3.389,4.097 4.517,5.358 2.609,2.915 4.06,4.541 4.705,7.598 0.677,3.233 -0.01,6.962 -1.547,15.264 l -0.76,4.119 v 0 c -1.704,9.321 -4.768,18.632 -8.518,27.54 -3.749,8.908 -8.137,17.351 -12.522,25.01 l -0.01,-0.004 -0.751,1.356 v 0.004 c -0.827,1.534 -1.299,2.398 -2.522,3.317 v 0.014 c -1.435,1.073 -2.653,1.264 -5.359,1.676 l 10e-4,-0.012 -0.132,0.021 h -0.015 l -9.298,1.438 c -2.589,0.406 -5.529,0.887 -8.782,1.434 l -0.05,0.009 c -5.98,1.002 -12.003,2.021 -17.594,2.793 -2.527,0.352 -4.868,0.772 -7.176,1.184 -3.858,0.686 -7.696,1.379 -11.23,1.673 l -3.444,0.282 -0.899,-3.368 z m -2.603,-17.345 c 2.622,3.292 6.596,8.289 8.885,11.885 2.593,-0.329 5.205,-0.797 7.833,-1.269 2.575,-0.463 5.165,-0.925 7.496,-1.248 5.434,-0.75 11.423,-1.759 17.369,-2.76 l 0.055,-0.012 c 2.366,-0.397 5.379,-0.884 8.876,-1.43 l 9.283,-1.436 v -0.004 l 0.163,-0.026 0.033,-0.017 c 1.272,-0.194 1.408,0.045 1.624,-0.115 l 0.01,0.008 c 0.228,-0.174 -0.097,-0.103 0.178,-0.613 l 0.034,-0.051 0.807,-1.456 0.017,-0.048 c 4.302,-7.518 8.564,-15.693 12.101,-24.098 3.536,-8.398 6.415,-17.122 7.997,-25.802 l 10e-4,-0.018 0.761,-4.123 c 1.332,-7.195 1.925,-10.423 1.578,-12.084 -0.188,-0.905 -1.108,-1.929 -2.756,-3.773 -1.332,-1.496 -3.024,-3.383 -4.878,-5.741 l 0.01,-0.01 -24.155,-29.279 -51.266,16.976 -0.048,0.014 c -2.711,0.856 -2.716,0.865 -2.899,1.807 v -0.002 c -0.145,0.755 -0.338,1.702 -0.673,3.095 -1.451,5.947 -2.564,10.347 -3.682,14.793 l -2.006,7.994 -0.015,0.035 -0.898,3.415 v 0.017 c -2.405,9.131 -8.732,33.12 -8.605,33.597 0.083,0.165 0.075,-0.046 0.324,0.271 0.797,1.018 1.762,2.201 2.004,2.491 l 0.133,0.143 12.229,16.218 v 0.017 c 0.211,0.282 1.064,1.352 2.084,2.639 z M 193.342,217.044 c 0,-1.813 6.416,-9.451 13.952,-18.385 8.782,-10.415 19.22,-22.791 21.309,-25.913 l 1.749,-2.616 2.969,0.979 21.422,7.028 0.015,0.015 21.342,7.109 c 3.325,1.106 6.24,2.005 8.492,2.694 v 0 c 3.716,1.143 5.774,1.775 7.301,2.747 2.783,1.764 3.142,3.354 3.924,6.859 l 0.01,-0.002 0.385,1.679 v 0 l 14.204,56.841 0.602,2.241 -0.01,0.003 c 0.618,2.251 0.921,3.369 0.632,4.971 h 0.014 c -0.3,1.695 -0.985,2.553 -2.325,4.21 -0.332,0.41 -0.745,0.926 -1.331,1.694 v -0.006 l -24.542,32.955 -1.383,1.859 -2.281,-0.19 c -3.107,-0.257 -6.678,-0.909 -10.172,-1.546 -1.258,-0.231 -2.534,-0.461 -4.178,-0.732 v -0.009 l -28.576,-4.485 v 0.004 c -1.704,-0.231 -3.45,-0.555 -5.203,-0.878 -3.052,-0.564 -6.163,-1.14 -9.111,-1.14 l -2.452,-0.004 -1.179,-2.172 -8.578,-15.805 -0.05,-0.097 -1.236,-2.417 -0.01,0.003 c -1.007,-1.946 -1.96,-3.77 -2.912,-6.059 -3.303,-7.942 -6.911,-18.03 -9.432,-28.115 -2.018,-8.081 -3.37,-16.199 -3.368,-23.32 z m 20.275,-13.04 c -6.466,7.663 -11.972,11.913 -11.972,13.041 0,6.422 1.246,13.862 3.109,21.312 2.418,9.662 5.871,19.331 9.039,26.946 0.829,1.982 1.697,3.664 2.622,5.446 l 0.001,0.014 1.193,2.332 7.454,13.73 c 2.721,0.21 5.426,0.711 8.094,1.205 1.622,0.3 3.236,0.602 4.815,0.814 l 0.08,0.015 28.688,4.505 h 0.033 c 1.108,0.182 2.695,0.475 4.307,0.767 2.391,0.432 4.816,0.879 7.15,1.18 l 23.157,-31.092 0.033,-0.049 c 0.517,-0.678 1.035,-1.323 1.46,-1.849 0.443,-0.548 0.546,-0.137 0.605,-0.481 l 0.019,-0.019 c 0.037,-0.222 -0.189,-0.291 -0.477,-1.344 l -0.015,-0.019 -0.601,-2.243 -0.017,-0.065 -14.221,-56.902 -0.016,-0.08 -0.406,-1.759 v -0.03 c -0.266,-1.195 -0.207,-1.618 -0.295,-1.673 -0.666,-0.424 -2.312,-0.929 -5.28,-1.837 l -0.014,-0.003 c -2.07,-0.632 -4.746,-1.452 -8.659,-2.754 l -21.321,-7.106 v 0.009 l -18.598,-6.104 c -4.065,5.239 -12.592,15.354 -19.963,24.093 z M 359.975,137.111 V 78.86 75.576 l 3.211,-0.753 c 1.334,-0.31 3.075,-1.057 4.709,-1.753 l 0.018,-0.019 1.963,-0.823 0.066,-0.014 22.726,-9.091 v -0.006 l 3.993,-1.62 c 8.443,-3.448 25.701,-10.493 27.754,-10.493 2.404,-0.003 7.117,2.243 12.26,5.205 7.646,4.395 16.804,10.517 19.42,12.435 l 0.192,0.163 12.584,10.446 0.229,0.198 c 0.755,0.728 1.597,1.423 2.483,2.149 1.996,1.635 4.231,3.476 6.612,6.319 v 0.015 c 0.333,0.4 1.39,1.59 2.672,3.032 5.751,6.468 15.908,17.906 15.032,23.346 -0.213,1.363 -0.474,2.167 -0.758,3.05 l 0.01,0.002 c -0.167,0.529 -0.361,1.129 -0.473,1.603 v 0.014 c -0.156,0.656 -0.352,1.581 -0.531,2.474 l 0.001,0.015 -0.527,2.504 -8.753,37.31 -0.05,0.177 c -1.523,5.41 -6.383,6.82 -13.045,8.742 v 0 c -1.585,0.457 -3.31,0.958 -5.147,1.572 l -0.016,-0.001 -43.154,14.339 -0.973,0.211 c -3.41,0.269 -5.475,-1.55 -8.051,-3.819 v -0.019 c -0.374,-0.329 -0.803,-0.704 -1.607,-1.36 v -0.005 l -51.277,-40.764 -1.576,-1.255 v -1.991 z m 8.305,-55.243 v 53.254 l 49.748,39.547 0.048,0.033 c 0.422,0.342 1.133,0.976 1.826,1.588 l 0.01,-0.012 c 0.908,0.8 1.557,1.482 1.813,1.701 L 464,163.93 v -0.003 c 1.915,-0.643 3.767,-1.173 5.471,-1.667 l 0.018,-0.002 c 4.001,-1.155 6.946,-2.006 7.329,-2.973 l 8.73,-37.196 c 0.199,-0.86 0.345,-1.562 0.492,-2.275 l 0.01,-0.003 c 0.215,-1.067 0.435,-2.141 0.589,-2.779 l 0.01,-0.002 c 0.254,-1.065 0.432,-1.613 0.596,-2.132 l 0.019,-0.035 c 0.185,-0.575 0.355,-1.103 0.472,-1.849 0.253,-1.567 -8.242,-11.128 -13.05,-16.538 -1.041,-1.177 -1.929,-2.171 -2.828,-3.25 l -0.01,0.005 c -1.941,-2.318 -3.827,-3.862 -5.508,-5.246 -1.04,-0.859 -2.036,-1.667 -2.939,-2.536 l -12.196,-10.13 v 0.003 c -2.543,-1.863 -11.366,-7.763 -18.643,-11.951 -4.017,-2.315 -7.339,-4.067 -8.14,-4.067 -0.459,-0.002 -16.696,6.63 -24.644,9.874 l -3.989,1.619 h -0.018 l -22.678,9.069 v 0.01 l -1.962,0.823 v -0.005 c -0.925,0.395 -1.883,0.807 -2.84,1.174 z M 356.084,78.86 v 58.251 2.194 l -1.848,1.243 c -5.892,3.945 -30.2,23.713 -45.252,35.957 l -9.498,7.707 -0.018,0.015 c -4.086,3.299 -5.885,2.609 -10.695,0.768 v -0.018 c -0.828,-0.318 -1.83,-0.698 -3.27,-1.179 v -0.005 l -47.209,-15.702 v 0.015 c -6.26,-1.98 -6.317,-2.254 -7.349,-8.056 -0.169,-0.986 -0.403,-2.259 -0.768,-3.832 v -0.003 l -9.536,-39.975 0.01,-0.004 c -1.501,-5.74 -0.208,-7.34 3.843,-12.31 0.91,-1.12 2.017,-2.474 3.263,-4.139 2.965,-3.955 7.693,-9.258 12.531,-14.165 4.706,-4.772 9.598,-9.269 13.191,-11.923 1.538,-1.14 3.073,-2.321 4.59,-3.488 3.918,-3.016 7.781,-5.99 12.273,-8.667 l 5.125,-3.085 v 0.004 c 7.419,-4.495 10.957,-6.634 15.236,-6.889 3.938,-0.234 7.251,1.187 13.555,3.887 l 0.017,-10e-4 c 2.406,1.032 5.275,2.263 8.329,3.486 l 0.001,-0.004 40.837,16.062 2.643,1.04 v 2.816 z m -8.302,56.121 V 81.678 L 309.591,66.655 309.558,66.64 c -3.691,-1.476 -6.351,-2.613 -8.561,-3.562 l 0.01,-0.008 c -5.117,-2.194 -7.815,-3.343 -9.815,-3.226 -2.267,0.133 -5.238,1.933 -11.459,5.702 l -0.015,0.015 -5.122,3.083 c -4.063,2.421 -7.74,5.252 -11.464,8.119 -1.535,1.183 -3.092,2.383 -4.72,3.587 -3.231,2.391 -7.781,6.578 -12.218,11.079 -4.635,4.703 -9.101,9.697 -11.818,13.322 -1.378,1.842 -2.52,3.24 -3.458,4.394 -2.045,2.512 -2.698,3.315 -2.23,5.087 l 0.034,0.092 9.536,39.977 v 0.017 c 0.438,1.873 0.686,3.248 0.869,4.307 0.187,1.046 0.202,1.109 1.674,1.573 l 0.051,0.031 47.272,15.722 h 0.016 c 1.289,0.432 2.534,0.908 3.583,1.309 l 0.01,-0.016 c 1.586,0.61 2.183,0.833 2.559,0.532 l 0.001,0.002 9.483,-7.698 c 13.932,-11.332 35.743,-29.068 44.013,-35.099 z M 188.777,197.4 c 0,15.451 1.039,28.4 3.474,40.447 2.434,12.025 6.29,23.327 11.932,35.495 13.317,28.712 35.187,53.561 61.815,71.061 25.779,16.94 56.029,26.994 87.289,26.994 15.449,-10e-4 28.396,-1.039 40.444,-3.475 12.029,-2.435 23.326,-6.293 35.495,-11.933 9.049,-4.196 17.719,-9.241 25.767,-14.865 8.29,-5.796 16.007,-12.276 22.872,-19.142 l 0.01,0.005 c 14.74,-14.746 27.476,-33.392 36.323,-54.016 8.224,-19.165 13.083,-40.045 13.083,-61.086 0,-17.167 -1.478,-32.268 -5.022,-46.663 -3.535,-14.366 -9.173,-28.148 -17.489,-42.687 l 0.01,-0.005 -5.844,-9.431 c -2.675,-3.823 -6.762,-9.195 -10.959,-14.341 -3.543,-4.346 -7.185,-8.539 -10.105,-11.459 L 466.947,72.568 C 449.681,58.662 432.96,48.737 414.779,42.306 c -18.228,-6.447 -38.047,-9.415 -61.488,-9.415 -21.037,-0.002 -41.921,4.858 -61.096,13.08 -20.579,8.825 -39.221,21.554 -54.002,36.335 v -0.009 c -14.74,14.747 -27.479,33.398 -36.326,54.02 -8.22,19.162 -13.082,40.045 -13.082,61.083 z m -4.632,42.066 c -2.576,-12.73 -3.672,-26.182 -3.672,-42.063 0,-22.175 5.12,-44.162 13.77,-64.33 9.273,-21.621 22.623,-41.167 38.077,-56.624 v -0.018 c 15.476,-15.478 35.018,-28.811 56.628,-38.078 20.182,-8.655 42.174,-13.767 64.339,-13.767 24.368,-0.002 45.067,3.125 64.247,9.905 19.162,6.774 36.704,17.19 54.756,31.755 l 0.165,0.128 11.107,9.89 0.179,0.161 c 2.981,2.98 6.838,7.432 10.653,12.114 4.315,5.285 8.579,10.903 11.4,14.949 l 0.131,0.191 5.962,9.618 0.079,0.117 c 8.694,15.198 14.6,29.669 18.333,44.832 3.729,15.138 5.283,30.875 5.283,48.637 10e-4,22.17 -5.119,44.162 -13.77,64.33 -9.27,21.618 -22.623,41.166 -38.078,56.623 l 0.001,0.015 c -7.099,7.101 -15.203,13.889 -24.01,20.045 -8.489,5.93 -17.592,11.237 -27.031,15.611 -12.716,5.891 -24.601,9.942 -37.344,12.521 -12.728,2.575 -26.19,3.672 -42.065,3.672 -32.887,-0.002 -64.711,-10.572 -91.827,-28.393 -27.909,-18.347 -50.837,-44.394 -64.797,-74.494 -5.891,-12.714 -9.94,-24.601 -12.518,-37.347 z"
   id="path9911" /><path
   style="clip-rule:evenodd;fill:#ffffff;fill-rule:evenodd"
   d="m 296.877,181.004 c 10.494,-8.463 47.4,-38.76 55.055,-43.89 V 78.859 L 311.095,62.8 c -23.011,-9.21 -17.157,-10.494 -38.634,2.296 -5.996,3.569 -10.979,7.832 -16.521,11.928 -6.961,5.143 -19.29,17.789 -24.878,25.247 -5.654,7.54 -7.701,8.06 -6.389,13.012 l 9.539,39.977 c 1.76,7.504 0.301,7.3 5.331,8.894 l 47.277,15.715 c 6.016,2.01 7.163,3.464 10.055,1.135 z"
   id="path9913" /><path
   style="clip-rule:evenodd;fill:#ffffff;fill-rule:evenodd"
   d="m 364.128,137.113 51.323,40.8 c 2.721,2.229 4.558,4.444 6.705,4.278 l 43.153,-14.341 c 8.017,-2.674 14.336,-3.318 15.518,-7.508 l 8.756,-37.31 1.07,-5.027 c 0.45,-1.863 0.864,-2.513 1.156,-4.341 0.69,-4.284 -13.353,-18.967 -16.797,-23.087 -3.303,-3.957 -6.37,-5.811 -8.786,-8.144 L 453.644,71.979 c -4.175,-3.05 -25.02,-16.824 -29.233,-16.824 -1.54,-10e-4 -26.435,10.301 -30.193,11.805 l -22.736,9.095 c -2.301,0.919 -5.077,2.275 -7.357,2.807 v 58.251 z"
   id="path9915" /><path
   style="clip-rule:evenodd;fill:#ffffff;fill-rule:evenodd"
   d="m 484.02,175.046 -53.94,17.863 c -6.226,1.965 -4.794,1.527 -6.348,7.88 l -5.688,22.756 c -0.791,3.157 -10.156,37.716 -9.308,39.693 0.151,0.344 2.516,3.245 2.962,3.778 l 12.23,16.218 c 1.83,2.438 11.311,13.872 11.999,16.451 5.808,-0.485 12.068,-1.976 18.175,-2.823 5.535,-0.77 11.552,-1.781 17.532,-2.79 l 18.13,-2.87 c 4.411,-0.678 3.619,-0.511 5.813,-4.344 8.696,-15.182 17.286,-33.219 20.571,-51.231 4.111,-22.532 3.844,-16.374 -6.101,-29.031 z"
   id="path9917" /><path
   style="clip-rule:evenodd;fill:#ffffff;fill-rule:evenodd"
   d="m 425.767,307.135 -26.082,-34.879 c -0.985,-1.152 -0.471,-1.699 -2.368,-1.699 l -78.576,-0.001 c -1.896,0 -1.383,0.551 -2.368,1.702 l -19.112,25.586 c -2.363,3.147 -4.92,6.231 -6.971,9.293 l 33.718,52.304 c 2.923,2.944 22.265,3.751 27.267,3.895 3.412,0.095 3.528,0.802 6.733,0.725 l 28.382,-2.825 c 6.105,-1.03 9.442,-1.032 11.369,-4.207 z"
   id="path9919" /><path
   style="clip-rule:evenodd;fill:#ffffff;fill-rule:evenodd"
   d="m 304.712,266.684 c 3.658,-4.805 3.397,-2.937 1.704,-9.537 L 292.192,200.24 c -1.846,-7.654 0.233,-5.18 -17.393,-11.054 l -21.339,-7.112 -21.419,-7.029 c -4.024,6.008 -34.548,41.221 -34.548,42.001 0.001,15.383 6.69,35.95 12.474,49.842 1.262,3.029 2.552,5.275 4.01,8.183 l 8.582,15.805 c 4.931,0 10.036,1.419 14.862,2.071 l 28.685,4.504 c 4.584,0.754 9.655,1.87 14.024,2.233 z"
   id="path9921" /><path
   style="clip-rule:evenodd;fill:#e6e6e6;fill-rule:evenodd"
   d="m 237.421,292.948 28.685,4.504 c 4.584,0.754 9.655,1.87 14.024,2.233 l 24.582,-33.001 c 3.658,-4.805 3.397,-2.937 1.704,-9.537 L 292.192,200.24 c -1.846,-7.654 0.233,-5.18 -17.393,-11.054 l -21.339,-7.112 -21.419,-7.029 c -4.024,6.008 -34.548,41.221 -34.548,42.001 0.001,15.383 6.69,35.95 12.474,49.842 1.262,3.029 2.552,5.275 4.01,8.183 l 8.582,15.805 c 4.93,0.001 10.036,1.42 14.862,2.072 z m 34.049,-14.481 15.014,-20.155 -12.188,-48.76 c -1.941,-0.579 -3.884,-1.147 -5.7,-1.752 l -21.296,-7.097 -8.255,-2.709 c -3.039,3.609 -6.146,7.149 -8.887,10.405 -4.039,4.799 -8.536,9.816 -12.638,14.824 1.441,11.856 6.436,26.224 10.559,36.123 0.938,2.25 2.175,4.442 3.282,6.625 l 3.651,6.724 c 1.626,0.287 3.285,0.573 5.035,0.81 l 0.209,0.028 28.894,4.537 c 0.764,0.12 1.54,0.255 2.32,0.397 z"
   id="path9923" /><path
   style="clip-rule:evenodd;fill:#e6e6e6;fill-rule:evenodd"
   d="m 239.544,164.156 47.277,15.715 c 6.017,2.009 7.164,3.462 10.055,1.134 10.494,-8.463 47.4,-38.76 55.055,-43.89 V 78.86 L 311.094,62.801 c -23.011,-9.21 -17.157,-10.493 -38.634,2.296 -5.996,3.569 -10.979,7.832 -16.521,11.928 -6.961,5.143 -19.29,17.789 -24.878,25.247 -5.654,7.54 -7.701,8.06 -6.389,13.012 l 9.539,39.977 c 1.761,7.505 0.302,7.301 5.331,8.895 z m 50.74,-7.215 c 6.261,-5.085 12.51,-10.189 18.784,-15.258 6.341,-5.124 13.173,-10.905 20.013,-16.191 l 10e-4,-31.064 -26.348,-10.361 c -3.142,-1.236 -6.885,-3.027 -10.348,-4.423 -2.819,1.636 -5.859,3.674 -8.232,5.088 -5.083,3.027 -9.859,7.145 -14.631,10.672 -6.007,4.439 -15.669,14.564 -20.175,20.576 -0.254,0.339 -0.513,0.675 -0.775,1.009 l 6.761,28.337 z"
   id="path9925" /><path
   style="clip-rule:evenodd;fill:#e6e6e6;fill-rule:evenodd"
   d="m 364.128,137.113 51.323,40.8 c 2.721,2.229 4.558,4.444 6.705,4.278 L 465.31,167.85 c 8.017,-2.674 14.336,-3.318 15.518,-7.508 l 8.756,-37.31 1.071,-5.027 c 0.45,-1.863 0.864,-2.513 1.156,-4.341 0.69,-4.284 -13.353,-18.967 -16.797,-23.087 -3.303,-3.957 -6.37,-5.811 -8.786,-8.144 L 453.645,71.979 c -4.174,-3.05 -25.019,-16.824 -29.232,-16.824 -1.54,-0.002 -26.435,10.301 -30.193,11.805 l -22.736,9.095 c -2.301,0.919 -5.077,2.275 -7.356,2.807 z m 19.63,-9.473 41.359,32.88 34,-11.299 c 1.354,-0.45 2.906,-0.865 4.458,-1.292 l 6.849,-29.184 0.61,-2.868 c -3.314,-4.312 -8.282,-9.356 -11.088,-12.714 -1.767,-2.115 -4.443,-3.978 -6.618,-5.924 l -11.737,-9.752 c -4.066,-2.934 -12.046,-8.269 -17.854,-11.429 -7.398,2.754 -15.146,6.295 -22.228,9.128 l -17.752,7.101 z"
   id="path9927" /><path
   style="clip-rule:evenodd;fill:#e6e6e6;fill-rule:evenodd"
   d="m 430.08,192.909 c -6.226,1.965 -4.794,1.527 -6.348,7.88 l -5.688,22.756 c -0.791,3.157 -10.156,37.716 -9.308,39.693 0.151,0.344 2.516,3.245 2.962,3.778 l 12.23,16.217 c 1.83,2.438 11.311,13.872 11.999,16.451 5.808,-0.484 12.068,-1.976 18.175,-2.823 5.535,-0.77 11.552,-1.781 17.532,-2.789 l 18.13,-2.871 c 4.411,-0.678 3.619,-0.51 5.813,-4.344 8.696,-15.182 17.285,-33.219 20.571,-51.231 4.111,-22.532 3.844,-16.374 -6.101,-29.031 l -26.027,-31.55 z m 11.643,16.812 -4.645,18.582 c -1.642,6.57 -3.458,13.113 -5.117,19.686 -0.757,3 -1.738,6.528 -2.534,9.951 l 10.166,13.481 c 1.618,2.146 3.59,4.535 5.584,7.051 2.088,-0.383 4.171,-0.757 6.227,-1.043 5.67,-0.787 11.323,-1.75 16.968,-2.702 l 0.097,-0.017 12.543,-1.986 c 6.89,-12.557 13.305,-26.744 15.836,-40.617 0.458,-2.51 1.216,-5.784 1.715,-8.766 -1.272,-1.443 -2.566,-2.888 -3.78,-4.416 l -17.348,-21.03 z"
   id="path9929" /><path
   style="clip-rule:evenodd;fill:#e6e6e6;fill-rule:evenodd"
   d="m 397.317,270.557 -78.576,-0.001 c -1.896,0 -1.383,0.551 -2.368,1.702 l -19.112,25.586 c -2.363,3.147 -4.92,6.231 -6.971,9.293 l 33.718,52.304 c 2.923,2.944 22.265,3.751 27.267,3.895 3.412,0.095 3.528,0.803 6.733,0.725 l 28.382,-2.825 c 6.105,-1.03 9.442,-1.032 11.369,-4.207 l 28.008,-49.894 -26.083,-34.879 c -0.984,-1.152 -0.47,-1.699 -2.367,-1.699 z m -8.73,19.619 -61.108,-10e-4 -13.3,17.806 22.424,34.784 c 4.977,0.651 11.591,0.855 15.229,0.958 2.11,0.059 3.928,0.289 5.904,0.647 l 26.087,-2.596 18.588,-33.113 z"
   id="path9931" /><path
   style="clip-rule:evenodd;fill:#ffffff;fill-rule:evenodd"
   d="m 132.301,658.08 c 133.551,-38.734 317.904,-38.734 451.455,0 29.509,-74.137 47.759,-155.369 61.32,-234.875 H 359.593 356.463 70.981 c 13.561,79.506 31.812,160.738 61.32,234.875 z"
   id="path9933" /><path
   d="m 152.305,612.736 c -1.417,1.706 -2.969,3.379 -4.658,5.02 -3.792,3.688 -8.148,7.16 -13.085,10.499 -4.942,3.343 -10.18,6.341 -15.75,8.999 -5.172,2.469 -11.001,4.755 -17.525,6.867 -7.014,2.271 -13.65,3.862 -19.939,4.714 -7.078,0.96 -13.816,0.975 -20.255,-0.028 -7.499,-1.167 -14.047,-3.575 -19.658,-7.266 -6.707,-4.414 -11.657,-10.29 -14.857,-17.679 -2.176,-5.027 -3.713,-10.871 -4.626,-17.52 -0.808,-5.888 -1.207,-12.248 -1.207,-19.072 v -10.601 -19.386 l 9.259,-2.265 c -1.816,-2.771 -3.479,-5.912 -4.994,-9.414 -1.968,-4.551 -3.38,-9.548 -4.246,-14.976 -0.811,-5.078 -1.211,-10.249 -1.211,-15.506 0,-7.458 0.51,-14.239 1.549,-20.335 1.221,-7.16 3.297,-13.458 6.256,-18.882 3.043,-5.579 6.885,-10.417 11.534,-14.505 h 0.097 c 4.401,-3.867 9.52,-7.117 15.366,-9.739 5.292,-2.373 11.089,-4.112 17.371,-5.244 6.065,-1.093 12.145,-1.627 18.239,-1.627 6.395,0 12.689,0.52 18.868,1.521 6.628,1.074 12.576,2.638 17.866,4.651 5.702,2.171 10.74,4.793 15.127,7.911 1.689,1.2 3.262,2.467 4.721,3.802 2.568,-2.35 5.341,-4.455 8.316,-6.318 4.31,-2.697 9.119,-4.946 14.419,-6.75 4.86,-1.655 10.048,-2.875 15.567,-3.669 5.344,-0.769 10.788,-1.149 16.343,-1.149 4.963,0 10.114,0.36 15.42,1.061 5.305,0.7 10.252,1.733 14.83,3.078 4.948,1.452 9.62,3.34 14.007,5.681 4.276,2.283 8.12,4.925 11.513,7.939 3.267,-2.899 7.052,-5.511 11.366,-7.819 4.331,-2.317 8.951,-4.224 13.867,-5.699 4.604,-1.382 9.693,-2.434 15.26,-3.16 5.536,-0.722 10.899,-1.08 16.092,-1.08 7.083,0 14.004,0.533 20.771,1.593 7.22,1.132 13.575,2.788 19.076,4.962 5.907,2.335 11.159,5.221 15.763,8.673 0.701,0.525 1.381,1.061 2.041,1.605 3.307,-2.798 6.869,-5.199 10.696,-7.19 3.996,-2.078 8.596,-3.894 13.821,-5.437 4.645,-1.372 9.733,-2.416 15.262,-3.13 5.544,-0.717 10.875,-1.076 15.993,-1.076 7.266,0 14.251,0.54 20.967,1.632 7.085,1.151 13.505,2.922 19.268,5.319 l 0.516,0.217 v -4.762 l 24.806,0.071 c 11.699,0.033 23.4,0.072 35.107,0.114 8.573,0.03 16.978,0.063 25.216,0.097 v -0.015 l 20.821,0.104 13.922,0.061 v 0.012 l 5.035,0.028 c 4.963,0.028 9.937,0.058 14.923,0.089 10.941,0.068 19.737,0.287 26.35,0.677 8.138,0.479 14.508,1.212 19.124,2.222 6.623,1.448 12.769,4.116 18.41,7.993 5.316,3.654 9.958,8.324 13.895,13.997 4.038,5.819 6.98,12.887 8.807,21.167 1.571,7.114 2.363,14.887 2.363,23.284 0,7.706 -0.57,14.446 -1.683,20.193 -0.988,5.1 -2.498,9.619 -4.517,13.55 0.192,0.364 0.38,0.73 0.564,1.097 1.814,3.614 3.117,7.149 3.891,10.576 0.667,2.956 1.133,7.239 1.379,12.818 0.241,5.461 0.366,11.093 0.366,16.815 v 21.404 21.37 35.826 l -33.526,-12.667 c -6.908,-2.61 -13.349,-5.001 -19.283,-7.154 -8.058,-2.924 -14.492,-5.222 -19.185,-6.849 l -2.799,-0.97 -8.967,-2.693 c -14.83,-4.453 -28.787,-8.452 -41.188,-11.64 l -4.273,-1.099 -6.837,-1.48 c -13.17,-2.851 -25.122,-5.268 -35.843,-7.247 -10.615,-1.96 -22.535,-3.949 -35.753,-5.966 l -21.123,-3.222 v -5.6 c -0.409,0.153 -0.822,0.306 -1.24,0.456 -6.05,2.176 -12.531,3.58 -19.472,4.263 -6.51,0.64 -13.329,0.696 -20.494,0.212 -7.282,-0.492 -13.927,-1.314 -19.935,-2.499 -6.49,-1.281 -12.583,-3.072 -18.306,-5.42 -6.201,-2.545 -11.538,-5.567 -15.976,-9.114 v -0.097 c -0.661,-0.528 -1.303,-1.067 -1.927,-1.615 l -0.318,0.252 c -4.148,3.255 -9.24,6.218 -15.249,8.899 -5.952,2.657 -12.21,4.626 -18.797,5.945 -5.974,1.195 -12.74,1.93 -20.299,2.23 -7.119,0.282 -13.791,0.167 -20.041,-0.402 -6.982,-0.636 -13.242,-1.793 -18.78,-3.533 -6.449,-2.028 -12.143,-4.795 -17.054,-8.336 -0.466,-0.336 -0.922,-0.677 -1.37,-1.024 -3.123,3.21 -6.503,6.052 -10.139,8.535 -3.853,2.631 -8.218,5.035 -13.091,7.22 -4.684,2.1 -9.532,3.841 -14.561,5.264 -4.821,1.363 -9.956,2.49 -15.411,3.413 -5.145,0.87 -10.214,1.446 -15.241,1.694 -5.342,0.264 -10.332,0.142 -14.975,-0.403 -5.5,-0.646 -10.718,-1.954 -15.637,-3.917 -2.506,-0.994 -4.874,-2.144 -7.105,-3.446 z m 461.592,-94.612 0.114,0.01 0.558,-0.645 h 4.048 l 0.295,-5.019 -4.343,5.019 h -0.995 c 0.128,0.236 0.237,0.449 0.323,0.635 z m 0.114,0.01 4.544,0.399 0.061,-1.043 z m 5.151,-9.917 c -0.203,0.342 -0.445,0.718 -0.721,1.12 h 0.655 z m -0.721,1.12 c -1.383,2.02 -3.579,4.677 -5.623,6.85 0.289,0.476 0.547,0.919 0.755,1.303 z m 0.655,0 h -0.655 z m -0.185,3.134 0.185,-3.134 z"
   id="path9935" /><path
   style="fill:#ffffff"
   d="m 136.953,512.627 c -13.048,1.081 -26.097,2.245 -39.146,3.478 0,-3.528 0,-7.073 0,-10.618 0,-4.963 -0.506,-8.117 -1.506,-9.419 -1.007,-1.313 -2.635,-1.894 -4.956,-1.772 -2.51,0.132 -4.461,1.144 -5.771,3.14 -1.261,1.92 -1.945,4.811 -1.945,8.643 0,4.946 0.764,8.569 2.258,10.921 1.454,2.288 5.364,4.939 11.92,7.596 18.601,7.539 30.422,13.694 35.319,18.956 4.826,5.186 7.277,14.179 7.277,27.11 0,9.385 -1.37,16.616 -4.078,21.758 -2.687,5.103 -7.909,10.077 -15.62,15.294 -7.786,5.267 -16.695,9.533 -26.976,12.863 -11.299,3.658 -20.884,5.056 -28.858,3.815 -7.96,-1.239 -13.156,-4.623 -15.621,-10.314 -2.491,-5.753 -3.701,-14.719 -3.701,-26.805 0,-3.528 0,-7.056 0,-10.601 13.048,-3.191 26.097,-6.263 39.146,-9.183 0,5.992 0,11.968 0,17.96 0,5.537 0.568,8.944 1.631,10.23 1.07,1.296 3.01,1.544 5.835,0.776 2.82,-0.767 4.902,-2.274 6.273,-4.625 1.326,-2.273 2.007,-5.351 2.007,-9.132 0,-8.406 -1.259,-13.633 -3.89,-15.648 -2.702,-2.069 -9.268,-5.087 -19.698,-9.436 -10.46,-4.361 -17.333,-7.992 -20.765,-10.432 -3.405,-2.421 -6.19,-6.238 -8.406,-11.36 -2.238,-5.173 -3.325,-12.103 -3.325,-20.695 0,-12.407 1.53,-21.577 4.705,-27.396 3.161,-5.793 8.264,-10.301 15.37,-13.487 7.009,-3.143 15.558,-4.642 25.532,-4.642 10.916,0 20.189,1.583 27.917,4.524 7.705,2.933 12.804,6.513 15.307,10.921 2.452,4.318 3.764,11.765 3.764,22.316 0,1.77 0,3.525 0,5.264 z"
   id="path9937" /><path
   style="fill:#ffffff"
   d="m 249.811,538.387 c 0,11.411 -0.376,19.48 -1.13,24.29 -0.752,4.811 -3.145,9.361 -7.152,13.69 -4.085,4.414 -9.546,8.13 -16.373,11.192 -6.911,3.099 -14.888,5.3 -23.964,6.836 -8.678,1.469 -16.434,1.908 -23.337,1.097 -6.899,-0.81 -12.463,-3.03 -16.624,-6.634 -4.181,-3.62 -6.749,-7.996 -7.528,-13.133 -0.789,-5.193 -1.192,-14.432 -1.192,-27.717 0,-7.376 0,-14.753 0,-22.13 0,-12.998 0.407,-22.176 1.192,-27.616 0.783,-5.431 3.124,-10.443 7.152,-14.956 4.002,-4.484 9.469,-7.897 16.374,-10.246 6.833,-2.325 14.805,-3.461 23.964,-3.461 8.657,0 16.432,1.063 23.274,3.072 6.896,2.025 12.491,4.974 16.687,8.947 4.146,3.926 6.651,8.237 7.465,12.879 0.817,4.658 1.192,12.829 1.192,24.476 0,6.483 0,12.948 0,19.414 z m -42.157,-35.752 c 0,-5.503 -0.436,-9.017 -1.255,-10.55 -0.812,-1.521 -2.51,-2.25 -5.019,-2.178 -2.133,0.062 -3.782,0.727 -4.956,2.042 -1.146,1.283 -1.694,5.064 -1.694,11.276 0,9.402 0,18.821 0,28.223 0,9.402 0,18.821 0,28.223 0,7.005 0.383,11.273 1.129,12.795 0.759,1.549 2.506,2.051 5.207,1.671 2.819,-0.396 4.621,-1.545 5.395,-3.478 0.794,-1.983 1.192,-6.448 1.192,-13.42 0,-9.116 0,-18.214 0,-27.312 0.001,-9.096 0.001,-18.194 0.001,-27.292 z"
   id="path9939" /><path
   style="fill:#ffffff"
   d="m 363.986,518.924 c -14.052,0 -28.105,0.068 -42.157,0.237 0,-6.263 0,-12.559 0,-18.839 0,-5.503 -0.465,-8.895 -1.38,-10.262 -0.904,-1.35 -2.824,-2.033 -5.897,-2.009 -3.387,0.026 -5.615,0.861 -6.524,2.532 -0.909,1.671 -1.38,5.266 -1.38,10.803 0,8.44 0,16.897 0,25.337 0,8.44 0,16.88 0,25.303 0,5.317 0.464,8.766 1.38,10.365 0.903,1.575 3.012,2.279 6.211,2.16 3.137,-0.117 5.16,-0.97 6.148,-2.633 0.956,-1.611 1.443,-5.419 1.443,-11.394 0,-4.541 0,-9.098 0,-13.656 14.052,-0.236 28.104,-0.321 42.157,-0.338 0,1.418 0,2.819 0,4.22 0,11.192 -1.171,19.12 -3.514,23.767 -2.362,4.687 -7.666,8.801 -15.746,12.407 -8.105,3.617 -18.07,5.569 -29.987,6.043 -12.298,0.488 -22.456,-0.344 -30.488,-2.869 -7.965,-2.505 -13.338,-6.311 -15.934,-11.563 -2.61,-5.281 -3.89,-13.403 -3.89,-24.375 0,-5.452 0,-10.905 0,-16.357 0,-5.435 0,-10.888 0,-16.357 0,-8.068 0.409,-14.118 1.192,-18.163 0.785,-4.056 3.206,-7.944 7.214,-11.715 3.958,-3.724 9.406,-6.684 16.437,-8.794 7.084,-2.126 15.182,-3.174 24.278,-3.174 12.421,0 22.644,1.612 30.739,4.812 8.089,3.197 13.388,7.161 15.935,11.951 2.534,4.764 3.764,12.205 3.764,22.282 -0.001,3.443 -0.001,6.852 -0.001,10.279 z"
   id="path9941" /><path
   style="fill:#ffffff"
   d="m 477.408,521.928 c -14.052,-0.692 -28.105,-1.283 -42.157,-1.806 0,-6.398 0,-12.812 0,-19.227 0,-5.604 -0.454,-9.055 -1.38,-10.482 -0.892,-1.375 -2.823,-2.095 -5.897,-2.127 -3.387,-0.035 -5.618,0.757 -6.524,2.414 -0.913,1.669 -1.38,5.283 -1.38,10.837 0,8.49 0,16.981 0,25.455 0,8.474 0,16.948 0,25.438 0,5.334 0.474,8.826 1.38,10.499 0.913,1.686 3.011,2.607 6.211,2.785 3.136,0.175 5.163,-0.546 6.148,-2.144 0.959,-1.558 1.443,-5.419 1.443,-11.495 0,-4.642 0,-9.284 0,-13.926 14.052,0.709 28.104,1.536 42.157,2.465 0,1.485 0,2.987 0,4.456 0,11.883 -1.163,20.186 -3.513,24.915 -2.355,4.74 -7.667,8.47 -15.746,11.377 -8.106,2.917 -18.064,3.827 -29.986,3.021 -12.292,-0.831 -22.437,-2.772 -30.489,-6.077 -7.945,-3.261 -13.325,-7.465 -15.934,-12.828 -2.598,-5.339 -3.89,-13.302 -3.89,-23.886 0,-5.267 0,-10.533 0,-15.782 0,-5.267 0,-10.533 0,-15.8 0,-7.799 0.408,-13.629 1.192,-17.522 0.783,-3.888 3.218,-7.61 7.214,-11.225 3.971,-3.592 9.41,-6.448 16.436,-8.524 7.088,-2.094 15.182,-3.14 24.278,-3.14 12.421,0 22.65,1.647 30.739,5.014 8.095,3.369 13.388,7.601 15.935,12.711 2.534,5.085 3.764,12.997 3.764,23.7 -10e-4,3.646 -10e-4,7.275 -10e-4,10.904 z"
   id="path9943" /><path
   style="fill:#ffffff"
   d="m 492.527,471.98 c 23.399,0.067 46.799,0.152 70.261,0.253 0,8.592 0,17.184 0,25.776 -9.347,-0.455 -18.695,-0.878 -28.042,-1.282 0,7.849 0,15.698 0,23.531 8.72,0.725 17.44,1.435 26.223,2.228 0,8.136 0,16.272 0,24.392 -8.782,-1.165 -17.503,-2.195 -26.223,-3.241 0,9.031 0,18.079 0,27.126 10.288,1.688 20.577,3.376 30.928,5.3 0,8.626 0,17.268 0,25.911 -24.403,-5.283 -48.807,-9.791 -73.147,-13.504 0,-19.396 0,-38.824 0,-58.237 0,-19.412 0,-38.841 0,-58.253 z"
   id="path9945" /><path
   style="fill:#ffffff"
   d="m 577.657,472.301 c 9.912,0.051 19.824,0.107 29.798,0.169 19.886,0.123 33.316,0.878 40.338,2.414 7.03,1.537 12.797,5.487 17.189,11.816 4.453,6.415 6.713,16.61 6.713,30.401 0,12.593 -1.638,20.808 -4.768,24.612 -3.08,3.742 -9.284,5.148 -18.507,4.338 8.344,3.494 14.01,7.261 16.875,11.276 2.844,3.986 4.642,7.562 5.332,10.617 0.69,3.056 1.067,11.124 1.067,24.206 0,7.141 0,14.281 0,21.404 0,7.123 0,14.247 0,21.37 -13.049,-4.929 -26.097,-9.673 -39.146,-14.196 0,-8.204 0,-16.407 0,-24.628 0,-8.204 0,-16.424 0,-24.645 0,-7.917 -0.709,-12.969 -2.07,-15.125 -1.336,-2.115 -4.893,-3.68 -10.665,-4.709 0,10.854 0,21.691 0,32.527 0,10.854 0,21.691 0,32.528 -14.052,-4.22 -28.104,-8.221 -42.157,-11.833 0,-22.079 0,-44.192 0,-66.271 0.001,-22.079 0.001,-44.175 0.001,-66.271 z m 42.157,24.83 c 0,10.702 0,21.387 0,32.072 4.705,0.607 8.034,0.445 9.912,-0.49 1.885,-0.938 2.823,-4.693 2.823,-11.225 0,-2.718 0,-5.436 0,-8.153 0,-4.693 -0.938,-7.854 -2.761,-9.436 -1.815,-1.574 -5.144,-2.481 -9.974,-2.768 z"
   id="path9947" /><path
   style="clip-rule:evenodd;fill:#999999;fill-rule:evenodd"
   d="M 119.564,546.188 H 76.367 c 1.577,0.68 3.091,1.312 4.465,1.885 6.367,2.655 16.574,6.61 22.005,10.771 7.04,5.392 7.94,15.67 7.94,23.852 0,4.962 -0.888,10.008 -3.415,14.34 -2.793,4.788 -7.158,7.941 -12.489,9.391 -6.008,1.634 -12.336,0.891 -16.514,-4.167 -3.671,-4.442 -3.999,-11.292 -3.999,-16.812 0,-1.67 0,-3.34 0,-5.01 -6.165,1.424 -12.323,2.879 -18.475,4.36 0,0.824 0,1.649 0,2.473 0,6.352 0.289,16.783 2.85,22.698 1.26,2.908 4.901,3.768 7.727,4.208 7.617,1.186 16.876,-1.101 24.083,-3.435 8.603,-2.785 16.865,-6.515 24.369,-11.59 4.042,-2.734 9.936,-7.123 12.266,-11.548 2.44,-4.633 2.888,-11.823 2.888,-16.943 0,-5.401 -0.545,-15.81 -4.507,-20.068 -1.435,-1.542 -3.832,-3.122 -5.997,-4.405 z m 43.282,0 v 1.82 c 0,8.139 -0.145,18.125 1.075,26.166 0.433,2.849 1.916,5.001 4.075,6.87 3.013,2.609 7.189,3.728 11.064,4.182 6.104,0.717 12.563,0.205 18.671,-0.741 -4.695,-0.479 -8.867,-2.805 -11.152,-7.47 -2.213,-4.515 -2.184,-12.356 -2.184,-17.343 v -13.484 z m 46.535,35.922 c 3.961,-1.034 7.857,-2.328 11.546,-3.982 4.733,-2.123 9.466,-4.946 13.017,-8.782 2.14,-2.312 4.03,-5.094 4.526,-8.267 0.716,-4.574 0.925,-9.824 0.985,-14.891 h -21.466 v 11.053 c 0,5.075 -0.038,12.528 -1.933,17.26 -1.367,3.418 -3.73,5.94 -6.675,7.609 z m 144.128,-35.219 c -7.115,0.028 -14.23,0.079 -21.345,0.164 0,1.156 0,2.312 0,3.468 0,5.196 -0.182,12.107 -2.892,16.671 -1.111,1.871 -2.523,3.35 -4.144,4.491 5.334,-0.776 10.624,-2.074 15.385,-4.2 3.054,-1.363 9.125,-4.439 10.729,-7.621 1.45,-2.874 2.037,-8.278 2.267,-12.973 z M 304.3,572.715 c -2.098,-1.171 -3.908,-2.862 -5.24,-5.186 -2.504,-4.371 -2.748,-10.565 -2.748,-15.503 v -5.837 h -21.534 c 0.088,5.543 0.596,13.299 2.804,17.767 1.625,3.287 6.526,5.264 9.769,6.283 5.18,1.627 11.123,2.292 16.949,2.476 z M 466.986,550.3 c -7.132,-0.447 -14.265,-0.866 -21.399,-1.257 0,1.011 0,2.022 0,3.033 0,5.254 -0.159,12.338 -2.979,16.916 -1.518,2.464 -3.558,4.203 -5.9,5.34 6.124,-0.037 12.428,-0.711 17.941,-2.695 2.736,-0.984 8.579,-3.411 9.99,-6.251 1.608,-3.233 2.163,-9.821 2.347,-15.086 z m -50.283,22.45 c -1.739,-1.23 -3.228,-2.842 -4.342,-4.899 -2.372,-4.38 -2.627,-10.526 -2.627,-15.42 v -6.243 h -21.456 c 0.216,5.045 0.885,10.926 2.755,14.77 1.799,3.699 6.974,6.315 10.564,7.789 4.665,1.913 9.866,3.166 15.106,4.003 z m 107.708,-26.562 h -21.549 v 33.437 c 17.56,2.814 35.057,6.02 52.476,9.604 0,-1.509 0,-3.019 0,-4.529 -7.412,-1.301 -14.839,-2.52 -22.266,-3.739 l -8.661,-1.422 v -8.777 c 0,-8.191 0,-16.383 0,-24.574 z m 85.067,0 h -21.486 c 0,16.892 0,33.785 0,50.679 7.184,1.916 14.345,3.918 21.486,5.985 0,-6.235 0,-12.469 0,-18.703 0,-10.843 0,-21.685 0,-32.528 z m 31.301,7.867 c 1.949,5.327 2.104,12.254 2.104,17.399 0,8.215 0,16.43 0,24.645 0,5.764 0,11.528 0,17.292 6.173,2.176 12.331,4.395 18.475,6.651 0,-2.163 0,-4.326 0,-6.49 0,-7.135 0,-14.27 0,-21.404 0,-5.125 -0.035,-10.281 -0.264,-15.401 -0.083,-1.86 -0.141,-4.726 -0.549,-6.529 -0.496,-2.198 -2.378,-5.088 -3.664,-6.891 -2.248,-3.151 -9.013,-6.304 -12.455,-7.746 z"
   id="path9949" />
</svg>
