<?xml version="1.0" encoding="UTF-8" standalone="no"?>
<!-- Generator: Adobe Illustrator 27.5.0, SVG Export Plug-In . SVG Version: 6.00 Build 0)  -->

<svg
   version="1.1"
   id="Layer_1"
   x="0px"
   y="0px"
   viewBox="0 0 504.19901 398.75299"
   xml:space="preserve"
   sodipodi:docname="leon.svg"
   width="504.19901"
   height="398.75299"
   inkscape:version="1.2.2 (b0a84865, 2022-12-01)"
   xmlns:inkscape="http://www.inkscape.org/namespaces/inkscape"
   xmlns:sodipodi="http://sodipodi.sourceforge.net/DTD/sodipodi-0.dtd"
   xmlns="http://www.w3.org/2000/svg"
   xmlns:svg="http://www.w3.org/2000/svg"><defs
   id="defs3940" /><sodipodi:namedview
   id="namedview3938"
   pagecolor="#ffffff"
   bordercolor="#000000"
   borderopacity="0.25"
   inkscape:showpageshadow="2"
   inkscape:pageopacity="0.0"
   inkscape:pagecheckerboard="0"
   inkscape:deskcolor="#d1d1d1"
   showgrid="false"
   inkscape:zoom="0.4035"
   inkscape:cx="926.88971"
   inkscape:cy="576.20818"
   inkscape:window-width="1920"
   inkscape:window-height="1027"
   inkscape:window-x="1728"
   inkscape:window-y="62"
   inkscape:window-maximized="1"
   inkscape:current-layer="g3919" />









<g
   id="g3935"
   transform="translate(-1403.654,-244.983)">
	<path
   style="fill:#00204f"
   d="m 1607.012,591.791 c 22.548,6.074 38.583,13.937 48.59,19.91 10.142,-6.254 26.46,-14.358 49.445,-20.014 14.151,-3.482 31.554,-16.217 45.637,-32.463 h -189.281 c 15.165,17.351 33.047,29.183 45.609,32.567 z"
   id="path3825" />
	<g
   id="g3871">
		<g
   id="g3847">
			<path
   style="fill:#dba527"
   d="m 1585.881,463.361 c -1.183,-5.444 -2.701,-18.803 9.279,-23.743 0,0 6.309,20.477 -8.301,25.959 -13.892,7.108 -24.778,-11.348 -24.778,-11.348 11.72,-5.529 20.571,4.591 23.8,9.132 z"
   id="path3827" />
			<path
   style="fill:#dba527"
   d="m 1576.572,448.202 c -0.215,-5.356 0.571,-18.268 12.747,-20.954 0,0 2.568,20.456 -12.188,23.217 -14.349,4.421 -21.592,-14.881 -21.592,-14.881 12.027,-3.287 18.731,7.777 21.033,12.618 z"
   id="path3829" />
			<path
   style="fill:#dba527"
   d="m 1571.97,432.057 c 0.152,-5.087 1.752,-17.266 13.463,-19.002 0,0 1.077,19.545 -13.083,21.183 -13.884,3.237 -19.465,-15.525 -19.465,-15.525 11.609,-2.317 17.224,8.606 19.085,13.344 z"
   id="path3831" />
			<path
   style="fill:#dba527"
   d="m 1570.006,414.48 c 1.043,-4.226 4.571,-14.117 14.672,-13.462 0,0 -2.615,16.532 -14.747,15.353 -12.187,0.208 -13.478,-16.48 -13.478,-16.48 10.122,0.153 12.851,10.294 13.553,14.589 z"
   id="path3833" />
			<path
   style="fill:#dba527"
   d="m 1570.766,400.123 c 1.404,-3.634 5.656,-12.017 14.551,-10.292 0,0 -4.193,14.382 -14.832,11.963 -10.845,-1.194 -10.102,-16.157 -10.102,-16.157 8.97,1.28 10.245,10.593 10.383,14.486 z"
   id="path3835" />
			<path
   style="fill:#dba527"
   d="m 1573.496,387.562 c 1.583,-2.77 6.055,-9.037 13.046,-6.548 0,0 -5.161,11.131 -13.478,7.867 -8.635,-2.298 -6.197,-14.323 -6.197,-14.323 7.106,2.137 6.996,9.835 6.629,13.004 z"
   id="path3837" />
			<path
   style="fill:#dba527"
   d="m 1576.93,377.092 c 1.782,-2.414 6.646,-7.777 12.904,-4.686 0,0 -6.041,9.831 -13.453,5.87 -7.813,-3.093 -4.217,-14.058 -4.217,-14.058 6.403,2.776 5.455,9.954 4.766,12.874 z"
   id="path3839" />
			<path
   style="fill:#dba527"
   d="m 1581.512,367.802 c 1.911,-2.077 7.003,-6.6 12.542,-3.075 0,0 -6.646,8.583 -13.175,4.127 -6.994,-3.685 -2.521,-13.575 -2.521,-13.575 5.707,3.244 4.094,9.862 3.154,12.523 z"
   id="path3841" />
			<path
   style="fill:#dba527"
   d="m 1586.477,359.937 c 1.711,-1.389 6.155,-4.308 10.036,-0.96 0,0 -6.103,5.879 -10.644,1.7 -4.986,-3.636 -0.414,-10.77 -0.414,-10.77 4.042,3.151 2.049,8.081 1.022,10.03 z"
   id="path3843" />
			<path
   style="fill:#dba527"
   d="m 1589.553,355.769 c 0,0 7.871,1.334 13.137,-11.392 -10e-4,0 -10.29,-1.256 -13.137,11.392 z"
   id="path3845" />
		</g>
		<g
   id="g3869">
			<path
   style="fill:#dba527"
   d="m 1725.856,463.361 c 1.183,-5.444 2.701,-18.803 -9.279,-23.743 0,0 -6.31,20.477 8.3,25.959 13.892,7.108 24.779,-11.348 24.779,-11.348 -11.72,-5.529 -20.572,4.591 -23.8,9.132 z"
   id="path3849" />
			<path
   style="fill:#dba527"
   d="m 1735.165,448.202 c 0.214,-5.356 -0.572,-18.268 -12.748,-20.954 0,0 -2.568,20.456 12.189,23.217 14.348,4.421 21.591,-14.881 21.591,-14.881 -12.027,-3.287 -18.729,7.777 -21.032,12.618 z"
   id="path3851" />
			<path
   style="fill:#dba527"
   d="m 1739.767,432.057 c -0.152,-5.087 -1.752,-17.266 -13.463,-19.002 0,0 -1.077,19.545 13.084,21.183 13.883,3.237 19.465,-15.525 19.465,-15.525 -11.611,-2.317 -17.226,8.606 -19.086,13.344 z"
   id="path3853" />
			<path
   style="fill:#dba527"
   d="m 1741.73,414.48 c -1.043,-4.226 -4.571,-14.117 -14.672,-13.462 0,0 2.615,16.532 14.747,15.353 12.188,0.208 13.478,-16.48 13.478,-16.48 -10.122,0.153 -12.849,10.294 -13.553,14.589 z"
   id="path3855" />
			<path
   style="fill:#dba527"
   d="m 1740.971,400.123 c -1.403,-3.634 -5.655,-12.017 -14.551,-10.292 0,0 4.193,14.382 14.832,11.963 10.845,-1.194 10.102,-16.157 10.102,-16.157 -8.97,1.28 -10.246,10.593 -10.383,14.486 z"
   id="path3857" />
			<path
   style="fill:#dba527"
   d="m 1738.24,387.562 c -1.583,-2.77 -6.055,-9.037 -13.046,-6.548 0,0 5.161,11.131 13.479,7.867 8.634,-2.298 6.196,-14.323 6.196,-14.323 -7.105,2.137 -6.995,9.835 -6.629,13.004 z"
   id="path3859" />
			<path
   style="fill:#dba527"
   d="m 1734.807,377.092 c -1.782,-2.414 -6.646,-7.777 -12.903,-4.686 0,0 6.041,9.831 13.452,5.87 7.813,-3.093 4.217,-14.058 4.217,-14.058 -6.403,2.776 -5.456,9.954 -4.766,12.874 z"
   id="path3861" />
			<path
   style="fill:#dba527"
   d="m 1730.225,367.802 c -1.91,-2.077 -7.003,-6.6 -12.541,-3.075 0,0 6.646,8.583 13.175,4.127 6.993,-3.685 2.52,-13.575 2.52,-13.575 -5.707,3.244 -4.095,9.862 -3.154,12.523 z"
   id="path3863" />
			<path
   style="fill:#dba527"
   d="m 1725.26,359.937 c -1.711,-1.389 -6.155,-4.308 -10.035,-0.96 0,0 6.102,5.879 10.643,1.7 4.986,-3.636 0.414,-10.77 0.414,-10.77 -4.043,3.151 -2.05,8.081 -1.022,10.03 z"
   id="path3865" />
			<path
   style="fill:#dba527"
   d="m 1722.184,355.769 c 0,0 -7.871,1.334 -13.137,-11.392 0,0 10.29,-1.256 13.137,11.392 z"
   id="path3867" />
		</g>
	</g>
	<path
   style="fill:#00204f"
   d="m 1655.868,467.115 c 35.32,0 64.056,-28.735 64.056,-64.055 0,-35.32 -28.735,-64.055 -64.056,-64.055 -35.321,0 -64.056,28.735 -64.056,64.055 0,35.32 28.736,64.055 64.056,64.055 z m 59.916,-64.055 c 0,12.932 -4.132,24.909 -11.125,34.711 h -15.144 c -3.495,0 -6.784,-1.657 -8.864,-4.467 l -5.939,-8.022 c -2.122,-2.866 -2.728,-6.58 -1.625,-9.971 l 4.044,-12.447 c 1.043,-3.208 3.496,-5.763 6.659,-6.935 l 9.262,-3.43 c 3.459,-1.282 7.329,-0.748 10.313,1.42 l 12.416,9.02 c 0,0.04 0,0.08 0,0.121 z m -57.846,-39.166 c 0,-3.531 1.689,-6.848 4.546,-8.923 l 12.124,-8.809 c 11.902,3.931 22.166,11.487 29.469,21.369 l -4.433,13.642 c -1.043,3.208 -3.496,5.763 -6.659,6.935 l -9.879,3.659 c -3.459,1.281 -7.329,0.748 -10.313,-1.42 l -10.309,-7.489 c -2.856,-2.075 -4.546,-5.393 -4.546,-8.923 z m 4.507,59.282 c 3.496,0 6.784,1.657 8.864,4.467 l 5.89,7.954 c 2.121,2.866 2.727,6.58 1.625,9.971 l -4.732,14.564 c -5.75,1.84 -11.871,2.843 -18.224,2.843 -6.294,0 -12.361,-0.981 -18.065,-2.789 l -4.719,-14.522 c -1.092,-3.361 -0.507,-7.043 1.573,-9.9 l 5.859,-8.049 c 2.076,-2.852 5.391,-4.539 8.917,-4.539 z m -25.317,-77.014 12.124,8.809 c 2.855,2.075 4.546,5.393 4.546,8.923 v 10.04 c 0,3.531 -1.69,6.848 -4.546,8.923 l -10.466,7.604 c -2.962,2.152 -6.798,2.694 -10.24,1.447 l -9.345,-3.386 c -3.198,-1.159 -5.682,-3.728 -6.733,-6.962 l -4.636,-14.27 c 7.29,-9.765 17.489,-17.229 29.296,-21.128 z m -41.167,57.217 12.598,-9.153 c 2.962,-2.152 6.799,-2.694 10.24,-1.447 l 9.135,3.31 c 3.198,1.159 5.682,3.728 6.733,6.962 l 4.026,12.394 c 1.093,3.361 0.508,7.042 -1.572,9.899 l -5.664,7.781 c -2.076,2.852 -5.391,4.539 -8.917,4.539 h -15.538 c -6.89,-9.701 -10.974,-21.522 -11.041,-34.285 z"
   id="path3873" />
	<g
   id="g3889">
		<g
   id="g3881">
			<polygon
   style="fill:#dba527"
   points="1666.144,270.192 1668.595,284.483 1655.76,277.736 1642.926,284.483 1645.377,270.192 1634.994,260.071 1649.343,257.986 1655.76,244.983 1662.177,257.986 1676.526,260.071 "
   id="polygon3875" />
			<polygon
   style="fill:#dba527"
   points="1627.36,279.129 1628.884,288.009 1620.909,283.817 1612.934,288.009 1614.457,279.129 1608.005,272.84 1616.921,271.544 1620.909,263.465 1624.896,271.544 1633.813,272.84 "
   id="polygon3877" />
			<polygon
   style="fill:#dba527"
   points="1598.077,287.084 1599.19,293.575 1593.361,290.51 1587.532,293.575 1588.646,287.084 1583.93,282.487 1590.447,281.54 1593.361,275.634 1596.276,281.54 1602.793,282.487 "
   id="polygon3879" />
		</g>
		<g
   id="g3887">
			<polygon
   style="fill:#dba527"
   points="1684.376,279.129 1682.854,288.009 1690.828,283.817 1698.803,288.009 1697.28,279.129 1703.732,272.84 1694.815,271.544 1690.828,263.465 1686.84,271.544 1677.924,272.84 "
   id="polygon3883" />
			<polygon
   style="fill:#dba527"
   points="1713.659,287.084 1712.546,293.575 1718.375,290.51 1724.204,293.575 1723.091,287.084 1727.807,282.487 1721.29,281.54 1718.375,275.634 1715.461,281.54 1708.943,282.487 "
   id="polygon3885" />
		</g>
	</g>
	<rect
   x="1467.262"
   y="480.595"
   style="fill:#dba527"
   width="376.995"
   height="71.472"
   id="rect3891" />
	<g
   id="g3897">
		<path
   style="fill:#00204f"
   d="m 1767.718,558.477 c -16.727,22.576 -40.19,40.881 -59.607,45.659 -27.927,6.871 -44.994,17.482 -52.377,22.899 -7.381,-5.187 -24.328,-15.396 -52.056,-22.865 -17.06,-4.595 -41.175,-21.247 -59.361,-45.693 h -15.618 c 18.51,28.12 46.96,51.423 71.645,58.073 34.717,9.352 51.111,23.296 51.257,23.421 l 4.329,3.765 4.235,-3.865 c 0.161,-0.146 16.512,-14.798 51.01,-23.285 24.655,-6.067 53.521,-29.511 72.161,-58.109 z"
   id="path3893" />
		<path
   style="fill:#00204f"
   d="m 1525.518,432.715 c -5.254,10.567 -11.208,22.543 -15.034,36.518 -0.454,1.659 -0.843,3.308 -1.194,4.952 h 13.161 c 0,-0.007 0,-0.014 0,-0.02 h 65.854 l -37.444,-7.256 c -12.851,-2.49 -19.807,-16.539 -13.981,-28.261 0.038,-0.075 0.075,-0.151 0.112,-0.226 14.063,-28.286 27.372,-55.046 -11.928,-99.38 l 28.909,-36.622 c 63.32,34.669 140.378,34.669 203.698,0 l 28.906,36.618 c -39.294,44.198 -26.735,69.48 -12.26,98.62 0.168,0.337 0.336,0.675 0.503,1.013 5.818,11.723 -1.135,25.768 -13.983,28.258 l -37.376,7.242 h 65.741 c 10e-4,0.004 0,0.009 0,0.014 h 13.174 c -0.36,-1.652 -0.758,-3.311 -1.222,-4.978 -4.013,-14.414 -10.04,-26.547 -15.358,-37.251 -14.354,-28.896 -23.836,-47.984 13.861,-88.234 l 3.77,-4.025 -42.547,-53.898 -4.809,2.801 c -61.839,36.01 -138.667,36.012 -200.505,0 l -4.809,-2.801 -42.548,53.898 3.77,4.025 c 37.741,40.295 27.585,60.721 13.531,88.993 z"
   id="path3895" />
	</g>
	<polygon
   style="fill:#dba527"
   points="1848.612,523.398 1907.635,523.398 1877.11,485.738 1907.853,450.402 1807.672,449.841 1848.612,474.2 "
   id="polygon3899" />
	<polygon
   style="fill:#dba527"
   points="1462.895,522.791 1403.871,522.791 1434.395,485.131 1403.654,449.796 1503.834,449.235 1462.895,473.593 "
   id="polygon3901" />
	<g
   id="g3919">
		<path
   style="fill:#00204f"
   d="m 1476.546,495.601 h 31.922 v 8.978 h -18.953 v 7.297 h 16.188 v 8.436 h -16.188 v 17.072 h -12.969 z"
   id="path3903" />
		<path
   style="fill:#00204f"
   d="m 1516.716,516.521 c 0,-6.821 1.899,-12.131 5.7,-15.932 3.801,-3.8 9.092,-5.7 15.875,-5.7 6.954,0 12.313,1.867 16.074,5.601 3.763,3.733 5.644,8.963 5.644,15.689 0,4.883 -0.822,8.888 -2.466,12.014 -1.643,3.125 -4.018,5.557 -7.125,7.295 -3.106,1.739 -6.978,2.608 -11.613,2.608 -4.713,0 -8.612,-0.75 -11.7,-2.252 -3.087,-1.5 -5.591,-3.876 -7.51,-7.124 -1.92,-3.25 -2.879,-7.316 -2.879,-12.199 z m 12.911,0.056 c 0,4.219 0.783,7.25 2.352,9.092 1.567,1.843 3.7,2.765 6.398,2.765 2.774,0 4.921,-0.902 6.44,-2.707 1.521,-1.805 2.28,-5.045 2.28,-9.72 0,-3.933 -0.793,-6.807 -2.38,-8.622 -1.586,-1.813 -3.738,-2.721 -6.455,-2.721 -2.604,0 -4.693,0.922 -6.271,2.764 -1.576,1.844 -2.364,4.894 -2.364,9.149 z"
   id="path3905" />
		<path
   style="fill:#00204f"
   d="m 1568.257,516.521 c 0,-6.821 1.9,-12.131 5.7,-15.932 3.801,-3.8 9.093,-5.7 15.875,-5.7 6.954,0 12.313,1.867 16.075,5.601 3.762,3.733 5.643,8.963 5.643,15.689 0,4.883 -0.821,8.888 -2.465,12.014 -1.644,3.126 -4.019,5.557 -7.125,7.295 -3.106,1.739 -6.979,2.608 -11.614,2.608 -4.713,0 -8.612,-0.75 -11.699,-2.252 -3.088,-1.5 -5.592,-3.876 -7.511,-7.124 -1.919,-3.25 -2.879,-7.316 -2.879,-12.199 z m 12.911,0.056 c 0,4.219 0.784,7.25 2.352,9.092 1.567,1.843 3.7,2.765 6.398,2.765 2.774,0 4.921,-0.902 6.441,-2.707 1.52,-1.805 2.279,-5.045 2.279,-9.72 0,-3.933 -0.793,-6.807 -2.379,-8.622 -1.587,-1.813 -3.738,-2.721 -6.455,-2.721 -2.604,0 -4.694,0.922 -6.271,2.764 -1.577,1.844 -2.365,4.894 -2.365,9.149 z"
   id="path3907" />
		<path
   style="fill:#00204f"
   d="m 1616.977,495.601 h 39.245 v 10.317 h -13.167 v 31.465 h -12.911 v -31.465 h -13.167 z"
   id="path3909" />
		<path
   style="fill:#00204f"
   d="m 1665.013,495.601 h 24.169 c 4.027,0 7.12,0.997 9.276,2.992 2.157,1.995 3.235,4.466 3.235,7.41 0,2.471 -0.77,4.589 -2.309,6.355 -1.026,1.179 -2.527,2.109 -4.504,2.793 3.003,0.722 5.212,1.962 6.627,3.72 1.415,1.757 2.123,3.966 2.123,6.625 0,2.167 -0.503,4.115 -1.51,5.844 -1.008,1.729 -2.385,3.097 -4.133,4.104 -1.084,0.628 -2.718,1.083 -4.902,1.368 -2.907,0.38 -4.836,0.57 -5.785,0.57 h -22.288 v -41.781 z m 13.024,16.388 h 5.615 c 2.014,0 3.415,-0.347 4.203,-1.041 0.788,-0.693 1.184,-1.695 1.184,-3.007 0,-1.216 -0.396,-2.165 -1.184,-2.85 -0.788,-0.684 -2.161,-1.026 -4.118,-1.026 h -5.7 z m 0,16.417 h 6.584 c 2.224,0 3.791,-0.395 4.703,-1.183 0.911,-0.788 1.368,-1.848 1.368,-3.178 0,-1.235 -0.452,-2.228 -1.354,-2.979 -0.902,-0.75 -2.484,-1.125 -4.745,-1.125 h -6.556 z"
   id="path3911" />
		<path
   style="fill:#00204f"
   d="m 1737.994,530.486 h -14.657 l -2.037,6.897 h -13.183 l 15.704,-41.782 h 14.083 l 15.7,41.782 h -13.52 z m -2.678,-9.035 -4.612,-15.02 -4.563,15.02 z"
   id="path3913" />
		<path
   style="fill:#00204f"
   d="m 1760.628,495.601 h 12.911 v 31.493 h 20.149 v 10.289 h -33.061 v -41.782 z"
   id="path3915" />
		<path
   style="fill:#00204f"
   d="m 1802.479,495.601 h 12.911 v 31.493 h 20.149 v 10.289 h -33.061 v -41.782 z"
   id="path3917" />
	</g>
	<g
   id="g3929">
		<path
   style="fill:#ffffff"
   d="m 1615.402,570.25 h 16.603 v 4.365 h -5.569 v 13.311 h -5.463 v -13.311 h -5.57 v -4.365 z"
   id="path3921" />
		<path
   style="fill:#ffffff"
   d="m 1635.699,570.25 h 14.638 v 3.774 h -9.163 v 2.809 h 8.5 v 3.605 h -8.5 v 3.484 h 9.428 v 4.003 H 1635.7 V 570.25 Z"
   id="path3923" />
		<path
   style="fill:#ffffff"
   d="m 1665.645,585.007 h -6.2 l -0.861,2.918 h -5.577 l 6.644,-17.675 h 5.958 l 6.642,17.675 h -5.72 z m -1.133,-3.822 -1.951,-6.354 -1.93,6.354 z"
   id="path3925" />
		<path
   style="fill:#ffffff"
   d="m 1675.159,570.25 h 7.184 l 2.77,10.754 2.751,-10.754 h 7.178 v 17.675 h -4.473 v -13.48 l -3.447,13.48 h -4.049 l -3.439,-13.48 v 13.48 h -4.474 V 570.25 Z"
   id="path3927" />
	</g>
	<polygon
   style="fill:#00204f"
   points="1840.338,474.185 1807.672,455.877 1807.672,474.185 "
   id="polygon3931" />
	<polygon
   style="fill:#00204f"
   points="1503.834,474.185 1503.834,455.271 1470.086,474.185 "
   id="polygon3933" />
</g>
</svg>
