<?xml version="1.0" encoding="UTF-8" standalone="no"?>
<!-- Generator: Adobe Illustrator 27.5.0, SVG Export Plug-In . SVG Version: 6.00 Build 0)  -->

<svg
   version="1.1"
   x="0px"
   y="0px"
   viewBox="0 0 191.577 207.397"
   xml:space="preserve"
   id="svg5871"
   sodipodi:docname="pantera.svg"
   width="191.577"
   height="207.397"
   inkscape:version="1.2.2 (b0a84865, 2022-12-01)"
   xmlns:inkscape="http://www.inkscape.org/namespaces/inkscape"
   xmlns:sodipodi="http://sodipodi.sourceforge.net/DTD/sodipodi-0.dtd"
   xmlns="http://www.w3.org/2000/svg"
   xmlns:svg="http://www.w3.org/2000/svg"><defs
   id="defs5875">
	

		
		
		
		
		
		
		
		
		
		
	</defs><sodipodi:namedview
   id="namedview5873"
   pagecolor="#ffffff"
   bordercolor="#000000"
   borderopacity="0.25"
   inkscape:showpageshadow="2"
   inkscape:pageopacity="0.0"
   inkscape:pagecheckerboard="0"
   inkscape:deskcolor="#d1d1d1"
   showgrid="false"
   showguides="true"
   inkscape:zoom="1.00875"
   inkscape:cx="-42.627014"
   inkscape:cy="187.85626"
   inkscape:window-width="1920"
   inkscape:window-height="1027"
   inkscape:window-x="1728"
   inkscape:window-y="62"
   inkscape:window-maximized="1"
   inkscape:current-layer="svg5871" />

<g
   id="g5866"
   transform="translate(-545.04,-63.8)">
			<path
   style="fill:#ffffff;stroke:#000000;stroke-width:4;stroke-miterlimit:10"
   d="m 715.197,97.028 c 0,0 -24.242,-18.886 -72.775,-18.886 -48.534,0 -72.773,18.886 -72.773,18.886 v 62.584 c 0,77.139 50.384,73.184 72.815,93.684 22.431,-20.499 72.687,-16.566 72.687,-93.706 z"
   id="path5782" />
			<g
   id="g5786">
				<path
   d="m 642.469,271.197 -2.698,-2.466 c -6.249,-5.711 -14.907,-9.789 -24.073,-14.105 -26.523,-12.491 -59.532,-28.037 -59.532,-94.74 V 87.193 l 1.542,-1.201 C 558.871,85.086 586.83,63.8 642.424,63.8 c 55.593,0 83.553,21.286 84.716,22.192 l 1.543,1.202 -0.053,72.671 c 0,66.717 -32.954,82.27 -59.434,94.767 -9.146,4.317 -17.783,8.393 -24.028,14.1 z M 564.165,91.226 v 68.66 c 0,61.628 29.188,75.374 54.94,87.503 8.544,4.024 16.673,7.852 23.363,13.145 6.682,-5.288 14.789,-9.115 23.313,-13.137 25.709,-12.133 54.848,-25.886 54.848,-87.535 l 0.05,-68.628 C 714.261,87.01 687.971,71.8 642.423,71.8 c -45.754,0 -71.881,15.199 -78.258,19.426 z"
   id="path5784" />
			</g>
			<g
   id="g5832">
				<polygon
   style="fill:none"
   points="621.769,163.004 569.649,132.595 569.649,156.199 "
   id="polygon5788" />
				<path
   style="fill:none"
   d="m 569.649,158.897 v 0.715 c 0,7.323 0.456,13.912 1.297,19.863 l 49.708,-9.358 z"
   id="path5790" />
				<path
   style="fill:none"
   d="m 570.165,96.649 c -0.333,0.238 -0.516,0.379 -0.516,0.379 v 33.34 l 55.169,26.185 z"
   id="path5792" />
				<path
   style="fill:none"
   d="m 597.47,84.3 c -15.406,4.579 -24.403,10.324 -27.008,12.142 l 59.069,54.898 z"
   id="path5794" />
				<path
   style="fill:none"
   d="m 624.4,79.059 c -10.029,1.036 -18.684,2.854 -25.956,4.954 l 37.043,63.812 z"
   id="path5796" />
				<path
   style="fill:none"
   d="m 591.165,222.331 c 4.733,4.457 9.921,7.945 15.22,10.924 l 22.627,-44.096 z"
   id="path5798" />
				<path
   style="fill:none"
   d="m 641.5,194.56 -13.445,49.411 c 5.406,2.726 10.364,5.627 14.41,9.325 1.357,-1.24 2.817,-2.389 4.36,-3.473 z"
   id="path5800" />
				<path
   style="fill:none"
   d="m 577.996,204.163 c 3.098,6.52 6.902,11.787 11.138,16.166 l 35.311,-36.527 z"
   id="path5802" />
				<path
   style="fill:none"
   d="m 571.375,182.262 c 1.243,7.427 3.115,13.807 5.469,19.34 l 44.73,-24.34 z"
   id="path5804" />
				<path
   style="fill:none"
   d="m 608.988,234.675 c 5.557,2.951 11.167,5.441 16.439,7.997 l 9.443,-49.818 z"
   id="path5806" />
				<path
   style="fill:none"
   d="m 687.282,227.635 c 4.785,-3.502 9.296,-7.691 13.239,-12.969 l -40.43,-27.491 z"
   id="path5808" />
				<path
   style="fill:none"
   d="m 702.232,212.238 c 3.24,-4.823 6.03,-10.487 8.177,-17.258 l -46.394,-13.703 z"
   id="path5810" />
				<path
   style="fill:none"
   d="m 711.261,192.094 c 1.554,-5.598 2.697,-11.899 3.326,-19.043 l -48.467,1.367 z"
   id="path5812" />
				<path
   style="fill:none"
   d="m 669.186,238.052 c 5.225,-2.519 10.54,-5.265 15.615,-8.68 l -30.106,-37.783 z"
   id="path5814" />
				<path
   style="fill:none"
   d="m 714.816,170.068 c 0.22,-3.317 0.335,-6.805 0.335,-10.479 l 0.007,-9.859 -48.939,17.478 z"
   id="path5816" />
				<path
   style="fill:none"
   d="m 649.291,248.185 c 5.143,-3.234 11.042,-5.929 17.151,-8.823 L 648.31,194.125 Z"
   id="path5818" />
				<polygon
   style="fill:none"
   points="664.303,160.288 715.16,146.932 715.179,121.488 "
   id="polygon5820" />
				<path
   style="fill:none"
   d="m 715.181,119.44 0.017,-22.412 c 0,0 -3.242,-2.517 -9.698,-5.71 l -44.958,62.955 z"
   id="path5822" />
				<path
   style="fill:none"
   d="m 677.245,81.709 c -7.326,-1.585 -15.717,-2.797 -25.166,-3.303 l -3.124,68.56 z"
   id="path5824" />
				<path
   style="fill:none"
   d="m 650.599,78.331 c -2.647,-0.119 -5.366,-0.189 -8.176,-0.189 -5.902,0 -11.438,0.283 -16.622,0.774 l 16.359,67.406 z"
   id="path5826" />
				<path
   style="fill:none"
   d="m 704.855,90.999 c -6.096,-2.958 -14.9,-6.427 -26.392,-9.018 l -23.193,67.715 z"
   id="path5828" />
				<path
   style="fill:#e7db00"
   d="m 646.824,249.822 c 0.8,-0.562 1.623,-1.107 2.466,-1.637 l -0.981,-54.059 18.132,45.237 c 0.911,-0.432 1.826,-0.867 2.745,-1.31 l -14.49,-46.464 30.106,37.783 c 0.834,-0.561 1.662,-1.137 2.481,-1.736 l -27.191,-40.46 40.43,27.491 c 0.585,-0.782 1.152,-1.597 1.711,-2.428 l -38.216,-30.961 46.394,13.703 c 0.298,-0.939 0.579,-1.904 0.852,-2.886 l -45.141,-17.676 48.467,-1.367 c 0.086,-0.978 0.162,-1.973 0.229,-2.983 l -48.597,-2.86 48.939,-17.478 0.002,-2.799 -50.858,13.357 50.876,-38.8 0.001,-2.048 -54.639,34.832 L 705.5,91.318 C 705.285,91.212 705.078,91.107 704.856,91 l -49.586,58.697 23.193,-67.715 c -0.405,-0.091 -0.806,-0.183 -1.218,-0.272 l -28.29,65.257 3.124,-68.56 c -0.491,-0.026 -0.983,-0.052 -1.48,-0.074 l -8.439,67.991 -16.359,-67.406 c -0.472,0.045 -0.935,0.094 -1.4,0.143 l 11.087,68.766 -37.043,-63.812 c -0.329,0.095 -0.651,0.191 -0.975,0.287 l 32.06,67.039 -59.069,-54.898 c -0.11,0.077 -0.209,0.146 -0.296,0.208 l 54.652,59.904 -55.169,-26.185 v 2.227 l 52.12,30.409 -52.12,-6.805 v 2.698 l 51.005,11.221 -49.708,9.358 c 0.133,0.944 0.276,1.874 0.428,2.787 l 50.199,-5 -44.73,24.34 c 0.372,0.875 0.757,1.728 1.153,2.561 l 46.448,-20.361 -35.311,36.527 c 0.667,0.689 1.345,1.354 2.032,2.001 l 37.847,-33.172 -22.627,44.096 c 0.865,0.487 1.734,0.958 2.603,1.42 l 25.882,-41.821 -9.443,49.818 c 0.886,0.43 1.762,0.862 2.627,1.298 L 641.5,194.56 Z"
   id="path5830" />
			</g>
			<g
   id="g5854">
				<path
   style="fill:#ffffff"
   d="m 652.903,154.641 c -1.05,-0.008 -2.086,-0.011 -3.128,0.178 -2.342,0.424 -4.595,1.354 -6.722,2.397 -0.399,0.195 -3.186,1.282 -3.256,1.778 -0.019,0.02 -0.041,0.029 -0.06,0.046 0.184,3.285 0.521,7.374 1.266,10.426 0.302,0.107 0.607,0.292 0.841,0.394 1.892,0.823 3.77,1.684 5.623,2.59 2.724,1.349 5.965,2.73 8.198,4.907 2.878,-0.719 5.612,-1.95 7.864,-3.893 0.126,-1.056 0.218,-2.116 0.274,-3.177 0.152,-2.824 0.563,-7.387 -1.418,-9.712 -0.119,-0.142 -0.237,-0.284 -0.356,-0.426 -1.106,-0.82 -2.513,-1.865 -2.759,-2.032 -1.978,-1.345 -4.103,-2.621 -6.367,-3.476 z"
   id="path5834" />
				<path
   style="fill:#ffffff"
   d="m 665.001,175.189 c -0.019,-0.009 -0.614,-0.224 -0.802,-0.32 -2.439,2.022 -5.148,3.174 -7.708,3.87 0.199,1.218 -0.154,3.006 -0.257,3.887 -0.234,1.999 -0.67,3.973 -1.222,5.908 -0.432,1.518 -0.939,3.014 -1.511,4.486 -0.179,0.462 -0.53,1.036 -0.676,1.555 1.604,2.15 3.267,4.269 5.16,6.171 0.807,0.811 1.666,1.591 2.601,2.26 0.203,-0.022 0.419,-0.031 0.615,-0.066 3.822,-0.684 7.635,-2.324 10.626,-4.809 l 0.492,-0.411 c 1.52,-4.504 2.287,-9.356 1.742,-14.092 l -0.297,-0.468 c -3.148,-4.94 -7.048,-7.174 -8.763,-7.971 z"
   id="path5836" />
				<path
   style="fill:#ffffff"
   d="m 614.717,172.269 c 0.305,1.701 0.768,3.371 1.352,4.997 0.164,0.45 0.457,0.955 0.647,1.445 l 10.937,2.206 c 1.517,-2.155 3.298,-4.12 5.236,-5.9 2.12,-1.948 4.443,-3.48 6.773,-5.11 -0.386,-1.842 -1.014,-5.596 -1.165,-11 -0.753,-0.272 -2.382,-0.841 -4.372,-1.41 -2.739,-0.789 -5.672,-1.551 -8.546,-1.481 v 0 c -1.364,0.921 -2.636,1.977 -3.849,3.085 -2.62,2.394 -4.996,5.036 -7.357,7.683 -0.059,1.835 0.01,3.65 0.344,5.485 z"
   id="path5838" />
				<path
   style="fill:#ffffff"
   d="m 675.345,183.186 c 0.671,5.201 -0.262,10.449 -1.998,15.395 0.281,0.507 0.527,1.029 0.673,1.604 0.107,0.417 0.161,0.837 0.186,1.258 0.645,-1.24 1.235,-2.514 1.739,-3.832 2.442,-6.256 2.983,-12.836 1.951,-19.114 -0.229,0.496 -0.455,0.955 -0.639,1.341 -0.558,1.173 -1.297,2.216 -1.912,3.348 z"
   id="path5840" />
				<path
   style="fill:#ffffff"
   d="m 611.078,207 h 2.82 c 0.063,-0.271 0.132,-0.539 0.218,-0.801 -2.871,-3.473 -5.657,-7.534 -7.153,-14.368 -1.58,-1.46 -2.645,-2.767 -3.487,-4.095 0.1,1.059 0.228,2.113 0.416,3.155 1.072,5.924 3.598,11.427 7.186,16.109 z"
   id="path5842" />
				<path
   style="fill:#ffffff"
   d="m 609.08,167.303 c 1.316,-0.66 2.703,-1.115 4.036,-1.716 l 0.587,-0.193 c 3.349,-3.773 6.794,-7.661 10.973,-10.495 0.353,-1.8 0.853,-3.479 1.498,-5.149 -8.514,3.658 -15.551,10.386 -19.457,18.88 0.77,-0.472 1.555,-0.922 2.363,-1.327 z"
   id="path5844" />
				<path
   style="fill:#ffffff"
   d="m 654.252,149.179 c -1.952,-0.743 -3.964,-1.3 -6.005,-1.709 0.724,0.721 1.418,1.471 2.047,2.276 0.749,0.956 1.399,1.973 1.989,3.03 4.077,1.243 7.768,3.731 11.099,6.368 2.293,0.382 4.501,0.97 6.697,1.708 -4.053,-5.115 -9.434,-9.237 -15.827,-11.673 z"
   id="path5846" />
				<path
   style="fill:#ffffff"
   d="m 611.362,199.376 c 0.922,1.729 2.043,3.337 3.262,4.869 0.096,0.121 0.334,0.372 0.582,0.653 0.575,0.216 1.152,0.427 1.747,0.588 2.261,0.614 4.636,0.82 6.974,0.852 1.46,0.023 3.054,0.092 4.504,-0.165 2.639,-2.679 4.634,-6.228 5.952,-9.746 -0.671,-0.801 -1.3,-2.103 -1.577,-2.57 -1.016,-1.71 -1.915,-3.488 -2.762,-5.288 -0.675,-1.431 -1.316,-2.881 -1.928,-4.341 -0.201,-0.479 -0.36,-1.109 -0.603,-1.627 -2.126,-0.437 -7.735,-1.605 -10.866,-2.247 -0.05,0.048 -0.101,0.098 -0.153,0.152 -1.208,1.263 -2.368,2.572 -3.475,3.922 -1.672,2.02 -3.742,4.437 -4.402,7.036 -0.013,0.046 -0.025,0.092 -0.037,0.138 0.088,0.394 0.166,0.791 0.267,1.183 0.584,2.285 1.403,4.509 2.515,6.591 z"
   id="path5848" />
				<path
   style="fill:#ffffff"
   d="m 658.535,207 c 0.346,-0.736 0.669,-1.486 0.952,-2.258 0.03,-0.083 0.097,-0.391 0.175,-0.65 -2.959,-2.203 -5.666,-5.612 -7.925,-8.625 -1.464,0.391 -2.948,0.711 -4.439,0.981 -3.781,0.681 -7.693,1.073 -11.53,0.673 -1.75,4.492 -4.2,7.904 -5.983,9.88 h 28.75 z"
   id="path5850" />
				<path
   d="m 611.078,207 c -3.588,-4.682 -6.114,-10.185 -7.186,-16.109 -0.188,-1.042 -0.317,-2.096 -0.416,-3.155 0.842,1.328 1.907,2.635 3.487,4.095 1.496,6.834 4.282,10.895 7.153,14.368 -0.086,0.262 -0.155,0.531 -0.218,0.801 h 15.887 c 1.782,-1.975 4.232,-5.387 5.983,-9.88 3.837,0.4 7.75,0.008 11.53,-0.673 1.491,-0.27 2.975,-0.59 4.439,-0.981 2.258,3.013 4.966,6.423 7.925,8.625 -0.078,0.259 -0.145,0.567 -0.175,0.65 -0.283,0.772 -0.607,1.522 -0.952,2.258 h 16.958 c 4.081,-6.357 6.471,-13.904 6.509,-22.011 0,-0.042 0.003,-0.085 0.003,-0.127 0,-0.024 0.002,-0.047 0.002,-0.071 0,-0.108 -0.007,-0.215 -0.008,-0.323 -0.029,-16.609 -10.192,-32.505 -26.443,-38.701 -6.979,-2.66 -14.632,-3.386 -21.985,-2.056 -14.096,2.55 -26.1,12.49 -31.207,25.861 -1.761,4.606 -2.657,9.504 -2.693,14.416 -0.005,0.268 -0.02,0.534 -0.02,0.803 0,8.182 2.396,15.799 6.51,22.208 h 4.917 z m 17.353,-0.827 c -1.45,0.258 -3.044,0.188 -4.504,0.165 -2.338,-0.033 -4.713,-0.238 -6.974,-0.852 -0.596,-0.161 -1.172,-0.372 -1.747,-0.588 -0.247,-0.281 -0.486,-0.533 -0.582,-0.653 -1.219,-1.532 -2.34,-3.14 -3.262,-4.869 -1.112,-2.082 -1.931,-4.305 -2.516,-6.589 -0.101,-0.392 -0.179,-0.789 -0.267,-1.183 0.013,-0.046 0.025,-0.092 0.037,-0.138 0.66,-2.599 2.729,-5.016 4.402,-7.036 1.107,-1.35 2.267,-2.659 3.475,-3.922 0.052,-0.054 0.103,-0.104 0.153,-0.152 3.131,0.642 8.74,1.81 10.866,2.247 0.243,0.518 0.402,1.148 0.603,1.627 0.612,1.46 1.253,2.91 1.928,4.341 0.847,1.799 1.746,3.578 2.762,5.288 0.277,0.467 0.906,1.768 1.577,2.57 -1.317,3.517 -3.312,7.066 -5.951,9.744 z m 48.826,-26.336 c 0.184,-0.387 0.41,-0.846 0.639,-1.341 1.032,6.277 0.491,12.858 -1.951,19.114 -0.503,1.318 -1.094,2.592 -1.739,3.832 -0.026,-0.421 -0.08,-0.841 -0.186,-1.258 -0.147,-0.575 -0.393,-1.097 -0.673,-1.604 1.737,-4.945 2.669,-10.193 1.998,-15.395 0.615,-1.131 1.354,-2.174 1.912,-3.348 z m -3.494,3.325 0.297,0.468 c 0.546,4.736 -0.222,9.588 -1.742,14.092 l -0.492,0.41 c -2.992,2.486 -6.804,4.126 -10.626,4.809 -0.196,0.035 -0.412,0.044 -0.615,0.066 -0.935,-0.668 -1.793,-1.448 -2.601,-2.26 -1.893,-1.902 -3.556,-4.021 -5.16,-6.171 0.146,-0.519 0.497,-1.093 0.676,-1.555 0.572,-1.472 1.079,-2.968 1.511,-4.486 0.552,-1.935 0.989,-3.909 1.222,-5.908 0.104,-0.882 0.456,-2.669 0.257,-3.887 2.56,-0.696 5.268,-1.848 7.708,-3.87 0.189,0.096 0.783,0.31 0.802,0.32 1.716,0.796 5.616,3.03 8.763,7.972 z m -19.511,-33.983 c 6.393,2.436 11.774,6.557 15.827,11.673 -2.196,-0.738 -4.404,-1.327 -6.697,-1.708 -3.331,-2.637 -7.022,-5.125 -11.099,-6.368 -0.591,-1.057 -1.24,-2.074 -1.989,-3.03 -0.629,-0.805 -1.323,-1.555 -2.047,-2.276 2.041,0.409 4.054,0.966 6.005,1.709 z m -14.455,9.816 c 0.07,-0.497 2.857,-1.583 3.256,-1.778 2.127,-1.044 4.38,-1.973 6.722,-2.397 1.042,-0.189 2.078,-0.185 3.128,-0.178 2.264,0.855 4.39,2.131 6.367,3.478 0.246,0.167 1.654,1.212 2.759,2.032 0.119,0.142 0.237,0.284 0.356,0.426 1.981,2.326 1.57,6.889 1.418,9.712 -0.057,1.061 -0.148,2.121 -0.274,3.177 -2.252,1.943 -4.986,3.173 -7.864,3.893 -2.233,-2.177 -5.474,-3.558 -8.198,-4.907 -1.853,-0.906 -3.731,-1.767 -5.623,-2.59 -0.234,-0.102 -0.539,-0.287 -0.841,-0.394 -0.745,-3.051 -1.082,-7.141 -1.266,-10.426 0.019,-0.019 0.041,-0.028 0.06,-0.048 z m -5.671,-1.498 c 1.989,0.569 3.618,1.138 4.372,1.41 0.151,5.405 0.779,9.158 1.165,11 -2.331,1.63 -4.654,3.162 -6.773,5.11 -1.938,1.78 -3.719,3.745 -5.236,5.9 l -10.937,-2.206 c -0.189,-0.49 -0.483,-0.995 -0.647,-1.445 -0.584,-1.626 -1.047,-3.296 -1.352,-4.997 -0.335,-1.836 -0.404,-3.65 -0.343,-5.485 2.361,-2.647 4.737,-5.289 7.357,-7.683 1.213,-1.109 2.485,-2.165 3.849,-3.085 v 0 c 2.872,-0.07 5.806,0.693 8.545,1.481 z m -7.952,-7.747 c -0.646,1.67 -1.145,3.349 -1.498,5.149 -4.178,2.833 -7.624,6.721 -10.973,10.495 l -0.587,0.193 c -1.334,0.602 -2.721,1.057 -4.036,1.716 -0.808,0.405 -1.592,0.854 -2.362,1.327 3.905,-8.493 10.942,-15.222 19.456,-18.88 z"
   id="path5852" />
			</g>
			<polygon
   points="633.569,228.667 640.333,228.638 642.45,222.215 644.568,228.638 651.331,228.667 645.876,232.666 647.938,239.107 642.45,235.155 636.961,239.107 639.023,232.666 "
   id="polygon5856" />
			<g
   id="g5860">
				<path
   d="m 642.465,256.005 -1.35,-1.233 c -5.7,-5.21 -13.463,-8.866 -21.681,-12.736 -23.072,-10.866 -51.785,-24.388 -51.785,-82.424 V 96.051 l 0.77,-0.601 c 1.012,-0.789 25.341,-19.308 74.003,-19.308 48.66,0 72.991,18.519 74.004,19.308 l 0.771,0.601 -0.047,63.54 c 0,58.05 -28.665,71.579 -51.698,82.45 -8.198,3.87 -15.942,7.525 -21.639,12.731 z M 571.649,98.053 v 61.559 c 0,55.498 26.292,67.88 49.489,78.805 7.891,3.716 15.375,7.241 21.326,12.223 5.943,-4.977 13.41,-8.501 21.281,-12.216 23.158,-10.93 49.405,-23.318 49.405,-78.834 l 0.045,-61.538 c -1.974,-1.366 -7.712,-5.041 -17.102,-8.677 -10.876,-4.212 -29.016,-9.232 -53.671,-9.232 -42.611,0 -66.318,14.834 -70.773,17.91 z"
   id="path5858" />
			</g>
			<polygon
   style="fill:#63227d"
   points="556.376,197.748 545.04,178.638 736.617,178.638 727.135,197.748 736.617,217.231 545.04,217.231 "
   id="polygon5862" />
			<text
   transform="translate(576.7584,204.0036)"
   style="font-size:18.5046px;font-family:Bitter-Regular;fill:#ffffff"
   id="text5864">SOCCER CLUB</text>
		</g>
</svg>
