<?xml version="1.0" encoding="UTF-8" standalone="no"?>
<!-- Generator: Adobe Illustrator 27.5.0, SVG Export Plug-In . SVG Version: 6.00 Build 0)  -->

<svg
   version="1.1"
   id="Layer_1"
   x="0px"
   y="0px"
   viewBox="0 0 1625.5959 1846.267"
   xml:space="preserve"
   sodipodi:docname="roja.svg"
   width="1625.5959"
   height="1846.267"
   inkscape:version="1.2.2 (b0a84865, 2022-12-01)"
   xmlns:inkscape="http://www.inkscape.org/namespaces/inkscape"
   xmlns:sodipodi="http://sodipodi.sourceforge.net/DTD/sodipodi-0.dtd"
   xmlns="http://www.w3.org/2000/svg"
   xmlns:svg="http://www.w3.org/2000/svg"><defs
   id="defs8460">
	
	
	
	
</defs><sodipodi:namedview
   id="namedview8458"
   pagecolor="#ffffff"
   bordercolor="#000000"
   borderopacity="0.25"
   inkscape:showpageshadow="2"
   inkscape:pageopacity="0.0"
   inkscape:pagecheckerboard="0"
   inkscape:deskcolor="#d1d1d1"
   showgrid="false"
   inkscape:zoom="0.168125"
   inkscape:cx="-362.82528"
   inkscape:cy="2156.1338"
   inkscape:window-width="1920"
   inkscape:window-height="1027"
   inkscape:window-x="1728"
   inkscape:window-y="62"
   inkscape:window-maximized="1"
   inkscape:current-layer="Layer_1" />

<g
   id="XMLID_176_"
   transform="translate(-2760.599,-246.5)">
		<g
   id="XMLID_208_">
			<path
   id="XMLID_1615_"
   style="fill:#444443"
   d="m 3573.397,2092.767 c -54.583,0 -109.162,-14.054 -157.842,-42.157 L 2918.442,1763.601 C 2821.082,1707.388 2760.6,1602.631 2760.6,1490.21 V 916.192 c 0,-112.422 60.482,-217.178 157.842,-273.388 l 497.113,-287.009 c 97.368,-56.206 218.333,-56.212 315.685,0.003 l 497.113,287.007 c 97.36,56.21 157.842,160.966 157.842,273.388 v 574.018 c 0,112.421 -60.482,217.179 -157.842,273.391 l -497.113,287.009 c -48.68,28.102 -103.264,42.156 -157.843,42.156 z m -119.093,-109.273 c 73.462,42.411 164.724,42.411 238.186,0 l 497.114,-287.01 c 73.457,-42.411 119.093,-121.451 119.093,-206.274 V 916.192 c 0,-84.822 -45.631,-163.862 -119.093,-206.271 L 3692.49,422.911 c -73.462,-42.415 -164.724,-42.413 -238.186,-0.002 L 2957.19,709.921 c -73.461,42.409 -119.093,121.45 -119.093,206.271 v 574.018 c 0,84.823 45.636,163.863 119.093,206.274 z" />
			<path
   id="XMLID_951_"
   style="fill:#444443"
   d="m 3057.147,1669.762 464.65,268.266 c 15.666,9.044 33.509,13.827 51.602,13.827 18.088,0 35.932,-4.78 51.598,-13.827 l 464.657,-268.266 z" />
			<g
   id="XMLID_859_">
				<g
   id="g8418">
					<path
   id="XMLID_00000171678614671270326760000002329722190654474680_"
   style="fill:#444443"
   d="m 3113.075,1603.018 c -9.313,9.183 -21.342,13.452 -34.405,13.452 -33.63,0 -47.857,-23.152 -47.986,-46.693 -0.13,-23.67 15.261,-47.728 47.986,-47.728 12.287,0 23.928,4.656 33.241,13.84 l -11.382,10.994 c -5.95,-5.82 -13.969,-8.536 -21.859,-8.536 -21.859,0 -31.302,16.298 -31.172,31.43 0.129,15.004 8.795,30.655 31.172,30.655 7.889,0 16.814,-3.234 22.764,-9.183 z" />
					<path
   id="XMLID_00000095335475267129842210000005394373862054807206_"
   style="fill:#444443"
   d="m 3190.805,1614.53 v -36.604 h -44.494 v 36.604 h -17.073 v -90.541 h 17.073 v 38.156 h 44.494 v -38.156 h 16.945 v 90.541 z" />
					<path
   id="XMLID_00000016782266889363839660000001439200478760322460_"
   style="fill:#444443"
   d="m 3294.536,1597.327 h -47.339 l -7.761,17.073 h -18.495 l 40.614,-90.541 h 18.625 l 40.614,90.541 h -18.625 z m -23.669,-54.454 -16.815,38.544 h 33.63 z" />
					<path
   id="XMLID_00000135673892674001430820000004228574672079778693_"
   style="fill:#444443"
   d="m 3412.495,1548.823 -29.49,39.32 h -3.363 l -28.844,-39.45 v 65.837 h -17.073 v -90.541 h 19.66 l 28.327,38.933 28.326,-38.933 h 19.53 v 90.541 h -17.073 z" />
					<path
   id="XMLID_00000093178412819189491240000015768937006822342564_"
   style="fill:#444443"
   d="m 3494.755,1587.755 h -25.611 v 26.645 h -17.073 v -90.541 c 14.228,0 28.456,-0.13 42.684,-0.13 44.235,0 44.365,64.026 0,64.026 z m -25.61,-15.651 h 25.611 c 21.858,0 21.729,-32.077 0,-32.077 h -25.611 z" />
					<path
   id="XMLID_00000049939344330924583970000007404642306640432821_"
   style="fill:#444443"
   d="m 3546.102,1614.4 v -90.541 h 16.944 v 90.541 z" />
					<path
   id="XMLID_00000060752535926656846460000015306765300425260447_"
   style="fill:#444443"
   d="m 3677.254,1569.647 c -0.259,23.411 -14.615,46.822 -46.435,46.822 -31.818,0 -46.564,-22.894 -46.564,-46.693 0,-23.799 15.262,-47.728 46.564,-47.728 31.173,10e-4 46.694,23.929 46.435,47.599 z m -76.184,0.388 c 0.389,14.875 8.408,30.785 29.75,30.785 21.341,0 29.36,-16.04 29.619,-30.914 0.26,-15.262 -8.278,-32.336 -29.619,-32.336 -21.342,-10e-4 -30.138,17.203 -29.75,32.465 z" />
					<path
   id="XMLID_00000135692022726383854140000016319212334963723395_"
   style="fill:#444443"
   d="m 3755.762,1523.729 h 17.073 v 90.67 h -10.606 v 0.13 l -47.599,-61.18 v 61.05 h -17.073 v -90.541 h 13.839 l 44.366,56.135 z" />
					<path
   id="XMLID_00000152261439436578960300000006136819896795232142_"
   style="fill:#444443"
   d="m 3852.248,1545.719 c -3.104,-5.174 -11.641,-10.089 -21.472,-10.089 -12.675,0 -18.754,5.303 -18.754,12.029 0,7.889 9.313,10.088 20.177,11.381 18.885,2.329 36.475,7.244 36.475,28.844 0,20.177 -17.849,28.844 -38.026,28.844 -18.496,0 -32.725,-5.691 -39.451,-22.247 l 14.228,-7.372 c 4.01,9.959 14.486,14.357 25.48,14.357 10.736,0 20.824,-3.752 20.824,-13.581 0,-8.537 -8.924,-12.028 -20.954,-13.322 -18.495,-2.199 -35.569,-7.114 -35.569,-27.421 0,-18.626 18.367,-26.257 35.052,-26.386 14.099,0 28.714,4.01 35.57,17.979 z" />
					<path
   id="XMLID_00000144298301705592974430000015739090751428337311_"
   style="fill:#444443"
   d="m 3950.029,1614.53 v -36.604 h -44.495 v 36.604 h -17.074 v -90.541 h 17.074 v 38.156 h 44.495 v -38.156 h 16.944 v 90.541 z" />
					<path
   id="XMLID_00000170984232691033823730000013881114887421709232_"
   style="fill:#444443"
   d="m 3989.606,1614.4 v -90.541 h 16.944 v 90.541 z" />
					<path
   id="XMLID_00000145016581616204740490000012684438450376467877_"
   style="fill:#444443"
   d="m 4071.737,1587.755 h -25.609 v 26.645 h -17.074 v -90.541 c 14.228,0 28.456,-0.13 42.683,-0.13 44.236,0 44.365,64.026 0,64.026 z m -25.609,-15.651 h 25.609 c 21.86,0 21.73,-32.077 0,-32.077 h -25.609 z" />
				</g>
			</g>
			<g
   id="XMLID_709_">
				<path
   id="XMLID_848_"
   style="fill:#ffffff"
   d="m 3567.823,1011.51 c -193.337,0 -350.626,-157.29 -350.626,-350.627 0,-193.336 157.29,-350.627 350.626,-350.627 193.336,0 350.627,157.29 350.627,350.627 0,193.337 -157.291,350.627 -350.627,350.627 z" />
				<path
   id="XMLID_829_"
   style="opacity:0.26;fill:#444443"
   d="m 3666.871,310.289 c 36.516,56.884 57.738,124.601 57.738,197.216 0,200.958 -162.46,364.449 -362.151,364.449 -34.329,0 -67.556,-4.831 -99.048,-13.854 64.541,100.542 176.879,167.233 304.413,167.233 199.69,0 362.15,-163.491 362.15,-364.449 0,-166.413 -111.405,-307.132 -263.102,-350.595 z" />
				<path
   id="XMLID_764_"
   style="fill:#444443"
   d="m 3499.616,677.935 92.719,124.691 c 0,0 151.335,-42.63 151.335,-46.893 0,-4.263 0,-151.334 0,-151.334 L 3604.058,546.85 Z" />
				<path
   id="XMLID_761_"
   style="fill:#444443"
   d="m 3631.767,1010.444 c -48.669,-35.532 -94.318,-89.522 -94.318,-89.522 -48.313,14.921 -145.828,0 -145.828,0 0,0 2.855,35.532 4.75,61.655 50.671,27.063 108.478,42.508 169.876,42.768 32.528,-11.742 65.52,-14.901 65.52,-14.901 z" />
				<path
   id="XMLID_757_"
   style="fill:#444443"
   d="m 3302.81,794.456 c 1.421,-13.499 49.735,-125.047 49.735,-125.047 -7.105,-9.236 -49.735,-131.44 -49.735,-131.44 l -90.543,42.475 c -5.831,25.881 -8.926,52.798 -8.926,80.44 0,26.477 2.85,52.285 8.211,77.159 l 6.71,0.285 c 10.82,22.605 84.548,56.128 84.548,56.128 z" />
				<path
   id="XMLID_273_"
   style="fill:#444443"
   d="m 3396.595,415.053 c 0,0 103.021,-5.683 149.913,13.499 0,0 60.392,-72.47 85.259,-82.417 0,0 -26.908,-27.518 -66.501,-49.702 -57.94,0.398 -112.663,14.312 -161.182,38.752 -3.47,19.181 -8.428,52.158 -7.489,79.868 z" />
				<path
   id="XMLID_742_"
   style="fill:#444443"
   d="m 3780.969,395.871 c 0,0 47.603,104.441 49.735,130.02 0,0 72.47,40.498 81.707,69.627 0,0 5.288,-9.408 8.593,-25.012 -17.593,-68.957 -54.859,-130.036 -105.454,-176.945 -9.158,-0.565 -20.5,-0.038 -34.581,2.31 z" />
				<path
   id="XMLID_735_"
   style="fill:#444443"
   d="m 3918.75,759.66 c -5.822,-7.073 -9.892,-11.031 -9.892,-11.031 -43.34,72.469 -83.127,80.64 -83.127,80.64 -8.881,44.051 -57.565,121.494 -58.631,124.691 -0.52,1.561 12.706,-7.402 26.73,-7.125 59.439,-47.042 103.863,-112.217 124.92,-187.175 z" />
				<g
   id="XMLID_215_">
					<g
   id="g8430">
						<path
   id="XMLID_00000127017626529943774760000013990024372253898655_"
   style="fill:#444443"
   d="m 3567.823,246.5 c -228.492,0 -414.383,185.891 -414.383,414.383 0,228.492 185.891,414.383 414.383,414.383 228.491,0 414.382,-185.891 414.382,-414.383 0,-228.492 -185.891,-414.383 -414.382,-414.383 z m 0,765.01 c -193.337,0 -350.628,-157.29 -350.628,-350.627 0,-193.336 157.291,-350.627 350.628,-350.627 193.336,0 350.627,157.29 350.627,350.627 0,193.337 -157.291,350.627 -350.627,350.627 z" />
					</g>
				</g>
			</g>
			<g
   id="XMLID_1614_">
				<rect
   id="XMLID_210_"
   x="2799.3491"
   y="933.52301"
   style="fill:#ffffff"
   width="1548.0959"
   height="510.258" />
				<path
   id="XMLID_1611_"
   style="fill:#444443"
   d="M 4347.445,1482.529 H 2799.348 c -21.4,0 -38.749,-17.348 -38.749,-38.749 V 933.523 c 0,-21.4 17.348,-38.749 38.749,-38.749 h 1548.097 c 21.401,0 38.749,17.348 38.749,38.749 v 510.257 c 0,21.401 -17.347,38.749 -38.749,38.749 z M 2838.098,1405.031 H 4308.697 V 972.272 H 2838.098 Z" />
			</g>
			<g
   id="XMLID_209_">
				<g
   id="g8449">
					<path
   style="fill:#444443"
   d="m 2995.622,1032.871 c 46.069,0 69.745,27.551 69.745,75.77 v 9.467 h -44.777 v -12.484 c 0,-21.526 -8.609,-29.702 -23.676,-29.702 -15.067,0 -23.676,8.175 -23.676,29.702 0,61.995 92.554,73.62 92.554,159.716 0,48.211 -24.101,75.762 -70.595,75.762 -46.494,0 -70.603,-27.551 -70.603,-75.762 v -18.509 h 44.769 v 21.518 c 0,21.526 9.475,29.276 24.542,29.276 15.067,0 24.535,-7.75 24.535,-29.276 0,-61.987 -92.554,-73.612 -92.554,-159.708 -10e-4,-48.219 23.675,-75.77 69.736,-75.77 z"
   id="path8437" />
					<path
   style="fill:#444443"
   d="m 3153.637,1108.641 c 0,-48.219 25.401,-75.77 71.895,-75.77 46.494,0 71.887,27.551 71.887,75.77 v 156.699 c 0,48.211 -25.393,75.762 -71.887,75.762 -46.494,0 -71.895,-27.551 -71.895,-75.762 z m 47.353,159.708 c 0,21.526 9.476,29.709 24.543,29.709 15.067,0 24.534,-8.184 24.534,-29.709 v -162.725 c 0,-21.526 -9.467,-29.702 -24.534,-29.702 -15.067,0 -24.543,8.175 -24.543,29.702 z"
   id="path8439" />
					<path
   style="fill:#444443"
   d="m 3529.913,1225.305 v 40.035 c 0,48.211 -24.11,75.762 -70.595,75.762 -46.494,0 -70.603,-27.551 -70.603,-75.762 v -156.699 c 0,-48.219 24.109,-75.77 70.603,-75.77 46.486,0 70.595,27.551 70.595,75.77 v 29.268 h -44.769 v -32.285 c 0,-21.526 -9.475,-29.702 -24.535,-29.702 -15.067,0 -24.543,8.175 -24.543,29.702 v 162.725 c 0,21.526 9.475,29.276 24.543,29.276 15.059,0 24.535,-7.75 24.535,-29.276 v -43.044 z"
   id="path8441" />
					<path
   style="fill:#444443"
   d="m 3760.682,1225.305 v 40.035 c 0,48.211 -24.11,75.762 -70.604,75.762 -46.494,0 -70.603,-27.551 -70.603,-75.762 v -156.699 c 0,-48.219 24.109,-75.77 70.603,-75.77 46.494,0 70.604,27.551 70.604,75.77 v 29.268 h -44.777 v -32.285 c 0,-21.526 -9.467,-29.702 -24.535,-29.702 -15.068,0 -24.535,8.175 -24.535,29.702 v 162.725 c 0,21.526 9.467,29.276 24.535,29.276 15.068,0 24.535,-7.75 24.535,-29.276 v -43.044 z"
   id="path8443" />
					<path
   style="fill:#444443"
   d="m 3901.472,1163.311 h 65.003 v 43.052 h -65.003 v 88.246 h 81.796 v 43.052 H 3854.12 v -301.339 h 129.148 v 43.044 h -81.796 z"
   id="path8445" />
					<path
   style="fill:#444443"
   d="m 4176.151,1337.661 c -2.583,-7.75 -4.309,-12.484 -4.309,-37.019 v -47.36 c 0,-27.977 -9.467,-38.31 -30.993,-38.31 h -16.359 v 122.689 h -47.352 v -301.339 h 71.462 c 49.077,0 70.17,22.809 70.17,69.303 v 23.676 c 0,31.002 -9.9,51.228 -30.993,61.136 23.676,9.9 31.426,32.71 31.426,64.137 v 46.494 c 0,14.642 0.425,25.401 5.159,36.594 h -48.211 z m -51.661,-258.296 v 92.554 H 4143 c 17.651,0 28.417,-7.742 28.417,-31.851 v -29.709 c 0,-21.518 -7.317,-30.993 -24.109,-30.993 h -22.818 z"
   id="path8447" />
				</g>
			</g>
		</g>
		<polygon
   id="XMLID_207_"
   style="fill:#ffffff"
   points="3521.154,1870.101 3531.132,1811.923 3488.862,1770.721 3547.277,1762.233 3573.4,1709.3 3599.524,1762.233 3657.938,1770.721 3615.67,1811.923 3625.648,1870.101 3573.4,1842.634 " />
	</g>
</svg>
