<?xml version="1.0" encoding="UTF-8" standalone="no"?>
<!-- Generator: Adobe Illustrator 27.5.0, SVG Export Plug-In . SVG Version: 6.00 Build 0)  -->

<svg
   version="1.1"
   id="Layer_1"
   x="0px"
   y="0px"
   viewBox="0 0 1500 1600"
   xml:space="preserve"
   sodipodi:docname="soccer-goal-2.svg"
   width="1500"
   height="1600"
   inkscape:version="1.2.2 (b0a84865, 2022-12-01)"
   xmlns:inkscape="http://www.inkscape.org/namespaces/inkscape"
   xmlns:sodipodi="http://sodipodi.sourceforge.net/DTD/sodipodi-0.dtd"
   xmlns:xlink="http://www.w3.org/1999/xlink"
   xmlns="http://www.w3.org/2000/svg"
   xmlns:svg="http://www.w3.org/2000/svg"><defs
   id="defs5931" /><sodipodi:namedview
   id="namedview5929"
   pagecolor="#ffffff"
   bordercolor="#000000"
   borderopacity="0.25"
   inkscape:showpageshadow="2"
   inkscape:pageopacity="0.0"
   inkscape:pagecheckerboard="0"
   inkscape:deskcolor="#d1d1d1"
   showgrid="false"
   inkscape:zoom="0.11654321"
   inkscape:cx="1501.589"
   inkscape:cy="1016.7903"
   inkscape:window-width="1920"
   inkscape:window-height="1027"
   inkscape:window-x="1728"
   inkscape:window-y="62"
   inkscape:window-maximized="1"
   inkscape:current-layer="Layer_1" />

<g
   id="g5926"
   transform="matrix(-1,0,0,1,2545.8261,-180.19068)">
	<g
   id="g5658">
		<g
   id="g5638">
			<path
   style="fill:#fad674"
   d="m 1820.66,615.823 c -16.675,35.862 -26.002,75.832 -26.002,117.986 0,154.737 125.439,280.176 280.176,280.176 154.737,0 280.176,-125.439 280.176,-280.176 0,-42.154 -9.327,-82.124 -26.002,-117.986 -103.222,0 -378.996,0 -508.348,0 z"
   id="path5634" />
			<path
   style="fill:#fad674"
   d="m 2268.215,686.082 c -19.835,-92.969 -86.496,-173.541 -182.934,-206.725 -96.438,-33.183 -198.562,-10.688 -271.405,50.392 z"
   id="path5636" />
		</g>
		<g
   id="g5644">
			<path
   style="fill:#fad674"
   d="m 2170.024,1352.758 c -40.297,-105.29 -142.277,-180.064 -261.738,-180.064 -154.737,0 -280.176,125.439 -280.176,280.176 0,53.658 15.094,103.786 41.253,146.389 z"
   id="path5640" />
			<path
   style="fill:#fad674"
   d="m 1838.529,1590.353 c 45.907,32.867 102.15,52.22 162.916,52.22 154.737,0 280.176,-125.439 280.176,-280.176 0,-23.954 -3.013,-47.202 -8.668,-69.395 z"
   id="path5642" />
		</g>
		<g
   id="g5650">
			<path
   style="fill:#fad674"
   d="m 1405.98,255.509 -673.987,998.547 c 83.866,43.85 179.265,68.656 280.459,68.656 334.771,0 606.157,-271.386 606.157,-606.157 0,-184.572 -82.5,-349.869 -212.629,-461.046 z"
   id="path5646" />
			<path
   style="fill:#fad674"
   d="m 569.555,1287.52 762.467,-935.736 c -96.428,-64.701 -212.456,-102.452 -337.304,-102.452 -334.771,0 -606.157,271.386 -606.157,606.157 -10e-4,169.132 69.276,322.079 180.994,432.031 z"
   id="path5648" />
		</g>
		<circle
   style="fill:#fad674"
   cx="1371.171"
   cy="1429.771"
   r="82.917999"
   id="circle5652" />
		<circle
   style="fill:#fad674"
   cx="2369.1101"
   cy="1132.839"
   r="166.604"
   id="circle5654" />
		
			<circle
   transform="matrix(0.1602,-0.9871,0.9871,0.1602,705.9762,2317.4912)"
   style="fill:#fad674"
   cx="1714.9301"
   cy="743.85797"
   id="ellipse5656"
   r="57.203999" />
	</g>
	<g
   id="g5918">
		<g
   id="g5908">
			<g
   id="g5676">
				<path
   style="fill:#6c50b7"
   d="m 1190.676,1118.004 c 0,0 -152.462,-116.123 -164.525,-102.3 -12.063,13.823 -23.75,87.864 0.375,106.451 24.125,18.587 158.488,89.096 173.397,74.474 7.082,-6.945 6.939,-14.287 4.836,-20.082 -6.785,-18.7 -11.077,-38.212 -13.987,-57.891 z"
   id="path5660" />
				<path
   style="fill:#19283f"
   d="m 1182.607,1126.711 c -5.428,-1.771 -84.056,-50.529 -90.645,-44.379 -6.589,6.15 -10.542,25.477 -7.028,29.87 3.514,4.393 89.035,42.653 89.035,42.653 z"
   id="path5662" />
				<path
   style="fill:#ffffff"
   d="m 1093.108,1119.758 c -0.17,0 -0.343,-0.031 -0.511,-0.096 -0.738,-0.282 -1.107,-1.109 -0.825,-1.848 l 12.715,-33.225 c 0.283,-0.737 1.11,-1.108 1.848,-0.824 0.738,0.282 1.107,1.109 0.825,1.848 l -12.715,33.225 c -0.218,0.569 -0.761,0.92 -1.337,0.92 z"
   id="path5664" />
				<path
   style="fill:#ffffff"
   d="m 1105.823,1125.54 c -0.17,0 -0.343,-0.031 -0.511,-0.096 -0.738,-0.282 -1.107,-1.109 -0.825,-1.848 l 12.716,-33.224 c 0.283,-0.737 1.11,-1.107 1.848,-0.824 0.738,0.282 1.107,1.109 0.825,1.848 l -12.716,33.224 c -0.218,0.569 -0.761,0.92 -1.337,0.92 z"
   id="path5666" />
				<path
   style="fill:#ffffff"
   d="m 1118.539,1131.322 c -0.17,0 -0.343,-0.031 -0.511,-0.096 -0.738,-0.282 -1.107,-1.109 -0.825,-1.848 l 12.715,-33.224 c 0.283,-0.737 1.111,-1.107 1.848,-0.824 0.738,0.282 1.107,1.109 0.825,1.848 l -12.715,33.224 c -0.218,0.57 -0.761,0.92 -1.337,0.92 z"
   id="path5668" />
				<path
   style="fill:#ffffff"
   d="m 1131.254,1137.104 c -0.17,0 -0.343,-0.031 -0.511,-0.096 -0.738,-0.282 -1.107,-1.109 -0.825,-1.848 l 12.716,-33.224 c 0.282,-0.738 1.111,-1.106 1.848,-0.824 0.738,0.282 1.107,1.109 0.825,1.848 l -12.716,33.224 c -0.218,0.57 -0.76,0.92 -1.337,0.92 z"
   id="path5670" />
				<path
   style="fill:#ffffff"
   d="m 1143.97,1144.426 c -0.17,0 -0.343,-0.031 -0.511,-0.096 -0.738,-0.282 -1.107,-1.109 -0.825,-1.848 l 12.715,-33.224 c 0.283,-0.737 1.109,-1.106 1.848,-0.824 0.739,0.282 1.107,1.109 0.825,1.848 l -12.715,33.224 c -0.218,0.569 -0.761,0.92 -1.337,0.92 z"
   id="path5672" />
				<path
   style="fill:#ffffff"
   d="m 1156.686,1150.883 c -0.17,0 -0.343,-0.031 -0.511,-0.096 -0.738,-0.282 -1.107,-1.109 -0.825,-1.848 l 12.716,-33.225 c 0.283,-0.737 1.109,-1.107 1.848,-0.824 0.738,0.282 1.107,1.109 0.825,1.848 l -12.716,33.225 c -0.219,0.569 -0.762,0.92 -1.337,0.92 z"
   id="path5674" />
			</g>
			<g
   id="g5868">
				<g
   id="g5688">
					<defs
   id="defs5679">
						<path
   id="XMLID_16_"
   d="m 1942.942,853.851 c 0,0 -143.227,-75.456 -196.311,-11.36 -53.084,64.096 60.18,143.434 60.18,143.434 z" />
					</defs>
					<use
   xlink:href="#XMLID_16_"
   style="overflow:visible;fill:#ef92c8"
   id="use5681" />
					<clipPath
   id="XMLID_00000030468534866848402610000014558154576044722081_">
						<use
   xlink:href="#XMLID_16_"
   style="overflow:visible"
   id="use5683" />
					</clipPath>
					<path
   style="fill:#fad674"
   d="m 1732.471,835.885 c 1.179,-1.794 67.423,-31.714 110.665,-2.785 43.242,28.929 5.526,96.912 5.526,96.912 l -91.73,25.61 c 0,0 -29.801,-33.599 -32.595,-60.569 -2.794,-26.971 8.134,-59.168 8.134,-59.168 z"
   clip-path="url(#XMLID_00000030468534866848402610000014558154576044722081_)"
   id="path5686" />
				</g>
				<g
   id="g5716">
					<path
   style="fill:#19283f"
   d="m 2050.334,757.115 c 0,0 -14.993,22.083 -14.602,45.451 0.391,23.368 15.585,39.926 15.585,39.926 l 23.518,-79.902 z"
   id="path5690" />
					<path
   style="fill:#f9724d"
   d="m 2150.172,832.587 c 0,-43.304 -24.761,-78.408 -55.306,-78.408 -30.545,0 -55.306,35.105 -55.306,78.408 0,22.487 6.679,42.761 17.376,57.058 -11.389,13.728 -64.839,38.739 -84.914,46.267 l 2.879,6.058 c 10.766,22.651 33.607,37.084 58.687,37.084 v 0 c 28.685,0 55.206,-15.252 69.632,-40.046 l 26.507,-45.555 c 12.474,-14.375 20.445,-36.299 20.445,-60.866 z"
   id="path5692" />
					<path
   style="fill:#19283f"
   d="m 2048.315,790.236 c 0,0 -35.284,-24.617 9,-66.789 24.06,-22.913 47.024,-26.214 59.356,-25.955 2.842,0.06 3.699,3.891 1.159,5.166 -9.917,4.976 -25.182,12.663 -24.169,12.325 1.494,-0.498 62.237,-16.431 91.613,-1.494 29.376,14.937 -42.819,13.941 -42.819,13.941 0,0 60.245,4.979 68.709,31.367 8.464,26.388 -45.806,0 -45.806,0 0,0 35.849,19.916 22.405,23.899 -13.443,3.983 -73.471,4.37 -73.471,4.37"
   id="path5694" />
					<path
   style="fill:#19283f"
   d="m 2106.892,783.335 6.932,31.938 c 1.156,5.327 4.75,9.799 9.703,12.075 v 0 c 0,0 5.088,-18.678 12.619,-12.05 7.531,6.628 2.665,41.842 -12.619,32.705 v 0 c -1.044,11.447 -0.01,22.988 3.053,34.068 l 3.147,11.383 c 0,0 35.261,-24.773 38.146,-47.855 2.885,-23.083 -4.088,-72.855 -4.088,-72.855 z"
   id="path5696" />
					<path
   style="fill:#19283f"
   d="m 2081.245,902.048 c -17.736,0 -25.259,-10.985 -25.621,-11.532 l 2.625,-1.741 -1.313,0.871 1.311,-0.875 c 0.383,0.569 9.642,13.893 32.596,9.074 l 0.646,3.084 c -3.736,0.784 -7.146,1.119 -10.244,1.119 z"
   id="path5698" />
					<path
   style="fill:#19283f"
   d="m 2085.552,821.548 c 0,2.513 -2.038,4.551 -4.551,4.551 -2.513,0 -4.551,-2.037 -4.551,-4.551 0,-2.513 2.038,-4.551 4.551,-4.551 2.514,0 4.551,2.037 4.551,4.551 z"
   id="path5700" />
					<path
   style="fill:#19283f"
   d="m 2055.111,820.573 c 0,2.513 -2.038,4.551 -4.551,4.551 -2.513,0 -4.551,-2.037 -4.551,-4.551 0,-2.513 2.038,-4.551 4.551,-4.551 2.513,0 4.551,2.037 4.551,4.551 z"
   id="path5702" />
					<path
   style="fill:#19283f"
   d="m 2073.376,811.735 c 0,0 14.529,-9.723 28.053,0.447 0,0 0.559,-10.506 -6.929,-12.07 -7.489,-1.565 -21.347,2.905 -21.124,11.623 z"
   id="path5704" />
					<path
   style="fill:#19283f"
   d="m 2059.946,811.934 c 0,0 -8.751,-11.891 -18.9,-7.01 l 3.25,-10.093 c 0,0 17.433,-1.26 15.65,17.103 z"
   id="path5706" />
					<path
   style="fill:#19283f"
   d="m 2052.337,858.565 c -0.215,0 -0.433,-0.037 -0.646,-0.114 -6.016,-2.188 -16.781,-7.458 -18.97,-13.334 -0.478,-1.282 -0.355,-2.695 0.337,-3.877 0.695,-1.187 1.875,-1.989 3.235,-2.2 4.486,-0.695 15.447,-2.802 20.327,-7.326 6.078,-5.635 3.782,-16.09 3.758,-16.195 -0.231,-1.017 0.403,-2.031 1.42,-2.264 1.015,-0.234 2.029,0.398 2.265,1.415 0.119,0.514 2.825,12.68 -4.872,19.816 -5.442,5.046 -16.319,7.359 -22.317,8.29 -0.318,0.049 -0.483,0.256 -0.553,0.375 -0.068,0.116 -0.166,0.354 -0.057,0.646 1.213,3.257 8.557,8.133 16.72,11.101 0.98,0.357 1.487,1.442 1.13,2.423 -0.28,0.767 -1.005,1.244 -1.777,1.244 z"
   id="path5708" />
					<path
   style="fill:#19283f"
   d="m 2063.676,877.856 c -0.69,0 -1.403,-0.028 -2.14,-0.086 -1.041,-0.082 -1.818,-0.993 -1.736,-2.033 0.082,-1.041 0.991,-1.821 2.033,-1.736 10.033,0.797 14.739,-5.046 16.88,-9.682 -15.202,10.44 -27.872,8.541 -28.456,8.444 -1.031,-0.168 -1.73,-1.14 -1.563,-2.17 0.168,-1.029 1.139,-1.727 2.166,-1.563 0.22,0.034 14.396,2.028 30.182,-11.234 0.601,-0.505 1.451,-0.586 2.135,-0.205 0.686,0.381 1.064,1.146 0.952,1.922 -0.027,0.192 -2.863,18.343 -20.453,18.343 z"
   id="path5710" />
					<path
   style="fill:#f9724d"
   d="m 2106.891,788.571 c -0.67,0 -1.228,-0.527 -1.258,-1.203 -0.032,-0.695 0.506,-1.285 1.201,-1.317 l 40.436,-1.847 c 0.691,-0.039 1.285,0.505 1.316,1.201 0.032,0.695 -0.506,1.285 -1.201,1.316 l -40.436,1.847 c -0.019,0.003 -0.039,0.003 -0.058,0.003 z"
   id="path5712" />
					<path
   style="fill:#19283f"
   d="m 2125.018,843.787 c -0.211,0 -0.422,-0.018 -0.631,-0.053 -0.687,-0.117 -1.147,-0.768 -1.03,-1.455 0.117,-0.687 0.783,-1.146 1.454,-1.03 1.946,0.335 5.38,-3.619 7.327,-8.461 1.727,-4.295 1.782,-7.929 0.139,-9.042 -0.679,-0.46 -1.152,-0.375 -1.488,-0.249 -2.493,0.935 -5.029,7.384 -6.042,11.229 -0.177,0.673 -0.867,1.075 -1.539,0.898 -0.674,-0.177 -1.075,-0.866 -0.898,-1.539 0.302,-1.147 3.075,-11.252 7.593,-12.948 1.27,-0.478 2.579,-0.297 3.789,0.522 2.774,1.88 3.068,6.392 0.785,12.069 -2.071,5.148 -5.902,10.059 -9.459,10.059 z"
   id="path5714" />
				</g>
				<g
   id="g5732">
					<defs
   id="defs5719">
						<path
   id="XMLID_14_"
   d="m 2103.221,939.009 c 0,0 -100.607,29.719 -62.175,-38.55 0,0 -52.481,-60.152 -121.726,-43.786 -34.513,8.157 -54.679,26.333 -65.864,48.177 -49.715,97.084 -150.022,157.696 -259.095,157.557 -1.126,-10e-4 -2.255,0 -3.386,-0.01 0,0 240.879,62.867 168.086,279.261 0,0 593.026,-30.384 344.16,-402.65 z" />
					</defs>
					<use
   xlink:href="#XMLID_14_"
   style="overflow:visible;fill:#ef92c8"
   id="use5721" />
					<clipPath
   id="XMLID_00000066479903685656966630000010732108460675035324_">
						<use
   xlink:href="#XMLID_14_"
   style="overflow:visible"
   id="use5723" />
					</clipPath>
					<path
   style="fill:#fad674"
   d="m 1903.124,875.965 182.428,177.215 c 0,0 -40.348,15.502 -89.731,60.398 -49.383,44.896 0,0 0,0 l -184.57,-162.713 c 10e-4,0 62.555,-62.972 91.873,-74.9"
   clip-path="url(#XMLID_00000066479903685656966630000010732108460675035324_)"
   id="path5726" />
					<path
   style="fill:#fad674"
   d="m 1809.03,1255.12 c 0,0 -20.31,84.764 87.334,27.364 20.401,-10.879 112.33,-69.21 112.33,-69.21 l 15.565,78.908 c 0,0 -121.358,63.436 -267.94,59.781 -146.582,-3.655 0,0 0,0 0,0 9.67,-82.496 52.711,-96.843 z"
   clip-path="url(#XMLID_00000066479903685656966630000010732108460675035324_)"
   id="path5728" />
					<path
   style="fill:#ef92c8"
   d="m 1741.724,1000.034 c 3.781,0.847 51.772,73.729 247.691,70.339 l -197.3,-118.644 z"
   clip-path="url(#XMLID_00000066479903685656966630000010732108460675035324_)"
   id="path5730" />
				</g>
				<path
   style="fill:#19283f"
   d="m 1722.709,1346.115 c 0,0 116.106,15.29 101.935,-93.356 -14.171,-108.646 -104.33,-227.669 -104.33,-227.669 z"
   id="path5734" />
				<g
   id="g5748">
					<defs
   id="defs5737">
						<path
   id="XMLID_4_"
   d="m 1723.511,1034.108 c 0,0 -40.252,-123.737 -107.338,-146.815 -16.069,-5.528 -30.169,1.389 -42.324,15.098 -40.741,30.696 -138.506,110.705 -117.334,157.045 18.987,41.557 74.727,101.495 105.061,132.385 -3.528,23.293 -7.594,61.336 -3.544,95.725 12.282,104.312 196.787,141.627 220.64,28.325 23.853,-113.301 -55.161,-281.763 -55.161,-281.763 z" />
					</defs>
					<use
   xlink:href="#XMLID_4_"
   style="overflow:visible;fill:#6c50b7"
   id="use5739" />
					<clipPath
   id="XMLID_00000160149471600263403140000016864204414357504702_">
						<use
   xlink:href="#XMLID_4_"
   style="overflow:visible"
   id="use5741" />
					</clipPath>
					<path
   style="fill:#19283f"
   d="m 1472.485,990.813 c 0,0 -22.214,113.425 97.065,84.733 119.279,-28.692 108.284,-87.376 108.284,-87.376 l -205.349,2.643"
   clip-path="url(#XMLID_00000160149471600263403140000016864204414357504702_)"
   id="path5744" />
					<path
   style="fill:#19283f"
   d="m 1740.219,1206.321 c 0,0 30.897,59.2 29.455,93.644 -1.442,34.444 -40.366,68.363 -78.61,69.061 -68.293,1.246 -115.059,-27.761 -111.259,-94.295 3.8,-66.533 160.414,-68.41 160.414,-68.41"
   clip-path="url(#XMLID_00000160149471600263403140000016864204414357504702_)"
   id="path5746" />
				</g>
				<g
   id="g5760">
					<defs
   id="defs5751">
						<path
   id="XMLID_21_"
   d="m 1740.219,1206.321 c 0,0 -50.467,-109.947 -140.588,-106.342 -90.12,3.605 -126.168,43.258 -405.541,18.024 0,0 -19.827,46.773 16.222,71.15 36.048,24.377 116.79,71.407 369.493,85.578 0,0 -0.068,69.557 102.737,61.363 119.797,-9.548 57.677,-129.773 57.677,-129.773 z" />
					</defs>
					<use
   xlink:href="#XMLID_21_"
   style="overflow:visible;fill:#f9724d"
   id="use5753" />
					<clipPath
   id="XMLID_00000134213550740245421690000000664924242555652242_">
						<use
   xlink:href="#XMLID_21_"
   style="overflow:visible"
   id="use5755" />
					</clipPath>
					<path
   style="fill:#ef92c8"
   d="m 1567.156,1227.508 81.325,-8.738 c 0,0 -35.185,93.228 9.245,133.636 0,0 -64.354,3.304 -77.921,-10.746 -13.567,-14.05 -52.138,-67.315 -12.649,-114.152 z"
   clip-path="url(#XMLID_00000134213550740245421690000000664924242555652242_)"
   id="path5758" />
				</g>
				<path
   style="fill:#ef92c8"
   d="m 2028.229,1278.172 c 0,0 -52.08,-83.38 -43.049,-140.597 0,0 -40.47,42.595 -11.041,162.391 0,-10e-4 29.466,-10.456 54.09,-21.794 z"
   id="path5762" />
				<g
   id="g5774">
					<defs
   id="defs5765">
						<path
   id="XMLID_15_"
   d="m 2157.562,1053.18 32.607,198.938 -165.909,70.184 c 0,0 -47.49,-117.408 -39.08,-184.727 8.409,-67.319 172.382,-84.395 172.382,-84.395 z" />
					</defs>
					<use
   xlink:href="#XMLID_15_"
   style="overflow:visible;fill:#ef92c8"
   id="use5767" />
					<clipPath
   id="XMLID_00000132809305169350506310000004631339822649091460_">
						<use
   xlink:href="#XMLID_15_"
   style="overflow:visible"
   id="use5769" />
					</clipPath>
					<path
   style="fill:#fad674"
   d="m 2012.814,1306.821 c 0,0 2.474,-44.983 78.351,-72.83 75.877,-27.847 128.893,14.994 128.893,14.994 l -9.104,23.027 c 0,0 -172.971,62.926 -178.326,74.84 l -21.421,-19.146 z"
   clip-path="url(#XMLID_00000132809305169350506310000004631339822649091460_)"
   id="path5772" />
				</g>
				<path
   style="fill:#19283f"
   d="m 1843.541,925.611 -2.346,-2.104 c 35.795,-39.889 70.858,-55.664 93.971,-61.875 25.146,-6.758 41.599,-4.059 42.286,-3.941 l -0.532,3.105 c -0.163,-0.027 -16.595,-2.699 -41.128,3.93 -22.652,6.121 -57.045,21.652 -92.251,60.885 z"
   id="path5776" />
				<g
   id="g5788">
					<defs
   id="defs5779">
						<path
   id="XMLID_20_"
   d="m 1675.556,971.23 -99.935,-220.802 -76.395,-351.31 -41.408,21.364 c 0,0 -72.178,296.174 -1.829,370.979 0,0 -40.133,255.699 103.937,261.447 144.07,5.748 115.63,-81.678 115.63,-81.678 z" />
					</defs>
					<use
   xlink:href="#XMLID_20_"
   style="overflow:visible;fill:#f9724d"
   id="use5781" />
					<clipPath
   id="XMLID_00000181057830913957451480000005184986118419096987_">
						<use
   xlink:href="#XMLID_20_"
   style="overflow:visible"
   id="use5783" />
					</clipPath>
					<path
   style="fill:#ef92c8"
   d="m 1521.982,734.972 c 0,0 -40.348,207.033 -13.545,301.372 26.803,94.339 0,0 0,0 l -64.743,-42.978 -37.145,-239.188 z"
   clip-path="url(#XMLID_00000181057830913957451480000005184986118419096987_)"
   id="path5786" />
				</g>
				<path
   style="fill:#19283f"
   d="m 1590.065,1277.173 c -6.221,0 -10.465,-0.874 -10.595,-0.901 l 0.667,-3.08 c 1.548,0.334 38.151,7.8 52.742,-25.187 l 2.881,1.275 c -10.612,23.995 -32.559,27.893 -45.695,27.893 z"
   id="path5790" />
				<path
   style="fill:#19283f"
   d="m 1752.635,929.703 c 0,0 -45.691,-96.408 49.928,-103.604 95.619,-7.196 52.88,103.604 52.88,103.604 z"
   id="path5792" />
				<path
   style="fill:#19283f"
   d="m 2024.26,1322.302 c 0,0 61.894,70.28 165.909,-70.184 0,0 -130.678,-41.8 -165.909,70.184 z"
   id="path5794" />
				<path
   style="fill:#19283f"
   d="m 1990.64,1124.564 -2.449,-1.982 c 41.514,-51.32 85.426,-67.881 114.953,-72.736 16.743,-2.754 30.744,-2.116 39.544,-1.098 9.574,1.108 15.122,2.857 15.354,2.931 l -0.958,3.002 c -0.219,-0.068 -22.236,-6.892 -53.602,-1.697 -28.941,4.793 -72.011,21.103 -112.842,71.58 z"
   id="path5796" />
				<path
   style="fill:#19283f"
   d="m 1733.703,1098.586 c -50.193,-24.956 -128.839,-8.228 -142.243,-3.901 l -0.969,-2.998 c 13.606,-4.393 93.47,-21.349 144.614,4.077 z"
   id="path5798" />
				<g
   id="g5812">
					<defs
   id="defs5801">
						<path
   id="XMLID_17_"
   d="m 1194.09,1118.004 c 0,0 136.936,6.679 231.101,0 94.165,-6.679 171.665,-20.829 171.665,-20.829 0,0 29.811,95.457 -45.343,175.787 0,0 -215.736,-1.038 -348.175,-76.333 -15.192,-8.637 -25.309,-24.309 -25.955,-41.773 -0.436,-11.793 3.28,-25.079 16.707,-36.852 z" />
					</defs>
					<use
   xlink:href="#XMLID_17_"
   style="overflow:visible;fill:#fad674"
   id="use5803" />
					<clipPath
   id="XMLID_00000067951562729427320710000000999667639367405220_">
						<use
   xlink:href="#XMLID_17_"
   style="overflow:visible"
   id="use5805" />
					</clipPath>
					<path
   style="fill:#ef92c8"
   d="m 1453.55,1106.585 c 0,0 17.339,77.298 -44.45,166.376 l 63.385,9.163 c 0,0 84.086,-105.424 46.189,-180.411 z"
   clip-path="url(#XMLID_00000067951562729427320710000000999667639367405220_)"
   id="path5808" />
					<path
   style="fill:#ef92c8"
   d="m 1177.383,1154.856 c 0,0 194.297,80.916 413.592,98.306 l -53.146,40.576 c 0,0 -251.107,-33.882 -355.222,-87.429 0,0 -31.784,-26.871 -5.224,-51.453"
   clip-path="url(#XMLID_00000067951562729427320710000000999667639367405220_)"
   id="path5810" />
				</g>
				<g
   id="g5826">
					<defs
   id="defs5815">
						<path
   id="XMLID_18_"
   d="m 1453.55,407.02 c 0,0 -67.897,238.624 -12.775,360.345 0,0 63.031,15.249 130.922,-69.886 l -71.196,-315.784 z" />
					</defs>
					<use
   xlink:href="#XMLID_18_"
   style="overflow:visible;fill:#fad674"
   id="use5817" />
					<clipPath
   id="XMLID_00000165218631633641754770000009768701837169565603_">
						<use
   xlink:href="#XMLID_18_"
   style="overflow:visible"
   id="use5819" />
					</clipPath>
					<path
   style="fill:#ef92c8"
   d="m 1408.986,629.824 c 0,0 103.201,-18.351 147.437,-67.73 l 8.23,58.638 c 0,0 -50.64,79.427 -155.454,76.748 z"
   clip-path="url(#XMLID_00000165218631633641754770000009768701837169565603_)"
   id="path5822" />
					<path
   style="fill:#ef92c8"
   d="m 1468.183,410.803 c 0,0 -56.809,185.401 4.302,368.555 l -63.287,-1.189 c 0,0 -40.029,-309.909 44.352,-371.148 84.381,-61.239 0,0 0,0 z"
   clip-path="url(#XMLID_00000165218631633641754770000009768701837169565603_)"
   id="path5824" />
				</g>
				<g
   id="g5844">
					<g
   id="g5838">
						<defs
   id="defs5829">
							<path
   id="XMLID_23_"
   d="m 1846.174,855.071 244.992,234.668 -51.025,9.948 c 0,0 -337.622,-112.647 -293.02,-223.997 16.015,-39.982 67.948,-50.412 99.053,-20.619 z" />
						</defs>
						<use
   xlink:href="#XMLID_23_"
   style="overflow:visible;fill:#f9724d"
   id="use5831" />
						<clipPath
   id="XMLID_00000009570430570260048910000016830666404981647254_">
							<use
   xlink:href="#XMLID_23_"
   style="overflow:visible"
   id="use5833" />
						</clipPath>
						<path
   style="fill:#ef92c8"
   d="m 1847.949,848.391 c 0,0 -53.216,31.676 -35.477,86.793 17.739,55.117 63.497,93.761 63.497,93.761 0,0 -123.97,-39.811 -141.565,-60.134 -17.594,-20.323 -26.858,-97.955 -7.316,-112.137 19.543,-14.183 87.304,-48.807 120.861,-8.283 z"
   clip-path="url(#XMLID_00000009570430570260048910000016830666404981647254_)"
   id="path5836" />
					</g>
					<path
   style="fill:#f9724d"
   d="m 2150.172,1119.162 -17.628,-9.781 v 0 c 0,0 -20.097,-25.222 -31.567,-32.104 -11.469,-6.881 -38.505,-15.022 -38.505,-15.022 0,0 -0.743,4.784 0.316,10.431 h -1.691 l -32.869,20.387 17.969,26.506 8.624,37.659 c 1.237,5.403 6.045,9.234 11.587,9.234 l -5.312,-47.274 53.6,19.67 c 6.5,2.385 13.646,2.327 20.106,-0.163 l 2.929,-1.129 -58.612,-32.914 52.931,17.079 c 6.117,1.973 12.8,1.022 18.122,-2.579 z"
   id="path5840" />
					
						<rect
   x="2106.655"
   y="1071.076"
   transform="matrix(0.4256,-0.9049,0.9049,0.4256,217.3839,2538.3677)"
   style="fill:#19283f"
   width="3.151"
   height="53.737"
   id="rect5842" />
				</g>
				<g
   id="g5866">
					<path
   style="fill:#f9724d"
   d="m 2366.862,1668.436 58.981,30.317 -0.291,0.194 c -4.996,3.335 -11.191,4.342 -16.986,2.761 l -31.98,-8.728 49.257,23.451 -5.628,2.747 c -3.841,1.875 -8.257,2.195 -12.329,0.895 l -41.023,-13.098 33.175,18.534 -5.369,2.036 c -3.603,1.367 -7.587,1.339 -11.17,-0.079 l -40.332,-15.953 8.077,38.581 v 0 c -3.272,-1.128 -5.997,-3.453 -7.626,-6.506 l -31.239,-58.533 z"
   id="path5846" />
					<g
   id="g5858">
						<defs
   id="defs5849">
							<path
   id="XMLID_22_"
   d="m 2165.814,1266.698 10.867,123.159 173.652,271.051 -39.882,11.357 c 0,0 -205.564,-124.623 -241.35,-264.491 l -26.053,-89.665 c 0,0 15.416,-43.784 61.376,-51.412 45.961,-7.627 61.39,0 61.39,0 z" />
						</defs>
						<use
   xlink:href="#XMLID_22_"
   style="overflow:visible;fill:#f9724d"
   id="use5851" />
						<clipPath
   id="XMLID_00000119838098147213551680000017548805682803126437_">
							<use
   xlink:href="#XMLID_22_"
   style="overflow:visible"
   id="use5853" />
						</clipPath>
						<path
   style="fill:#ef92c8"
   d="m 2176.682,1284.712 c 0,0 -119.594,22.996 -133.632,99.129 l -14.821,-78.857 c 0,0 37.28,-60.504 109.339,-60.503 72.058,10e-4 39.114,40.231 39.114,40.231 z"
   clip-path="url(#XMLID_00000119838098147213551680000017548805682803126437_)"
   id="path5856" />
					</g>
					<path
   style="fill:#19283f"
   d="m 2126.791,1399.563 -2.322,-2.129 c 20.153,-21.986 52.482,-9.167 52.807,-9.035 l -1.188,2.918 c -0.303,-0.124 -30.637,-12.11 -49.297,8.246 z"
   id="path5860" />
					<path
   style="fill:#f9724d"
   d="m 2371.291,1670.404 c 2.255,-2.715 3.821,-5.325 3.914,-7.276 0.341,-7.167 -33.399,-15.531 -33.399,-15.531 0,0 -0.794,2.595 -1.902,6.62 l -40.049,11.32 c 0,0 9.965,28.411 28.445,35.519 18.48,7.108 60.418,-13.505 63.971,-14.216 1.716,-0.343 -9.213,-8.298 -20.98,-16.436 z"
   id="path5862" />
					<path
   style="fill:#19283f"
   d="m 2359.163,1687.683 -1.169,-0.711 c -3.402,-2.068 -11.096,-7.315 -9.067,-11.346 1.542,-3.064 5.523,-13.29 5.563,-13.394 l 2.937,1.143 c -0.165,0.426 -4.075,10.47 -5.685,13.667 -0.258,0.846 2.719,3.862 6.736,6.508 l 11.595,-14.145 2.438,1.998 z"
   id="path5864" />
				</g>
			</g>
			<path
   style="fill:#6c50b7"
   d="m 1570.2,240.318 v 0 c 2.926,10.884 2.172,22.43 -2.146,32.84 l -59.617,143.73 c 0,0 -27.047,-11.687 -60.411,11.411 l -38.828,-21.38 z"
   id="path5870" />
			<g
   id="g5900">
				<defs
   id="defs5873">
					<path
   id="XMLID_19_"
   d="m 1896.698,348.863 c 0,89.632 -72.661,162.294 -162.294,162.294 -89.632,0 -127.342,-72.661 -127.342,-162.294 0,-89.632 37.71,-162.294 127.342,-162.294 89.633,0 162.294,72.661 162.294,162.294 z" />
				</defs>
				<use
   xlink:href="#XMLID_19_"
   style="overflow:visible;fill:#fad674"
   id="use5875" />
				<clipPath
   id="XMLID_00000158730242185187216640000011166519796008895896_">
					<use
   xlink:href="#XMLID_19_"
   style="overflow:visible"
   id="use5877" />
				</clipPath>
				<path
   style="fill:#6c50b7"
   d="m 1617.843,224.586 c 0,0 130.348,248.964 271.124,251.571 0,0 -66.477,101.671 -177.273,71.691 -110.796,-29.98 -129.044,-70.748 -129.044,-137.046 0,-66.298 35.193,-186.216 35.193,-186.216 z"
   clip-path="url(#XMLID_00000158730242185187216640000011166519796008895896_)"
   id="path5880" />
				<path
   style="fill:#19283f"
   d="m 1798.152,339.527 c 0,25.555 -35.578,53.073 -61.133,53.073 -25.555,0 -38.163,-29.277 -38.163,-54.832 0,-25.555 27.469,-44.513 53.024,-44.513 25.556,10e-4 46.272,20.717 46.272,46.272 z"
   clip-path="url(#XMLID_00000158730242185187216640000011166519796008895896_)"
   id="path5882" />
				<path
   style="fill:#19283f"
   d="m 1813.032,186.569 c 0,25.555 -35.596,39.604 -61.151,39.604 -25.555,0 -61.156,-18.152 -61.156,-43.708 0,-25.556 35.601,-39.087 61.156,-39.087 25.555,0.001 61.151,17.636 61.151,43.191 z"
   clip-path="url(#XMLID_00000158730242185187216640000011166519796008895896_)"
   id="path5884" />
				<path
   style="fill:#19283f"
   d="m 1949.512,335.423 c 0,25.555 -7.013,57.407 -32.568,57.407 -25.555,0 -59.975,-31.852 -59.975,-57.407 0,-25.555 35.243,-68.859 60.798,-68.859 25.555,10e-4 31.745,43.304 31.745,68.859 z"
   clip-path="url(#XMLID_00000158730242185187216640000011166519796008895896_)"
   id="path5886" />
				
					<circle
   transform="matrix(0.7071,-0.7071,0.7071,0.7071,137.7653,1382.7109)"
   style="fill:#19283f"
   cx="1737.962"
   cy="525.05798"
   clip-path="url(#XMLID_00000158730242185187216640000011166519796008895896_)"
   id="ellipse5888"
   r="46.271999" />
				
					<circle
   transform="matrix(0.2298,-0.9732,0.9732,0.2298,877.9984,1815.0917)"
   style="fill:#19283f"
   cx="1585.733"
   cy="352.84601"
   clip-path="url(#XMLID_00000158730242185187216640000011166519796008895896_)"
   id="ellipse5890"
   r="46.271999" />
				<path
   style="fill:#19283f"
   d="m 1823.638,321.79 c -35.718,0 -64.776,-25.709 -64.776,-57.31 0,-31.601 29.059,-57.31 64.776,-57.31 35.717,0 64.775,25.709 64.775,57.31 0,31.602 -29.058,57.31 -64.775,57.31 z m 0,-111.92 c -34.229,0 -62.077,24.499 -62.077,54.611 0,30.112 27.848,54.611 62.077,54.611 34.229,0 62.076,-24.499 62.076,-54.611 0,-30.112 -27.848,-54.611 -62.076,-54.611 z"
   clip-path="url(#XMLID_00000158730242185187216640000011166519796008895896_)"
   id="path5892" />
				<path
   style="fill:#19283f"
   d="m 1824.896,517.401 c -22.947,0 -44.462,-9.361 -60.582,-26.359 -15.448,-16.289 -24.308,-38.271 -24.308,-60.311 0,-21.838 8.67,-41.684 24.412,-55.882 15.535,-14.01 37.013,-21.726 60.478,-21.726 48.195,0 87.405,36.847 87.405,82.139 0,45.292 -39.21,82.139 -87.405,82.139 z m 0,-160.524 c -47.014,0 -81.136,31.06 -81.136,73.854 0,21.088 8.484,42.129 23.277,57.728 15.404,16.243 35.952,25.188 57.858,25.188 46.126,0 83.651,-35.163 83.651,-78.385 0,-43.222 -37.525,-78.385 -83.65,-78.385 z"
   clip-path="url(#XMLID_00000158730242185187216640000011166519796008895896_)"
   id="path5894" />
				<path
   style="fill:#19283f"
   d="m 1654.569,510.231 c -8.183,0 -16.313,-1.192 -24.151,-3.596 -20.058,-6.151 -35.792,-19.493 -44.304,-37.568 -8.513,-18.075 -8.775,-38.702 -0.741,-58.082 8.01,-19.322 23.317,-35.095 43.104,-44.414 19.966,-9.403 40.076,-11.25 58.159,-5.34 17.691,5.782 32.148,18.975 40.707,37.148 8.76,18.602 10.309,39.323 4.36,58.346 -6.225,19.907 -20.285,35.878 -39.593,44.97 -12.029,5.666 -24.847,8.536 -37.541,8.536 z m 10.535,-148.918 c -11.418,0 -23.298,2.813 -35.149,8.395 -19.004,8.95 -33.7,24.081 -41.379,42.605 -7.655,18.467 -7.415,38.098 0.676,55.278 8.091,17.181 23.071,29.87 42.184,35.731 19.172,5.879 40.194,4.188 59.2,-4.762 v 0 c 18.419,-8.674 31.829,-23.898 37.761,-42.868 5.688,-18.192 4.2,-38.021 -4.188,-55.834 -8.147,-17.301 -21.873,-29.848 -38.647,-35.33 -6.569,-2.148 -13.426,-3.215 -20.458,-3.215 z"
   clip-path="url(#XMLID_00000158730242185187216640000011166519796008895896_)"
   id="path5896" />
				<path
   style="fill:#19283f"
   d="m 1656.743,333.067 c -8.311,0 -16.501,-1.355 -24.302,-4.083 -18.531,-6.48 -33.48,-20.122 -42.094,-38.411 -8.703,-18.48 -10.126,-36.509 -4.115,-52.137 6.091,-15.837 19.841,-29.168 39.765,-38.55 20.143,-9.486 40.048,-11.776 57.566,-6.622 17.702,5.208 31.608,17.621 40.215,35.897 18.926,40.188 6.473,77.779 -31.726,95.769 -11.479,5.406 -23.513,8.137 -35.309,8.137 z m 7.745,-139.02 c -11.823,0 -24.354,3.015 -37.015,8.977 -19.1,8.994 -32.241,21.67 -38.006,36.658 -5.663,14.724 -4.273,31.811 4.017,49.415 8.214,17.441 22.455,30.445 40.102,36.616 18.009,6.298 38.249,4.907 56.99,-3.918 18.589,-8.754 31.037,-22.264 35.998,-39.068 4.688,-15.878 2.637,-33.89 -5.933,-52.087 -8.173,-17.354 -21.332,-29.128 -38.057,-34.048 -5.776,-1.7 -11.837,-2.545 -18.096,-2.545 z"
   clip-path="url(#XMLID_00000158730242185187216640000011166519796008895896_)"
   id="path5898" />
			</g>
			<path
   style="fill:#19283f"
   d="m 1570.771,241.691 c 0.502,3.013 -0.056,6.104 -1.382,8.856 -3.088,6.407 -10.816,21.328 -22.215,35.837 -15.069,19.178 -65.069,47.946 -79.453,69.179 -14.384,21.233 -11.566,69.151 -58.523,51.356 0,0 -5.536,-12.914 39.941,-62.32 0,-10e-4 115.755,-138.205 121.632,-102.908 z"
   id="path5902" />
			<path
   style="fill:#19283f"
   d="m 1511.849,833.118 c -15.639,-27.175 -36.727,-77.824 -48.375,-164.792 -6.959,-51.957 -7.239,-92.851 -7.241,-93.257 l 3.15,-0.016 c 0.01,1.62 1.431,163.069 55.196,256.494 z"
   id="path5904" />
			<path
   style="fill:#19283f"
   d="m 1468.638,1207.819 c -34.131,0 -62.054,-1.549 -79.309,-2.83 -1.598,-0.119 -2.859,-0.213 -3.091,-0.213 v -3.15 c 0.329,0 1.111,0.057 3.324,0.221 44.235,3.286 158.881,8.337 267.826,-15.644 l 0.678,3.076 c -66.831,14.711 -135.787,18.54 -189.428,18.54 z"
   id="path5906" />
		</g>
		<g
   id="g5916">
			
				<rect
   x="1538.4919"
   y="413.367"
   transform="matrix(0.9755,-0.2199,0.2199,0.9755,-84.8356,352.3631)"
   style="fill:#19283f"
   width="3.151"
   height="287.634"
   id="rect5910" />
			<path
   style="fill:#19283f"
   d="m 1308.938,1123.111 c -67.301,0 -114.18,-3.477 -114.967,-3.536 l 0.239,-3.143 c 1.332,0.103 134.751,9.993 275.59,-3.797 l 0.307,3.137 c -57.839,5.663 -114.43,7.339 -161.169,7.339 z"
   id="path5912" />
			<path
   style="fill:#19283f"
   d="m 1766.301,1348.417 -0.379,-3.128 c 1.668,-0.202 167.649,-20.655 244.43,-60.824 l 1.461,2.791 c -77.292,40.436 -243.839,60.958 -245.512,61.161 z"
   id="path5914" />
		</g>
	</g>
	<g
   id="g5924">
		<path
   style="fill:#19283f"
   d="m 1410.11,1708.414 c -18.752,0 -37.385,-0.293 -55.926,-0.881 -160.921,-5.099 -312.569,-32.439 -450.731,-81.263 C 753.832,1573.398 619.178,1494.93 503.23,1393.047 l 1.32,-1.502 c 115.755,101.714 250.19,180.052 399.569,232.839 137.969,48.755 289.414,76.058 450.128,81.149 148.905,4.72 304.904,-9.56 463.669,-42.438 148.804,-30.814 296.886,-77.211 440.132,-137.901 133.587,-56.597 248.988,-121.255 352.798,-197.668 l 1.186,1.611 c -103.938,76.506 -219.471,141.239 -353.203,197.898 -143.366,60.741 -291.574,107.178 -440.506,138.018 -139.152,28.817 -276.207,43.361 -408.213,43.361 z"
   id="path5920" />
		<path
   style="fill:#19283f"
   d="m 1754.158,1839.414 c -35.092,-6.568 -70.509,-14.744 -105.27,-24.302 -79.462,-21.849 -158.396,-52.286 -234.606,-90.468 -74.406,-37.278 -146.875,-82.258 -215.392,-133.691 -67.52,-50.684 -131.655,-107.968 -190.627,-170.263 C 949.532,1358.65 895.596,1291.296 847.95,1220.5 799.977,1149.215 758.107,1074.026 723.505,997.022 688.302,918.683 660.37,837.893 640.484,756.898 598.633,586.444 592.065,417.003 620.962,253.281 l 1.97,0.348 c -28.848,163.446 -22.289,332.61 19.495,502.792 19.857,80.878 47.75,161.553 82.903,239.782 34.556,76.901 76.37,151.99 124.28,223.181 47.583,70.706 101.451,137.973 160.105,199.933 58.895,62.213 122.947,119.423 190.376,170.039 68.422,51.361 140.788,96.277 215.087,133.502 76.094,38.123 154.905,68.514 234.241,90.328 34.707,9.542 70.07,17.706 105.106,24.264 z"
   id="path5922" />
	</g>
</g>
</svg>
