<?xml version="1.0" encoding="UTF-8" standalone="no"?>
<!-- Generator: Adobe Illustrator 27.5.0, SVG Export Plug-In . SVG Version: 6.00 Build 0)  -->

<svg
   version="1.1"
   id="Layer_1"
   x="0px"
   y="0px"
   viewBox="0 0 1107.8527 1000.7036"
   xml:space="preserve"
   sodipodi:docname="tigre.svg"
   width="1107.8527"
   height="1000.7036"
   inkscape:version="1.2.2 (b0a84865, 2022-12-01)"
   xmlns:inkscape="http://www.inkscape.org/namespaces/inkscape"
   xmlns:sodipodi="http://sodipodi.sourceforge.net/DTD/sodipodi-0.dtd"
   xmlns="http://www.w3.org/2000/svg"
   xmlns:svg="http://www.w3.org/2000/svg"><defs
   id="defs2044">
	
	
	
	
	
	
	
	
	
	
	
	
	
	
	
	
	
	
	
	
	
	
	
	
	
	
	
	
</defs><sodipodi:namedview
   id="namedview2042"
   pagecolor="#ffffff"
   bordercolor="#000000"
   borderopacity="0.25"
   inkscape:showpageshadow="2"
   inkscape:pageopacity="0.0"
   inkscape:pagecheckerboard="0"
   inkscape:deskcolor="#d1d1d1"
   showgrid="false"
   inkscape:zoom="0.21851852"
   inkscape:cx="810"
   inkscape:cy="487.37288"
   inkscape:window-width="1920"
   inkscape:window-height="1027"
   inkscape:window-x="1728"
   inkscape:window-y="62"
   inkscape:window-maximized="1"
   inkscape:current-layer="Layer_1" />
<path
   style="clip-rule:evenodd;fill:#fefefe;fill-rule:evenodd;stroke-width:0.763471"
   d="m 1038.8448,785.18216 v 165.10151 l -60.71432,-26.35741 c -36.2794,-15.7496 -73.8842,-28.4935 -112.086,-38.8752 l -0.073,-0.02 -0.047,-0.013 -1.8797,-0.5085 -0.158,-0.043 c -1.3735,-0.3695 -2.747,-0.736 -4.1213,-1.1002 l -0.053,-0.014 -0.3398,-0.09 -1.7338,-0.4565 -0.025,-0.01 c -1.3895,-0.3641 -2.7798,-0.7253 -4.1708,-1.0833 l -0.086,-0.022 c -2.0637,-0.5313 -4.1281,-1.0558 -6.19408,-1.5735 v -7.1e-4 c -7.5347,-1.88959 -15.0885,-3.69219 -22.6552,-5.41309 l -37.5514,-8.53791 -54.53015,31.4825 -178.49884,103.05575 -178.49884,-103.05574 -54.53017,-31.4825 -37.55134,8.5379 c -10.13508,2.3042 -20.24726,4.7565 -30.32279,7.3675 -1.30172,0.3375 -2.60344,0.6772 -3.90363,1.02 l -0.0367,0.01 -0.12444,0.033 c -1.24446,0.3283 -2.48816,0.6589 -3.73109,0.9918 l -0.18552,0.05 -1.86287,0.5016 -0.21148,0.057 -1.52008,0.4122 -0.1901,0.052 -0.0451,0.012 -0.30844,0.084 -1.35516,0.371 -0.30081,0.082 -0.17101,0.047 -1.57657,0.4344 -0.21607,0.06 -0.29775,0.082 -1.62696,0.4528 -0.0382,0.011 -0.042,0.012 c -0.6375,0.1779 -1.27576,0.3573 -1.91326,0.5367 l -0.0275,0.01 -1.4712,0.4161 -0.46801,0.1329 -0.1588,0.045 -1.63307,0.4657 -0.1672,0.048 -0.12903,0.037 c -33.905,9.7151 -67.2748,21.3588 -99.59102,35.3876 L 69.00691,950.28287 V 785.18216 L 0,750.53356 V 359.11477 h 95.24687 84.95527 c 0.80088,-20.27321 3.23483,-40.47924 7.30337,-60.35852 4.93202,-24.09667 12.25982,-47.69863 21.84521,-70.35083 9.40902,-22.23991 20.98706,-43.55757 34.50585,-63.56663 13.39663,-19.82506 28.69125,-38.36213 45.60977,-55.28067 16.91929,-16.918515 35.45638,-32.213905 55.2822,-45.609005 C 364.7576,50.430325 386.07296,38.85153 408.31288,29.4425 430.96507,19.85865 454.5655,12.52932 478.66294,7.59806 503.41087,2.53243 528.6665,0 553.92595,0 c 25.26021,0 50.51584,2.53243 75.26377,7.59806 24.09744,4.93126 47.69787,12.26059 70.35007,21.84444 22.23992,9.40903 43.55527,20.988595 63.56433,34.506615 19.82658,13.39587 38.36218,28.69049 55.28068,45.609005 16.9178,16.917 32.21468,35.45332 45.60978,55.27762 13.5203,20.01058 25.0983,41.32977 34.5081,63.57045 9.5831,22.6522 16.9124,46.25339 21.8437,70.3493 4.0685,19.88004 6.5032,40.08607 7.3034,60.36005 h 84.95602 95.2469 v 391.41878 z m -17.2552,-10.6443 9.3586,-4.69916 v 0 l 59.647,-29.94947 V 376.37076 h -91.69832 -89.0253 c 0.01,-0.78409 0.01,-1.56894 0.01,-2.35302 0,-24.04553 -2.4096,-48.08191 -7.2316,-71.64034 -4.6923,-22.92704 -11.6644,-45.37997 -20.7833,-66.93277 -8.9555,-21.16571 -19.9731,-41.45344 -32.8392,-60.49594 C 836.2768,156.07797 821.7174,138.43415 805.6128,122.33101 789.5073,106.22634 771.8643,91.666945 752.99201,78.916205 733.95028,66.050185 713.66637,55.032535 692.50218,46.077775 670.94862,36.95888 648.49569,29.98533 625.56865,25.29304 c -23.55844,-4.82209 -47.59557,-7.2316 -71.64186,-7.2316 -24.04553,0 -48.08267,2.40951 -71.6411,7.2316 -22.92705,4.69229 -45.37998,11.66584 -66.93354,20.784735 -21.16495,8.95476 -41.44885,19.97241 -60.49059,32.83843 -18.87225,12.75074 -36.51608,27.310135 -52.6215,43.414805 -16.10467,16.10543 -30.66407,33.74849 -43.41556,52.6215 -12.86679,19.04097 -23.88368,39.32641 -32.83843,60.49212 -9.11891,21.5528 -16.09093,44.00649 -20.78322,66.9343 -4.82209,23.55767 -7.2316,47.59328 -7.2316,71.63881 0,0.78408 0.003,1.56893 0.008,2.35302 H 108.95468 17.25566 v 363.51848 l 69.00636,34.64862 v 149.4434 l 36.58783,-15.8825 1.96823,-0.8513 0.3909,-0.1679 0.52832,-0.226 1.63612,-0.6993 0.55734,-0.23671 1.52999,-0.649 0.82761,-0.34889 1.80332,-0.75661 0.2695,-0.113 2.24919,-0.9352 0.0748,-0.031 0.0145,-0.01 1.98427,-0.8176 0.37868,-0.1558 0.56726,-0.2313 1.67429,-0.68179 0.39853,-0.1619 1.92777,-0.7787 0.29851,-0.1206 2.13925,-0.8551 0.2237,-0.089 2.3179,-0.9177 0.0298,-0.012 1.99877,-0.7841 0.36647,-0.1435 1.63459,-0.6352 0.765,-0.2962 0.59856,-0.2306 1.08794,-0.4184 1.42693,-0.5466 0.45579,-0.1733 1.58879,-0.6039 0.0924,-0.035 1.96517,-0.7405 0.0458,-0.017 2.01251,-0.752 0.35425,-0.1321 1.65979,-0.6146 0.75584,-0.2787 0.4451,-0.1634 1.48953,-0.5451 0.48328,-0.1771 0.86196,-0.313 1.55901,-0.5642 0.4619,-0.1672 1.96212,-0.7032 0.0603,-0.022 2.02473,-0.72001 0.34204,-0.12139 0.5413,-0.19011 1.71704,-0.6047 0.5352,-0.187 1.40097,-0.4886 1.30095,-0.452 0.24813,-0.086 1.55366,-0.5352 0.4787,-0.1641 1.95907,-0.6688 0.0756,-0.025 2.03618,-0.6894 1.4086,-0.47339 0.62987,-0.2115 0.73293,-0.24501 0.5726,-0.1901 1.22919,-0.4077 1.50481,-0.4963 0.11146,-0.036 c 2.64772,-0.8696 5.30078,-1.72771 7.9569,-2.5729 l 0.23515,-0.075 1.56054,-0.494 0.41151,-0.1298 1.12993,-0.3557 0.92151,-0.2886 0.7108,-0.2214 1.27728,-0.397 0.0649,-0.021 1.94761,-0.6017 0.10765,-0.033 2.05603,-0.6299 1.69567,-0.5153 0.55046,-0.1664 1.81859,-0.5467 0.0786,-0.024 1.93387,-0.5771 0.31761,-0.094 1.84378,-0.5452 1.93998,-0.571 0.12292,-0.035 2.06443,-0.6 c 1.30401,-0.3772 2.60802,-0.7528 3.91279,-1.1246 l 0.41304,-0.1176 1.79034,-0.5077 0.21682,-0.061 1.93617,-0.5444 1.93234,-0.539 0.13819,-0.038 2.07206,-0.5734 1.76057,-0.4818 0.42678,-0.1168 c 5.49088,-1.4979 10.99322,-2.947 16.50396,-4.3495 8.81275,-2.2438 17.6484,-4.3685 26.49703,-6.3803 l 22.81176,-5.187 -2.06061,-18.3577 253.65496,146.44601 253.65502,-146.44521 -2.0606,18.3569 22.8117,5.187 c 6.3628,1.4468 12.7195,2.9524 19.0654,4.5175 l 1.82318,0.4512 0.2955,0.074 c 2.153,0.5375 4.3052,1.0796 6.4544,1.6285 l 2.2003,0.565 0.1481,0.038 2.0507,0.5329 2.1278,0.5565 0.092,0.024 c 1.43,0.3756 2.8577,0.755 4.2861,1.1368 l 0.1886,0.05 c 1.4033,0.3756 2.8058,0.755 4.2075,1.1375 l 0.2817,0.076 1.9858,0.5451 2.1904,0.6062 v 0 l 2.1881,0.6108 c 1.3582,0.3817 2.7164,0.765 4.0747,1.1521 l 0.4855,0.1381 1.4224,0.4077 1.1215,0.323 1.2849,0.3726 0.8024,0.2328 1.54,0.4497 0.1954,0.057 1.7468,0.5145 0.4344,0.1291 2.0362,0.6039 0.1436,0.043 2.1781,0.6536 0.1466,0.044 2.0301,0.6139 1.6605,0.5077 0.5139,0.1565 0.7268,0.2229 0.5214,0.1611 1.5232,0.4711 0.9154,0.2848 1.3322,0.4168 1.2017,0.3772 0.7765,0.245 1.6483,0.5223 0.1535,0.049 2.0491,0.6528 2.1645,0.697 v 0 l 2.1614,0.7024 0.2893,0.095 1.8713,0.6138 0.5772,0.1901 0.5955,0.1985 1.5414,0.5108 0.31,0.1023 1.2925,0.4321 0.4574,0.1542 1.3696,0.4612 0.3276,0.1099 1.4361,0.4871 0.3122,0.1069 1.7331,0.5917 0.3932,0.1351 0.429,0.1474 2.0065,0.6924 0.142,0.05 2.1461,0.7482 0.1435,0.05 0.082,0.028 c 1.517,0.5322 3.0325,1.0673 4.5457,1.6071 l 0.5787,0.2077 1.8491,0.6634 0.5757,0.2085 1.4613,0.5291 0.9994,0.3634 1.3437,0.4924 0.6833,0.2497 0.568,0.2099 1.8476,0.6833 0.2825,0.1054 2.1278,0.7955 h 8e-4 l 2.1247,0.8001 0.284,0.1077 1.8392,0.6993 0.5665,0.2161 0.5955,0.229 1.6247,0.6253 0.4145,0.1603 1.8751,0.7284 0.5848,0.2275 1.9003,0.7452 0.2848,0.113 2.179,0.8627 0.1748,0.069 2.3431,0.9368 0.1397,0.056 2.1049,0.8505 0.1405,0.057 1.9613,0.7986 0.077,0.032 1.3361,0.5489 0.9734,0.4008 1.1956,0.4948 1.0467,0.4352 1.0384,0.4328 1.4971,0.6284 0.6116,0.2573 1.9888,0.8421 0.2008,0.086 1.8911,0.8086 0.4177,0.1786 0.2779,0.1199 2.0812,0.8994 36.58782,15.8824 v -149.4426 z"
   id="path1985" /><path
   style="clip-rule:evenodd;fill:#00243e;fill-rule:evenodd;stroke-width:0.763471"
   d="m 1090.5952,376.37076 h -91.69832 -89.0253 c 0.01,-0.78409 0.01,-1.56894 0.01,-2.35302 0,-24.04553 -2.4096,-48.08191 -7.2316,-71.64034 -4.6923,-22.92704 -11.6644,-45.37997 -20.7833,-66.93277 -8.9555,-21.16571 -19.9731,-41.45344 -32.8392,-60.49594 C 836.2768,156.07797 821.7174,138.43415 805.6128,122.33101 789.5073,106.22634 771.8643,91.666945 752.99201,78.916205 733.95028,66.050185 713.66637,55.032535 692.50218,46.077775 670.94862,36.95888 648.49569,29.98533 625.56865,25.29304 c -23.55844,-4.82209 -47.59557,-7.2316 -71.64186,-7.2316 -24.04553,0 -48.08267,2.40951 -71.6411,7.2316 -22.92705,4.69229 -45.37998,11.66584 -66.93354,20.784735 -21.16495,8.95476 -41.44885,19.97241 -60.49059,32.83843 -18.87225,12.75074 -36.51608,27.310135 -52.6215,43.414805 -16.10467,16.10543 -30.66407,33.74849 -43.41556,52.6215 -12.86679,19.04097 -23.88368,39.32641 -32.83843,60.49212 -9.11891,21.5528 -16.09093,44.00649 -20.78322,66.9343 -4.82209,23.55767 -7.2316,47.59328 -7.2316,71.63881 0,0.78408 0.003,1.56893 0.008,2.35302 H 108.95468 17.25566 v 363.51848 l 69.00636,34.64862 v 149.4434 l 36.58783,-15.8825 1.96823,-0.8513 0.3909,-0.1679 0.52832,-0.226 1.63612,-0.6993 0.55734,-0.23671 1.52999,-0.649 0.82761,-0.34889 1.80332,-0.75661 0.2695,-0.113 2.24919,-0.9352 0.0748,-0.031 0.0145,-0.01 1.98427,-0.8176 0.37868,-0.1558 0.56726,-0.2313 1.67429,-0.68179 0.39853,-0.1619 1.92777,-0.7787 0.29851,-0.1206 2.13925,-0.8551 0.2237,-0.089 2.3179,-0.9177 0.0298,-0.012 1.99877,-0.7841 0.36647,-0.1435 1.63459,-0.6352 0.765,-0.2962 0.59856,-0.2306 1.08794,-0.4184 1.42693,-0.5466 0.45579,-0.1733 1.58879,-0.6039 0.0924,-0.035 1.96517,-0.7405 0.0458,-0.017 2.01251,-0.752 0.35425,-0.1321 1.65979,-0.6146 0.75584,-0.2787 0.4451,-0.1634 1.48953,-0.5451 0.48328,-0.1771 0.86196,-0.313 1.55901,-0.5642 0.4619,-0.1672 1.96212,-0.7032 0.0603,-0.022 2.02473,-0.72001 0.34204,-0.12139 0.5413,-0.19011 1.71704,-0.6047 0.5352,-0.187 1.40097,-0.4886 1.30095,-0.452 0.24813,-0.086 1.55366,-0.5352 0.4787,-0.1641 1.95907,-0.6688 0.0756,-0.025 2.03618,-0.6894 1.4086,-0.47339 0.62987,-0.2115 0.73293,-0.24501 0.5726,-0.1901 1.22919,-0.4077 1.50481,-0.4963 0.11146,-0.036 c 2.64772,-0.8696 5.30078,-1.72771 7.9569,-2.5729 l 0.23515,-0.075 1.56054,-0.494 0.41151,-0.1298 1.12993,-0.3557 0.92151,-0.2886 0.7108,-0.2214 1.27728,-0.397 0.0649,-0.021 1.94761,-0.6017 0.10765,-0.033 2.05603,-0.6299 1.69567,-0.5153 0.55046,-0.1664 1.81859,-0.5467 0.0786,-0.024 1.93387,-0.5771 0.31761,-0.094 1.84378,-0.5452 1.93998,-0.571 0.12292,-0.035 2.06443,-0.6 c 1.30401,-0.3772 2.60802,-0.7528 3.91279,-1.1246 l 0.41304,-0.1176 1.79034,-0.5077 0.21682,-0.061 1.93617,-0.5444 1.93234,-0.539 0.13819,-0.038 2.07206,-0.5734 1.76057,-0.4818 0.42678,-0.1168 c 5.49088,-1.4979 10.99322,-2.947 16.50396,-4.3495 8.81275,-2.2438 17.6484,-4.3685 26.49703,-6.3803 l 22.81176,-5.187 -2.06061,-18.3577 253.65496,146.44601 253.65502,-146.44521 -2.0606,18.3569 22.8117,5.187 c 6.3628,1.4468 12.7195,2.9524 19.0654,4.5175 l 1.82318,0.4512 0.2955,0.074 c 2.153,0.5375 4.3052,1.0796 6.4544,1.6285 l 2.2003,0.565 0.1481,0.038 2.0507,0.5329 2.1278,0.5565 0.092,0.024 c 1.43,0.3756 2.8577,0.755 4.2861,1.1368 l 0.1886,0.05 c 1.4033,0.3756 2.8058,0.755 4.2075,1.1375 l 0.2817,0.076 1.9858,0.5451 2.1904,0.6062 v 0 l 2.1881,0.6108 c 1.3582,0.3817 2.7164,0.765 4.0747,1.1521 l 0.4855,0.1381 1.4224,0.4077 1.1215,0.323 1.2849,0.3726 0.8024,0.2328 1.54,0.4497 0.1954,0.057 1.7468,0.5145 0.4344,0.1291 2.0362,0.6039 0.1436,0.043 2.1781,0.6536 0.1466,0.044 2.0301,0.6139 1.6605,0.5077 0.5139,0.1565 0.7268,0.2229 0.5214,0.1611 1.5232,0.4711 0.9154,0.2848 1.3322,0.4168 1.2017,0.3772 0.7765,0.245 1.6483,0.5223 0.1535,0.049 2.0491,0.6528 2.1645,0.697 v 0 l 2.1614,0.7024 0.2893,0.095 1.8713,0.6138 0.5772,0.1901 0.5955,0.1985 1.5414,0.5108 0.31,0.1023 1.2925,0.4321 0.4574,0.1542 1.3696,0.4612 0.3276,0.1099 1.4361,0.4871 0.3122,0.1069 1.7331,0.5917 0.3932,0.1351 0.429,0.1474 2.0065,0.6924 0.142,0.05 2.1461,0.7482 0.1435,0.05 0.082,0.028 c 1.517,0.5322 3.0325,1.0673 4.5457,1.6071 l 0.5787,0.2077 1.8491,0.6634 0.5757,0.2085 1.4613,0.5291 0.9994,0.3634 1.3437,0.4924 0.6833,0.2497 0.568,0.2099 1.8476,0.6833 0.2825,0.1054 2.1278,0.7955 h 8e-4 l 2.1247,0.8001 0.284,0.1077 1.8392,0.6993 0.5665,0.2161 0.5955,0.229 1.6247,0.6253 0.4145,0.1603 1.8751,0.7284 0.5848,0.2275 1.9003,0.7452 0.2848,0.113 2.179,0.8627 0.1748,0.069 2.3431,0.9368 0.1397,0.056 2.1049,0.8505 0.1405,0.057 1.9613,0.7986 0.077,0.032 1.3361,0.5489 0.9734,0.4008 1.1956,0.4948 1.0467,0.4352 1.0384,0.4328 1.4971,0.6284 0.6116,0.2573 1.9888,0.8421 0.2008,0.086 1.8911,0.8086 0.4177,0.1786 0.2779,0.1199 2.0812,0.8994 36.58782,15.8824 v -149.4426 l 69.0064,-34.64862 V 376.37076 Z m -594.59764,444.8434 -15.56565,11.2628 5.97263,18.2622 -15.52213,-11.323 -15.52214,11.323 5.97187,-18.2622 -15.56565,-11.2628 19.21276,0.037 5.90316,-18.2837 5.90239,18.2837 z m 166.08479,0 -15.56489,11.2628 5.97264,18.2622 -15.5229,-11.323 -15.52214,11.323 5.97264,-18.2622 -15.56565,-11.2628 19.21275,0.037 5.9024,-18.2837 5.9024,18.2837 z m -151.22077,-13.7386 26.68791,19.3112 -10.24044,31.3115 26.61461,-19.4143 26.61461,19.4143 -10.24044,-31.3115 26.68867,-19.3112 -32.94227,0.064 -10.12057,-31.3504 -10.12058,31.3504 z M 553.92442,948.94067 799.3766,807.23046 553.92442,926.66866 308.4722,807.23046 Z M 834.1329,832.36396 c 54.88368,12.4797 109.64818,29.3127 161.28868,51.7305 V 767.13372 c -12.1148,-4.53808 -24.37,-8.83795 -36.7406,-12.91718 v 78.14742 z m -560.41621,0 c -54.88366,12.4797 -109.64822,29.3127 -161.28866,51.7305 V 767.13372 c 12.11552,-4.53808 24.37,-8.83795 36.74053,-12.91718 v 78.14742 z M 553.92442,633.81788 c 127.5524,0 264.86348,16.18559 391.11266,54.96306 V 813.11376 C 835.327,774.59356 700.15133,751.83757 553.92442,751.83757 c -146.2269,0 -281.40256,22.75679 -391.11263,61.27619 V 688.78094 c 126.24991,-38.77671 263.561,-54.96306 391.11263,-54.96306 z M 164.24254,419.8787 c -10.58248,0 -21.16419,0 -31.64665,0 -3.56083,18.17596 -7.23237,36.57486 -10.68097,55.09056 -3.47379,18.65237 -7.02164,37.61929 -10.48322,56.72516 -3.56007,-18.11946 -7.13846,-36.48935 -10.58172,-55.00658 -3.47913,-18.7081 -7.02164,-37.67579 -10.48322,-56.80992 -10.58171,0 -21.16419,0 -31.64665,0 5.83521,29.19363 11.62232,57.89099 17.50487,86.00354 5.78711,27.65369 11.76815,54.75234 17.70261,81.43872 0,16.59787 0,33.25147 0,49.82109 0,16.59786 0,33.19573 0,49.76459 11.57041,-4.48082 23.14158,-8.93262 34.81124,-13.07521 0,-9.04561 0,-18.14695 0,-27.22081 0,-15.80844 0,-31.61764 0,-47.42608 0,-6.67808 0,-13.35693 0,-20.06403 5.83521,-27.58727 11.82006,-54.81876 17.70261,-81.55095 5.78635,-26.30083 11.86663,-52.18785 17.8011,-77.69008 z m 76.54563,186.60385 c -9.88924,2.08504 -19.77925,4.19909 -29.66849,6.25588 0,-26.12217 0,-52.27259 0,-78.42301 0,-26.15042 0,-52.30084 0,-78.42301 9.88924,-0.39472 19.77925,-0.78943 29.66849,-1.18339 0,25.30526 0,50.58227 0,75.88677 0,25.30449 0,50.5815 0,75.88676 z m 26.70242,-179.81277 c -3.75781,-4.50831 -8.9998,-6.79109 -15.62597,-6.79109 -17.30637,0 -34.51502,0 -51.7229,0 -6.62616,0 -11.76891,2.47976 -15.52671,7.43926 -4.15405,5.1565 -6.23069,12.14531 -6.23069,20.93745 0,30.18002 0,60.3318 0,90.48433 0,30.15178 0,60.30431 0,90.45609 0,8.62265 1.8789,14.82203 5.43897,18.82415 3.85705,4.19833 9.18379,5.2481 16.21918,3.32492 17.29339,-4.72665 34.59671,-9.09066 51.92064,-13.04696 7.1041,-1.62238 12.55986,-5.12824 16.31767,-10.76419 3.65932,-5.24199 5.43973,-11.72234 5.43973,-19.44408 0,-27.10858 0,-54.24541 0,-81.35398 0,-27.10858 0,-54.21716 0,-81.35398 0,-7.89124 -2.07664,-14.11812 -6.22992,-18.71192 z m 82.77632,-6.79109 c 0,28.26372 0,56.52819 0,84.7354 0,28.23623 0,56.47168 0,84.6789 -9.89001,1.21163 -19.77925,2.45151 -29.66926,3.83186 0,-28.85617 0,-57.73981 0,-86.59521 0,-28.85616 0,-57.76806 0,-86.65171 -10.97719,0 -21.85589,0 -32.7346,0 0,30.96869 0,61.93814 0,92.9076 0,30.96869 0,61.93814 0,92.90683 0,7.637 1.87891,13.30043 5.43974,17.04831 3.85706,3.97311 9.19067,5.22978 16.21842,4.05785 17.30026,-2.88516 34.61121,-5.51379 51.92063,-7.89048 7.11785,-0.97724 12.55987,-3.74788 16.31844,-8.59516 3.65932,-4.53731 5.43897,-10.31373 5.43897,-17.41478 0,-28.8554 0,-57.68331 0,-86.51046 0,-28.82792 0,-57.65507 0,-86.51123 -10.97719,0.002 -21.95515,0.002 -32.93234,0.002 z m 80.00722,30.23653 c 9.98849,-0.11301 19.97699,-0.19699 30.06474,-0.30997 0,8.36917 0,16.76658 0,25.13576 0,8.36918 0,16.76659 0,25.13576 -10.08699,0.28172 -20.07625,0.59169 -30.06474,0.87342 0,-8.45391 0,-16.93608 0,-25.39 0,-8.48064 0,-16.96281 0,-25.44497 z m 0,80.67754 c 6.03219,-0.25347 12.16439,-0.50694 18.29583,-0.73293 3.26307,13.24469 6.72236,26.46115 9.98849,39.64859 3.26002,13.15996 6.72466,26.34816 10.08699,39.50735 11.07644,-0.56344 22.15288,-1.07114 33.32781,-1.40936 -3.46158,-13.55391 -7.01859,-27.10934 -10.38397,-40.69074 -3.35928,-13.55467 -6.82391,-27.13682 -10.18624,-40.77548 3.46158,-1.63459 6.32918,-4.39607 8.40658,-8.08745 2.1759,-3.71964 3.26384,-7.86222 3.26384,-12.39877 0,-10.53896 0,-21.10618 0,-31.67414 0,-10.53895 0,-21.13441 0,-31.70163 0,-7.10104 -1.97815,-12.65301 -5.93369,-16.65436 -3.75857,-3.94485 -8.9998,-5.94592 -15.72446,-5.94592 -24.72426,0 -49.44851,0 -74.07352,0 0,32.49106 0,64.98135 0,97.41591 0,32.4628 0,64.9256 0,97.36015 10.97719,-1.01465 21.95515,-2.00107 32.93234,-2.9867 0,-13.46992 0,-26.93908 0,-40.43727 0,-13.46992 0,-26.96732 0,-40.43725 z m 238.63748,-80.87453 c 0,-10.00375 0,-20.00753 0,-30.03954 -30.06474,0 -60.03023,0 -89.99572,0 0,9.80602 0,19.61282 0,29.39135 9.59302,0.0282 19.18604,0.0847 28.87831,0.11301 0,26.43214 0,52.86505 0,79.26817 0,26.43291 0,52.8368 0,79.2407 10.78021,0.36646 21.55966,0.90166 32.33912,1.4086 0,-6.79108 0,-13.6104 0,-20.43049 0,-10.34199 0,-20.71145 0,-31.05344 0,-18.00647 0,-36.04119 0,-54.07591 0,-18.03472 0,-36.06944 0,-54.13317 9.59225,0.0847 19.18527,0.19774 28.77829,0.31072 z m 14.24103,-30.03954 c 0,32.09634 0,64.19268 0,96.26076 0,32.03984 0,64.13617 0,96.17602 30.26247,2.87446 60.52419,6.45285 90.78746,10.70844 0,-10.53895 0,-21.10617 0,-31.70162 -19.38381,-2.33928 -38.76758,-4.48082 -58.0521,-6.36888 0,-10.51071 0,-20.99317 0,-31.50465 0,-10.51071 0,-21.02218 0,-31.53288 14.14254,0.84515 28.28432,1.74681 42.52535,2.78972 0,-10.51072 0,-21.02143 0,-31.53289 -14.24103,-0.73293 -28.38357,-1.35288 -42.52535,-1.94456 0,-13.6104 0,-27.19332 0,-40.77548 19.28528,0.33821 38.66829,0.73293 58.0521,1.18337 0,-10.5672 0,-21.16266 0,-31.75812 -30.26327,7.7e-4 -60.52575,7.7e-4 -90.78746,7.7e-4 z m 166.04734,60.3318 c 1.8789,11.89183 3.9609,23.86765 5.8352,35.81597 1.8835,12.0033 3.9556,24.09363 5.9337,36.21069 -7.9118,-1.04291 -15.82368,-2.11329 -23.63628,-3.12796 1.9782,-11.38487 3.9609,-22.76824 5.9337,-34.20961 1.982,-11.49635 3.9556,-23.07898 5.93368,-34.68909 z M 831.7944,580.1069 c 11.5704,1.85982 23.14158,3.80438 34.71278,5.74894 3.0653,19.04938 6.1314,38.23923 9.2967,57.54207 11.472,2.87446 22.9439,5.86117 34.5151,9.1296 -6.33,-36.12595 -12.5164,-71.66782 -18.7906,-106.60276 -6.1864,-34.44248 -12.4614,-68.41923 -18.6913,-101.9532 v 0 c -1.5827,-8.05919 -3.0661,-16.06191 -4.5495,-24.09286 -12.8569,0 -25.71298,0 -38.56978,0 -6.9232,35.30902 -13.8021,70.20425 -20.768,104.60168 -6.8789,33.96532 -13.8455,67.65883 -20.7679,100.9103 11.3734,1.88806 22.7461,4.00212 34.218,6.19939 3.0646,-17.04832 6.2291,-34.20962 9.3945,-51.48316 z m 183.0568,-160.2282 c -4.8458,18.62641 -9.6602,36.9795 -14.4388,55.03407 -4.71602,17.81789 -9.59302,35.393 -14.34032,52.69555 -4.8465,-18.54166 -9.664,-36.86574 -14.4388,-54.89359 -4.719,-17.81636 -9.593,-35.4495 -14.3402,-52.83603 -10.978,0 -21.9552,0 -32.8339,0 0,39.45162 0,78.93072 0,118.35333 0,39.42337 0,78.87422 0,118.26934 10.8787,3.32492 21.8559,6.81933 32.8339,10.25724 0,-23.89665 0,-47.79254 0,-71.68843 0,-23.89589 0,-47.79178 0,-71.68843 2.9668,15.66795 5.9436,31.44662 8.9005,47.34132 2.9768,16.00388 5.9337,32.15283 8.9006,48.41172 7.3186,2.02854 14.6365,4.11434 21.9551,6.31238 2.96692,-15.16025 5.94672,-30.45946 8.90052,-45.93197 2.9799,-15.60917 5.9337,-31.3634 8.9006,-47.25735 0,25.9252 0,51.87865 0,77.83133 0,25.92519 0,51.87787 0,77.80307 10.8787,4.48081 21.8559,9.13036 32.8338,13.7799 0,-46.94662 0,-93.92148 0,-140.86887 0,-46.94661 0,-93.95048 0,-140.92536 -10.9764,7.7e-4 -21.9543,7.7e-4 -32.833,7.8e-4 z m -214.834,-43.50794 c 0.01,-0.82684 0.032,-1.64987 0.032,-2.47823 0,-135.92462 -110.19949,-246.12484 -246.12488,-246.12484 -135.91546,0 -246.12484,110.20862 -246.12484,246.12484 0,0.82836 0.0229,1.65139 0.0321,2.47823 h 14.64261 c -0.009,-0.82608 -0.0145,-1.65216 -0.0145,-2.47823 0,-11.60782 0.85967,-23.21487 2.57442,-34.69596 l 32.47426,-8.97842 7.73015,46.15184 h 20.7794 l -9.38536,-55.95024 63.09098,-71.55482 77.26178,10.63211 21.87116,88.84363 -30.64345,28.02856 h 30.36173 l 13.715,-12.54154 29.11651,12.54154 h 94.57959 l 55.20738,-36.34429 54.14836,30.98396 0.054,2.8821 c 0,0.82608 -0.01,1.65215 -0.015,2.47823 h 14.6365 z M 598.82112,192.15886 522.971,239.65136 448.42642,229.38114 466.0107,159.73652 c 27.77279,-11.44519 57.53062,-17.28804 87.53122,-17.31476 l 20.98783,17.0109 z m 143.7418,47.58106 c 22.52622,31.62832 36.66418,68.25129 41.20758,106.78291 l -44.02555,-25.21134 -18.1897,-75.85622 z M 620.28611,186.71378 594.62737,152.26214 c 1.34295,-1.83615 2.69734,-3.66237 4.06472,-5.47943 50.57921,9.9236 96.32413,36.57409 130.07796,75.4615 l -18.62794,5.06716 z m 113.62821,-49.56074 c 3.12718,2.37898 6.20702,4.8198 9.238,7.32093 -15.06787,-9.07844 -15.90921,-7.41025 -34.19359,4.45104 20.67099,8.89444 17.95837,4.58312 34.19359,-4.45104 7.34078,6.05585 14.3922,12.46367 21.1222,19.19291 6.72998,6.73 13.13708,13.78142 19.19368,21.12219 -13.0561,-11.78952 -14.2013,-10.3122 -34.41501,-2.16138 18.59201,12.67896 16.75211,7.92865 34.41501,2.16138 6.0566,7.34002 11.7628,14.97015 17.0911,22.85605 5.3763,7.95766 10.3671,16.1749 14.948,24.61355 -10.5749,-14.0578 -11.9797,-12.82556 -33.3744,-8.66922 15.8397,15.9848 14.9381,10.97108 33.3744,8.66922 4.5816,8.43865 8.7547,17.09947 12.4965,25.94427 3.8105,9.00592 7.1728,18.20193 10.0724,27.53994 -7.6507,-15.8405 -9.2677,-14.90372 -31.0626,-14.97244 12.4423,18.75162 12.5286,13.65851 31.0626,14.97244 2.8997,9.33879 5.3367,18.82034 7.2981,28.40191 2.0148,9.8442 3.52638,19.78841 4.53268,29.78301 -4.39448,-17.0338 -6.16428,-16.43219 -27.52238,-20.77405 8.5226,20.8275 9.6068,15.84966 27.52238,20.77405 1.007,9.99461 1.5109,20.04113 1.5109,30.08917 0,0.78409 0,1.56894 -0.01,2.35302 h 7.2958 c 0.01,-0.78408 0.01,-1.56893 0.01,-2.35302 0,-10.29464 -0.5161,-20.587 -1.5475,-30.82745 -1.0322,-10.23968 -2.5806,-20.42819 -4.6442,-30.51441 -2.0087,-9.81597 -4.506,-19.53038 -7.47668,-29.0982 -4.5564,-16.99105 -2.7195,-17.33767 13.73708,-31.62756 2.8295,22.32466 -0.5634,18.52488 -13.73708,31.62756 -2.9707,-9.56705 -6.4162,-18.98753 -10.3191,-28.21485 -3.8341,-9.06164 -8.1088,-17.93394 -12.8034,-26.58024 -7.7805,-15.77714 -6.0474,-16.47495 7.308,-33.69886 7.127,21.34513 3.0584,18.27979 -7.308,33.69886 -4.6938,-8.64556 -9.8068,-17.06435 -15.3152,-25.2167 -5.4588,-8.07982 -11.3047,-15.89623 -17.5102,-23.41719 -10.6657,-13.98908 -9.0983,-15.00679 0.7001,-34.47532 11.0932,19.57922 6.5116,17.35218 -0.7001,34.47532 -6.2055,-7.5202 -12.7699,-14.74568 -19.6648,-21.63983 -6.89488,-6.89491 -14.11961,-13.45924 -21.6398,-19.66397 -13.13018,-11.70707 -11.78494,-13.00344 -5.86499,-33.97905 14.61285,17.11397 9.69151,15.79851 5.86499,33.97905 -3.08824,-2.5477 -6.22611,-5.03509 -9.41207,-7.45988 -4.09374,-9.61057 -8.27756,-9.51743 -26.30159,-11.95672 8.42185,17.23689 10.21448,16.1184 21.83528,17.72551 z m -359.9798,0 c -3.12717,2.37898 -6.20702,4.8198 -9.238,7.32093 15.06787,-9.07844 15.90922,-7.41025 34.19359,4.45104 -20.67175,8.89444 -17.95837,4.58312 -34.19359,-4.45104 -7.34078,6.05585 -14.3922,12.46367 -21.1222,19.19291 -6.73,6.73 -13.13705,13.78142 -19.19367,21.12219 13.05689,-11.78952 14.20133,-10.3122 34.415,-2.16138 -18.59205,12.67896 -16.75209,7.92865 -34.415,2.16138 -6.05662,7.34002 -11.7628,14.97015 -17.09107,22.85605 -5.37636,7.95766 -10.36717,16.1749 -14.948,24.61355 10.57484,-14.0578 11.97963,-12.82556 33.37438,-8.66922 -15.83974,15.9848 -14.93808,10.97108 -33.37438,8.66922 -4.58159,8.43865 -8.75473,17.09947 -12.4965,25.94427 -3.81049,9.00592 -7.17281,18.20193 -10.07248,27.53994 7.64998,-15.8405 9.26778,-14.90372 31.06183,-14.97244 -12.44153,18.75162 -12.52856,13.65851 -31.06183,14.97244 -2.89966,9.33879 -5.33666,18.82034 -7.29802,28.40191 -2.0148,9.8442 -3.52648,19.78841 -4.53273,29.78301 4.39454,-17.0338 6.16427,-16.43219 27.52238,-20.77405 -8.52263,20.8275 -9.60676,15.84966 -27.52238,20.77405 -1.00702,9.99461 -1.51091,20.04113 -1.51091,30.08917 0,0.78409 0.003,1.56894 0.009,2.35302 h -7.29573 c -0.006,-0.78408 -0.009,-1.56893 -0.009,-2.35302 0,-10.29464 0.5161,-20.587 1.54755,-30.82745 1.03222,-10.23968 2.57977,-20.42819 4.6442,-30.51441 2.00869,-9.81597 4.50601,-19.53038 7.47667,-29.0982 4.5564,-16.99105 2.71949,-17.33767 -13.73714,-31.62756 -2.82942,22.32466 0.56345,18.52488 13.73714,31.62756 2.97067,-9.56705 6.41622,-18.98753 10.31908,-28.21485 3.83416,-9.06164 8.10883,-17.93394 12.80342,-26.58024 7.78053,-15.77714 6.04745,-16.47495 -7.30795,-33.69886 -7.127,21.34513 -3.05847,18.27979 7.30795,33.69886 4.69382,-8.64556 9.80679,-17.06435 15.31523,-25.2167 5.45882,-8.07982 11.30549,-15.89623 17.51022,-23.41719 10.66569,-13.98908 9.09829,-15.00679 -0.7001,-34.47532 -11.09324,19.57922 -6.51242,17.35218 0.7001,34.47532 6.20473,-7.5202 12.76982,-14.74568 19.66473,-21.63983 6.89491,-6.89491 14.11964,-13.45924 21.63983,-19.66397 13.13018,-11.70707 11.78495,-13.00344 5.86499,-33.97905 -14.61284,17.11397 -9.69151,15.79851 -5.86499,33.97905 3.08824,-2.5477 6.22611,-5.03509 9.41208,-7.45988 4.09373,-9.61057 8.27755,-9.51743 26.30158,-11.95672 -8.42185,17.23689 -10.21371,16.1184 -21.83528,17.72551 z m -143.16767,177.8873 c 1.79721,22.43155 4.3411,18.01869 19.91591,28.14918 0.98412,-17.56365 -0.8841,-17.52701 -19.91591,-28.14918 z m 646.31513,0 c -1.7972,22.43155 -4.3411,18.01869 -19.9159,28.14918 -0.9841,-17.56365 0.8841,-17.52701 19.9159,-28.14918 z m -428.70976,-201.89236 13.03169,-5.02059 -1.275,-6.82925 -7.17739,2.76529 -2.87371,-7.459885 5.66572,-2.18276 -2.27361,-5.9024 -5.66649,2.18276 -3.1287,-8.12104 7.45987,-2.87447 -3.63565,-5.91996 -13.3157,5.12977 z m 32.03449,-10.80083 c 4.01891,-1.21774 4.93508,-3.081375 3.76086,-6.955235 l -3.50662,-11.57422 c -0.79172,-2.61489 -2.34462,-3.202 -4.57243,-2.52709 l -4.40676,1.33531 c -0.72606,0.21988 -1.12383,0.12903 -1.34371,-0.5978 l -1.93693,-6.39178 c -0.16109,-0.5329 0.0557,-0.86272 0.63674,-1.03909 l 7.94239,-2.40569 -3.19131,-6.17114 -9.6854,2.93402 c -3.29361,0.99785 -4.20291,3.22948 -3.3669,5.99019 l 3.60892,11.91321 c 1.05589,3.48677 3.0432,3.41348 5.12595,2.78209 l 3.63183,-1.10016 c 0.96809,-0.29394 1.32234,-0.34738 1.61551,0.6207 l 1.93693,6.39178 c 0.16109,0.5329 0.026,0.78485 -0.60315,0.97572 l -7.55454,2.28889 3.2394,6.155865 z m 7.1041,-39.521105 -0.69781,7.06211 4.83201,-0.8589 5.22291,29.39364 7.3736,-1.31011 -5.2229,-29.39365 4.83201,-0.85814 -2.98823,-6.40705 z m 36.19847,1.01924 c 0.50389,-0.0489 0.67873,0.18857 0.72224,0.64208 l 2.13925,22.26282 c 0.0534,0.55352 -0.0283,0.765 -0.63292,0.82302 l -3.42493,0.32906 -2.27896,-23.72335 z m 7.7187,-2.72407 c -0.25653,-2.66909 -1.88654,-4.29224 -4.75719,-4.01586 l -14.3044,1.37425 3.50891,36.51683 12.94466,-1.24369 c 4.18077,-0.40159 5.53669,-2.15833 5.14961,-6.18794 z m 17.54457,16.72613 10.77639,0.16415 0.5978,-6.0131 -10.7764,-0.16415 z m 45.141,-14.97625 c 0.27562,-2.87142 -1.43303,-4.66176 -3.85095,-4.89385 l -11.08026,-1.06428 -1.91249,6.67884 8.91505,0.85662 c 0.40235,0.0389 0.6856,0.26874 0.64208,0.72301 l -0.45961,4.78467 c -0.029,0.30234 -0.0985,0.49855 -0.581,0.75736 l -7.40872,4.62588 c -1.92472,0.98411 -2.62864,2.49273 -2.85081,4.8091 l -1.26278,13.14622 14.80753,1.42234 1.96288,-6.67426 -8.81427,-0.84669 0.54664,-5.69092 c 0.0344,-0.35272 0.113,-0.65048 0.43442,-0.82302 l 7.42781,-4.82743 c 1.7682,-0.94823 2.40952,-1.80179 2.58893,-3.66542 z m 20.6855,5.49699 c 0.49854,0.0886 0.60314,0.36418 0.52374,0.81233 L 611.41,91.200465 c -0.097,0.54817 -0.2321,0.72987 -0.8299,0.62299 l -2.64008,-0.46877 c -0.5978,-0.10613 -0.66193,-0.32372 -0.56497,-0.87112 l 3.91279,-22.02081 c 0.0794,-0.44816 0.27409,-0.67109 0.77187,-0.58253 z m -15.0694,22.91636 c -0.50466,2.83935 0.70926,5.2649 3.99753,5.84971 l 8.86772,1.57505 c 3.28751,0.58481 5.26261,-1.275 5.76727,-4.11435 l 4.64725,-26.155 c 0.50389,-2.84012 -0.70927,-5.26566 -3.99678,-5.84972 l -8.86771,-1.57581 c -3.28828,-0.58405 -5.26338,1.275 -5.76803,4.11512 z m 50.78917,-15.65727 c 0.82684,-2.76301 -0.5016,-4.8511 -2.82866,-5.54739 l -10.66417,-3.19283 -3.1707,6.18106 8.57989,2.56832 c 0.38785,0.11605 0.6207,0.397 0.49015,0.83371 l -1.37883,4.60449 c -0.087,0.29089 -0.19316,0.4703 -0.7169,0.63063 l -8.16456,3.10199 c -2.07893,0.59245 -3.06228,1.9354 -3.72956,4.1655 l -3.78758,12.651485 14.25096,4.26628 3.21956,-6.166565 -8.48293,-2.53931 1.63993,-5.4779 c 0.10154,-0.33975 0.23668,-0.61612 0.58558,-0.72301 l 8.22335,-3.29591 c 1.91861,-0.58711 2.71338,-1.30019 3.2501,-3.09358 z m 8.41498,5.28016 2.82713,1.1078 -8.402,21.435225 -2.21483,-0.86806 -2.49273,6.35971 11.54216,4.52433 2.49273,-6.36048 -2.30797,-0.90471 10.8955,-27.794945 -7.30184,-2.86225 z"
   id="path1987" /><path
   style="clip-rule:evenodd;fill:#509622;fill-rule:evenodd;stroke-width:0.763471"
   d="m 834.1329,832.36396 c 54.88368,12.4797 109.64818,29.3127 161.28868,51.7305 V 767.13372 c -12.1148,-4.53808 -24.37,-8.83795 -36.7406,-12.91718 v 78.14742 z M 231.60438,710.04591 c -1.20934,0.29317 -2.41868,0.60849 -3.62802,0.90242 0,6.99111 0.0351,13.97229 0.071,20.97561 0.0343,6.96897 0,13.95015 0,20.94126 1.20933,-0.31531 2.41944,-0.63139 3.69978,-0.95816 0,4.08228 0,8.16533 0,12.24685 -6.90102,1.81553 -13.80356,3.66542 -20.63434,5.62754 0,-4.10443 0,-8.20961 0,-12.32548 1.20934,-0.33821 2.49044,-0.71002 3.77155,-1.06047 0,-7.014 0.0359,-14.02877 0,-21.02065 -0.0351,-7.02547 -0.0718,-14.03948 -0.0718,-21.05502 -1.20934,0.32753 -2.41868,0.6543 -3.62802,0.98183 0,1.80484 0,3.59671 0,5.40156 -4.41133,1.19559 -8.75167,2.37974 -13.02024,3.52952 0,-2.96532 0,-5.9314 0,-8.89749 0,-2.96609 0,-5.93141 0,-8.90895 15.43968,-4.10518 30.95037,-8.04088 46.53282,-11.79638 0,2.93249 0,5.86422 0,8.79594 0,2.9218 0,5.85353 0,8.77381 -4.4121,1.04901 -8.75167,2.13162 -13.09201,3.20353 -7.6e-4,-1.7827 -7.6e-4,-3.56465 -7.6e-4,-5.35727 z m 54.07515,41.39847 c 0,-4.02656 0,-8.06303 0,-12.11171 1.2101,-0.23668 2.41944,-0.46191 3.70131,-0.72073 -0.42755,-1.68115 -0.78256,-3.37301 -1.1391,-5.0641 -4.19757,0.84592 -8.3959,1.7598 -12.52322,2.63932 -0.42678,1.86134 -0.7818,3.69902 -1.13758,5.54814 1.20934,-0.27026 2.49045,-0.5413 3.77155,-0.81233 0,4.04869 0,8.08593 0,12.12316 -6.90254,1.51091 -13.80432,3.02182 -20.6351,4.63504 0,-4.04793 0,-8.10807 0,-12.16821 1.1391,-0.27103 2.2782,-0.55275 3.48754,-0.83447 1.92165,-9.4159 3.80666,-18.79514 5.69167,-28.1469 1.88654,-9.35634 3.84332,-18.69818 5.76345,-28.03467 6.11922,-1.25286 12.23768,-2.51487 18.42867,-3.69902 1.92013,8.55928 3.80743,17.10405 5.76345,25.63279 1.95677,8.53332 3.91279,17.05137 5.90545,25.55415 1.13757,-0.22446 2.34767,-0.4619 3.55777,-0.69858 0,4.02579 0,8.05157 0,12.06667 -6.90254,1.36203 -13.80509,2.73781 -20.63586,4.09145 z m -7.3278,-27.94534 c 2.41868,-0.50771 4.83735,-1.02611 7.25756,-1.5445 -0.64056,-2.67292 -1.35211,-5.34583 -1.92166,-8.02943 -0.56879,-2.6836 -1.20934,-5.36797 -1.77812,-8.05157 -0.64056,2.94318 -1.28111,5.89858 -1.8499,8.81886 -0.56878,2.92026 -1.1391,5.87567 -1.70788,8.80664 z m 91.92882,6.76664 c -2.84622,2.66147 -5.69168,5.31147 -8.53866,7.96225 -7.89735,1.10474 -15.72446,2.32248 -23.5508,3.56312 -2.77599,-1.81554 -5.55044,-3.61962 -8.3249,-5.44737 0,-8.58218 0.0351,-17.16436 0,-25.74578 -0.0344,-8.58066 -0.071,-17.17429 -0.071,-25.76792 2.77522,-2.7172 5.62068,-5.43592 8.4669,-8.15388 7.75534,-1.16124 15.58245,-2.32324 23.40879,-3.3608 2.84623,1.89418 5.69321,3.78911 8.53943,5.68328 0,3.47303 0,6.93614 0,10.39848 -4.4121,0.5978 -8.75243,1.18415 -13.09201,1.76973 0,-1.74759 0,-3.49594 0,-5.25497 -4.76787,0.66574 -9.46322,1.36432 -14.15934,2.08656 0,6.84452 0.0351,13.67988 0.0702,20.5244 0.0344,6.82238 0,13.66767 0,20.50226 4.69612,-0.75583 9.39299,-1.47731 14.15934,-2.15375 0,-4.81598 0,-9.61974 0,-14.45786 -2.98746,0.41762 -5.97645,0.84593 -8.96468,1.30783 0,-4.00364 -0.0718,-8.02943 -0.0718,-12.04376 7.32856,-1.07115 14.65788,-2.07588 22.05821,-3.07984 0,5.27787 0.0702,10.55575 0.0702,15.83363 0,5.27788 0,10.55652 0,15.83439 z m 23.55156,3.80133 c 0,-3.97005 0,-7.95079 0,-11.94298 1.20934,-0.14659 2.41868,-0.28172 3.69979,-0.42907 0,-6.79948 0.0359,-13.60048 0,-20.38851 -0.0351,-6.81092 -0.0718,-13.61117 -0.0718,-20.41217 -1.28034,0.14735 -2.49044,0.28172 -3.69978,0.42907 0,-3.98074 0,-7.96148 0,-11.95443 6.83078,-0.74362 13.73256,-1.43151 20.63434,-2.10794 0,3.98073 0,7.96147 0,11.93076 -1.28111,0.12445 -2.56068,0.25958 -3.77002,0.38403 0,6.78879 0.0351,13.57757 0.071,20.38926 0.0344,6.77658 0,13.56613 0,20.35568 3.273,-0.33822 6.61701,-0.68865 9.96101,-1.01542 0,-1.7369 0,-3.47303 0,-5.21069 4.34034,-0.37181 8.75167,-0.75584 13.16301,-1.1391 0,2.85309 0,5.70618 0,8.55928 0,2.85309 0,5.70618 0,8.54858 -13.37754,1.17193 -26.68256,2.55916 -39.98758,4.00365 z m 63.53838,-5.80849 c 0,-3.95784 0,-7.91644 0,-11.88572 1.20934,-0.0901 2.49044,-0.18018 3.77002,-0.27104 0,-6.76588 0.0344,-13.53329 0,-20.28696 -0.0351,-6.78955 -0.071,-13.55543 -0.071,-20.33277 -1.28111,0.0901 -2.56145,0.18018 -3.77079,0.25882 0,-3.97005 0,-7.93857 0,-11.90862 6.83078,-0.45122 13.73256,-0.82303 20.63358,-1.18415 0,3.97005 0,7.93858 0,11.89793 -1.28034,0.0672 -2.56068,0.13437 -3.77002,0.20308 0,6.7659 0.0351,13.53253 0.0702,20.30988 0.0344,6.74374 0,13.51039 0,20.27626 1.20934,-0.0672 2.49044,-0.13513 3.77155,-0.20308 0,3.97006 0,7.92788 0,11.87504 -6.90178,0.38325 -13.8028,0.76652 -20.63358,1.25133 z m 75.35004,-3.13481 c -2.41944,-5.5596 -4.83506,-11.11004 -7.18655,-16.66735 -2.34386,-5.53899 -4.76712,-11.10852 -7.18656,-16.6681 0.0718,3.64252 0.0718,7.26289 0.0718,10.89397 0,3.63183 0,7.26289 0,10.89396 1.20934,-0.0221 2.49044,-0.0565 3.77155,-0.0786 0,3.9586 0,7.90499 0,11.8529 -6.90179,0.15727 -13.80433,0.33821 -20.63434,0.59779 0,-3.94714 0,-7.90498 0,-11.86358 1.2101,-0.0458 2.49044,-0.0901 3.77078,-0.14657 0,-6.75596 0.0344,-13.51117 0,-20.25414 -0.0351,-6.76589 -0.0702,-13.52108 -0.0702,-20.28697 -1.2811,0.045 -2.49044,0.0901 -3.70054,0.13514 0,-3.94715 0,-7.90498 0,-11.87503 5.90545,-0.21454 11.8109,-0.37182 17.78811,-0.50771 2.34768,5.5825 4.76483,11.14286 7.11479,16.71315 2.34539,5.55961 4.76788,11.11996 7.25833,16.72384 -0.0718,-3.65398 -0.0718,-7.28504 -0.0718,-10.92756 0,-3.63031 0,-7.27283 0,-10.91611 -1.28111,0.0115 -2.56221,0.0336 -3.77155,0.0565 0,-3.9586 0,-7.9172 0,-11.87504 6.83078,-0.0786 13.73256,-0.13513 20.63434,-0.18018 0,3.9586 0,7.91644 0,11.87427 -1.28034,0.0115 -2.56068,0.0221 -3.84255,0.0221 0,8.72877 0.0367,17.46823 0.0718,26.18554 0.0351,8.73946 0,17.46823 0,26.18631 -4.69612,0.0428 -9.39223,0.0779 -14.01734,0.11147 z m 41.41069,-0.0229 c 0,-3.94715 0,-7.89429 0,-11.85289 1.21086,0.0114 2.41944,0.0229 3.70054,0.0565 0,-6.75444 0.0359,-13.49971 0,-20.24268 -0.0351,-6.76589 -0.0718,-13.50963 -0.0718,-20.26406 -1.28111,-0.0344 -2.49045,-0.0458 -3.69978,-0.0565 0,-3.94714 0,-7.90498 0,-11.86358 13.73255,0.25958 27.53612,0.60925 41.33968,1.10551 0,2.85309 0,5.70618 0,8.53637 0,2.8424 0,5.6955 0,8.53714 -4.41134,-0.15728 -8.75167,-0.32677 -13.09201,-0.48481 0,-1.72468 0,-3.45012 0,-5.18778 -3.84179,-0.13438 -7.68434,-0.22523 -11.45589,-0.30387 0,4.77017 0,9.54034 0,14.29906 5.97646,0.12368 11.95367,0.32753 17.93089,0.55275 0,3.96853 0.0702,7.95003 0.0702,11.90786 -5.97645,-0.22522 -11.95367,-0.4283 -17.93089,-0.55199 0,4.78163 0,9.54034 0,14.31128 3.77155,0.0779 7.61334,0.16949 11.45589,0.31531 0,-1.7369 0,-3.46234 0,-5.18779 4.34034,0.15804 8.68067,0.32753 13.09201,0.49626 0,2.83019 0,5.68328 0,8.52568 0,2.84164 0,5.68328 0,8.51347 -13.8028,-0.52985 -27.60636,-0.87952 -41.33892,-1.16124 z m 115.47962,6.28184 c 0,-3.95936 0,-7.92788 0,-11.90863 1.2101,0.12369 2.41944,0.25882 3.70055,0.38251 0,-4.79232 0,-9.56249 0,-14.36624 -4.98089,-0.51916 -9.96101,-0.94747 -14.87166,-1.37654 0,4.80376 0,9.57393 0,14.35555 1.2811,0.11299 2.56221,0.22522 3.84255,0.33822 0,3.97005 0,7.93934 0,11.89793 -6.90178,-0.59856 -13.80433,-1.20628 -20.63434,-1.73689 0,-3.95861 0,-7.91644 0,-11.88649 1.2101,0.0786 2.41944,0.16949 3.70054,0.25958 0,-6.76588 0.0351,-13.54398 0,-20.29917 -0.0351,-6.77734 -0.0718,-13.55467 -0.0718,-20.32056 -1.28111,-0.0909 -2.49045,-0.16949 -3.69978,-0.26034 0,-3.95785 0,-7.92712 0,-11.89719 6.83077,0.50695 13.73179,1.08262 20.63434,1.65751 0,3.98073 0,7.95002 0,11.92007 -1.28111,-0.11298 -2.56069,-0.22523 -3.84179,-0.32753 0,4.79307 0,9.57469 0,14.35631 4.90912,0.41763 9.89001,0.84593 14.87013,1.35365 0,-4.79308 0,-9.5747 0,-14.367 -1.28111,-0.12369 -2.49044,-0.25958 -3.69978,-0.37258 0,-3.97005 0,-7.93934 0,-11.92008 6.83078,0.6772 13.66079,1.35364 20.56333,2.04076 0,3.99143 0,7.97217 0,11.94222 -1.2811,-0.13513 -2.5622,-0.25958 -3.77078,-0.38402 0,6.80023 0.0351,13.58979 0.071,20.38926 0.0344,6.77657 0,13.57758 0,20.36713 1.2101,0.12368 2.49045,0.25958 3.77155,0.39471 0,3.98074 0,7.95003 0,11.92008 -6.90178,-0.72072 -13.73256,-1.4422 -20.5641,-2.15223 z m 44.1859,5.07403 c 0,-3.98074 0,-7.96149 0,-11.95367 1.20934,0.16872 2.41945,0.33821 3.69979,0.5184 0,-6.81093 0.0344,-13.62338 0,-20.42286 -0.0359,-6.82314 -0.0702,-13.63407 -0.0702,-20.45721 -1.28111,-0.16949 -2.49045,-0.32677 -3.69978,-0.49626 0,-3.9922 0,-7.98438 0,-11.97582 13.80356,1.83767 27.60712,3.7998 41.40985,5.87491 0,2.8867 0,5.77337 0,8.64937 0,2.88668 0,5.77413 0,8.64936 -4.4105,-0.67567 -8.8226,-1.35287 -13.16294,-2.00716 0,-1.74834 0,-3.49517 0,-5.25496 -3.84179,-0.5856 -7.6851,-1.1727 -11.45513,-1.67964 0,4.82666 0,9.64188 0,14.45709 5.97646,0.85662 11.95368,1.76973 17.92937,2.69506 0,4.01433 0.072,8.04088 0.072,12.05521 -5.97716,-0.93602 -11.95361,-1.86135 -17.93083,-2.72865 0,4.83736 0,9.64112 0,14.45709 3.77155,0.52909 7.61334,1.12765 11.45513,1.73614 0,-1.74835 0,-3.49595 0,-5.23208 4.3411,0.67644 8.7516,1.37501 13.1637,2.06367 0,2.87599 0,5.75199 0,8.63868 0,2.876 0,5.75046 0,8.62645 -13.80273,-2.19803 -27.60705,-4.27315 -41.41062,-6.21312 z m 110.92626,20.006 c -4.6953,-1.04825 -9.3914,-2.07512 -14.0883,-3.10122 -1.9217,-4.87171 -3.7739,-9.74342 -5.6207,-14.59299 -1.8514,-4.8595 -3.6998,-9.70983 -5.5497,-14.5365 -1.2811,-0.24736 -2.5614,-0.49549 -3.8417,-0.74362 0,4.88316 0,9.74342 0,14.60368 1.2093,0.23744 2.4904,0.4848 3.77,0.73294 0,4.04868 0,8.08592 0,12.11171 -6.901,-1.37654 -13.8036,-2.7401 -20.6344,-4.09374 0,-4.01432 0,-8.02867 0,-12.05521 1.2094,0.22599 2.4195,0.46267 3.6998,0.72225 0,-6.87964 0.034,-13.74783 0,-20.6145 -0.035,-6.89032 -0.07,-13.75927 -0.07,-20.63738 -1.2811,-0.24813 -2.4905,-0.47412 -3.6998,-0.69934 0,-4.01434 0,-8.04089 0,-12.07813 11.6689,2.16521 23.4088,4.37545 35.1487,6.80025 2.7752,2.87599 5.5497,5.77413 8.3951,8.66157 0,4.03647 0,8.07448 0,12.09949 0,4.02655 0,8.07448 0,12.10103 -2.9164,1.96136 -5.9054,3.91279 -8.8929,5.85277 2.0629,5.38018 4.1266,10.77029 6.2612,16.16116 1.7079,0.3825 3.415,0.75507 5.1229,1.1391 0,4.05861 0,8.11799 0,12.16668 z m -29.1722,-45.11963 c 4.4823,0.85661 9.0364,1.79263 13.5905,2.75155 0,-4.87095 0,-9.75411 0,-14.63727 -4.5541,-0.94747 -9.1082,-1.88349 -13.5905,-2.7172 0,4.87018 0,9.73044 0,14.60292 z m 52.72378,50.83726 c 0,-4.07083 0,-8.15234 0,-12.23539 1.2093,0.31532 2.4187,0.6207 3.6998,0.95892 0,-6.96973 0.035,-13.95091 0,-20.90842 -0.035,-6.99111 -0.07,-13.96084 -0.07,-20.95271 -1.2811,-0.31532 -2.4904,-0.60849 -3.7005,-0.91311 0,-4.08305 0,-8.16457 0,-12.2583 13.8043,3.38294 27.6079,6.92392 41.4107,10.56644 0,2.97754 0,5.94363 0,8.90971 0,2.96609 0,5.93141 0,8.8975 -4.4114,-1.17345 -8.8227,-2.36829 -13.163,-3.54174 0,-1.80408 0,-3.59672 0,-5.40156 -3.8426,-1.02611 -7.6844,-2.05298 -11.4559,-3.01113 0,4.95111 0,9.89077 0,14.83043 5.9772,1.5674 11.9536,3.20276 17.9301,4.82666 0,4.12733 0.072,8.26534 0.072,12.39267 -5.9773,-1.64605 -11.9545,-3.29209 -17.9309,-4.88164 0,4.95035 0,9.88925 0,14.82891 3.7715,0.99251 7.6133,2.06366 11.4551,3.13557 0,-1.79339 0,-3.58602 0,-5.37941 4.3403,1.20704 8.7517,2.437 13.1638,3.65397 0,2.96609 0,5.93217 0,8.89749 0,2.96609 0,5.93141 0,8.88528 -13.8036,-3.91355 -27.6071,-7.69121 -41.4107,-11.30014 z m -636.21899,-14.48534 3.69444,-0.94518 v 5.15649 c 0,4.08228 0,8.16456 0,12.24684 v 3.08596 l -2.98518,0.78637 c -6.86513,1.80637 -13.72339,3.64252 -20.54654,5.6031 l -5.10991,1.4674 v -5.31604 c 0,-4.109 0,-8.21648 0,-12.32548 v -3.03633 l 2.92486,-0.8192 c 0.28248,-0.0786 0.56573,-0.15881 0.84822,-0.23973 0.008,-5.84209 0.0275,-11.68493 7.6e-4,-17.52778 -12.74921,3.67841 -25.39,7.59654 -37.89643,11.77044 v 51.27552 c 120.9163,-40.35101 254.16419,-57.21456 380.93938,-57.21456 126.77518,0 260.02311,16.86355 380.93939,57.21456 v -0.18859 -51.08616 c -9.2281,-3.07908 -18.5287,-6.02073 -27.8927,-8.82878 0.016,1.85523 0.03,3.71123 0.03,5.5657 v 5.25497 l -5.0664,-1.39563 c -4.2869,-1.17956 -8.573,-2.36065 -12.8638,-3.52189 0,2.17818 0,4.35637 0,6.53455 1.1498,0.3115 2.2989,0.62528 3.4479,0.94212 0,-0.0382 0,-0.0748 0,-0.11145 v -5.26873 l 5.0763,1.4109 c 4.3854,1.21926 8.7692,2.44234 13.1569,3.65321 l 2.9378,0.81157 v 3.04701 c 0,2.96609 0,5.93217 0,8.8975 0,2.9615 0,5.92377 0,8.8853 v 5.2962 l -5.0961,-1.4445 c -13.7395,-3.8953 -27.5148,-7.6645 -41.3321,-11.27801 l -2.9905,-0.78179 v -3.0913 c 0,-4.07846 0,-8.15693 0,-12.23539 v -5.18168 l 3.7051,0.96579 c 0.01,-5.23818 0.021,-10.47635 -0.01,-15.71453 l -0.01,-2.08657 c -7.2133,-1.85218 -14.4556,-3.63183 -21.72458,-5.3359 v 0.68254 l -1.769,1.18949 c -2.0659,1.39028 -4.1456,2.75995 -6.2299,4.12046 1.4246,3.712 2.8539,7.42323 4.3083,11.12454 1.0192,0.22522 2.0384,0.44968 3.0562,0.67872 l 3.12558,0.70316 v 3.20353 c 0,4.05556 0,8.11188 0,12.1682 v 4.99616 l -4.87628,-1.08795 c -4.6869,-1.04595 -9.3792,-2.07206 -14.07,-3.09816 l -2.085,-0.4558 -0.7841,-1.98655 c -1.1888,-3.01571 -2.3553,-6.04135 -3.5143,-9.06927 0,1.72544 0,3.45089 0,5.17633 v 4.88087 l -4.787,-0.95434 c -6.8742,-1.37119 -13.7524,-2.73093 -20.6282,-4.09297 l -3.2264,-0.63902 v -3.28827 c 0,-4.01891 0,-8.03706 0,-12.05521 v -4.8198 l 3.7044,0.69171 c 0.01,-5.24811 0.022,-10.49544 -0.01,-15.74431 l -0.012,-2.4286 c -8.6326,-1.63154 -17.2896,-3.16765 -25.9657,-4.60832 0.021,2.41028 0.047,4.82056 0.047,7.23084 v 4.68008 l -4.6228,-0.7253 c -4.43349,-0.69476 -8.86925,-1.38188 -13.30808,-2.0461 0,2.11787 0,4.2365 0,6.35361 1.14979,0.17102 2.29958,0.34585 3.4486,0.52298 0,-0.18476 0,-0.368 0,-0.55199 v -4.67627 l 4.62053,0.71996 c 4.38845,0.68407 8.77615,1.37883 13.16455,2.06442 l 3.386,0.52833 v 3.42722 c 0,2.87905 0,5.75963 0,8.63868 0,2.87599 0,5.75046 0,8.62646 v 4.6923 l -4.6328,-0.73828 c -13.76077,-2.19269 -27.54066,-4.26552 -41.33888,-6.20244 l -3.44631,-0.48404 v -3.48067 c 0,-3.98456 0,-7.96911 0,-11.95367 v -4.60373 l 3.70436,0.51916 c 0.008,-5.26643 0.0229,-10.53285 0,-15.79851 l -0.013,-2.57214 c -7.68662,-1.02534 -15.38242,-1.97968 -23.08202,-2.86302 l 0.008,1.64986 c 0.029,5.5932 0.01,11.18715 0,16.7811 0.0611,0.007 0.12369,0.0122 0.18476,0.0199 l 3.58297,0.37944 v 3.60206 c 0,3.9731 0,7.94621 0,11.92008 v 4.4434 l -4.41973,-0.4619 c -6.85445,-0.71614 -13.7066,-1.44067 -20.56105,-2.15375 l -2.91035,-0.3031 v 0.01 l -4.3495,-0.37639 c -6.86437,-0.59551 -13.72874,-1.20094 -20.59922,-1.7346 l -3.69291,-0.28707 v -3.70436 c 0,-3.96242 0,-7.92407 0,-11.88649 v -4.27391 l 3.70436,0.24202 c 0.008,-5.32903 0.0244,-10.65806 0,-15.98709 l -0.0137,-2.57748 c -16.20773,-1.25057 -32.39638,-2.20414 -48.52853,-2.876 0.0206,2.74316 0.0542,5.48631 0.0542,8.2287 v 4.15786 l -4.15405,-0.15651 c -4.59228,-0.17331 -9.1838,-0.33287 -13.77684,-0.4535 0,2.09802 0,4.19681 0,6.29635 1.14979,0.0267 2.29881,0.0573 3.4486,0.0909 0,-0.34966 0,-0.69858 0,-1.04825 v -4.15175 l 4.14947,0.1504 c 4.36705,0.15957 8.73335,0.32829 13.09964,0.49702 l 3.85095,0.14811 v 3.85324 c 0,2.84241 0,5.68329 0,8.52569 0,2.83782 0,5.67565 0,8.51347 v 4.16016 l -4.1571,-0.15957 c -13.75241,-0.5268 -27.51093,-0.87876 -41.26945,-1.15972 l -3.92119,-0.0809 v -3.92216 c 0,-3.95096 0,-7.90192 0,-11.85289 v -4.04182 l 3.7036,0.0351 c 0.008,-5.38629 0.0244,-10.77257 -0.004,-16.1581 l -0.0138,-2.55381 c -6.64525,-0.0931 -13.27753,-0.14125 -19.88995,-0.14125 -1.07115,0 -2.14383,0.004 -3.21651,0.006 0.01,2.80499 0.0214,5.60922 0.0328,8.41422 0.0359,8.73411 0,17.46822 0,26.20233 v 3.96548 l -3.96547,0.0374 c -4.6755,0.045 -9.35023,0.0786 -14.02573,0.11299 l -2.64543,0.0198 -1.05511,-2.42479 c -0.95358,-2.18963 -1.90639,-4.37927 -2.85615,-6.57043 0,1.73232 0,3.4654 0,5.19771 v 3.91356 l -3.91279,0.0893 c -6.85903,0.15575 -13.71729,0.33669 -20.57403,0.59551 l -4.15557,0.15651 v -4.15786 c 0,-3.95478 0,-7.9088 0,-11.86358 v -3.8563 l 3.7746,-0.14124 c 0.007,-5.46111 0.0252,-10.92146 -0.004,-16.3818 l -0.0122,-2.33928 c -7.68358,0.2863 -15.3809,0.63521 -23.08738,1.04977 l 0.013,2.62405 c 0.0282,5.35652 0.0107,10.71456 0.004,16.0726 l 3.76773,-0.1985 v 4.21971 c 0,3.95783 0,7.91719 0,11.87503 v 3.78758 l -3.78224,0.21072 c -6.85902,0.38173 -13.71881,0.76194 -20.57173,1.24751 l -4.28689,0.30463 v -4.29835 c 0,-3.96165 0,-7.9233 0,-11.88572 v -3.71658 l 3.70665,-0.27561 c 0.0229,-0.002 0.0443,-0.004 0.0672,-0.005 0.007,-5.51379 0.0252,-11.02681 -0.003,-16.53984 l -0.0107,-2.12474 c -14.13414,0.97801 -28.29043,2.18047 -42.44137,3.61427 l 0.0137,2.61947 c 0.0267,5.31224 0.0115,10.62447 0.003,15.93747 0.65048,-0.0672 1.30019,-0.13361 1.95143,-0.19927 0,-0.52985 0,-1.05817 0,-1.58725 v -3.67536 l 3.66161,-0.31378 c 4.38691,-0.37487 8.77228,-0.75813 13.15843,-1.1391 l 4.34949,-0.37639 v 4.36553 c 0,2.85309 0,5.70618 0,8.55927 0,2.85004 0,5.69932 0,8.54859 v 3.66848 l -3.65473,0.3199 c -13.318,1.16582 -26.61461,2.55381 -39.90436,3.99601 l -4.43501,0.48251 v -4.46173 c 0,-3.98074 0,-7.96148 0,-11.94298 v -3.5448 l 3.51961,-0.42907 c 0.0603,-0.008 0.12215,-0.0153 0.18323,-0.0221 0.007,-5.60006 0.026,-11.20089 -0.003,-16.80095 l -0.008,-1.68193 c -6.43683,0.75889 -12.86984,1.56512 -19.2975,2.4225 0.0191,4.12198 0.0618,8.2432 0.0618,12.36518 0,5.27788 0,10.55575 0,15.83363 v 1.73766 l -1.26966,1.1872 c -2.84393,2.65994 -5.69396,5.31223 -8.54324,7.96682 l -0.92304,0.86044 -1.25285,0.17101 c -7.83856,1.09864 -15.66185,2.3118 -23.47904,3.55244 l -1.52541,0.24125 -1.29256,-0.84516 c -2.77904,-1.81706 -5.56113,-3.62878 -8.33482,-5.45348 l -1.80255,-1.18567 v -2.15833 c 0,-8.57683 0.0351,-17.15291 0,-25.72975 l -0.005,-1.11847 c -8.05005,1.40326 -16.081,2.88896 -24.08981,4.45866 1.32767,5.78711 2.65993,11.57346 4.00822,17.35523 l 4.54189,-0.88792 v 4.8618 c 0,4.02197 0,8.04393 0,12.06665 v 3.2898 l -3.22719,0.63826 c -6.87735,1.36127 -13.7547,2.73018 -20.63205,4.09297 l -4.1029,0.8131 v 0.0832 l -3.14703,0.68941 c -6.86589,1.50404 -13.73179,3.00426 -20.57173,4.62053 l -4.92363,1.16201 v -5.05877 c 0,-4.05556 0,-8.11188 0,-12.16819 v -3.16154 l 3.07603,-0.73293 c 0.33363,-0.0802 0.66727,-0.15957 1.00167,-0.24049 1.27347,-6.25818 2.53702,-12.51864 3.79827,-18.77987 -9.90146,2.32248 -19.75406,4.78086 -29.54863,7.37819 l 0.01,1.92852 c 0.0252,5.26338 0.013,10.52751 0.005,15.79088 z m 457.25292,-32.27728 c 0,-2.10107 0,-4.20291 0,-6.30551 -2.2866,-0.22064 -4.57549,-0.42678 -6.86438,-0.62986 0,2.10718 0,4.21436 0,6.32078 0.0634,0.005 0.12674,0.0107 0.19011,0.0168 l 2.97372,0.2611 v -0.0412 z m -342.26192,2.53778 c -0.002,2.12703 -0.007,4.25407 -0.01,6.38186 2.04839,-0.31913 4.09755,-0.63063 6.14823,-0.93144 0,-2.1255 0,-4.25176 0,-6.37802 -1.4506,0.2107 -2.90119,0.42601 -4.3495,0.65047 z m 564.80919,124.58168 c 24.8487,7.6653 49.3814,16.3574 73.3925,26.2184 v -51.2755 c -5.4382,-2.23389 -10.9039,-4.4075 -16.394,-6.52229 v 31.57939 z m -715.862,0 H 138.9953 v -31.57939 c -5.48936,2.11479 -10.95505,4.2884 -16.39402,6.52229 v 51.2755 c 24.01118,-9.861 48.5438,-18.5531 73.3925,-26.2184 z m 77.72291,-10.17319 c -54.88366,12.47969 -109.64822,29.31269 -161.28866,51.7305 V 767.13372 c 12.11552,-4.53808 24.37,-8.83795 36.74053,-12.91718 v 78.14742 z M 553.92442,633.81788 c 127.5524,0 264.86348,16.18559 391.11266,54.96306 V 813.11376 C 835.327,774.59356 700.15133,751.83757 553.92442,751.83757 c -146.2269,0 -281.40256,22.75679 -391.11263,61.27619 V 688.78094 c 126.24991,-38.77671 263.561,-54.96306 391.11263,-54.96306 z"
   id="path1989" /><path
   style="clip-rule:evenodd;fill:#397511;fill-rule:evenodd;stroke-width:0.763471"
   d="m 911.85578,842.53716 c 24.8487,7.6653 49.3814,16.3574 73.3925,26.2184 v -51.2755 c -5.4382,-2.2339 -10.9039,-4.4075 -16.394,-6.5223 v 31.5794 z M 689.30851,715.41769 c 0,-2.10107 0,-4.20291 0,-6.30551 -2.2866,-0.22064 -4.57549,-0.42678 -6.86438,-0.62986 0,2.10718 0,4.21436 0,6.32078 0.0634,0.005 0.12674,0.0107 0.19011,0.0168 l 2.97372,0.2611 v -0.0412 z m -342.26192,2.53778 c -0.002,2.12703 -0.007,4.25407 -0.01,6.38186 2.04839,-0.31913 4.09755,-0.63063 6.14823,-0.93144 0,-2.1255 0,-4.25177 0,-6.37803 -1.4506,0.21071 -2.90119,0.42601 -4.3495,0.65047 z M 195.99378,842.53716 H 138.9953 v -31.5794 c -5.48936,2.1148 -10.95505,4.2884 -16.39402,6.5223 v 51.2755 c 24.01118,-9.861 48.5438,-18.5531 73.3925,-26.2184 z m -23.00797,-94.93457 v 51.27547 C 293.90211,758.5271 427.15,741.66355 553.92519,741.66355 c 126.77518,0 260.02311,16.86355 380.93939,57.21451 v -0.1885 -51.08697 c -9.2281,-3.07908 -18.5287,-6.02073 -27.8927,-8.82878 0.016,1.85523 0.03,3.71123 0.03,5.56571 v 5.25497 l -5.0664,-1.39563 c -4.2869,-1.17956 -8.573,-2.36065 -12.8638,-3.52189 0,2.17818 0,4.35637 0,6.53455 1.1498,0.3115 2.2989,0.62528 3.4479,0.94212 0,-0.0382 0,-0.0748 0,-0.11146 v -5.26872 l 5.0763,1.4109 c 4.3854,1.21926 8.7692,2.44234 13.1569,3.65321 l 2.9378,0.81156 v 3.04701 c 0,2.96609 0,5.93218 0,8.89751 0,2.9615 0,5.92377 0,8.88531 v 5.2962 l -5.0961,-1.4445 c -13.7395,-3.8953 -27.5148,-7.66451 -41.3321,-11.27802 l -2.9905,-0.78179 v -3.0913 c 0,-4.07846 0,-8.15693 0,-12.23539 v -5.18169 l 3.7051,0.96579 c 0.01,-5.23818 0.021,-10.47635 -0.01,-15.71453 l -0.01,-2.08657 c -7.2133,-1.85218 -14.4556,-3.63183 -21.72458,-5.3359 v 0.68254 l -1.769,1.18949 c -2.0659,1.39028 -4.1456,2.75995 -6.2299,4.12046 1.4246,3.712 2.8539,7.42323 4.3083,11.12454 1.0192,0.22522 2.0384,0.44968 3.0562,0.67872 l 3.12558,0.70316 v 3.20353 c 0,4.05556 0,8.11188 0,12.1682 v 4.99616 l -4.87628,-1.08795 c -4.6869,-1.04595 -9.3792,-2.07206 -14.07,-3.09816 l -2.085,-0.4558 -0.7841,-1.98654 c -1.1888,-3.01572 -2.3553,-6.04135 -3.5143,-9.06927 0,1.72544 0,3.45089 0,5.17633 v 4.88087 l -4.787,-0.95434 c -6.8742,-1.37119 -13.7524,-2.73093 -20.6282,-4.09298 l -3.2264,-0.63901 v -3.28828 c 0,-4.01891 0,-8.03705 0,-12.0552 v -4.8198 l 3.7044,0.6917 c 0.01,-5.24811 0.022,-10.49544 -0.01,-15.74431 l -0.012,-2.4286 c -8.6326,-1.63154 -17.2896,-3.16765 -25.9657,-4.60832 0.021,2.41028 0.047,4.82056 0.047,7.23084 v 4.68008 l -4.6228,-0.7253 c -4.43349,-0.69476 -8.86925,-1.38188 -13.30808,-2.0461 0,2.11787 0,4.2365 0,6.35361 1.14979,0.17102 2.29958,0.34585 3.4486,0.52298 0,-0.18476 0,-0.368 0,-0.55199 v -4.67627 l 4.62053,0.71996 c 4.38845,0.68407 8.77615,1.37883 13.16455,2.06442 l 3.386,0.52833 v 3.42722 c 0,2.87905 0,5.75963 0,8.63868 0,2.87599 0,5.75046 0,8.62646 v 4.6923 l -4.6328,-0.73828 c -13.76077,-2.19269 -27.54066,-4.26552 -41.33888,-6.20244 l -3.44631,-0.48404 v -3.48067 c 0,-3.98456 0,-7.96911 0,-11.95367 v -4.60373 l 3.70436,0.51916 c 0.008,-5.26643 0.0229,-10.53285 0,-15.79851 l -0.013,-2.57214 c -7.68662,-1.02534 -15.38242,-1.97968 -23.08202,-2.86302 l 0.008,1.64986 c 0.029,5.5932 0.01,11.18715 0,16.7811 0.0611,0.007 0.12369,0.0122 0.18476,0.0199 l 3.58297,0.37944 v 3.60206 c 0,3.9731 0,7.94621 0,11.92008 v 4.4434 l -4.41973,-0.4619 c -6.85445,-0.71614 -13.7066,-1.44067 -20.56105,-2.15375 l -2.91035,-0.3031 v 0.01 l -4.3495,-0.37639 c -6.86437,-0.59551 -13.72874,-1.20094 -20.59922,-1.7346 l -3.69291,-0.28707 v -3.70436 c 0,-3.96241 0,-7.92407 0,-11.88648 v -4.27391 l 3.70436,0.24202 c 0.008,-5.32903 0.0244,-10.65806 0,-15.98709 l -0.0137,-2.57748 c -16.20773,-1.25058 -32.39638,-2.20415 -48.52853,-2.876 0.0206,2.74316 0.0542,5.48631 0.0542,8.2287 v 4.15786 l -4.15405,-0.15651 c -4.59228,-0.17331 -9.1838,-0.33287 -13.77684,-0.4535 0,2.09802 0,4.1968 0,6.29635 1.14979,0.0267 2.29881,0.0573 3.4486,0.0909 0,-0.34967 0,-0.69858 0,-1.04825 v -4.15175 l 4.14947,0.1504 c 4.36705,0.15957 8.73335,0.32829 13.09964,0.49702 l 3.85095,0.14811 v 3.85324 c 0,2.84241 0,5.68329 0,8.52569 0,2.83782 0,5.67565 0,8.51347 v 4.16015 l -4.1571,-0.15956 c -13.75241,-0.5268 -27.51093,-0.87876 -41.26945,-1.15972 l -3.92119,-0.0809 v -3.92215 c 0,-3.95096 0,-7.90192 0,-11.85289 v -4.04182 l 3.7036,0.0351 c 0.008,-5.38629 0.0244,-10.77258 -0.004,-16.1581 l -0.0138,-2.55382 c -6.64525,-0.0931 -13.27753,-0.14124 -19.88995,-0.14124 -1.07115,0 -2.14383,0.004 -3.21651,0.006 0.01,2.80499 0.0214,5.60922 0.0328,8.41422 0.0359,8.73411 0,17.46822 0,26.20233 v 3.96547 l -3.96547,0.0374 c -4.6755,0.045 -9.35023,0.0786 -14.02573,0.11298 l -2.64543,0.0198 -1.05511,-2.4248 c -0.95358,-2.18962 -1.90639,-4.37927 -2.85615,-6.57042 0,1.73231 0,3.4654 0,5.19771 v 3.91355 l -3.91279,0.0893 c -6.85903,0.15575 -13.71729,0.33669 -20.57403,0.59551 l -4.15557,0.15651 v -4.15786 c 0,-3.95478 0,-7.9088 0,-11.86357 v -3.85631 l 3.7746,-0.14124 c 0.007,-5.46111 0.0252,-10.92146 -0.004,-16.3818 l -0.0122,-2.33928 c -7.68358,0.2863 -15.3809,0.63521 -23.08738,1.04977 l 0.013,2.62405 c 0.0282,5.35652 0.0107,10.71456 0.004,16.0726 l 3.76773,-0.1985 v 4.21971 c 0,3.95783 0,7.91719 0,11.87503 v 3.78758 l -3.78224,0.21072 c -6.85902,0.38173 -13.71881,0.76194 -20.57173,1.24752 l -4.28689,0.30462 v -4.29835 c 0,-3.96165 0,-7.9233 0,-11.88572 v -3.71658 l 3.70665,-0.27561 c 0.0229,-0.002 0.0443,-0.004 0.0672,-0.005 0.007,-5.51379 0.0252,-11.02681 -0.003,-16.53984 l -0.0107,-2.12474 c -14.13414,0.97801 -28.29043,2.18047 -42.44137,3.61427 l 0.0137,2.61947 c 0.0267,5.31224 0.0115,10.62447 0.003,15.93747 0.65048,-0.0672 1.30019,-0.13361 1.95143,-0.19927 0,-0.52985 0,-1.05817 0,-1.58725 v -3.67536 l 3.66161,-0.31378 c 4.38691,-0.37487 8.77228,-0.75813 13.15843,-1.1391 l 4.34949,-0.37639 v 4.36554 c 0,2.85308 0,5.70618 0,8.55926 0,2.85005 0,5.69932 0,8.54859 v 3.66849 l -3.65473,0.31989 c -13.318,1.16583 -26.61461,2.55381 -39.90436,3.99601 l -4.43501,0.48251 v -4.46173 c 0,-3.98073 0,-7.96148 0,-11.94298 v -3.5448 l 3.51961,-0.42907 c 0.0603,-0.008 0.12215,-0.0153 0.18323,-0.0221 0.007,-5.60006 0.026,-11.20089 -0.003,-16.80095 l -0.008,-1.68193 c -6.43683,0.75889 -12.86984,1.56512 -19.2975,2.42251 0.0191,4.12198 0.0618,8.2432 0.0618,12.36518 0,5.27788 0,10.55575 0,15.83362 v 1.73766 l -1.26966,1.1872 c -2.84393,2.65994 -5.69396,5.31223 -8.54324,7.96682 l -0.92304,0.86044 -1.25285,0.17102 c -7.83856,1.09864 -15.66185,2.31179 -23.47904,3.55244 l -1.52541,0.24125 -1.29256,-0.84516 c -2.77904,-1.81706 -5.56113,-3.62878 -8.33482,-5.45348 l -1.80255,-1.18567 v -2.15833 c 0,-8.57684 0.0351,-17.15291 0,-25.72975 l -0.005,-1.11848 c -8.05005,1.40326 -16.081,2.88897 -24.08981,4.45867 1.32767,5.78711 2.65993,11.57346 4.00822,17.35523 l 4.54189,-0.88792 v 4.86179 c 0,4.02197 0,8.04393 0,12.06666 v 3.2898 l -3.22719,0.63826 c -6.87735,1.36127 -13.7547,2.73018 -20.63205,4.09297 l -4.1029,0.8131 v 0.0832 l -3.14703,0.68941 c -6.86589,1.50404 -13.73179,3.00426 -20.57173,4.62053 l -4.92363,1.16201 v -5.05877 c 0,-4.05556 0,-8.11188 0,-12.1682 v -3.16154 l 3.07603,-0.73293 c 0.33363,-0.0802 0.66727,-0.15957 1.00167,-0.24049 1.27347,-6.25818 2.53702,-12.51864 3.79827,-18.77987 -9.90146,2.32248 -19.75406,4.78086 -29.54863,7.37819 l 0.01,1.92852 c 0.0259,5.26338 0.0137,10.52675 0.005,15.79012 l 3.69443,-0.94518 v 5.15649 c 0,4.08228 0,8.16456 0,12.24684 v 3.08595 l -2.98517,0.78638 c -6.86513,1.80637 -13.7234,3.64252 -20.54654,5.60311 l -5.10991,1.4674 v -5.31606 c 0,-4.109 0,-8.21647 0,-12.32548 v -3.03632 l 2.92486,-0.81921 c 0.28248,-0.0786 0.56573,-0.1588 0.84821,-0.23973 0.008,-5.84208 0.0275,-11.68493 7.7e-4,-17.52777 -12.74921,3.67993 -25.39001,7.59806 -37.89643,11.77196 z"
   id="path1991" /><path
   style="fill:#00243e;stroke-width:0.763471"
   d="m 231.60438,710.04591 c -1.20934,0.29317 -2.41868,0.60849 -3.62802,0.90242 0,6.99111 0.0351,13.97229 0.071,20.97561 0.0343,6.96897 0,13.95015 0,20.94126 1.20933,-0.31531 2.41944,-0.63139 3.69978,-0.95816 0,4.08228 0,8.16533 0,12.24685 -6.90102,1.81553 -13.80356,3.66542 -20.63358,5.62678 0,-4.10442 0,-8.20884 0,-12.32548 1.20934,-0.33822 2.49044,-0.71003 3.77155,-1.06046 0,-7.01401 0.0351,-14.02879 0,-21.02066 -0.0351,-7.02546 -0.0718,-14.03947 -0.0718,-21.05425 -1.20934,0.32753 -2.41867,0.65353 -3.62801,0.98106 0,1.80484 0,3.59672 0,5.40156 -4.41134,1.1956 -8.75168,2.37973 -13.02101,3.52953 0,-2.96609 0,-5.93141 0,-8.89749 0,-2.96609 0,-5.93141 0,-8.90895 15.43968,-4.10519 30.95037,-8.04088 46.53282,-11.7964 0,2.9325 0,5.86423 0,8.79596 0,2.92104 0,5.85353 0,8.77381 -4.41134,1.04901 -8.75167,2.13161 -13.09201,3.20352 -7.6e-4,-1.78194 -7.6e-4,-3.56388 -7.6e-4,-5.35651 z"
   id="path1993" /><path
   style="fill:#00243e;stroke-width:0.763471"
   d="m 285.68029,751.44438 c 0,-4.02656 0,-8.06303 0,-12.11171 1.2101,-0.23668 2.41944,-0.46191 3.70055,-0.72149 -0.42755,-1.68039 -0.78256,-3.37225 -1.1391,-5.06411 -4.19757,0.84593 -8.3959,1.75981 -12.52322,2.63933 -0.42678,1.86134 -0.7818,3.69901 -1.13758,5.54814 1.20934,-0.27027 2.49045,-0.5413 3.77155,-0.81233 0,4.04869 0,8.08592 0,12.12316 -6.90178,1.51091 -13.80432,3.02258 -20.6351,4.63503 0,-4.04792 0,-8.10806 0,-12.1682 1.1391,-0.27103 2.27743,-0.55276 3.48677,-0.83524 1.92166,-9.41589 3.80667,-18.79513 5.69168,-28.14689 1.88578,-9.35635 3.84255,-18.69818 5.76345,-28.03543 6.11922,-1.25209 12.23768,-2.51487 18.42867,-3.69903 1.92013,8.55928 3.80743,17.10406 5.76344,25.63203 1.95678,8.53332 3.91279,17.05137 5.90545,25.55414 1.13758,-0.22446 2.34768,-0.4619 3.55778,-0.69857 0,4.02578 0,8.05157 0,12.06666 -6.90178,1.36509 -13.80433,2.74087 -20.63434,4.09451 z m -7.32856,-27.94534 c 2.41868,-0.50771 4.83735,-1.02611 7.25756,-1.5445 -0.64056,-2.67292 -1.35211,-5.34583 -1.92166,-8.02943 -0.56879,-2.68285 -1.20934,-5.36797 -1.77889,-8.05157 -0.64055,2.94318 -1.28034,5.89858 -1.84989,8.81809 -0.56802,2.92103 -1.13834,5.87644 -1.70712,8.80741 z"
   id="path1995" /><path
   style="fill:#00243e;stroke-width:0.763471"
   d="m 370.28055,730.26568 c -2.84622,2.66147 -5.69168,5.31147 -8.53866,7.96148 -7.89735,1.10475 -15.72446,2.32248 -23.5508,3.56312 -2.77599,-1.81553 -5.55044,-3.61961 -8.32566,-5.44736 0,-8.58218 0.0359,-17.16437 0,-25.74578 -0.0344,-8.58142 -0.0702,-17.17506 -0.0702,-25.76793 2.77446,-2.71719 5.61991,-5.43591 8.4669,-8.15387 7.75534,-1.16124 15.58245,-2.32248 23.40879,-3.3608 2.84623,1.89417 5.69245,3.78911 8.53867,5.68328 0,3.47379 0,6.93614 0,10.39848 -4.41134,0.5978 -8.75167,1.18414 -13.09201,1.76973 0,-1.74835 0,-3.49594 0,-5.25498 -4.76788,0.66575 -9.46323,1.36433 -14.15934,2.08657 0,6.84452 0.0351,13.67988 0.0702,20.5244 0.0344,6.82238 0,13.66766 0,20.50226 4.69611,-0.75584 9.39223,-1.47732 14.15934,-2.15375 0,-4.81598 0,-9.61974 0,-14.4571 -2.98823,0.41762 -5.97645,0.84593 -8.96468,1.30783 0,-4.00364 -0.0718,-8.02866 -0.0718,-12.04376 7.32856,-1.07115 14.65713,-2.07588 22.05822,-3.07984 0,5.27787 0.071,10.55575 0.071,15.83363 0,5.27864 0,10.55652 0,15.83439 z"
   id="path1997" /><path
   style="fill:#00243e;stroke-width:0.763471"
   d="m 393.83211,734.06625 c 0,-3.97006 0,-7.9508 0,-11.94222 1.20934,-0.14735 2.41868,-0.28172 3.69979,-0.42907 0,-6.79948 0.0351,-13.60048 0,-20.38927 -0.0359,-6.81169 -0.0718,-13.61117 -0.0718,-20.41217 -1.2811,0.14735 -2.49044,0.28172 -3.69978,0.42907 0,-3.98074 0,-7.96148 0,-11.95443 6.83078,-0.74439 13.73256,-1.43151 20.63434,-2.10795 0,3.98074 0,7.96148 0,11.93077 -1.28111,0.12444 -2.56068,0.25958 -3.77002,0.38402 0,6.78879 0.0351,13.57758 0.0702,20.38927 0.0344,6.77657 0,13.56612 0,20.35567 3.273,-0.33821 6.617,-0.68865 9.96177,-1.01541 0,-1.7369 0,-3.47303 0,-5.2107 4.34034,-0.37181 8.75244,-0.75583 13.16301,-1.13833 0,2.85309 0,5.70618 0,8.55928 0,2.85309 0,5.70618 0,8.54858 -13.37754,1.17193 -26.68256,2.55916 -39.98758,4.00289 z"
   id="path1999" /><path
   style="fill:#00243e;stroke-width:0.763471"
   d="m 457.37049,728.25852 c 0,-3.95784 0,-7.91644 0,-11.88572 1.20934,-0.0901 2.49044,-0.18018 3.77002,-0.27104 0,-6.76588 0.0344,-13.53329 0,-20.28696 -0.0351,-6.78955 -0.0702,-13.55467 -0.0702,-20.33277 -1.2811,0.0901 -2.56221,0.18018 -3.77155,0.25958 0,-3.97005 0,-7.93933 0,-11.90938 6.83078,-0.45122 13.73256,-0.82303 20.63358,-1.18415 0,3.97005 0,7.93934 0,11.89793 -1.28034,0.0672 -2.56068,0.13514 -3.77078,0.20308 0,6.7659 0.0351,13.53253 0.071,20.30988 0.0344,6.74298 0,13.51039 0,20.27626 1.20934,-0.0672 2.49044,-0.13589 3.77155,-0.20308 0,3.97006 0,7.92788 0,11.87504 -6.90178,0.38325 -13.8028,0.76652 -20.63358,1.25133 z"
   id="path2001" /><path
   style="fill:#00243e;stroke-width:0.763471"
   d="m 532.7213,725.12371 c -2.41945,-5.5596 -4.83507,-11.11004 -7.18656,-16.66735 -2.34386,-5.53899 -4.76712,-11.10852 -7.18656,-16.6681 0.0718,3.64252 0.0718,7.26214 0.0718,10.89397 0,3.63183 0,7.26214 0,10.89396 1.20934,-0.0229 2.49044,-0.0565 3.77155,-0.0794 0,3.9586 0,7.90498 0,11.85289 -6.90178,0.15728 -13.80433,0.33821 -20.63434,0.5978 0,-3.94715 0,-7.90499 0,-11.86358 1.2101,-0.0458 2.49044,-0.0901 3.77155,-0.14659 0,-6.75595 0.0344,-13.51115 0,-20.25413 -0.0351,-6.76588 -0.071,-13.52184 -0.071,-20.28772 -1.2811,0.0443 -2.49044,0.0901 -3.70054,0.13513 0,-3.94714 0,-7.90498 0,-11.87503 5.90545,-0.21455 11.8109,-0.37181 17.78812,-0.50771 2.34844,5.5825 4.76559,11.14286 7.11479,16.71315 2.34538,5.5596 4.76788,11.1192 7.25832,16.72384 -0.0718,-3.65321 -0.0718,-7.28504 -0.0718,-10.92756 0,-3.63031 0,-7.27283 0,-10.91535 -1.2811,0.0107 -2.56221,0.0336 -3.77155,0.0565 0,-3.9586 0,-7.91719 0,-11.87503 6.83078,-0.0786 13.73256,-0.13513 20.63358,-0.18018 0,3.95784 0,7.91643 0,11.87427 -1.28034,0.0122 -2.56068,0.0229 -3.84179,0.0229 0,8.72877 0.0359,17.46899 0.0718,26.18554 0.0351,8.73946 0,17.46823 0,26.18631 -4.69688,0.0428 -9.39299,0.0779 -14.01733,0.11147 z"
   id="path2003" /><path
   style="fill:#00243e;stroke-width:0.763471"
   d="m 574.13122,725.1008 c 0,-3.94715 0,-7.89429 0,-11.85289 1.2101,0.0114 2.41944,0.0229 3.70054,0.0565 0,-6.7552 0.0359,-13.49971 0,-20.24268 -0.0351,-6.76589 -0.0718,-13.50963 -0.0718,-20.26406 -1.28111,-0.0344 -2.49045,-0.0458 -3.69978,-0.0565 0,-3.94714 0,-7.90574 0,-11.86434 13.73255,0.26034 27.53612,0.60925 41.33968,1.1055 0,2.8531 0,5.70619 0,8.53638 0,2.8424 0,5.69549 0,8.53637 -4.4121,-0.15727 -8.75167,-0.32677 -13.09201,-0.4848 0,-1.72545 0,-3.45089 0,-5.18779 -3.84179,-0.13437 -7.68434,-0.22523 -11.45589,-0.30386 0,4.77017 0,9.54033 0,14.29905 5.97646,0.12368 11.95367,0.32753 17.93089,0.55276 0,3.96928 0.0702,7.95002 0.0702,11.90786 -5.97645,-0.22599 -11.95367,-0.42831 -17.93089,-0.55199 0,4.78162 0,9.5411 0,14.31127 3.77155,0.0779 7.61334,0.16873 11.45589,0.31531 0,-1.7369 0,-3.46234 0,-5.18779 4.34034,0.15804 8.68067,0.32753 13.09201,0.49702 0,2.83019 0,5.68328 0,8.52569 0,2.84164 0,5.68328 0,8.51423 -13.8028,-0.52985 -27.60636,-0.87952 -41.33892,-1.16124 z"
   id="path2005" /><path
   style="fill:#00243e;stroke-width:0.763471"
   d="m 689.61084,731.38264 c 0,-3.95936 0,-7.92788 0,-11.90863 1.2101,0.12369 2.41944,0.25959 3.70055,0.38251 0,-4.79231 0,-9.56249 0,-14.36624 -4.98089,-0.51916 -9.96101,-0.94747 -14.87166,-1.37578 0,4.80376 0,9.57393 0,14.35555 1.2811,0.113 2.56221,0.22523 3.84255,0.33822 0,3.97005 0,7.93934 0,11.89794 -6.90255,-0.59856 -13.80433,-1.20705 -20.6351,-1.7369 0,-3.95784 0,-7.91643 0,-11.88572 1.2101,0.0786 2.41944,0.16873 3.70054,0.25882 0,-6.76589 0.0351,-13.54399 0,-20.29918 -0.0351,-6.77734 -0.0718,-13.55467 -0.0718,-20.32055 -1.2811,-0.0909 -2.49044,-0.1695 -3.69978,-0.26035 0,-3.95783 0,-7.92712 0,-11.89717 6.83078,0.50771 13.7318,1.0826 20.63358,1.65826 0,3.98074 0,7.95002 0,11.92008 -1.28111,-0.113 -2.56068,-0.22523 -3.84179,-0.32753 0,4.79307 0,9.57393 0,14.35631 4.90912,0.41762 9.89001,0.84593 14.8709,1.35364 0,-4.79308 0,-9.57393 0,-14.36701 -1.28111,-0.12368 -2.49045,-0.25881 -3.69979,-0.37181 0,-3.97005 0,-7.93934 0,-11.92008 6.83078,0.67644 13.6608,1.35364 20.56334,2.04076 0,3.99143 0,7.97217 0,11.94222 -1.2811,-0.13513 -2.56221,-0.25958 -3.77155,-0.38402 0,6.80023 0.0351,13.58979 0.071,20.38926 0.0343,6.77657 0,13.57758 0,20.36713 1.2101,0.12368 2.49044,0.25881 3.77154,0.39471 0,3.98074 0,7.95003 0,11.92008 -6.90025,-0.72301 -13.73103,-1.44449 -20.56257,-2.15452 z"
   id="path2007" /><path
   style="fill:#00243e;stroke-width:0.763471"
   d="m 733.79751,736.45667 c 0,-3.98074 0,-7.96149 0,-11.95367 1.20934,0.16949 2.41944,0.33822 3.69978,0.5184 0,-6.81093 0.0344,-13.62338 0,-20.42286 -0.0351,-6.82314 -0.071,-13.63407 -0.071,-20.45721 -1.28034,-0.16873 -2.49045,-0.32677 -3.69978,-0.4955 0,-3.99295 0,-7.98438 0,-11.97657 13.80356,1.83767 27.60712,3.7998 41.40989,5.87491 0,2.88669 0,5.77337 0,8.64936 0,2.88668 0,5.77413 0,8.64936 -4.4113,-0.67566 -8.8226,-1.35209 -13.16298,-2.00716 0,-1.74834 0,-3.49517 0,-5.25496 -3.84179,-0.58559 -7.6851,-1.1727 -11.45513,-1.67964 0,4.82666 0,9.64188 0,14.45709 5.97646,0.85662 11.95368,1.76973 17.92941,2.69506 0,4.01433 0.072,8.04088 0.072,12.05521 -5.9772,-0.93602 -11.95365,-1.86058 -17.93087,-2.72865 0,4.83736 0,9.64188 0,14.45709 3.77155,0.52909 7.61334,1.12765 11.45513,1.73614 0,-1.74835 0,-3.49594 0,-5.23207 4.34114,0.67643 8.75164,1.375 13.16374,2.06366 0,2.876 0,5.75122 0,8.63792 0,2.87599 0,5.75123 0,8.62645 -13.80277,-2.19803 -27.60709,-4.27238 -41.40989,-6.21236 z"
   id="path2009" /><path
   style="fill:#00243e;stroke-width:0.763471"
   d="m 844.723,756.46268 c -4.6953,-1.04901 -9.3914,-2.07512 -14.0883,-3.10122 -1.9217,-4.87171 -3.7739,-9.74342 -5.6215,-14.59299 -1.8514,-4.8595 -3.6997,-9.70983 -5.5496,-14.5365 -1.2811,-0.24736 -2.5622,-0.49549 -3.8418,-0.74438 0,4.88316 0,9.74342 0,14.60368 1.2093,0.23744 2.4904,0.4848 3.77,0.73293 0,4.04869 0,8.08592 0,12.11171 -6.901,-1.37654 -13.8036,-2.74086 -20.6336,-4.09374 0,-4.01433 0,-8.02866 0,-12.05521 1.2094,0.22523 2.4195,0.46267 3.6998,0.72225 0,-6.87964 0.034,-13.74783 0,-20.61449 -0.035,-6.89033 -0.07,-13.75928 -0.07,-20.6374 -1.2811,-0.24813 -2.4905,-0.47411 -3.6998,-0.69934 0,-4.01433 0,-8.04088 0,-12.07811 11.6689,2.1652 23.4088,4.37545 35.1494,6.80023 2.7753,2.876 5.5497,5.77414 8.3952,8.66082 0,4.03724 0,8.07448 0,12.10026 0,4.02655 0,8.07447 0,12.10102 -2.9172,1.96212 -5.9062,3.91279 -8.8937,5.85277 2.0629,5.37942 4.1266,10.77029 6.2605,16.1604 1.7079,0.3825 3.415,0.75507 5.1229,1.1391 7e-4,4.06014 7e-4,8.11952 7e-4,12.16821 z m -29.1722,-45.11963 c 4.4823,0.85661 9.0364,1.79263 13.5905,2.75078 0,-4.87094 0,-9.75411 0,-14.63727 -4.5541,-0.94747 -9.1082,-1.88348 -13.5905,-2.71719 0,4.87094 0,9.7312 0,14.60368 z"
   id="path2011" /><path
   style="fill:#00243e;stroke-width:0.763471"
   d="m 868.27458,762.18031 c 0,-4.07083 0,-8.15234 0,-12.23539 1.2093,0.31532 2.4187,0.61994 3.6998,0.95816 0,-6.96973 0.035,-13.95091 0,-20.90843 -0.035,-6.9911 -0.07,-13.96083 -0.07,-20.95271 -1.2811,-0.31531 -2.4904,-0.60848 -3.7005,-0.91311 0,-4.08304 0,-8.16456 0,-12.25829 13.8043,3.38294 27.6079,6.92392 41.4107,10.56644 0,2.97754 0,5.94362 0,8.90971 0,2.96609 0,5.93141 0,8.8975 -4.4114,-1.17346 -8.8227,-2.36829 -13.163,-3.54175 0,-1.80408 0,-3.59671 0,-5.40156 -3.8426,-1.0261 -7.6851,-2.05297 -11.4559,-3.01113 0,4.95111 0,9.89077 0,14.82967 5.9772,1.56741 11.9536,3.20276 17.9309,4.82667 0,4.12732 0.072,8.26534 0.072,12.39266 -5.9772,-1.64604 -11.9544,-3.29285 -17.9301,-4.8824 0,4.95035 0,9.89001 0,14.82967 3.7716,0.99251 7.6133,2.06366 11.4551,3.13481 0,-1.79339 0,-3.58602 0,-5.37942 4.3404,1.20705 8.7517,2.43624 13.1638,3.65398 0,2.96608 0,5.93217 0,8.89749 0,2.96609 0,5.93218 0,8.88608 -13.8051,-3.91206 -27.6086,-7.69048 -41.4122,-11.29865 z"
   id="path2013" /><polygon
   style="clip-rule:evenodd;fill:#509622;fill-rule:evenodd"
   points="959.995,1131.932 638.5,975.491 959.995,1161.104 1281.49,975.491 "
   id="polygon2015"
   transform="matrix(0.76347135,0,0,0.76347135,-179.00426,62.471035)" /><path
   style="clip-rule:evenodd;fill:#509622;fill-rule:evenodd;stroke-width:0.763471"
   d="m 733.91432,137.15304 c 3.12718,2.37898 6.20702,4.8198 9.238,7.32093 -15.06787,-9.07844 -15.90921,-7.41025 -34.19359,4.45104 20.67099,8.89444 17.95837,4.58312 34.19359,-4.45104 7.34078,6.05585 14.3922,12.46367 21.1222,19.19291 6.72998,6.73 13.13708,13.78142 19.19368,21.12219 -13.0561,-11.78952 -14.2013,-10.3122 -34.41501,-2.16138 18.59201,12.67896 16.75211,7.92865 34.41501,2.16138 6.0566,7.34002 11.7628,14.97015 17.0911,22.85605 5.3763,7.95766 10.3671,16.1749 14.948,24.61355 -10.5749,-14.0578 -11.9797,-12.82556 -33.3744,-8.66922 15.8397,15.9848 14.9381,10.97108 33.3744,8.66922 4.5816,8.43865 8.7547,17.09947 12.4965,25.94427 3.8105,9.00592 7.1728,18.20193 10.0724,27.53994 -7.6507,-15.8405 -9.2677,-14.90372 -31.0626,-14.97244 12.4423,18.75162 12.5286,13.65851 31.0626,14.97244 2.8997,9.33879 5.3367,18.82034 7.2981,28.40191 2.0148,9.8442 3.52638,19.78841 4.53268,29.78301 -4.39448,-17.0338 -6.16428,-16.43219 -27.52238,-20.77405 8.5226,20.8275 9.6068,15.84966 27.52238,20.77405 1.007,9.99461 1.5109,20.04113 1.5109,30.08917 0,0.78409 0,1.56894 -0.01,2.35302 h 7.2958 c 0.01,-0.78408 0.01,-1.56893 0.01,-2.35302 0,-10.29464 -0.5161,-20.587 -1.5475,-30.82745 -1.0322,-10.23968 -2.5806,-20.42819 -4.6442,-30.51441 -2.0087,-9.81597 -4.506,-19.53038 -7.47668,-29.0982 -4.5564,-16.99105 -2.7195,-17.33767 13.73708,-31.62756 2.8295,22.32466 -0.5634,18.52488 -13.73708,31.62756 -2.9707,-9.56705 -6.4162,-18.98753 -10.3191,-28.21485 -3.8341,-9.06164 -8.1088,-17.93394 -12.8034,-26.58024 -7.7805,-15.77714 -6.0474,-16.47495 7.308,-33.69886 7.127,21.34513 3.0584,18.27979 -7.308,33.69886 -4.6938,-8.64556 -9.8068,-17.06435 -15.3152,-25.2167 -5.4588,-8.07982 -11.3047,-15.89623 -17.5102,-23.41719 -10.6657,-13.98908 -9.0983,-15.00679 0.7001,-34.47532 11.0932,19.57922 6.5116,17.35218 -0.7001,34.47532 -6.2055,-7.5202 -12.7699,-14.74568 -19.6648,-21.63983 -6.89488,-6.89491 -14.11961,-13.45924 -21.6398,-19.66397 -13.13018,-11.70707 -11.78494,-13.00344 -5.86499,-33.97905 14.61285,17.11397 9.69151,15.79851 5.86499,33.97905 -3.08824,-2.5477 -6.22611,-5.03509 -9.41207,-7.45988 -4.09374,-9.61057 -8.27756,-9.51743 -26.30159,-11.95672 8.42185,17.23689 10.21448,16.1184 21.83528,17.72551 z m -359.9798,0 c -3.12717,2.37898 -6.20702,4.8198 -9.238,7.32093 15.06787,-9.07844 15.90922,-7.41025 34.19359,4.45104 -20.67175,8.89444 -17.95837,4.58312 -34.19359,-4.45104 -7.34078,6.05585 -14.3922,12.46367 -21.1222,19.19291 -6.73,6.73 -13.13705,13.78142 -19.19367,21.12219 13.05689,-11.78952 14.20133,-10.3122 34.415,-2.16138 -18.59205,12.67896 -16.75209,7.92865 -34.415,2.16138 -6.05662,7.34002 -11.7628,14.97015 -17.09107,22.85605 -5.37636,7.95766 -10.36717,16.1749 -14.948,24.61355 10.57484,-14.0578 11.97963,-12.82556 33.37438,-8.66922 -15.83974,15.9848 -14.93808,10.97108 -33.37438,8.66922 -4.58159,8.43865 -8.75473,17.09947 -12.4965,25.94427 -3.81049,9.00592 -7.17281,18.20193 -10.07248,27.53994 7.64998,-15.8405 9.26778,-14.90372 31.06183,-14.97244 -12.44153,18.75162 -12.52856,13.65851 -31.06183,14.97244 -2.89966,9.33879 -5.33666,18.82034 -7.29802,28.40191 -2.0148,9.8442 -3.52648,19.78841 -4.53273,29.78301 4.39454,-17.0338 6.16427,-16.43219 27.52238,-20.77405 -8.52263,20.8275 -9.60676,15.84966 -27.52238,20.77405 -1.00702,9.99461 -1.51091,20.04113 -1.51091,30.08917 0,0.78409 0.003,1.56894 0.009,2.35302 h -7.29573 c -0.006,-0.78408 -0.009,-1.56893 -0.009,-2.35302 0,-10.29464 0.5161,-20.587 1.54755,-30.82745 1.03222,-10.23968 2.57977,-20.42819 4.6442,-30.51441 2.00869,-9.81597 4.50601,-19.53038 7.47667,-29.0982 4.5564,-16.99105 2.71949,-17.33767 -13.73714,-31.62756 -2.82942,22.32466 0.56345,18.52488 13.73714,31.62756 2.97067,-9.56705 6.41622,-18.98753 10.31908,-28.21485 3.83416,-9.06164 8.10883,-17.93394 12.80342,-26.58024 7.78053,-15.77714 6.04745,-16.47495 -7.30795,-33.69886 -7.127,21.34513 -3.05847,18.27979 7.30795,33.69886 4.69382,-8.64556 9.80679,-17.06435 15.31523,-25.2167 5.45882,-8.07982 11.30549,-15.89623 17.51022,-23.41719 10.66569,-13.98908 9.09829,-15.00679 -0.7001,-34.47532 -11.09324,19.57922 -6.51242,17.35218 0.7001,34.47532 6.20473,-7.5202 12.76982,-14.74568 19.66473,-21.63983 6.89491,-6.89491 14.11964,-13.45924 21.63983,-19.66397 13.13018,-11.70707 11.78495,-13.00344 5.86499,-33.97905 -14.61284,17.11397 -9.69151,15.79851 -5.86499,33.97905 3.08824,-2.5477 6.22611,-5.03509 9.41208,-7.45988 4.09373,-9.61057 8.27755,-9.51743 26.30158,-11.95672 -8.42185,17.23689 -10.21371,16.1184 -21.83528,17.72551 z m -143.16767,177.8873 c 1.79721,22.43155 4.3411,18.01869 19.91591,28.14919 0.98412,-17.56366 -0.8841,-17.52701 -19.91591,-28.14919 z m 646.31513,0 c -1.7972,22.43155 -4.3411,18.01869 -19.9159,28.14919 -0.9841,-17.56366 0.8841,-17.52701 19.9159,-28.14919 z"
   id="path2017" /><path
   style="clip-rule:evenodd;fill:#fefefe;fill-rule:evenodd;stroke-width:0.763471"
   d="m 800.0172,376.37076 c 0.01,-0.82684 0.032,-1.64987 0.032,-2.47823 0,-135.92462 -110.19949,-246.12484 -246.12488,-246.12484 -135.91546,0 -246.12407,110.20862 -246.12407,246.12484 0,0.82836 0.0229,1.65139 0.0313,2.47823 h 14.64261 c -0.008,-0.82608 -0.0145,-1.65216 -0.0145,-2.47823 0,-11.60782 0.85967,-23.21487 2.57519,-34.69596 l 32.47349,-8.97766 7.73091,46.15185 h 20.77864 l -9.38536,-55.95024 63.09098,-71.55406 77.26178,10.63209 21.87116,88.84365 -30.64345,28.02856 h 30.36097 l 13.715,-12.54156 29.1165,12.54156 h 94.5796 l 55.20737,-36.34429 54.14766,30.98394 0.054,2.88211 c 0,0.82608 -0.01,1.65215 -0.015,2.47824 z m -201.19608,-184.2119 -75.85012,47.4925 -74.54458,-10.27022 17.58351,-69.64385 c 27.7728,-11.4452 57.53062,-17.28805 87.53199,-17.31553 l 20.98783,17.0109 z m 143.7418,47.58106 c 22.52622,31.62909 36.66338,68.25129 41.20758,106.78369 l -44.02555,-25.21135 -18.1897,-75.85623 z M 620.28535,186.71378 594.62661,152.26214 c 1.34294,-1.83539 2.69734,-3.66237 4.06472,-5.47943 50.57921,9.92436 96.32412,36.57409 130.07796,75.4615 l -18.62794,5.06716 z"
   id="path2019" /><path
   style="clip-rule:evenodd;fill:#fefefe;fill-rule:evenodd;stroke-width:0.763471"
   d="m 164.24254,419.8787 c -10.58248,0 -21.16419,0 -31.64665,0 -3.56083,18.17596 -7.23237,36.57486 -10.68097,55.09056 -3.47379,18.65237 -7.02164,37.61929 -10.48322,56.72516 -3.56007,-18.11946 -7.13846,-36.48935 -10.58172,-55.00658 -3.47913,-18.7081 -7.02164,-37.67579 -10.48322,-56.80992 -10.58171,0 -21.16419,0 -31.64665,0 5.83521,29.19363 11.62232,57.89099 17.50487,86.00354 5.78711,27.65369 11.76815,54.75234 17.70261,81.43872 0,16.59787 0,33.25147 0,49.82109 0,16.59786 0,33.19573 0,49.76459 11.57041,-4.48082 23.14158,-8.93262 34.81124,-13.07521 0,-9.04561 0,-18.14695 0,-27.22081 0,-15.80844 0,-31.61764 0,-47.42608 0,-6.67808 0,-13.35693 0,-20.06403 5.83521,-27.58727 11.82006,-54.81876 17.70261,-81.55095 5.78635,-26.30083 11.86663,-52.18785 17.8011,-77.69008 z M 92.83659,557.4318 c 2.10565,9.57546 4.2281,19.14787 6.3559,28.71798 l 0.12826,0.57871 v 0.59245 c 0,16.60703 0,33.21406 0,49.82109 0,13.96618 0,27.93236 0,41.89778 7.98133,-3.07221 15.97793,-6.10548 24.02263,-9.00743 0,-7.80726 0,-15.61452 0,-23.42254 0,-15.80844 0,-31.61764 0,-47.42608 0,-6.68801 0,-13.37602 0,-20.06403 v -0.5642 l 0.11681,-0.55199 c 1.92013,-9.07691 3.86316,-18.14924 5.82299,-27.21775 -5.47943,0.94745 -10.93367,1.9102 -16.35202,2.89202 l -1.28416,7.09035 -1.3002,-6.61548 c -5.87338,1.07268 -11.71317,2.16445 -17.51021,3.27912 z m 90.94242,-15.32897 v 87.09223 c 0,4.83353 0.63139,11.43145 4.04563,15.20529 2.88134,3.1852 6.96515,2.78743 10.79625,1.74072 17.28804,-4.7259 34.66923,-9.11203 52.14204,-13.10271 5.45424,-1.24598 9.90069,-3.80285 13.03093,-8.4982 l 0.0321,-0.0481 0.0328,-0.0473 c 3.36004,-4.81216 4.46784,-10.57408 4.46784,-16.35585 v -76.72126 c -7.42171,0.80546 -14.80295,1.64146 -22.14373,2.50724 v 72.60765 4.37545 l -4.28154,0.90243 c -9.89459,2.08656 -19.78307,4.19908 -29.68301,6.25893 l -6.49256,1.35058 v -6.63227 -73.73072 c -7.36291,1.00091 -14.67773,2.03389 -21.94674,3.09588 z m 109.47873,-13.31265 v 76.9037 c 0,4.44417 0.70545,9.94956 3.93493,13.31188 3.01266,3.13635 7.41178,3.14626 11.44139,2.47442 17.31934,-2.88821 34.67992,-5.52602 52.07485,-7.91338 5.03051,-0.69094 9.61058,-2.45762 12.78815,-6.55593 l 0.0641,-0.0809 c 3.23177,-4.0067 4.24337,-8.97843 4.24337,-14.02802 v -70.96469 c -7.41254,0.47793 -14.79378,0.9864 -22.14372,1.52311 v 65.8349 4.77399 l -4.73887,0.58024 c -9.86787,1.20857 -19.73268,2.44616 -29.57917,3.82042 l -6.1406,0.85736 v -6.20015 -66.38917 c -7.34994,0.65353 -14.66552,1.33836 -21.94446,2.05221 z m 179.5196,74.8179 c 7.4324,-0.36647 14.86632,-0.70087 22.30329,-0.96885 -2.93173,-11.40244 -5.89476,-22.79725 -8.72648,-34.22489 -3.36996,-13.60048 -6.83383,-27.17729 -10.18776,-40.78159 l -1.05664,-4.2846 3.99066,-1.88424 c 2.03236,-0.95969 3.67001,-2.46602 4.9702,-4.2533 -27.45519,0.6833 -54.58286,1.7682 -81.33413,3.23788 v 88.29393 c 7.38048,-0.67567 14.76172,-1.34142 22.14372,-2.00487 0,-11.83534 0,-23.67067 0,-35.506 0,-13.47909 0,-26.95817 0,-40.43726 v -5.17252 l 5.16794,-0.21759 c 6.10777,-0.25653 12.21554,-0.50923 18.32408,-0.73369 l 4.38614,-0.1611 1.04977,4.2617 c 3.26003,13.23096 6.71015,26.41458 9.98697,39.64172 2.91112,11.75135 5.97035,23.46759 8.98224,35.19527 z m 140.41078,-0.91846 c 7.18503,0.27714 14.36777,0.6146 21.55051,0.95511 0,-4.9244 0,-9.84955 0,-14.7747 0,-10.35115 0,-20.70229 0,-31.05344 v -40.27082 c -7.16213,-0.20995 -14.3441,-0.39624 -21.55051,-0.55199 v 11.65743 c 0,24.67998 0,49.35919 0,74.03841 z m 75.35844,-83.03056 v 87.75721 c 26.72532,2.60497 53.39719,5.752 79.99804,9.41131 0,-6.90636 0,-13.81196 0,-20.71832 -17.70794,-2.10718 -35.43574,-4.04869 -53.1834,-5.78635 l -4.86865,-0.4764 v -4.89233 c 0,-10.50155 0,-21.00309 0,-31.50464 0,-10.51071 0,-21.02219 0,-31.5329 v -1.08718 c -7.28658,-0.41991 -14.60292,-0.80928 -21.94599,-1.1704 z M 880.55428,639.0301 c 7.6759,1.93998 15.3381,3.93264 22.9766,6.01615 -5.7298,-32.72925 -11.4391,-65.46309 -17.3132,-98.16715 -0.6001,-3.34095 -1.2009,-6.68113 -1.8033,-10.02132 -6.9461,-0.89326 -13.9303,-1.7598 -20.9527,-2.59809 0.9459,5.70313 1.8995,11.40397 2.8302,17.10939 l 1.1696,7.16594 -7.198,-0.94823 c -7.876,-1.03832 -15.74808,-2.10413 -23.62638,-3.12642 l -5.584,-0.72453 0.9642,-5.54815 2.9806,-17.15367 c -7.1056,-0.76195 -14.2502,-1.49411 -21.4276,-2.19956 -6.2345,30.7427 -12.5789,61.4625 -18.9676,92.17389 7.8309,1.34753 15.6465,2.78591 23.4538,4.26552 2.7806,-15.38471 5.6138,-30.7595 8.431,-46.13734 l 0.9513,-5.1916 5.2107,0.83752 c 11.5925,1.86364 23.17128,3.80896 34.75018,5.75505 l 3.8173,0.64132 0.6154,3.82117 c 2.8989,18.01029 5.7787,36.02592 8.7219,54.03011 z m 112.341,-20.44119 c 2.6095,-13.35693 5.2053,-26.71691 7.75762,-40.0853 1.4445,-7.56676 2.8767,-15.13505 4.3014,-22.70563 -12.26982,-2.30034 -24.70982,-4.5083 -37.30252,-6.62617 1.288,6.85368 2.5706,13.70813 3.8464,20.5641 2.7958,15.03046 5.552,30.06779 8.2974,45.10818 4.3732,1.22308 8.741,2.4683 13.0997,3.74482 z m 27.35062,-59.8592 v 51.36024 c 0,24.73189 0,49.46302 0,74.19491 7.3621,3.04854 14.7059,6.14213 22.0452,9.2464 V 563.18151 c -7.282,-1.51778 -14.6342,-3.00045 -22.0452,-4.4518 z m -90.39202,-15.56108 v 109.3459 c 7.3576,2.26903 14.7006,4.58541 22.0452,6.89567 0,-21.44667 0,-42.89335 0,-64.34002 v -48.48883 c -7.2965,-1.16964 -14.6472,-2.30645 -22.0452,-3.41272 z m -689.06571,63.31392 c -9.88924,2.08504 -19.77925,4.19909 -29.66849,6.25588 0,-26.12217 0,-52.27259 0,-78.42301 0,-26.15042 0,-52.30084 0,-78.42301 9.88924,-0.39472 19.77925,-0.78943 29.66849,-1.18339 0,25.30526 0,50.58227 0,75.88677 0,25.30449 0,50.5815 0,75.88676 z m 26.70242,-179.81277 c -3.75781,-4.5083 -8.9998,-6.79108 -15.62597,-6.79108 -17.30637,0 -34.51502,0 -51.7229,0 -6.62616,0 -11.76891,2.47975 -15.52671,7.43926 -4.15405,5.15649 -6.23069,12.14531 -6.23069,20.93744 0,30.18002 0,60.3318 0,90.48434 0,30.15177 0,60.30431 0,90.45608 0,8.62265 1.8789,14.82203 5.43897,18.82415 3.85705,4.19833 9.18379,5.2481 16.21918,3.32492 17.29339,-4.72665 34.59671,-9.09066 51.92064,-13.04696 7.1041,-1.62238 12.55986,-5.12824 16.31767,-10.76419 3.65932,-5.24199 5.43973,-11.72234 5.43973,-19.44408 0,-27.10858 0,-54.24541 0,-81.35398 0,-27.10858 0,-54.21716 0,-81.35398 0,-7.89124 -2.07664,-14.11812 -6.22992,-18.71192 z m 82.77632,-6.79108 c 0,28.26371 0,56.52818 0,84.73539 0,28.23623 0,56.47169 0,84.6789 -9.89001,1.21163 -19.77925,2.45151 -29.66926,3.83186 0,-28.85616 0,-57.73981 0,-86.59521 0,-28.85616 0,-57.76806 0,-86.65171 -10.97719,0 -21.85589,0 -32.7346,0 0,30.96869 0,61.93814 0,92.9076 0,30.96869 0,61.93814 0,92.90683 0,7.637 1.87891,13.30043 5.43974,17.04831 3.85706,3.97311 9.19067,5.22978 16.21842,4.05785 17.30026,-2.88516 34.61121,-5.51379 51.92063,-7.89048 7.11785,-0.97724 12.55987,-3.74788 16.31844,-8.59516 3.65932,-4.53731 5.43897,-10.31373 5.43897,-17.41478 0,-28.8554 0,-57.68331 0,-86.51046 0,-28.82792 0,-57.65507 0,-86.51123 -10.97719,0.002 -21.95515,0.002 -32.93234,0.002 z m 80.00722,30.23652 c 9.98849,-0.113 19.97699,-0.19698 30.06474,-0.30997 0,8.36917 0,16.76659 0,25.13577 0,8.36917 0,16.76659 0,25.13576 -10.08699,0.28172 -20.07625,0.59169 -30.06474,0.87341 0,-8.45391 0,-16.93608 0,-25.39 0,-8.48064 0,-16.96281 0,-25.44497 z m 0,80.67754 c 6.03219,-0.25347 12.16439,-0.50694 18.29583,-0.73293 3.26307,13.2447 6.72236,26.46115 9.98849,39.64859 3.26002,13.15996 6.72466,26.34816 10.08699,39.50736 11.07644,-0.56345 22.15288,-1.07115 33.32781,-1.40937 -3.46158,-13.55391 -7.01859,-27.10934 -10.38397,-40.69074 -3.35928,-13.55467 -6.82391,-27.13682 -10.18624,-40.77547 3.46158,-1.6346 6.32918,-4.39607 8.40658,-8.08745 2.1759,-3.71964 3.26384,-7.86223 3.26384,-12.39878 0,-10.53896 0,-21.10617 0,-31.67414 0,-10.53895 0,-21.13441 0,-31.70162 0,-7.10104 -1.97815,-12.65301 -5.93369,-16.65436 -3.75857,-3.94486 -8.9998,-5.94592 -15.72446,-5.94592 -24.72426,0 -49.44851,0 -74.07352,0 0,32.49105 0,64.98134 0,97.4159 0,32.4628 0,64.9256 0,97.36015 10.97719,-1.01465 21.95515,-2.00106 32.93234,-2.9867 0,-13.46992 0,-26.93908 0,-40.43726 0,-13.46992 0,-26.96733 0,-40.43726 z m 238.63748,-80.87452 c 0,-10.00376 0,-20.00753 0,-30.03954 -30.06474,0 -60.03023,0 -89.99572,0 0,9.80602 0,19.61281 0,29.39135 9.59302,0.0282 19.18604,0.0847 28.87831,0.113 0,26.43214 0,52.86505 0,79.26817 0,26.43291 0,52.8368 0,79.2407 10.78021,0.36646 21.55966,0.90166 32.33912,1.4086 0,-6.79108 0,-13.6104 0,-20.43049 0,-10.34199 0,-20.71145 0,-31.05344 0,-18.00647 0,-36.04119 0,-54.07591 0,-18.03472 0,-36.06944 0,-54.13317 9.59225,0.0847 19.18527,0.19774 28.77829,0.31073 z m 14.24103,-30.03954 c 0,32.09633 0,64.19267 0,96.26076 0,32.03983 0,64.13617 0,96.17601 30.26247,2.87447 60.52419,6.45286 90.78746,10.70845 0,-10.53896 0,-21.10617 0,-31.70162 -19.38381,-2.33928 -38.76758,-4.48082 -58.0521,-6.36888 0,-10.51071 0,-20.99317 0,-31.50465 0,-10.51071 0,-21.02218 0,-31.53289 14.14254,0.84516 28.28432,1.74682 42.52535,2.78972 0,-10.51071 0,-21.02142 0,-31.53289 -14.24103,-0.73293 -28.38357,-1.35287 -42.52535,-1.94456 0,-13.6104 0,-27.19332 0,-40.77548 19.28528,0.33822 38.66829,0.73293 58.0521,1.18338 0,-10.5672 0,-21.16266 0,-31.75812 -30.26327,7.7e-4 -60.52575,7.7e-4 -90.78746,7.7e-4 z m 166.04734,60.33179 c 1.8789,11.89183 3.9609,23.86765 5.8352,35.81597 1.8835,12.0033 3.9556,24.09363 5.9337,36.21069 -7.9118,-1.04291 -15.82368,-2.11329 -23.63628,-3.12795 1.9782,-11.38488 3.9609,-22.76824 5.9337,-34.20962 1.982,-11.49635 3.9556,-23.07898 5.93368,-34.68909 z M 831.7944,580.1069 c 11.5704,1.85982 23.14158,3.80438 34.71278,5.74894 3.0653,19.04938 6.1314,38.23923 9.2967,57.54207 11.472,2.87446 22.9439,5.86117 34.5151,9.1296 -6.33,-36.12595 -12.5164,-71.66782 -18.7906,-106.60276 -6.1864,-34.44248 -12.4614,-68.41923 -18.6913,-101.9532 v 0 c -1.5827,-8.05919 -3.0661,-16.06191 -4.5495,-24.09286 -12.8569,0 -25.71298,0 -38.56978,0 -6.9232,35.30902 -13.8021,70.20425 -20.768,104.60168 -6.8789,33.96532 -13.8455,67.65883 -20.7679,100.9103 11.3734,1.88806 22.7461,4.00212 34.218,6.19939 3.0646,-17.04832 6.2291,-34.20962 9.3945,-51.48316 z m 183.0568,-160.2282 c -4.8458,18.62641 -9.6602,36.9795 -14.4388,55.03407 -4.71602,17.81789 -9.59302,35.393 -14.34032,52.69555 -4.8465,-18.54166 -9.664,-36.86574 -14.4388,-54.89359 -4.719,-17.81636 -9.593,-35.4495 -14.3402,-52.83603 -10.978,0 -21.9552,0 -32.8339,0 0,39.45162 0,78.93072 0,118.35333 0,39.42337 0,78.87422 0,118.26934 10.8787,3.32492 21.8559,6.81933 32.8339,10.25724 0,-23.89665 0,-47.79254 0,-71.68843 0,-23.89589 0,-47.79178 0,-71.68843 2.9668,15.66795 5.9436,31.44662 8.9005,47.34132 2.9768,16.00388 5.9337,32.15283 8.9006,48.41172 7.3186,2.02854 14.6365,4.11434 21.9551,6.31238 2.96692,-15.16025 5.94672,-30.45946 8.90052,-45.93197 2.9799,-15.60917 5.9337,-31.3634 8.9006,-47.25735 0,25.9252 0,51.87865 0,77.83133 0,25.92519 0,51.87787 0,77.80307 10.8787,4.48081 21.8559,9.13036 32.8338,13.7799 0,-46.94662 0,-93.92148 0,-140.86887 0,-46.94661 0,-93.95048 0,-140.92536 -10.9764,7.7e-4 -21.9543,7.7e-4 -32.833,7.8e-4 z"
   id="path2021" /><path
   style="clip-rule:evenodd;fill:#b6b6b7;fill-rule:evenodd;stroke-width:0.763471"
   d="m 92.83659,557.4318 c 2.10565,9.57546 4.2281,19.14787 6.3559,28.71798 l 0.12826,0.57871 v 0.59245 c 0,16.60703 0,33.21406 0,49.82109 0,13.96618 0,27.93236 0,41.89778 7.98133,-3.07221 15.97793,-6.10548 24.02263,-9.00743 0,-7.80726 0,-15.61452 0,-23.42254 0,-15.80844 0,-31.61764 0,-47.42608 0,-6.68801 0,-13.37602 0,-20.06403 v -0.5642 l 0.11681,-0.55199 c 1.92013,-9.07691 3.86316,-18.14924 5.82299,-27.21775 -5.47943,0.94745 -10.93367,1.9102 -16.35202,2.89202 l -1.28416,7.09035 -1.3002,-6.61548 c -5.87338,1.07268 -11.71317,2.16445 -17.51021,3.27912 z m 90.94242,-15.32897 v 87.09223 c 0,4.83353 0.63139,11.43145 4.04563,15.20529 2.88134,3.1852 6.96515,2.78743 10.79625,1.74072 17.28804,-4.7259 34.66923,-9.11203 52.14204,-13.10271 5.45424,-1.24598 9.90069,-3.80285 13.03093,-8.4982 l 0.0321,-0.0481 0.0328,-0.0473 c 3.36004,-4.81216 4.46784,-10.57408 4.46784,-16.35585 v -76.72126 c -7.42171,0.80546 -14.80295,1.64146 -22.14373,2.50724 v 72.60765 4.37545 l -4.28154,0.90243 c -9.89459,2.08656 -19.78307,4.19908 -29.68301,6.25893 l -6.49256,1.35058 v -6.63227 -73.73072 c -7.36291,1.00091 -14.67773,2.03389 -21.94674,3.09588 z m 109.47873,-13.31265 v 76.9037 c 0,4.44417 0.70545,9.94956 3.93493,13.31188 3.01266,3.13635 7.41178,3.14626 11.44139,2.47442 17.31934,-2.88821 34.67992,-5.52602 52.07485,-7.91338 5.03051,-0.69094 9.61058,-2.45762 12.78815,-6.55593 l 0.0641,-0.0809 c 3.23177,-4.0067 4.24337,-8.97843 4.24337,-14.02802 v -70.96469 c -7.41254,0.47793 -14.79378,0.9864 -22.14372,1.52311 v 65.8349 4.77399 l -4.73887,0.58024 c -9.86787,1.20857 -19.73268,2.44616 -29.57917,3.82042 l -6.1406,0.85736 v -6.20015 -66.38917 c -7.34994,0.65353 -14.66552,1.33836 -21.94446,2.05221 z m 179.5196,74.8179 c 7.4324,-0.36647 14.86632,-0.70087 22.30329,-0.96885 -2.93173,-11.40244 -5.89476,-22.79725 -8.72648,-34.22489 -3.36996,-13.60048 -6.83383,-27.17729 -10.18776,-40.78159 l -1.05664,-4.2846 3.99066,-1.88424 c 2.03236,-0.95969 3.67001,-2.46602 4.9702,-4.2533 -27.45519,0.6833 -54.58286,1.7682 -81.33413,3.23788 v 88.29393 c 7.38048,-0.67567 14.76172,-1.34142 22.14372,-2.00487 0,-11.83534 0,-23.67067 0,-35.506 0,-13.47909 0,-26.95817 0,-40.43726 v -5.17252 l 5.16794,-0.21759 c 6.10777,-0.25653 12.21554,-0.50923 18.32408,-0.73369 l 4.38614,-0.1611 1.04977,4.2617 c 3.26003,13.23096 6.71015,26.41458 9.98697,39.64172 2.91112,11.75135 5.97035,23.46759 8.98224,35.19527 z m 140.41078,-0.91846 c 7.18503,0.27714 14.36777,0.6146 21.55051,0.95511 0,-4.9244 0,-9.84955 0,-14.7747 0,-10.35115 0,-20.70229 0,-31.05344 v -40.27082 c -7.16213,-0.20995 -14.3441,-0.39624 -21.55051,-0.55199 v 11.65743 c 0,24.67998 0,49.35919 0,74.03841 z m 75.35844,-83.03056 v 87.75721 c 26.72532,2.60497 53.39719,5.752 79.99804,9.41131 0,-6.90636 0,-13.81196 0,-20.71832 -17.70794,-2.10718 -35.43574,-4.04869 -53.1834,-5.78635 l -4.86865,-0.4764 v -4.89233 c 0,-10.50155 0,-21.00309 0,-31.50464 0,-10.51071 0,-21.02219 0,-31.5329 v -1.08718 c -7.28658,-0.41991 -14.60292,-0.80928 -21.94599,-1.1704 z M 880.55428,639.0301 c 7.6759,1.93998 15.3381,3.93264 22.9766,6.01615 -5.7298,-32.72925 -11.4391,-65.46309 -17.3132,-98.16715 -0.6001,-3.34095 -1.2009,-6.68113 -1.8033,-10.02132 -6.9461,-0.89326 -13.9303,-1.7598 -20.9527,-2.59809 0.9459,5.70313 1.8995,11.40397 2.8302,17.10939 l 1.1696,7.16594 -7.198,-0.94823 c -7.876,-1.03832 -15.74808,-2.10413 -23.62638,-3.12642 l -5.584,-0.72453 0.9642,-5.54815 2.9806,-17.15367 c -7.1056,-0.76195 -14.2502,-1.49411 -21.4276,-2.19956 -6.2345,30.7427 -12.5789,61.4625 -18.9676,92.17389 7.8309,1.34753 15.6465,2.78591 23.4538,4.26552 2.7806,-15.38471 5.6138,-30.7595 8.431,-46.13734 l 0.9513,-5.1916 5.2107,0.83752 c 11.5925,1.86364 23.17128,3.80896 34.75018,5.75505 l 3.8173,0.64132 0.6154,3.82117 c 2.8989,18.01029 5.7787,36.02592 8.7219,54.03011 z m 112.341,-20.44119 c 2.6095,-13.35693 5.2053,-26.71691 7.75762,-40.0853 1.4445,-7.56676 2.8767,-15.13505 4.3014,-22.70563 -12.26982,-2.30034 -24.70982,-4.5083 -37.30252,-6.62617 1.288,6.85368 2.5706,13.70813 3.8464,20.5641 2.7958,15.03046 5.552,30.06779 8.2974,45.10818 4.3732,1.22308 8.741,2.4683 13.0997,3.74482 z m 27.35062,-59.8592 v 51.36024 c 0,24.73189 0,49.46302 0,74.19491 7.3621,3.04854 14.7059,6.14213 22.0452,9.2464 V 563.18151 c -7.282,-1.51778 -14.6342,-3.00045 -22.0452,-4.4518 z m -90.39202,-15.56108 v 109.3459 c 7.3576,2.26903 14.7006,4.58541 22.0452,6.89567 0,-21.44667 0,-42.89335 0,-64.34002 v -48.48883 c -7.2965,-1.16964 -14.6472,-2.30645 -22.0452,-3.41272 z"
   id="path2023" /><path
   style="fill:#fefefe;stroke-width:0.763471"
   d="m 448.37222,113.14798 13.03169,-5.02059 -1.275,-6.82925 -7.17739,2.76529 -2.87371,-7.459885 5.66572,-2.18276 -2.27361,-5.9024 -5.66649,2.18276 -3.1287,-8.12104 7.45987,-2.87447 -3.63565,-5.91996 -13.3157,5.12977 z m 32.03449,-10.80083 c 4.01891,-1.21774 4.93508,-3.081375 3.76086,-6.955235 l -3.50662,-11.57422 c -0.79172,-2.61489 -2.34462,-3.202 -4.57243,-2.52709 l -4.40676,1.33531 c -0.72606,0.21988 -1.12383,0.12903 -1.34371,-0.5978 l -1.93693,-6.39178 c -0.16109,-0.5329 0.0557,-0.86272 0.63674,-1.03909 l 7.94239,-2.40569 -3.19131,-6.17114 -9.6854,2.93402 c -3.29361,0.99785 -4.20291,3.22948 -3.3669,5.99019 l 3.60892,11.91321 c 1.05589,3.48677 3.0432,3.41348 5.12595,2.78209 l 3.63183,-1.10016 c 0.96809,-0.29394 1.32234,-0.34738 1.61551,0.6207 l 1.93693,6.39178 c 0.16109,0.5329 0.026,0.78485 -0.60315,0.97572 l -7.55454,2.28889 3.2394,6.155865 z m 7.1041,-39.521105 -0.69781,7.06211 4.83201,-0.8589 5.22291,29.39364 7.3736,-1.31011 -5.2229,-29.39365 4.83201,-0.85814 -2.98823,-6.40705 z m 36.19847,1.01924 c 0.50389,-0.0489 0.67873,0.18857 0.72224,0.64208 l 2.13925,22.26282 c 0.0534,0.55352 -0.0283,0.765 -0.63292,0.82302 l -3.42493,0.32906 -2.27896,-23.72335 z m 7.7187,-2.72407 c -0.25653,-2.66909 -1.88654,-4.29224 -4.75719,-4.01586 l -14.3044,1.37425 3.50891,36.51683 12.94466,-1.24369 c 4.18077,-0.40159 5.53669,-2.15833 5.14961,-6.18794 z m 17.54457,16.72613 10.77639,0.16415 0.5978,-6.0131 -10.7764,-0.16415 z m 45.141,-14.97625 c 0.27562,-2.87142 -1.43303,-4.66176 -3.85095,-4.89385 l -11.08026,-1.06428 -1.91249,6.67884 8.91505,0.85662 c 0.40235,0.0389 0.6856,0.26874 0.64208,0.72301 l -0.45961,4.78467 c -0.029,0.30234 -0.0985,0.49855 -0.581,0.75736 l -7.40872,4.62588 c -1.92472,0.98411 -2.62864,2.49273 -2.85081,4.8091 l -1.26278,13.14622 14.80753,1.42234 1.96288,-6.67426 -8.81427,-0.84669 0.54664,-5.69092 c 0.0344,-0.35272 0.113,-0.65048 0.43442,-0.82302 l 7.42781,-4.82743 c 1.7682,-0.94823 2.40952,-1.80179 2.58893,-3.66542 z m 20.6855,5.49699 c 0.49854,0.0886 0.60314,0.36418 0.52374,0.81233 L 611.41,91.200465 c -0.097,0.54817 -0.2321,0.72987 -0.8299,0.62299 l -2.64008,-0.46877 c -0.5978,-0.10613 -0.66193,-0.32372 -0.56497,-0.87112 l 3.91279,-22.02081 c 0.0794,-0.44816 0.27409,-0.67109 0.77187,-0.58253 z m -15.0694,22.91636 c -0.50466,2.83935 0.70926,5.2649 3.99753,5.84971 l 8.86772,1.57505 c 3.28751,0.58481 5.26261,-1.275 5.76727,-4.11435 l 4.64725,-26.155 c 0.50389,-2.84012 -0.70927,-5.26566 -3.99678,-5.84972 l -8.86771,-1.57581 c -3.28828,-0.58405 -5.26338,1.275 -5.76803,4.11512 z m 50.78917,-15.65727 c 0.82684,-2.76301 -0.5016,-4.8511 -2.82866,-5.54739 l -10.66417,-3.19283 -3.1707,6.18106 8.57989,2.56832 c 0.38785,0.11605 0.6207,0.397 0.49015,0.83371 l -1.37883,4.60449 c -0.087,0.29089 -0.19316,0.4703 -0.7169,0.63063 l -8.16456,3.10199 c -2.07893,0.59245 -3.06228,1.9354 -3.72956,4.1655 l -3.78758,12.651485 14.25096,4.26628 3.21956,-6.166565 -8.48293,-2.53931 1.63993,-5.4779 c 0.10154,-0.33975 0.23668,-0.61612 0.58558,-0.72301 l 8.22335,-3.29591 c 1.91861,-0.58711 2.71338,-1.30019 3.2501,-3.09358 z m 8.41498,5.28016 2.82713,1.1078 -8.402,21.435225 -2.21483,-0.86806 -2.49273,6.35971 11.54216,4.52433 2.49273,-6.36048 -2.30797,-0.90471 10.8955,-27.794945 -7.30184,-2.86225 z"
   id="path2025" /><polygon
   style="clip-rule:evenodd;fill:#fefefe;fill-rule:evenodd"
   points="959.995,988.476 946.739,975.897 903.591,975.813 959.995,988.476 994.855,1042.119 981.443,1001.107 959.995,988.476 959.995,934.834 973.251,975.897 1016.399,975.813 959.995,988.476 959.995,1016.69 925.135,1042.119 "
   id="polygon2027"
   transform="matrix(0.76347135,0,0,0.76347135,-179.00426,62.471035)" /><polygon
   style="clip-rule:evenodd;fill:#b6b6b7;fill-rule:evenodd"
   points="946.739,975.897 959.995,934.834 959.995,988.476 981.443,1001.107 1016.399,975.813 959.995,988.476 959.995,1016.69 994.855,1042.119 959.995,988.476 903.591,975.813 938.548,1001.107 925.135,1042.119 959.995,988.476 "
   id="polygon2029"
   transform="matrix(0.76347135,0,0,0.76347135,-179.00426,62.471035)" /><polygon
   style="clip-rule:evenodd;fill:#fefefe;fill-rule:evenodd"
   points="851.226,1001.193 843.495,993.856 818.33,993.807 851.226,1001.193 871.557,1032.479 863.735,1008.56 851.226,1001.193 851.226,969.907 858.957,993.856 884.123,993.807 851.226,1001.193 851.226,1017.648 830.895,1032.479 "
   id="polygon2031"
   transform="matrix(0.76347135,0,0,0.76347135,-179.00426,62.471035)" /><polygon
   style="clip-rule:evenodd;fill:#b6b6b7;fill-rule:evenodd"
   points="843.495,993.856 851.226,969.907 851.226,1001.193 863.735,1008.56 884.123,993.807 851.226,1001.193 851.226,1017.648 871.557,1032.479 851.226,1001.193 818.33,993.807 838.717,1008.56 830.895,1032.479 851.226,1001.193 "
   id="polygon2033"
   transform="matrix(0.76347135,0,0,0.76347135,-179.00426,62.471035)" /><polygon
   style="clip-rule:evenodd;fill:#fefefe;fill-rule:evenodd"
   points="1068.765,1001.193 1076.496,993.856 1101.661,993.807 1068.765,1001.193 1048.433,1032.479 1056.256,1008.56 1068.765,1001.193 1068.765,969.907 1061.033,993.856 1035.868,993.807 1068.765,1001.193 1068.765,1017.648 1089.096,1032.479 "
   id="polygon2035"
   transform="matrix(0.76347135,0,0,0.76347135,-179.00426,62.471035)" /><polygon
   style="clip-rule:evenodd;fill:#b6b6b7;fill-rule:evenodd"
   points="1076.496,993.856 1068.765,969.907 1068.765,1001.193 1056.256,1008.56 1035.868,993.807 1068.765,1001.193 1068.765,1017.648 1048.433,1032.479 1068.765,1001.193 1101.661,993.807 1081.273,1008.56 1089.096,1032.479 1068.765,1001.193 "
   id="polygon2037"
   transform="matrix(0.76347135,0,0,0.76347135,-179.00426,62.471035)" />
</svg>
